<svg xmlns="http://www.w3.org/2000/svg" viewBox="0 0 220 140" width="220px" height="140px">
  <g id="conrad_logo" transform="translate(-9668 -1699)">
    <rect id="Rectangle_27003" data-name="Rectangle 27003" fill="none" transform="translate(9668 1699)"/>
    <g id="Group_58480" data-name="Group 58480" transform="translate(9707.225 1751.639)">
      <path id="Path_54986" data-name="Path 54986" fill="#b3874e" d="M314.515,5.712l-4.592,11.733a2.773,2.773,0,0,0-.251.973c0,.506.366.842,1.149,1.146h-5.93a2.834,2.834,0,0,0,1.893-1.759L314.515.35,322.25,17.8a2.84,2.84,0,0,0,1.9,1.759h-5.927c.783-.3,1.149-.64,1.149-1.146a2.59,2.59,0,0,0-.258-.973Z" transform="translate(-205.383 -0.236)"/>
      <path id="Path_54987" data-name="Path 54987" fill="#b3874e" d="M10.594,2.014c-4.364,0-7.18,3.045-7.18,7.66,0,4.667,2.7,7.725,7.121,7.725A7.558,7.558,0,0,0,16.6,14.559l-.336,3.864a19.078,19.078,0,0,1-6.23,1.11C3.809,19.533,0,15.189,0,9.817,0,4.22,4.2.17,10.007.17a45.645,45.645,0,0,1,4.915.444A1.113,1.113,0,0,0,15.979,0V4.471s-1.325-2.458-5.385-2.458"/>
      <path id="Path_54988" data-name="Path 54988" fill="#b3874e" d="M83.74,17.765c-3.433,0-6.084-3.378-6.084-7.761,0-4.337,2.679-7.516,6.309-7.516,3.688,0,6.093,2.983,6.093,7.6,0,4.5-2.637,7.676-6.319,7.676M83.857.5c-5.535,0-9.337,3.887-9.337,9.533,0,5.584,4.057,9.834,9.337,9.834s9.3-4.249,9.3-9.834c0-5.646-3.8-9.533-9.3-9.533" transform="translate(-50.199 -0.337)"/>
      <path id="Path_54989" data-name="Path 54989" fill="#b3874e" d="M168.121,14.05V3.991c0-2.007-.2-2.34-1.622-2.813h5.532c-1.289.614-1.377.842-1.377,2.856V20L156.418,6.468V16.915c0,1.818.222,2.157,1.759,2.719H152.25c1.136-.414,1.58-.9,1.58-2.693V.45Z" transform="translate(-102.56 -0.303)"/>
      <path id="Path_54990" data-name="Path 54990" fill="#b3874e" d="M251,7.351a4.317,4.317,0,0,1-3.339,4.465l3.593,4.351c1.6,2.014,3.26,4.07,4.853,5.078h-4l-7.869-9.664c1.9-.395,3.659-1.534,3.659-3.724a3.23,3.23,0,0,0-3.486-3.143,6.686,6.686,0,0,0-1.766.225V17.331c0,1.289.013,3.414,1.726,3.92l-.47-.007H238.77l-.45.007c1.8-.506,1.674-2.657,1.674-3.92V6.8c0-1.289.222-3.466-1.387-3.939h6.56c2.454,0,5.829.917,5.829,4.491" transform="translate(-160.539 -1.927)"/>
      <path id="Path_54991" data-name="Path 54991" fill="#b3874e" d="M386.574,19.093H385.2c-1.146,0-1.534-.447-1.534-1.762V4.658h2.653c4.608,0,7.435,3.055,7.435,7.471,0,4.328-2.964,6.965-7.18,6.965m10.483-7.033c0-6.217-4.651-9.21-10.712-9.21H379.4c1.573.555,1.648.956,1.648,2.745V18.561c0,1.8-.4,2.272-1.648,2.686h5.95c7.2,0,11.707-3.28,11.707-9.187" transform="translate(-255.575 -1.92)"/>
      <path id="Path_54992" data-name="Path 54992" fill="#b3874e" d="M45.884,95.035c.023,0,.046-.013.046-.059v-.17c0-1.23,0-1.456-.016-1.72s-.078-.4-.346-.457a1.439,1.439,0,0,0-.313-.02c-.091,0-.14-.02-.14-.075s.059-.075.173-.075c.434,0,.946.026,1.165.026.193,0,.7-.026,1.022-.026.108,0,.17.016.17.075s-.049.075-.144.075a1.391,1.391,0,0,0-.238.02c-.215.039-.281.176-.294.457-.023.264-.023.49-.023,1.72v1.429a17.21,17.21,0,0,0,.046,1.73c.023.232.075.408.313.437a3.34,3.34,0,0,0,.411.029c.095,0,.131.029.131.072s-.062.078-.163.078c-.525,0-1.038-.026-1.263-.026-.186,0-.7.026-1.015.026q-.166,0-.166-.078c0-.042.033-.072.134-.072a1.317,1.317,0,0,0,.287-.029c.163-.026.2-.206.238-.447.039-.336.039-.976.039-1.72v-.718a.045.045,0,0,0-.046-.046H42.8c-.029,0-.052.007-.052.046v.718c0,.747,0,1.384.039,1.73.029.232.075.408.32.437a3.441,3.441,0,0,0,.414.029c.091,0,.127.029.127.072s-.062.078-.16.078c-.522,0-1.038-.026-1.263-.026-.183,0-.692.026-1.018.026-.108,0-.163-.026-.163-.078s.036-.072.127-.072a1.384,1.384,0,0,0,.294-.029c.166-.026.2-.206.232-.447a16.925,16.925,0,0,0,.046-1.72V94.807c0-1.23,0-1.456-.016-1.72s-.082-.4-.352-.457a1.473,1.473,0,0,0-.32-.02c-.085,0-.131-.02-.131-.075s.055-.075.17-.075c.437,0,.946.026,1.165.026.193,0,.708-.026,1.025-.026.108,0,.17.016.17.075s-.049.075-.147.075a1.441,1.441,0,0,0-.238.02c-.219.039-.284.176-.3.457-.02.264-.02.49-.02,1.72v.17c0,.042.023.059.052.059Z" transform="translate(-27.565 -62.284)"/>
      <path id="Path_54993" data-name="Path 54993" fill="#b3874e" d="M72.14,98.056c-1.554,0-2.484-1.335-2.484-3.022,0-2.02,1.067-2.536,1.994-2.536,1.328,0,2.376,1.126,2.376,2.941,0,2.343-1.315,2.618-1.886,2.618m-.258-5.946a3.181,3.181,0,1,0-.078,6.358,3.208,3.208,0,0,0,3.352-3.329,2.939,2.939,0,0,0-3.273-3.029" transform="translate(-46.171 -62.048)"/>
      <path id="Path_54994" data-name="Path 54994" fill="#b3874e" d="M96.211,92.685l-1.2.029c-.473.02-.669.059-.787.242a1.33,1.33,0,0,0-.144.281c-.013.065-.036.1-.088.1s-.072-.039-.072-.127c0-.127.157-.865.17-.93.02-.108.049-.157.095-.157a1.607,1.607,0,0,0,.346.1c.235.023.542.039.809.039h3.211a4.463,4.463,0,0,0,.558-.039,1.4,1.4,0,0,1,.219-.039c.059,0,.065.046.065.17,0,.173-.023.731-.023.94-.01.085-.026.131-.078.131s-.078-.039-.082-.16l-.013-.091c-.013-.209-.235-.437-.956-.454l-1.018-.023v3.322c0,.747,0,1.384.039,1.73.026.232.075.408.317.437a3.441,3.441,0,0,0,.414.029c.088,0,.131.029.131.072s-.059.078-.15.078c-.535,0-1.044-.026-1.27-.026-.186,0-.7.026-1.018.026-.111,0-.17-.026-.17-.078s.039-.072.134-.072a1.351,1.351,0,0,0,.29-.029c.163-.026.212-.206.235-.447.039-.336.039-.976.039-1.72V92.685Z" transform="translate(-63.267 -62.055)"/>
      <path id="Path_54995" data-name="Path 54995" fill="#b3874e" d="M119.032,94.682c0-1.23,0-1.456-.013-1.72s-.085-.4-.352-.457a1.456,1.456,0,0,0-.317-.02c-.088,0-.14-.02-.14-.075s.055-.075.179-.075c.219,0,.45.007.653.007s.4.016.512.016c.258,0,1.87,0,2.023-.007s.284-.033.349-.046a.587.587,0,0,1,.127-.036c.039,0,.052.036.052.072a5,5,0,0,0-.065.529c-.007.082-.023.437-.042.532-.007.042-.023.095-.078.095s-.075-.042-.075-.114a.9.9,0,0,0-.049-.29c-.052-.15-.14-.248-.542-.3-.134-.013-.989-.029-1.155-.029-.039,0-.052.026-.052.082V94.9c0,.052.007.091.052.091.186,0,1.119,0,1.3-.02a.576.576,0,0,0,.388-.124c.052-.059.085-.1.127-.1s.055.013.055.062-.033.183-.065.587c-.01.163-.036.49-.036.548s0,.153-.072.153a.066.066,0,0,1-.075-.072,1.494,1.494,0,0,0-.036-.3c-.039-.163-.153-.284-.45-.313-.153-.023-.953-.026-1.152-.026-.039,0-.046.036-.046.078v.643c0,.274-.01,1.018,0,1.253.013.558.144.682.969.682a1.966,1.966,0,0,0,.76-.1c.212-.095.31-.264.366-.6.02-.085.036-.121.091-.121s.065.069.065.15a6.09,6.09,0,0,1-.108.894c-.052.215-.131.215-.434.215-.61,0-1.057-.02-1.4-.026s-.6-.026-.845-.026c-.088,0-.268,0-.463.013s-.395.013-.555.013c-.108,0-.166-.026-.166-.078s.033-.072.134-.072a1.35,1.35,0,0,0,.29-.029c.163-.026.2-.206.235-.447.042-.336.042-.976.042-1.72v-1.43Z" transform="translate(-79.63 -62.156)"/>
      <path id="Path_54996" data-name="Path 54996" fill="#b3874e" d="M141.3,96.243c0,1.038,0,1.6.173,1.743.134.121.349.173.979.173.434,0,.744-.007.95-.225a.949.949,0,0,0,.209-.486c.007-.072.023-.117.088-.117s.065.036.065.137a6.4,6.4,0,0,1-.121.933c-.046.176-.088.219-.509.219-.584,0-1.005-.02-1.367-.026s-.656-.026-.992-.026c-.088,0-.264,0-.457.013s-.4.013-.558.013c-.108,0-.163-.026-.163-.078s.033-.072.127-.072a1.338,1.338,0,0,0,.294-.029c.16-.026.2-.206.235-.447.042-.336.042-.976.042-1.72V94.817c0-1.23,0-1.456-.02-1.72s-.075-.4-.349-.457a1.051,1.051,0,0,0-.268-.02c-.088,0-.137-.02-.137-.075s.055-.075.176-.075c.382,0,.894.026,1.11.026.2,0,.79-.026,1.11-.026.111,0,.17.016.17.075s-.049.075-.15.075a2.122,2.122,0,0,0-.313.02c-.219.039-.287.176-.3.457-.013.264-.013.49-.013,1.72v1.426Z" transform="translate(-93.985 -62.291)"/>
      <path id="Path_54997" data-name="Path 54997" fill="#b3874e" d="M160.657,98.249c-.134-.059-.157-.095-.157-.271,0-.45.033-.937.042-1.061s.033-.215.1-.215.075.072.075.137a1.526,1.526,0,0,0,.078.414,1.117,1.117,0,0,0,1.155.819.982.982,0,0,0,1.084-.924c0-.395-.124-.773-.8-1.3l-.372-.294a2.4,2.4,0,0,1-1.195-1.922c0-.884.744-1.527,1.867-1.527a4.207,4.207,0,0,1,1.08.137c.069.02.111.046.111.1,0,.108-.036.336-.036.973,0,.173-.023.245-.088.245s-.082-.049-.082-.147a.97.97,0,0,0-.209-.532,1.022,1.022,0,0,0-.878-.4c-.61,0-.966.346-.966.832,0,.372.186.653.855,1.168l.225.17c.982.734,1.328,1.3,1.328,2.066a1.638,1.638,0,0,1-.757,1.41,2.327,2.327,0,0,1-1.292.336,2.752,2.752,0,0,1-1.172-.219" transform="translate(-108.118 -62.048)"/>
      <path id="Path_54998" data-name="Path 54998" fill="#b3874e" d="M195.039,97.959a1.573,1.573,0,0,1-1.554-1.671,1.447,1.447,0,0,1,.558-1.227c.137.2.653.783.865,1.012s.992.986,1.459,1.39a2.113,2.113,0,0,1-1.328.5m4.311.238a2.289,2.289,0,0,1-.868-.281,7.92,7.92,0,0,1-1.126-.8,3.212,3.212,0,0,0,.8-1.919c0-.091-.124-.14-.277-.16a8.7,8.7,0,0,0-.973-.052c-.065,0-.134.013-.134.078,0,.042.052.062.1.062a.608.608,0,0,1,.4.124.468.468,0,0,1,.153.372,2.483,2.483,0,0,1-.388,1.253c-.15-.14-1.152-1.038-1.433-1.358-.64-.721-1.338-1.364-1.338-2.131a.859.859,0,0,1,.865-.92,1.11,1.11,0,0,1,.9.362,1.053,1.053,0,0,1,.235.685c0,.117.01.153.055.153s.082-.02.1-.137A10.258,10.258,0,0,0,196.5,92.5c0-.1,0-.163-.137-.212a2.794,2.794,0,0,0-.982-.173c-1.407,0-1.975.849-1.971,1.492a1.8,1.8,0,0,0,.418,1.152,2.37,2.37,0,0,0-1.322,1.919c0,.7.519,1.8,2.252,1.8a2.583,2.583,0,0,0,1.922-.744,2.415,2.415,0,0,0,1.913.623h.62c.176,0,.245-.026.245-.069,0-.072-.039-.082-.111-.082" transform="translate(-129.681 -62.048)"/>
      <path id="Path_54999" data-name="Path 54999" fill="#b3874e" d="M234.639,95.541a.833.833,0,0,1-.574.137,2.163,2.163,0,0,1-.614-.082c-.062-.026-.075-.052-.075-.147V92.989c0-.069.016-.1.075-.114a1.46,1.46,0,0,1,.424-.036,1.3,1.3,0,0,1,1.24,1.485,1.418,1.418,0,0,1-.477,1.217m3.257,2.892a2.084,2.084,0,0,1-.225-.016,1.607,1.607,0,0,1-.9-.552c-.483-.506-1.041-1.227-1.762-2.128a2.276,2.276,0,0,0,1.07-1.815,1.4,1.4,0,0,0-.552-1.11,2.553,2.553,0,0,0-1.488-.352c-.258,0-.868.026-1.146.026-.173,0-.679-.026-1.11-.026-.124,0-.18.016-.18.075s.046.075.14.075a1.741,1.741,0,0,1,.317.02c.268.059.333.186.346.457s.016.49.016,1.72v1.429c0,.747,0,1.384-.039,1.72-.033.242-.072.418-.238.447a1.351,1.351,0,0,1-.291.029c-.1,0-.127.029-.127.072s.055.078.157.078c.33,0,.836-.026.992-.026.121,0,.715.026,1.188.026.108,0,.163-.026.163-.078s-.033-.072-.1-.072a3.58,3.58,0,0,1-.395-.029c-.241-.026-.294-.206-.317-.447-.039-.336-.039-.976-.039-1.73v-.114c0-.049.023-.069.065-.069l.7.016a.167.167,0,0,1,.144.059c.111.114.483.666.806,1.113A3.878,3.878,0,0,0,236.2,98.42a1.677,1.677,0,0,0,.875.153h.77c.095,0,.15-.013.15-.078,0-.033-.029-.062-.1-.062" transform="translate(-156.013 -62.284)"/>
      <path id="Path_55000" data-name="Path 55000" fill="#b3874e" d="M256.612,94.682c0-1.23,0-1.456-.013-1.72s-.082-.4-.352-.457a1.455,1.455,0,0,0-.313-.02c-.095,0-.144-.02-.144-.075s.062-.075.18-.075c.219,0,.454.007.656.007s.4.016.509.016c.261,0,1.877,0,2.027-.007s.287-.033.349-.046a.5.5,0,0,1,.127-.036c.042,0,.052.036.052.072,0,.062-.039.157-.065.529a5.135,5.135,0,0,1-.042.532c0,.042-.016.095-.075.095s-.072-.042-.072-.114a.83.83,0,0,0-.052-.29c-.052-.15-.137-.248-.539-.3-.14-.013-.992-.029-1.152-.029-.046,0-.059.026-.059.082V94.9c0,.052.007.091.059.091.173,0,1.106,0,1.292-.02a.579.579,0,0,0,.392-.124c.059-.059.088-.1.131-.1a.054.054,0,0,1,.059.062c0,.049-.033.183-.068.587-.01.163-.036.49-.036.548s0,.153-.075.153c-.056,0-.069-.033-.069-.072-.01-.082-.01-.193-.029-.3-.042-.163-.16-.284-.454-.313-.157-.023-.959-.026-1.152-.026-.039,0-.046.036-.046.078v.643c0,.274-.01,1.018,0,1.253.013.558.147.682.976.682a1.983,1.983,0,0,0,.757-.1c.212-.095.307-.264.362-.6.02-.085.029-.121.085-.121s.069.069.069.15a7.138,7.138,0,0,1-.1.894c-.056.215-.127.215-.437.215-.61,0-1.054-.02-1.4-.026s-.594-.026-.839-.026c-.088,0-.268,0-.46.013s-.4.013-.558.013c-.108,0-.163-.026-.163-.078s.033-.072.127-.072a1.36,1.36,0,0,0,.294-.029c.163-.026.2-.206.238-.447.036-.336.036-.976.036-1.72v-1.43Z" transform="translate(-172.308 -62.156)"/>
      <path id="Path_55001" data-name="Path 55001" fill="#b3874e" d="M277.777,98.249c-.134-.059-.157-.095-.157-.271,0-.45.036-.937.039-1.061s.033-.215.1-.215.082.072.082.137a1.762,1.762,0,0,0,.069.414,1.123,1.123,0,0,0,1.159.819.986.986,0,0,0,1.087-.924c0-.395-.118-.773-.8-1.3l-.372-.294a2.4,2.4,0,0,1-1.2-1.922c0-.884.747-1.527,1.87-1.527a4.086,4.086,0,0,1,1.077.137c.075.02.114.046.114.1,0,.108-.029.336-.029.973,0,.173-.029.245-.091.245s-.082-.049-.082-.147a.984.984,0,0,0-.206-.532,1.036,1.036,0,0,0-.884-.4.851.851,0,0,0-.966.832c0,.372.183.653.858,1.168l.222.17c.982.734,1.335,1.3,1.335,2.066a1.631,1.631,0,0,1-.764,1.41,2.316,2.316,0,0,1-1.289.336,2.734,2.734,0,0,1-1.178-.219" transform="translate(-187.013 -62.048)"/>
      <path id="Path_55002" data-name="Path 55002" fill="#b3874e" d="M300.26,98.056c-1.557,0-2.487-1.335-2.487-3.022,0-2.02,1.061-2.536,1.994-2.536,1.325,0,2.373,1.126,2.373,2.941-.007,2.343-1.318,2.618-1.88,2.618M300,92.11a3.181,3.181,0,1,0-.082,6.358,3.207,3.207,0,0,0,3.355-3.329A2.938,2.938,0,0,0,300,92.11" transform="translate(-199.832 -62.048)"/>
      <path id="Path_55003" data-name="Path 55003" fill="#b3874e" d="M348.788,92.685l-1.208.029c-.467.02-.666.059-.787.242a1.1,1.1,0,0,0-.137.281c-.013.065-.039.1-.088.1s-.069-.039-.069-.127c0-.127.15-.865.166-.93.023-.108.046-.157.1-.157a1.659,1.659,0,0,0,.349.1c.232.023.542.039.809.039h3.208a4.463,4.463,0,0,0,.558-.039,1.545,1.545,0,0,1,.219-.039c.055,0,.065.046.065.17,0,.173-.026.731-.026.94-.007.085-.02.131-.069.131-.069,0-.082-.039-.091-.16l-.007-.091c-.016-.209-.238-.437-.956-.454l-1.025-.023v3.322a17.227,17.227,0,0,0,.046,1.73c.023.232.072.408.313.437a3.348,3.348,0,0,0,.414.029c.085,0,.127.029.127.072s-.065.078-.153.078c-.535,0-1.044-.026-1.273-.026-.186,0-.7.026-1.018.026-.108,0-.16-.026-.16-.078s.033-.072.127-.072a1.317,1.317,0,0,0,.287-.029c.163-.026.212-.206.235-.447.042-.336.042-.976.042-1.72Z" transform="translate(-233.413 -62.055)"/>
      <path id="Path_55004" data-name="Path 55004" fill="#b3874e" d="M371.607,98.249c-.127-.059-.157-.095-.157-.271,0-.45.036-.937.042-1.061s.036-.215.1-.215.078.072.078.137a1.782,1.782,0,0,0,.072.414,1.123,1.123,0,0,0,1.159.819.987.987,0,0,0,1.09-.924c0-.395-.121-.773-.8-1.3l-.375-.294a2.415,2.415,0,0,1-1.2-1.922c0-.884.751-1.527,1.873-1.527a4.184,4.184,0,0,1,1.08.137c.072.02.111.046.111.1,0,.108-.033.336-.033.973,0,.173-.023.245-.088.245s-.082-.049-.082-.147a.955.955,0,0,0-.212-.532,1.014,1.014,0,0,0-.881-.4.856.856,0,0,0-.966.832c0,.372.189.653.858,1.168l.225.17c.982.734,1.332,1.3,1.332,2.066a1.638,1.638,0,0,1-.764,1.41,2.316,2.316,0,0,1-1.283.336,2.755,2.755,0,0,1-1.185-.219" transform="translate(-250.22 -62.048)"/>
      <path id="Path_55005" data-name="Path 55005" fill="#b3874e" d="M327.482,95.541a.828.828,0,0,1-.574.137,2.131,2.131,0,0,1-.614-.082c-.059-.026-.075-.052-.075-.147V92.989c0-.069.016-.1.075-.114a1.487,1.487,0,0,1,.428-.036,1.3,1.3,0,0,1,1.24,1.485,1.446,1.446,0,0,1-.48,1.217m3.257,2.892a2.2,2.2,0,0,1-.228-.016,1.63,1.63,0,0,1-.907-.552c-.48-.506-1.035-1.227-1.756-2.128a2.279,2.279,0,0,0,1.067-1.815,1.4,1.4,0,0,0-.552-1.11,2.569,2.569,0,0,0-1.492-.352c-.251,0-.865.026-1.142.026-.176,0-.682-.026-1.113-.026-.121,0-.176.016-.176.075s.049.075.134.075a1.739,1.739,0,0,1,.32.02c.268.059.333.186.349.457s.016.49.016,1.72v1.429c0,.747,0,1.384-.036,1.72-.036.242-.075.418-.238.447a1.327,1.327,0,0,1-.29.029c-.1,0-.131.029-.131.072s.056.078.16.078c.326,0,.832-.026.989-.026.121,0,.721.026,1.191.026.108,0,.163-.026.163-.078s-.036-.072-.1-.072a3.693,3.693,0,0,1-.4-.029c-.242-.026-.291-.206-.313-.447-.039-.336-.039-.976-.039-1.73v-.114c0-.049.023-.069.065-.069l.7.016a.185.185,0,0,1,.147.059c.1.114.473.666.8,1.113a3.8,3.8,0,0,0,1.11,1.188,1.637,1.637,0,0,0,.865.153h.773c.1,0,.157-.013.157-.078,0-.033-.039-.062-.1-.062" transform="translate(-218.552 -62.284)"/>
      <path id="Path_55006" data-name="Path 55006" fill="#b3874e" d="M390.04,92.8h.62v2.017h.313V92.8h.64v-.3H390.04Z" transform="translate(-262.743 -62.311)"/>
      <path id="Path_55007" data-name="Path 55007" fill="#b3874e" d="M398.271,92.5l-.842,1.139-.868-1.139h-.271v2.317h.313V93.14c0-.039,0-.088,0-.088a.26.26,0,0,0,.039.052l.725.953h.134l.725-.976a.413.413,0,0,0,.033-.059.468.468,0,0,0-.013.095v1.7h.323V92.5Z" transform="translate(-266.953 -62.311)"/>
    </g>
  </g>
</svg>
