<svg id="Layer_1" data-name="Layer 1" xmlns="http://www.w3.org/2000/svg" viewBox="0 0 220 140"><defs><style>.cls-1{fill:#191d4c;}</style></defs><path class="cls-1" d="M123,26.79c-5.36-2-10.75-2.29-16.65-2.3-2.08,0-2.89,0-3.24,0a1.43,1.43,0,0,0,0-.16c.09-.1-.08-.21-.2-.35s-.4-.11-.42-.46-.44.08-.51.18a.73.73,0,0,1-.55.48l-.15.05s.18-.1,0-.17-.1-.11-.25-.08-.06.15-.14.15-.17-.15-.24-.15-.24-.18-.4.19-.17.19-.12,0a1.26,1.26,0,0,0,0-.61c0-.24-.12-.17-.21-.1s0,.21-.24.34-.17-.09-.07.28-.13.13-.28.18-.17,0-.24.14-.07-.14-.22.14-.15,0-.29.21-.06.43-.29.45-.22-.19-.17-.45a.23.23,0,0,0-.17-.3c-.07-.05-.1.25-.28.36s-.08-.21-.09-.31-.22-.1-.22.12a4.71,4.71,0,0,1-.06.71c0,.38-.15.08-.69-.14s-.41.05-.63,0a.32.32,0,0,1-.26-.36c0-.13.25-.23.3-.35s-.13-.32-.28-.28-.21-.37-.27-.41-.3.22-.34.34,0,.07-.1.15-.18,0-.13.2a.34.34,0,0,1-.06.29s.51-.23.36,0-.27.26-.47.2-.32-.13-.41,0,.07.3-.11.38-.37.15-.45,0,0-.28-.23-.31-.35,0-.23-.28.45-.38.18-.43-.23-.18-.24-.21c0-.22-.23.05-.35,0s0-.27-.3-.13-.36.13-.26.29.09.3-.17.36-.19.22,0,.3.32.1.19.18a.47.47,0,0,1-.42.13c-.13,0-.22-.44-.45-.33s-.24.19-.31.1-.07-.19-.26-.29-.11-.06-.33.06-.1.44-.34.54c-.08,0,0,.23-.23.21s0-.21-.15-.26-.11-.45-.33-.21,0,.53-.22.44-.12.31-.18.34-.08-.61-.34-.2c-.13.17-.33.24-.23.37s.06.31-.2.29-.29-.71-.57-.66-.37.16-.36-.11,0,0-.21-.06-.11-.26-.37-.25a3.06,3.06,0,0,1-.47,0c-.19,0-.4-.12-.26.1a1.63,1.63,0,0,1,.19.37c.07.25.12.15.07.25s0,.28-.07.36-.07-.18-.33,0-.29.14-.31.26.07.22.2.19.09,0,.1.11-.08.23.11.17a.3.3,0,0,0,.18-.08.07.07,0,0,0,0-.11s0-.13,0-.09.07,0,.13,0,.11,0,.14,0l-.06,0s0,.08,0,.09.23.23,0,.25-.07-.06-.36,0-.34,0-.39.18.1.24-.07.26-.14,0-.16,0,0,.13.15.13.07-.13.28,0c0,0,0,.08.05.08s0,.23-.13.35-.44-.14-.51.18-.81.39-.62.62.23-.23.4-.19,0,.24,0,.41.17,0,.42-.1.37.13.43.4-.26.27-.56.24-.09-.26-.24-.18-.13.42-.32.58-.35.22-.4.45.29.25.43-.08.36-.08.36-.08l-.17.53.72.14.5.28.14.28s-.73-.15-.85-.15a3.13,3.13,0,0,0-.75.24c-.09.06-.44,0-.5,0s-.28.27-.38.35a.8.8,0,0,1-.31.16l.28.09,0,.25.41-.06-.16.28a.67.67,0,0,1,.1.36c0,.16.19.39.22.52s-.22,0-.35.09-.43-.17-.54-.3-.07-.47-.21-.5-.26-.43-.21-.64.53-.84.44-.75-.46.08-.46.08-.11-.43-.24-.5-.24.26-.26.36-.21-.38-.3-.26a.85.85,0,0,0,0,.71,1.79,1.79,0,0,1,.19.72c0,.17-.17.33-.31.28s-.15-.64-.15-.59-.22.4-.22.4h-.43l.19.39s-.88.24-.88.34.62,0,.58.17-.22.26-.14.36a.35.35,0,0,1-.16.39.64.64,0,0,0-.24.25l-.36.11.21.36-.56.62s.35,0,.42.16-.25.45-.23.57.4-.17.48-.09-.07.22-.11.35.19.06.31.11-.34.3-.29.4.27,0,.24.19.21.1.34.14-.13.33-.29.45,0,.43-.12.52-.3,0-.49.08-.14.29-.21.42-.27,0-.27.21.34.08.43.07.15.32,0,.42a3.63,3.63,0,0,0-.48.32c-.1.13,0,.33-.08.39s-.25.28-.19.36a.4.4,0,0,0,.46,0,1.56,1.56,0,0,1,.6-.17c.13,0,.14.24,0,.39a.2.2,0,0,0,0,.34c.1,0,.46-.09.49-.26s.23-.59.31-.6.22.12.17.22-.19.23-.07.31-.09.22-.19.32.29.22.29.33-.22.12-.32.25-.19.36-.37.31-.31-.31-.44-.29-.26-.52-.37-.47,0,.59,0,.73-.27-.14-.39-.17-.29-.45-.35-.36a2.28,2.28,0,0,0-.15.53l-.25.11-.11.22.18.16.46-.16s-.05.11,0,.16,0,.2-.09.3.12.11.15.2-.06.2,0,.22.33-.16.37-.21.35-.13.35-.13.22-.11.22-.08-.07.28-.07.28l-.13.27c0,.08.1.08.08.14s-.22.07-.27.15.13.1.09.12-.19.11-.17.19.16,0,.23,0a.4.4,0,0,0,.31,0c.06,0,.15-.2.13-.25s.09-.11.15-.12a.29.29,0,0,0,.2-.12l.2-.36.09.17a.77.77,0,0,0,.06.23s.07.17,0,.23.06.1.1.19-.09.09-.14.14,0,.15,0,.21-.13.15-.08.17a.25.25,0,0,0,.23-.1l.31-.34s0,.19,0,.27.11.13.17.19a.68.68,0,0,1,0,.32s.09-.33.14-.29.19,0,.27,0l.13,0s0,0,0,0,.06,0,0,.07,0,0,0,.09a.3.3,0,0,1-.11.29.74.74,0,0,0-.13.32c0,.11,0,.24-.1.24s-.23.07-.33.08-.19-.14-.26-.29v-.18h-.19l-.14-.17,0,.21-.11,0-.1.09-.22-.1-.09-.17-.12,0a1.77,1.77,0,0,1-.14.28c-.07,0-.14-.12-.22-.07a.46.46,0,0,1-.29.11c-.07,0-.22,0-.15.14s-.07.19-.07.31a.23.23,0,0,1-.2.24c-.07,0-.15-.19-.11-.39l-.12-.09v-.09l-.29,0,0-.12-.49-.22v-.26l0-.3.15-.11-.17-.26,0-.12.12-.21L78.85,44a1.72,1.72,0,0,0-.4,0c-.11,0-.25-.13-.21-.21s0-.26-.1-.35-.1-.3-.15-.27-.1.07-.1.18-.22.22-.24.33a.23.23,0,0,0,.06.19.38.38,0,0,1,.15.21l-.21,0v.08l-.36.15.15.1.22.19.35,0,.06.11-.19.27-.25.21a.43.43,0,0,0-.29.11.34.34,0,0,0,0,.35c.06.12.09.27,0,.31s-.22-.14-.29-.24-.27-.3-.34-.3a.77.77,0,0,1-.39-.2c-.06-.07-.22-.27-.28-.19s0,.12,0,.21a.81.81,0,0,0,0,.45c0,.16,0,.19,0,.19l-.24,0-.19-.41s-.12.08-.12.16-.14.1-.11.24-.06.26-.11.38-.2.23-.21.35-.12.23-.23.1-.07-.15,0-.29,0-.21,0-.21c-.14-.17,0-.23-.11-.36s-.07-.13-.18,0-.14.26-.28.15-.12-.09-.22-.12-.17-.07-.23-.29,0-.29-.06-.46-.12-.24-.16,0,0,.28-.08.43l-.31.43a.4.4,0,0,0-.1.26c0,.12.22.16.13.26s-.23.21-.27.34-.2.22-.13.34a.26.26,0,0,0,.25.09.81.81,0,0,0-.16.3.38.38,0,0,0,0,.28s.5-.24.4,0a1.52,1.52,0,0,1-.35.43c-.08.05-.3.22-.15.22a.67.67,0,0,1,.29.08s.28.13.31-.05.15-.36.27-.33.12,0,.09.2a1.91,1.91,0,0,0,0,.41.27.27,0,0,1,.25.07c.12.1.16.1.21,0s0,0,.26-.19.2-.28.18-.35-.15-.29.09-.13.22.13.35.09.29,0,.15.11-.22.11-.25.28.06.2,0,.33-.17.16,0,.24.18.25.36.2.43-.14.29.08,0,.5-.25.52-.33.1-.46-.21-.09.34-.28.23,0-.3-.33-.33-.24-.1-.47,0-.41.2-.12.2.32.13.17.19-.66.18-.49.32.35-.21.46-.06.15.27,0,.41-.06.11-.13.16-.38.14-.12.17.23-.07.4,0a2.24,2.24,0,0,0,.38.11c.15,0,.3.1.19.25s-.13.17,0,.32,0,.21,0,.29-.16.33,0,.27,0,0,0,.09a.26.26,0,0,0-.12.13l0,.09s-.37.1-.38.21.3.3.3.3l-.16.06.12.24h.25s0,.29.08.25a3.09,3.09,0,0,0,.54-.16l.13.1,0,.16s-.24,0-.29.1a1.3,1.3,0,0,1-.16.31c-.12.09-.08.41-.08.41l-.19.2,0,.24-.24.16,0,.14,0,.29h.21l.13-.16.12-.23.12.12a2.42,2.42,0,0,1,.33-.34,1,1,0,0,1,.4-.1c0,.05-.11.16-.13.28s-.2.18-.2.18l-.08.28-.28.06.19.24-.08.08v.12l-.11.17.15.13.45-.14c.12.07,0,.42-.1.63s0,.25.21.2.19.08.26.18.12.32.22.27.08-.24.26-.21,0,0,.15-.24.11,0,.24-.06.09-.08.22-.3.1,0,.27.06.08.07.37,0,0-.15-.1-.31.32-.07.23-.24-.19-.09-.54-.13,0-.14.12-.16.17-.11.39-.23.25.12.56.12,0-.12.39-.46.14-.07.35-.24.08,0,.07.12,0,.41-.07.49-.05.07-.09.29a.9.9,0,0,1-.1.43c-.1.26-.26.66-.19.57a.54.54,0,0,1,.42,0c.22,0,.38,0,.48.07s-.13.27-.36.29,0,0-.12-.11,0,0-.13.28-.1,0-.2,0-.14-.06-.24,0,0,.14.08.45,0,.22-.13.42-.25,0-.32-.06-.13,0-.23,0-.06-.14-.25-.14,0,.14.11.41,0,.23,0,.6-.27.52-.27.61-.21.21-.13.41,0,0,.47,0,.13,0,.21-.17,0-.18.23-.27.09.09.16.26,0,.11-.07.32-.38.29-.38.29a1.38,1.38,0,0,0-.11.25c0,.14,0,.22,0,.37s.12,0,.35-.11,0,0,.16.29,0,.2,0,.35-.35.31-.25.31h.29c.23,0,.13,0,.13-.15s0-.13.17-.21.08,0,.26,0,.09.16.19.19-.14.5-.14.5a.64.64,0,0,0,.36-.2c.18-.18,0-.12,0-.24s.14-.06.23-.11,0-.12.15-.21.15,0,.41-.08.11-.12.26-.19,0,0,.1,0,.09,0,.18-.22.2-.07.41-.07.09,0,.09-.18-.09-.09-.06-.21.11-.07.21-.15,0-.14-.1-.31.09-.27.15-.34.24.06.26.13,0,.14,0,.28,0,.1.08.34.07-.12.19-.19.2,0,.31-.05a.21.21,0,0,1,.37.08c.08.19-.1.3-.23.38s0,.17,0,.28.21.17.15.37-.15.52,0,.46A2.85,2.85,0,0,1,83,61.9c.17-.07,0,0,.12,0s.15.13.26.13,0,0,.24.26a.24.24,0,0,1,0,.32c.06,0,.13.09.26.22s.2,0,.28-.25-.13-.17-.05-.23a.84.84,0,0,1,.64-.08c.21,0,0,0,0,.15s0,.16.18.16a.73.73,0,0,1,.27,0c.14,0,.06,0,.14.05s.08.07.23,0a.72.72,0,0,1,.28-.07c.21,0,.23.05.41,0s.06-.06.21-.06.11,0,.18-.2,0,0,.14,0,.14,0,.19-.17-.24,0-.3-.12,0,0,.26-.25-.08-.09-.06-.29.1,0,.32-.11.12.05.1.2,0,.13,0,.32-.06.29.07.29.19-.29.26-.45.09-.17.26-.17.17-.14.21-.2.23,0,.2.15-.45.67-.39.81.07-.1.16-.18.21,0,.28-.2.07-.06.3-.06.13.18.13.18l.14-.06c.12,0,.15,0,.28,0s.16-.11.27-.17.1,0,.17,0,.07-.2.19-.38.19.11.23.21.1,0,.11.17-.15.12-.26.22a3.9,3.9,0,0,0-.34.35c-.16.23,0,0-.09.32s-.17.26-.29.36-.11.24.17.12l.16,0,0,0c.12-.09.07-.09.17-.11s.07,0,.2-.06a.22.22,0,0,0,.11-.19.19.19,0,0,1,.23,0c.12.07-.11.19-.17.33s0,.18.17.12.07.07.1.2,0,0,.27,0,0-.21,0-.35a1,1,0,0,0,0-.19.26.26,0,0,1,.08-.29c.14-.16.09-.22,0-.45s.11-.07.27-.12.11,0,.19.17,0,.1,0,.32,0,0,.41-.09,0,.08.09.28,0,0,.36,0,0,.09,0,.37.15,0,.25-.1.06-.11.14.06.11.06.23,0,0-.21-.1-.58,0-.06.27-.29A.27.27,0,0,1,93,62v1.25c0,7.94-1.27,8.84-5.66,9.44l-1.74.21a1.49,1.49,0,0,0,.14,1.91c3.56-.15,6.88-.2,10.06-.2,2.64,0,7.48.59,12.35.6,5.81,0,12-.94,16.93-3.58a24.8,24.8,0,0,0,13.3-22.52C138.37,39.16,133.25,30.52,123,26.79Zm-41.18,9,.13-.15C82.1,35.78,82,36,81.85,35.81Zm.56,2.58s.1.06.11.1S82.3,38.37,82.41,38.39ZM75.79,52.86s-.05,0,0,0S75.83,52.83,75.79,52.86Zm1.91-4.71c.08,0,.21.06.08.11S77.66,48.19,77.7,48.15Zm-.47-.63c0,.07,0,.17-.08.18s-.13,0-.13-.06S77.35,47.17,77.23,47.52Zm-.23-.7s.17.1.12.14A.11.11,0,0,1,77,46.82Zm-.4,4.09c.05,0,.1.13,0,.11S76.54,50.94,76.6,50.91Zm-.41-3.62c.15,0-.13.16-.1,0S76.16,47.3,76.19,47.29Zm0,6.55c-.37.06,0-.28.17-.26C76.84,53.74,76.52,53.84,76.2,53.84Zm.68-2.16c-.62.48-.59-.15-.08-.27.56.23,1-.6,1-.19C77.63,51.59,77.15,51.37,76.88,51.68Zm2.06-3.63c-.44,0,.12-.44.11,0C79.05,48.07,79,48.08,78.94,48.05Zm.16-1S79,47,79,46.94,79.16,47,79.1,47Zm.21,2.31a1,1,0,0,1,.24-.53C79.75,49,79.47,49.24,79.31,49.35Zm1.16,8.54-.06.08S80.43,57.87,80.47,57.89Zm-.55,1.68c-.2,0,0-.21.11-.17S80,59.54,79.92,59.57Zm.42-.83c-.2,0-.16-.16-.39,0-.06-.08.22-.27.25-.33a.44.44,0,0,0,.32.06C80.42,58.55,80.29,58.61,80.34,58.74Zm.88,1.15a0,0,0,0,1-.06,0S81.26,59.87,81.22,59.89Zm.16-6.8c-.06,0,0-.12.05-.16S81.48,53.09,81.38,53.09Zm.2-1.06s.1,0,.12.07S81.49,52.07,81.58,52Zm6.8-10.14c-.33.61-.33,0-.48-.31C87.92,41.3,88.2,41.9,88.38,41.89Zm-.52-12.3c.08,0,.25.08.24.18S87.78,29.66,87.86,29.59Zm-.34.12c0,.05-.09.14-.12.08S87.51,29.63,87.52,29.71Zm-.46.19c.06,0,0,.1,0,.15S87,29.94,87.06,29.9Zm-.68.84c-.29,0,.1-.54.46,0C86.77,30.9,86.53,30.69,86.38,30.74Zm.39,1.69s-.11,0-.08-.08S86.79,32.38,86.77,32.43ZM86,34.31l0-.05S86,34.29,86,34.31Zm-.69,3.26c-.06.09-.09-.13-.1-.17S85.31,37.53,85.31,37.57ZM84.83,36s.19,0,.13.1S84.77,36,84.83,36Zm0,2.28c-.14,0-.28.05-.39,0C84.26,37.66,85.3,38.12,84.88,38.23Zm-.79.56c.08.05,0,.24.2.25s.28.11.18.26-.73-.13-.75-.2S84,38.83,84.09,38.79Zm-.76,1.29c.37,0,0-.3.28-.25.87.26-.13,1.36-.33.32Zm.16,6.25c.18,0,.14-.21.23-.29.28.76.5.09.64-.32.19.19-.39,1.51.34.57.15.35-.07.69-.32,1,.07-.2-.28-.29-.38-.44-.41,0-.57.09-.79-.33C83.35,46.4,83.24,46.23,83.49,46.33Zm1.09,7.51c-.16,0,0-.11.07-.09S84.66,53.86,84.58,53.84Zm-.28,0c-.19.17-.57.16-.82.21s0-.14,0-.14C83.85,53.52,83.94,53.53,84.3,53.83Zm-.74-5.77c.1-.26.11,0,.3-.22,0,.06.06.26-.06.18S83.63,48.07,83.56,48.06Zm.62.83c.06,0,.21,0,.16.08C84.32,49.24,84.12,48.91,84.18,48.89Zm.07-1.53s.13,0,.13-.08C84.44,47.48,84.25,47.53,84.25,47.36Zm-.73,11.1a.82.82,0,0,1-.43.07A.58.58,0,0,1,83.52,58.46Zm-1.22.67c-.07,0,0-.14,0-.17S82.39,59.11,82.3,59.13Zm-.3-4.9A.61.61,0,0,1,82,54c.08,0,.14.29.27.06,0-.48.36.19.61-.05C83.62,54,82.16,54.17,82,54.23Zm1,6.14c-.22,0-.09-.16,0-.26s.39.26.68.09C84,60.24,83.05,60.37,83,60.37Zm.81-3.49c-.12-.15-.4-.07-.35-.33s.43.13.55.25S83.8,56.93,83.76,56.88ZM84,56.2c0-.12.16,0,.15.1S83.93,56.27,84,56.2Zm.43,4.07c-.47-.08-.34,0-.08-.3s.19,0,.41-.16.06.23.21.23.31-.13.45-.08C85.1,60.14,84.68,60.1,84.38,60.27Zm1-25.76c-.06-.4.68.31.65-.2.3.29.64.66.67,0,.22-.07.21-.35.29-.53s.27-.07.18-.22c-.47-.6.12-.24.29-.33s.19.22.34.23,0,.11,0,.15c-.39.23,0,.49-.61.58.09.59-.42.47-.21.74.09.09-.32.3,0,.36.15.47-.39-.19-.5-.21-.28.19-.07.18-.4,0a.19.19,0,0,0-.27.07c-.1-.06-.22-.25-.08-.35S85.45,34.6,85.35,34.51Zm1.21,12.88c0-.15.22.1.12.13S86.55,47.47,86.56,47.39Zm-.11.8a.34.34,0,0,1-.4-.39C86.06,47.55,86.87,48.24,86.45,48.19Zm.24-5.42c0-.29-.36-.35-.46-.61-.32-.46-.16-.42.14-.06.55,0-.24-.82-.47-.9-.31-.29,0-.34.17,0s.49,0,.71,0c0,.17.14.23.21.32-.21.15.05.44-.19.54-.33.3.4.35.4.58s0,.24-.17.16S86.71,42.9,86.69,42.77Zm-.44-5.37c-.46.1-.27-.22-.28-.5,0-.12.35-.06.46-.09C86.14,37.06,86.48,37.37,86.25,37.4Zm.83-.18s.16.15,0,.15S86.89,37.27,87.08,37.22Zm.16,16.83c.35,0,.72.2.09.18C86.94,54.23,86.7,54.14,87.24,54.05Zm.05-4.95c0-.06,0-.12,0-.18C87.49,48.86,87.42,49.11,87.29,49.1ZM85.75,37.18c-.08.18-.28.06-.19-.1A.24.24,0,0,1,85.75,37.18Zm.13,8.23c-.21.05-.18,0-.33-.13s0-.13,0-.24c-.15-.52.4.29.38-.18-.12-.15,0-.17.11-.25.44.1.06.19.19.4s.19-.2.32-.2c.44.36-.68.23-.35.64,0,.07-.08.07-.12.09S86,45.42,85.88,45.41Zm.43,13.45c0-.07.14-.13.16-.22C86.87,58.94,86.73,59.3,86.31,58.86Zm2-4.08c-.62-.24-.55.49-1.17.51-.12.06-.12-.12-.21-.14s-.12,0-.12-.09c0-.29-.4-.13-.56-.28s-.43-.33-.18-.32c.47,0,.89.17,1.35.15C87.74,54.56,88.8,54.22,88.33,54.78Zm1.8-22.12c0-.1-.22-.28-.19-.32,1.1-.2-.09,1,.58.84.45.34-.41.44-.62-.42C90,32.86,90.21,32.83,90.13,32.66Zm.09,5.8c-.07-.05-.11-.15-.21-.14l0,0c.06,0,0-.21.13-.13s.16,0,.2.07S90.32,38.46,90.22,38.46Zm-.31-.11s-.09.13-.13.08S89.87,38.35,89.91,38.35ZM89.63,32c.1.05.13.2.21.28C89.75,32.25,89.55,32.11,89.63,32Zm.14,13.16c0-.29.2-.08.4-.25.17,0,.41.46.21.5C90.27,44.83,89.8,45.52,89.77,45.17ZM91,51c-.18-.07-.24,0-.43-.07-.18-.35-.2-.27-.47-.09,0-.21.16-.55,0-.71.17-.16-.08-.16.11-.6.07,0,.13.17.3.12s-.14.18-.07.28-.26.2-.12.35.23-.21.38-.24c.47.28-.55.37.38.7C91.16,50.82,91.08,51,91,51ZM92.41,45h0S92.41,44.91,92.41,45ZM91.27,32.59c0-.22.19.1.28.13C91.47,33.06,91.24,32.86,91.27,32.59Zm.28,21.62c0-.09,0-.17-.12-.17,0-.21.22,0,.2.09S91.16,54.57,91.55,54.21Zm.17-.41s.17,0,.14,0S91.71,53.86,91.72,53.8Zm0-8.32c-.06-.06.06-.15.1-.18s.08-.14.26-.16c.36-.34.1.29.65.27-.14.57-.64.24-.59.62-.12,0-.15-.39-.15-.5S91.78,45.34,91.69,45.48ZM92.52,54s-.08,0-.12,0S92.5,53.87,92.52,54Zm.66,1.86c-.11-.09-.37-.43-.42-.13,0,.8-.76-.26-.54-.36s-.16-.5-.24-.67c.44-.49.21.22.41.43a.15.15,0,0,0,.26-.06c.44-.2.25.57.62.72C93.37,55.85,93.24,55.89,93.18,55.85Zm1-20.6s0-.09,0-.08S94.22,35.25,94.17,35.25Zm3.29.73c-.06,0-.15,0-.21,0C97.34,35.78,97.64,35.79,97.46,36Zm-.37,21.91a.73.73,0,0,1-.21.22C96.92,58,97,57.87,97.09,57.89Zm-.32,2c0-.06.08,0,.1.08S96.74,60,96.77,59.88ZM95.77,36c.08,0,.23.09,0,.11S95.66,36.1,95.77,36Zm-1-6.24c.08-.09,0-.23.12-.34,0-.26-.1-.41.26-.45.16,0,0-.32.22-.24.32.49.16.14.06.52.08.36.13,1-.39.83-.11-.08-.38,0-.39-.16S94.72,29.83,94.76,29.78Zm.33,5.71c.21-.58.29.16,0,.07C95.07,35.56,95,35.53,95.09,35.49ZM95,34.71c0-.05.14.06.12.1A.09.09,0,0,1,95,34.71Zm-.32,3.66c0-.07.08-.16.1,0S94.76,38.4,94.7,38.37Zm.07.86c-.09.05-.19,0-.26-.09.23-.12.14-.44.47-.38.51.2.9-.5,1-.22C95.73,39.07,95.39,38.59,94.77,39.23Zm3.55,25c0,4.24-.28,6.36-1.17,7.45l-.22-.26c-1.29-1.82-1-4.14-1-8.17v-1c0-.09,0,0,.23,0s0,.19.28.42,0-.08.24-.23.09,0,.21-.08,0-.15-.21-.37,0,0,.23,0,.07,0,.14-.12-.14-.14.1-.25.11.18.15.38.12.06.32,0,0-.07,0-.14.29.14.59,0l.09,0Zm.36-6.87c-.12,0-.46,0-.44-.14S98.91,57.34,98.68,57.34ZM98.42,39c0-.49.32-.41.53-.13C98.8,38.91,98.45,39.3,98.42,39Zm1.32-13c.05-.07.2-.22.28-.15S99.77,26.2,99.74,26Zm2.77,2.62a.16.16,0,0,1-.11.09S102.5,28.47,102.51,28.63Zm0,14.73c.11.14.26.07.39.07.38.14.15.51,0,.78s.27,0,.34.15c.1.6-.77-.21-.73-.46.37.39.39-.14.12-.33-.1-.15-.39-.24-.39-.42C102.39,43.13,102.44,43.32,102.52,43.36ZM104,37.48c0,.1.4.14.25.24s-.48.19-.42-.1S103.85,37.33,104,37.48Zm1.84-.55c.18-.1.58.18.64.33-.22.15-.22.57-.51.59s-.2-.28-.27-.42C105.42,37,106,37.34,105.82,36.93Zm2.2-4.55c-.1.18-.31.12-.4.3s-.08,0-.12,0-.07.09-.11.07.21-.15,0-.31-.31-.1-.46-.08c0-.16.23-.26.36-.36.33-.11.49-.61.46,0S108.3,31.94,108,32.38Zm.36,10.82c.1.13-.14.16-.22.17s-.15-.07-.06-.15,0-.15-.09-.17-.08-.43.12-.44.24,0,.22.26C108.48,43,108.39,43.07,108.38,43.2Zm.09,11.54c-.23.07-.25,0-.26.31a.22.22,0,0,0-.06.28c0,.17-.22,0-.3.08s-.25-.23-.57-.18c-.14,0-.15-.22,0-.3s.53.17.56-.16-.13-.16.1-.35c.09,0,.19.13.29,0,.13-.26-.09-.25.3-.3s0,.08,0,.2S108.4,54.54,108.47,54.74ZM108.21,60c0-.1-.11-.23-.24-.15s-.06-.07,0-.06S108.44,59.81,108.21,60Zm-1.15-11c-.18-.06.14-.16.14-.11S107.11,49,107.06,49Zm.49.86c-.14,0-.25-.22-.08-.25S107.78,49.88,107.55,49.85Zm.25.76c0,.11-.19,0-.21,0S107.78,50.54,107.8,50.61ZM107,36c.06.08,0,.21,0,.31s-.11.1-.19.1c-.24-.05-.75-.18-.72-.47C106.62,35.65,106.55,36.13,107,36Zm-1.53-2.66c.08-.14.21-.12.26,0S105.52,33.41,105.46,33.38Zm.12,9.15c0,.09,0,.29.19.24s.44.27.33.3c-.14-.18-.44.15-.41-.07s-.29-.32-.49-.24-.06-.22.07-.13S105.33,42.33,105.58,42.53Zm.44,10c0,.1-.09,0-.11-.06S106,52.44,106,52.53Zm0-5.14c.09,0,.09.07,0,.09S106,47.39,106,47.39Zm.11,12.1c.06,0,0,.31-.09.31S106,59.44,106.09,59.49ZM105.47,45c-.14.06,0,.32-.14.3-.39-.13-1.55-.35-.46-.6,0,0,.11,0,.13.05C105,45,105.46,44.8,105.47,45Zm-.56,1.25c-.7,1-.49.64-1,0,.48-.23.17-.33,0-.61h0s0,0,0,0h0A7.73,7.73,0,0,1,104.91,46.27Zm0,2.38c-.09,0-.28,0-.13-.16S104.91,48.58,104.87,48.65ZM104,43.82c.06,0,.25,0,.24.07S103.93,44.08,104,43.82Zm-.21,15.61c-.09,0-.15-.18-.22-.26C103.67,58.91,104.06,59.42,103.77,59.43Zm-.31-22.06c-.14.13-.31,0-.18-.12a.17.17,0,0,0,.2,0c.11,0,.1.19.28,0C103.77,37.43,103.56,37.28,103.46,37.37Zm-.42,13s-.22-.16-.1-.21S103.28,50.24,103,50.37Zm-.92-21.95c0-.09.13-.11.12,0s0,.21,0,.25-.2,0-.21-.16S102.09,28.48,102.12,28.42Zm0,24c0,.28.23.2.38.1s0,.65.45.65c0,0,.07,0,.06.07,0,.39-.24.09-.44.31-.31.52-.17.12-.56.28a2.9,2.9,0,0,1-.09-.54C102.14,52.78,101.4,53.11,102.17,52.44ZM101.58,44c.11-.06.14,0,0,.1S101.43,44,101.58,44Zm7.9,28.88c-4,0-5.56-1.21-6.91-3.12-1.12-1.54-1.43-3.57-1.5-6.68.18-.1,0,.15,0,.29s.12,0,.35-.17,0,.17-.11.41,0,.27.12.11.14-.07.24-.14,0-.13.08-.25.09,0,.19-.09,0,0,0-.18.07,0,.17-.27-.17-.41-.19-.55.25,0,.32,0,.08,0,.24.09c1.08-1.1,1.26.11,1.49-.86,0-.21.49.2.62.17s.39,0,.34-.17a1.63,1.63,0,0,0-.31-.42s0,0,0,0,0,0,.07,0a1.35,1.35,0,0,1,.46.15c.2.07-.18.13-.18.13a.5.5,0,0,0,.18.18,1.89,1.89,0,0,0,.29.15.14.14,0,0,0,0,.17c.06.09.2.09.31.16a.73.73,0,0,0,.36.08c.12.06.06.17.15.25a.38.38,0,0,1,.08.25c.29.11.4,0,.59,0s0,0,.2.15.48-.1.37-.24-.14,0-.28-.19-.36-.09-.33-.16,0,0,0-.18.06-.05.25,0,.14-.05,0-.11-.1-.2-.26-.3-.13-.08-.17-.12-.13,0-.18-.12h.1c.27.06.18,0,.25-.1s.14-.19.29.08,0,.29.25.14.07-.19.22-.14.08.08.28.06.08.15.19.12.18.06.13.22.12.21.27.21.08,0,.24,0,.16.07.23,0a1.24,1.24,0,0,1-.27-.48c-.13-.35,0-.08.2-.2s.11.08.19.23.09.35.12.08.15-.07.3-.15,0-.3.1-.27a.71.71,0,0,0,.43,0c.25,0,.19.06.32.17s.08.13.15.22.1.07.15.14.23,0,.4,0,.19,0,.19,0a3.78,3.78,0,0,1,.18.38c.06.19,0,.11.11,0s.1-.12.2-.25.2.06.28.35,0,.15.35.23.27-.06.45.06.17.17.34.21.07-.09,0-.24a1.42,1.42,0,0,1,0-.39c0-.19-.41-.15-.6-.09s-.32,0-.38-.24,0-.09.16-.06.12,0,.27-.06,0-.14,0-.43.09.09.25.19.11,0,.2.16.19.14.4.34a1.16,1.16,0,0,1,.19.44c0-.12.15-.18.38-.29s0,0,0-.11-.1-.12-.27-.3,0-.12.1-.24.17-.07.32-.07.13,0,.35-.18.12-.12.34-.12.17,0,.13-.26-.13-.18,0-.24.13.06.42.21.19.06.25.09.11,0,.52.07c.21,0,.27.08.27.1a.08.08,0,0,0,0-.05c.11-.12-.07-.07-.17-.2s0-.16.22-.35.17-.12.24-.44,0-.09.22,0,0,0-.05-.14,0-.13.19-.25.12,0,.22.12.23.27.29.13.15.17.24.23a.18.18,0,0,0,.29-.2c0-.17.14-.26,0-.37a.35.35,0,0,1-.07-.53c.19-.18-.22-.19-.34-.33s-.08-.28,0-.44.07,0,.2,0,0-.06,0-.24-.15-.16-.25-.22-.09-.28.23-.54.22,0,.14.32,0,.37.15.37.2-.25.44-.25,0-.17,0-.29,0-.24.24-.21.12.17.22.3.13-.06.13-.33,0-.12.12-.1.13.1.18,0,0-.14,0-.43.15.09.34.17.08-.2.07-.29-.15-.14,0-.29.08-.17,0-.31.07-.23.2-.26a1.7,1.7,0,0,0,.37-.1c.17-.05.39.24.63.21s-.06-.14-.13-.18-.18-.21-.33-.34-.19-.26-.06-.41.29.18.47.06-.35-.28-.5-.32-.12-.19.18-.19.09-.08-.12-.19-.21,0-.47,0-.13.21-.34.32-.12-.53-.26-.21-.22.21-.47.19-.09-.24-.26-.51.13-.14.31-.09.21-.1.35-.19,0-.14-.05-.26,0-.15,0-.31-.08-.15-.23-.27,0-.18.15-.13.08,0,.34-.09.12,0,.1.12-.06.19.17.37.2,0,.26.16.09.12.21,0a.32.32,0,0,1,.26,0,1.35,1.35,0,0,0,0-.4c0-.19,0-.19.11-.22s.23.17.26.34.31,0,.31,0a.73.73,0,0,1,.29-.08c.15,0-.07-.18-.14-.21a1.52,1.52,0,0,1-.36-.45c-.1-.2.4,0,.4,0a.29.29,0,0,0,0-.27,1,1,0,0,0-.15-.31s.17,0,.24-.08-.07-.21-.12-.35-.17-.19-.26-.32.09-.15.11-.27a.31.31,0,0,0-.09-.25l-.3-.44c-.1-.15,0-.17-.08-.45s-.1-.18-.16,0,0,.23-.06.46-.09.3-.22.31-.1,0-.25.12-.12,0-.27-.17-.11-.13-.16,0a2.11,2.11,0,0,1-.11.42c-.1.27,0,0,0,.16s.08.16,0,.29-.14-.05-.22-.12-.1-.06-.27,0,0,.18-.15.5-.12-.08-.25-.28,0-.11-.13-.47,0-.24-.22-.21,0,.21-.15.46-.2-.12-.27-.28,0-.13,0-.22,0-.11-.09-.35-.1-.23,0-.38a.92.92,0,0,0,0-.38c0-.2-.37-.2-.55-.38s0,0,.25-.09,0-.15-.13-.3a3.68,3.68,0,0,1-.12-.75c0-.23-.14-.11-.24-.11s-.28-.23-.4-.41-.18-.23-.18-.23,0-.28-.1-.53,0-.34,0-.34a.56.56,0,0,1,.17.06c.08,0,.08.28.19.49s0,.07.26.17.06.06.16.22.15.12.19.05,0,0-.08-.14,0-.09.19-.23,0-.09-.11-.41-.07-.15-.17-.32.07-.16.24-.15,0,0,.07,0a.32.32,0,0,0,0-.07s.08,0,.09.07,0,.12.06.12,0,.1,0,.07l-.06,0a1.77,1.77,0,0,0,0,.22c0,.28.07.11.19,0s.11-.05.15.08a.15.15,0,0,0,.27,0c.08-.08,0-.08,0-.4S118,46,118,45.91s.16-.17.24-.26,0,0,.26-.1a1.84,1.84,0,0,1,.41-.06c.26,0,0-.14-.07-.28a3.26,3.26,0,0,1-.26-.39c-.15-.22-.22,0-.41-.14s0-.34-.18-.17-.18.05-.29-.24-.35,0-.52-.24,0-.32.12-.32.2-.11.3-.34.2-.2.15-.38a1,1,0,0,0-.4-.58c-.19-.13-.1-.21,0-.51s0-.18-.14-.17-.17.32-.33.15,0-.21-.1-.26a.48.48,0,0,1-.22-.38c-.07-.22-.12-.15-.29-.24s-.22,0-.37,0,0-.08-.09-.34-.2-.26-.3-.35a.48.48,0,0,1-.15-.38c0-.19.07-.1.26,0s.37.08.27-.18-.14-.29.18-.33.14-.09.08-.4-.08,0-.26-.15-.06-.41-.24-.3c0,0-.14.13-.31,0s-.07.15-.23.39-.18.17-.37,0-.21,0-.37,0a.31.31,0,0,1-.34-.22c0-.21.2-.18.24-.32s-.08-.2-.24-.33a.32.32,0,0,1-.12-.49c.12-.26.24.25.24.25a.35.35,0,0,1,.19-.2c.19-.08.09-.08.09-.23s0-.06.07-.17a.41.41,0,0,0,.1-.23c0-.14.08,0,.25,0s.17.09.27,0,.1,0-.1-.28,0,0,0-.13,0-.12,0-.32-.18-.18-.24-.25.06-.24.06-.24a4,4,0,0,0,.53-.06c.39,0,.23.2.48.21s0,0,.07-.26-.12-.3-.05-.47.4.09.32-.13.14-.16.06-.25-.24-.1-.26-.26-.28.16-.52,0-.17,0-.25.22a.35.35,0,0,1-.49.23c-.27,0,0-.15.15-.23s0-.16-.25-.28-.54.06-1-.13,0-.14.22-.14.22-.17.48-.35.59.32.59.32a.27.27,0,0,0,0-.34.54.54,0,0,0-.3-.31c-.15-.09-.09-.36-.07-.57a.52.52,0,0,0-.55-.48c-.13,0,0-.38-.3-.32s-.24-.16-.41-.25-.28,0-.62.24-.17.07-.37-.05-.15.07-.28.43-.27.08-.3.23-.34.51-.49.43-.63-.26-.73-.49.41.15.64.17.12-.25.07-.5,0,0,0-.18a2.42,2.42,0,0,0,.2-.54c.1-.41-.4-.29-.42-.36s-.09-.2-.12-.32.22-.1.4-.1.14,0,.46-.25.27.09.47.26.21,0,.45-.09-.11-.21-.17-.41.31-.34.49-.5a.27.27,0,0,0-.25-.42c-.23.05-.27,0-.26-.19s-.35,0-.13-.32c0-.06-.14-.11-.31-.14s-.14-.24-.24-.43-.29.15-.61.19-.19-.31-.19-.63-.25-.15-.3,0-.38.05-.51.05-.21.12-.28.25a.8.8,0,0,0-.21.3c-.12.24.11.08.4.08s.08.14-.14.29-.43,0-.73,0a.8.8,0,0,0-.3,0c-.12,0-.17,0-.26-.24s-.1.05-.21.35-.15,0-.46,0a.43.43,0,0,0-.53.32c0,.09.18.14.28.31a.74.74,0,0,0,.24.28c.13.12.18.12.18.25s0,.15.27.38.06.17,0,.31l0,0h.14l.06.05v0s0,0,0-.08,0-.13.1-.13h.07a.19.19,0,0,1-.07.16s.07.08.12.11,0-.07,0-.11h0v-.11l.11,0s0,0,.06,0,0,0,0,0a0,0,0,0,1,0,0,.56.56,0,0,1,0,.13c-.06.14-.11.14-.17.15l-.12,0,0,.11s0,.1,0,.13l-.06,0s0-.05,0-.11,0-.05,0-.06-.1.11-.16.11a.22.22,0,0,1,0-.11c0-.09,0-.12,0-.13s-.14-.07-.14-.14h0a.16.16,0,0,0,0,.08c-.1.27-.14.1-.35.13s-.34,0-.42-.26.15-.28.15-.6-.13-.18-.34-.2-.34-.24-.43-.2a1.34,1.34,0,0,0-.17.48c-.06.27-.15.17-.48,0s-.14-.26-.37-.09-.22.09-.22.23.05.1,0,.27-.17.19-.4.21-.08.06.08.14.36.21.34.44-.24.09-.59.06-.13-.12-.32-.25-.2-.16-.15-.49.27-.11.38-.23-.08-.17-.11-.47,0-.39-.14-.52-.23,0-.3-.27-.1-.24-.15-.07-.15.19-.32.4a1.6,1.6,0,0,1-.62.46c-.28.15-.45-.11-.54-.21s.17-.09.25-.16-.1-.13-.1-.28a.44.44,0,0,1,.16-.34c.13-.13.41,0,.56,0s-.11-.22-.13-.48a1.29,1.29,0,0,0-.2-.56c-.07-.2-.15-.39-.17-.48s.22,0,.41,0,.06-.42.25-.6,0-.13-.12-.13a.11.11,0,0,1-.1-.08c.62,0,1.5,0,3.27.06C126.83,27,130.8,41,130.78,49.28,130.76,63.34,124.16,72.93,109.48,72.91Zm-.36-41.28c.07,0,.21,0,.09.08a.17.17,0,0,0-.19,0C108.88,31.7,109,31.61,109.12,31.63Zm.82-1.39c0,.08-.09.27-.09.09S109.89,30.13,109.94,30.24Zm0,21.92a.19.19,0,0,1,.09.2C110.05,52.3,110,52.24,110,52.16Zm.93-15.41c-.14,0,0-.2-.2-.22.2-.1,0-.43.23-.37s.16,0,.1.2C111.16,36.53,111.22,36.78,110.91,36.75Zm2,8s0,0,0,0,0,0,0,0,0,0,0,0h-.1a.12.12,0,0,1,.1,0S112.85,44.8,112.86,44.8Zm.25-8.92c.13,0,.27,0,.14.18s-.1.31-.3.08C113.17,36,113,35.88,113.11,35.88Zm.67,15.44c-.2,0-1-.32-.84-.48,0,.17.25.09.38.12C113.54,51.23,114,51.3,113.78,51.32Zm-.43-8c.11-.09.22.21,0,.17S113.32,43.41,113.35,43.36Zm.74.41c-.18,0-.41.11-.41-.15a.68.68,0,0,1,.21-.42c.06.08.42.06.34.14C113.92,43.32,114.1,43.6,114.09,43.77Zm-.15.67s0,.05,0,.05Zm0,5.82c.15,0,.53.71.09.61-.07-.06,0-.15,0-.21.06-.54-.61.37-.57,0C113.51,50.38,113.88,50.54,114,50.26Zm1,7.33c.08,0,.15.2.16.28s-.24,0-.33.08-.09-.06-.06-.14S115,57.76,115,57.59ZM114.93,50c.09,0,.21.13.2.22S114.9,50,114.93,50Zm-.14.41s0-.11,0,0S114.72,50.52,114.79,50.36Zm-.06-6.52c.09,0,.09.1.11.16S114.44,43.85,114.73,43.84Zm0,7.51c-.06.06-.13-.06-.14-.11S114.72,51.28,114.7,51.35Zm0,.55c.22.08-.1.24-.14.35s-.21,0-.32,0-.19-.15-.07-.13.19-.13.31-.09S114.58,51.89,114.69,51.9Zm-.35,7.59c0,.25-.16,0-.13-.06S114.36,59.38,114.34,59.49Zm-.46-2.77s-.15-.08-.07-.09S113.9,56.69,113.88,56.72Zm-.31-22s-.06-.1-.07-.15S113.6,34.61,113.57,34.67Zm-.07,17.47c-.26,0-.51-.4-.6-.66C113.11,51.54,113.34,51.93,113.5,52.14Zm-.5-8.47s0,.14-.08.06S113,43.49,113,43.67Zm-.08-7.79c-.09,0,0-.06,0-.07S113,35.89,112.92,35.88Zm-.19,9,0,0S112.74,44.85,112.73,44.86Zm0-8.92,0,0S112.81,35.94,112.75,35.94Zm.42,14.35c.09,0-.19.43-.23.39-.15-.38-.56-.12-.59.14s-.26,0-.31-.09.15-.14.08-.31A8.13,8.13,0,0,0,113.17,50.29Zm-.74,7.4c-.14.22-.1,0-.06-.09S112.51,57.61,112.43,57.69Zm-.19-13.54c-.51.05,0-.62.3.06C112.47,44.42,112.36,44.13,112.24,44.15Zm-.67,7.79c-.53-.07.11-.2.22-.27s.1,0,.16,0C112.24,51.75,111.7,52,111.57,51.94Zm.31.92c0,.06-.13.19-.21.16s-.11-.22,0-.2S111.87,52.78,111.88,52.86Zm-.44,6.06c.25,0,.28-.29.52-.25.63,0,.3.5.77.61.28,0,.66.18.16.25-.28,0-.43-.26-.71-.25s-.9,0-1.21-.19C111.06,58.91,111.27,58.92,111.44,58.92Zm-.69-6.35c.06,0-.08.16,0,.26s-.06.12-.1.17c-.23.23.24.28.31.44-.15.49-.77-.36-.76-.6.38.18.24-.38-.11-.44C110.5,52.47,110.4,52.31,110.75,52.57Zm5.2,4.71c.18.11-.17.36.33.45.13.21-.08.07-.2.06s-.49.05-.43-.26S115.86,57.72,116,57.28ZM115.77,42h0S115.77,42,115.77,42Zm1.76,13.39c-.06,0-.06-.17-.06-.22S117.74,55.3,117.53,55.35Zm.38.91c0,.11-.24.09-.32.19s-.08.19-.1.07C117.57,56.17,117.59,55.76,117.91,56.26Zm-.37-5.56c-.1.14-.21,0-.32.1s-.4.29-.55.47c-.12,0-.13-.19-.27-.17s0-.21,0-.3-.18-.42,0-.63c.16.08.34.17.47-.05.33,0,.35-.39.54.09C117.59,50.5,117.66,50,117.54,50.7Zm-.93,6.19c.84.29.2-.2.77.07,0,0,.09.1,0,.13s-.32.21-.46.26C117.23,57,116.08,57,116.61,56.89Zm-.08,1.47c.08,0,.22-.06.26-.14C116.91,58.35,116.45,58.51,116.53,58.36Zm-.13-5.73c0-.07.14,0,.12,0S116.44,52.66,116.4,52.63Zm-.2,6.16s0-.11,0-.13S116.24,58.79,116.2,58.79Zm-.29-.35c0-.1.06-.15.13-.06S115.88,58.64,115.91,58.44Zm2.89-3.14c.08,0,0,.14,0,.13S118.77,55.32,118.8,55.3Zm-4-19.63c-.06,0-.19.15-.16,0S114.79,35.58,114.78,35.67Z"/><path class="cls-1" d="M68.51,84.82A7,7,0,0,0,61.3,92a6.8,6.8,0,0,0,7.18,6.86,6.9,6.9,0,0,0,7-7A6.67,6.67,0,0,0,68.51,84.82Zm.25,13.37c-4,0-5.44-3.89-5.43-6.88,0-4.42,2.73-5.87,4.83-5.87,3.86,0,5.33,3.63,5.33,7C73.48,96.37,71.18,98.19,68.76,98.19Zm21-13.06a.35.35,0,0,1,0,.49l-.49,0a1.2,1.2,0,0,0-1,.49A19.46,19.46,0,0,0,88,90.25v2.31a7.12,7.12,0,0,1-1.43,4.8,5.29,5.29,0,0,1-3.87,1.47A5.64,5.64,0,0,1,79,97.71c-1.09-.87-1.59-2.35-1.59-4.77V88.18c0-2.11,0-2.44-1.19-2.55l-.53,0c-.12-.07-.09-.43,0-.48,1,0,1.7.06,2.51.06s1.5,0,2.49-.06c.11.06.16.42,0,.49l-.49,0c-1.16.1-1.2.44-1.2,2.55v4.36c0,3.26,1,5.4,4.09,5.41s4.06-2.31,4.06-5.38V90.25a14.79,14.79,0,0,0-.38-4.19,1.23,1.23,0,0,0-1-.41l-.5,0a.35.35,0,0,1,0-.49c.77,0,1.52.06,2.3.07S89.05,85.17,89.77,85.13Zm8.48,6.18c-.23,0-.4-.1-.39-.3a3,3,0,0,0,2.07-2.77A2.69,2.69,0,0,0,98.4,85.7a7.94,7.94,0,0,0-3.4-.56c-1.88,0-3.25,0-4.35.16a.31.31,0,0,0,0,.5l.65,0c.91.09,1,.48,1,2V95.5c0,2.11,0,2.34-1.1,2.53l-.37,0c-.12.12-.09.46,0,.49.75,0,1.43,0,2.33,0s1.84,0,2.42,0c3.65,0,5.38-1.54,5.39-3.89A3.37,3.37,0,0,0,98.25,91.31Zm-4.33-4.9c0-.37.09-.47.29-.53a2.82,2.82,0,0,1,.93-.11c1.55,0,3,.74,3,2.72S97,91,95,91.09c-1,0-1,0-1-.58Zm2,11.57a2,2,0,0,1-1.6-.57,4.06,4.06,0,0,1-.42-2.22v-3c0-.42.09-.53,1.17-.53,3.23,0,4,1.86,4,3.46C99.1,97.17,97.72,98,95.93,98Zm16.91-2.18a18.1,18.1,0,0,1-.86,2.81c-1,0-3,0-5,0h-1.86c-.86,0-1.5,0-2.62,0-.12,0-.16-.38,0-.5l.62,0c1.16-.1,1.19-.42,1.2-2.53V88.24c0-2.12,0-2.44-1.3-2.54l-.51,0a.42.42,0,0,1,0-.51c1.13,0,1.82.06,2.62.07s1.49,0,2.49-.06a.42.42,0,0,1,0,.51l-.5,0c-1.18.09-1.22.41-1.22,2.54l0,7c0,1.28.06,1.8.42,2.18.21.22.6.49,2.2.49s2.15-.1,2.47-.28a4.15,4.15,0,0,0,1.34-2C112.45,95.57,112.84,95.66,112.84,95.8Zm11.62,0a16,16,0,0,1-.91,2.79c-1.82,0-3.62,0-5.42,0h-1.82c-.87,0-1.55,0-2.75,0-.12,0-.17-.38,0-.5l.66-.05c1.15-.09,1.26-.42,1.27-2.53V88.26c0-2.1,0-2.4-1.23-2.54l-.33,0c-.12-.09-.06-.45.06-.51.86,0,1.55.06,2.37.06h3.81c1.29,0,2.48,0,2.72,0a20.85,20.85,0,0,1,.32,2.7.42.42,0,0,1-.51,0c-.29-1-.47-1.67-1.52-1.93a9.89,9.89,0,0,0-2-.12h-1.46c-.61,0-.61,0-.61.8v4c0,.55.06.55.66.55H119a7.06,7.06,0,0,0,1.72-.12c.25-.07.38-.2.49-.7l.15-.84c.11-.11.46-.11.53,0,0,.48-.08,1.28-.08,2s.07,1.49.07,1.94c-.07.14-.42.14-.52,0l-.17-.77a.93.93,0,0,0-.63-.79A7.63,7.63,0,0,0,119,92h-1.17c-.6,0-.67,0-.67.56v2.86c0,1,.06,1.75.38,2.09s.65.49,2.45.49a5.64,5.64,0,0,0,2.57-.32,4.79,4.79,0,0,0,1.45-2A.37.37,0,0,1,124.46,95.84ZM54.83,83.34a15.13,15.13,0,0,0-5.25-.73c-2,0-4,.08-6,.19a.34.34,0,0,0,0,.58l.52.1c1,.14,1.13.63,1.13,2.29l0,9.08c0,2.52-.06,2.79-1.44,3l-.55.06c-.14.15-.1.52,0,.58,1.12,0,2,0,3,0,.84,0,2.36.19,3.89.19a11.47,11.47,0,0,0,5.35-1.13,7.86,7.86,0,0,0,4.19-7.12A7.15,7.15,0,0,0,54.83,83.34ZM50.55,97.9c-1.51,0-2.42-.25-2.93-1a4.35,4.35,0,0,1-.48-2.59V85.51c0-1.08.06-1.68.25-1.83a5.35,5.35,0,0,1,2.36-.32c6.26,0,7.53,4.45,7.52,7.08C57.27,94.87,55.19,97.91,50.55,97.9Zm77.53-15.07,11.77,0c-.07,1-.17,2.25-.18,3,0,.21-.49.17-.61,0-.08-.6-.23-1.48-.6-1.75a4.94,4.94,0,0,0-2.78-.58H134c-.72,0-.7,0-.7.81l0,10.61c0,2.51,0,2.88,1.43,3l.77.06c.14.08.08.52,0,.58-1.36,0-2.18-.06-3.14-.06s-1.79,0-3.3,0a.38.38,0,0,1,0-.59l.85,0c1.36-.13,1.48-.49,1.48-3l0-10.65c0-.75,0-.76-.72-.76H129.3a5.08,5.08,0,0,0-2.94.58,4.43,4.43,0,0,0-1,1.67c-.18.15-.66,0-.63-.17.19-1.08.23-1.85.36-2.8C125.15,82.77,127,82.83,128.08,82.83Zm36.13,12.93a5,5,0,0,1-1.43,2,5.67,5.67,0,0,1-2.58.32c-1.79,0-2.21-.25-2.45-.49a3.31,3.31,0,0,1-.39-2.09V92.6c0-.52.06-.56.68-.56h1.16a7.5,7.5,0,0,1,1.56.1.9.9,0,0,1,.63.79l.18.77a.38.38,0,0,0,.52,0c0-.45-.08-1.22-.08-1.94s.09-1.57.09-2.05a.42.42,0,0,0-.52,0l-.17.83c-.1.5-.23.64-.48.71a7.16,7.16,0,0,1-1.73.12h-1.16c-.61,0-.68,0-.68-.55V86.74c0-.77,0-.8.62-.8h1.45a9.83,9.83,0,0,1,2,.12c1.05.26,1.22,1,1.53,1.93a.39.39,0,0,0,.5,0,25.43,25.43,0,0,0-.31-2.69c-.26,0-1.44,0-2.74,0h-3.78c-.85,0-1.53,0-2.39-.06a.38.38,0,0,0,0,.51l.33,0c1.18.14,1.21.44,1.21,2.54v7.28c0,2.11-.11,2.47-1.26,2.56l-.79.08a2.29,2.29,0,0,1-1.4-.34,21.72,21.72,0,0,1-4.06-5.4c-.09-.14-.19-.35-.09-.48a3.72,3.72,0,0,0,2.52-3.36A3,3,0,0,0,149,85.83a7.35,7.35,0,0,0-3.38-.6c-2,0-3.37,0-4.5.15a.34.34,0,0,0,0,.51l.65.08c.83.08.88.45.88,2.37l0,7.25c0,2.11,0,2.36-1.21,2.52l-.5,0c-.11.15-.08.47,0,.5.95,0,1.67,0,2.53,0s1.49,0,2.4,0a.39.39,0,0,0,0-.5l-.43,0c-1.17-.17-1.21-.42-1.21-2.53V93c0-.42,0-.44.95-.44a1.45,1.45,0,0,1,1.44.65c.63.9,1.45,2.3,2,3,1.43,2,2.38,2.55,4.11,2.55a8,8,0,0,0,1.17-.17l2.7,0h1.82c1.78,0,3.58,0,5.41,0a19,19,0,0,0,.91-2.79A.41.41,0,0,0,164.21,95.76ZM145.7,92c-1,0-1.32,0-1.38-.12s-.08-.3-.08-.65V86.5c0-.57.08-.64,1.33-.64A3,3,0,0,1,148.8,89a2.92,2.92,0,0,1-1,2.48A3.45,3.45,0,0,1,145.7,92Zm31.19,3.93a17.92,17.92,0,0,1-.9,2.79c-1.82,0-3.64,0-5.43,0h-1.81c-.87,0-1.56,0-2.75,0-.12,0-.16-.38-.06-.5l.69,0c1.15-.09,1.25-.42,1.26-2.53V88.35c0-2.1,0-2.4-1.23-2.54l-.34,0a.42.42,0,0,1,0-.51c.88,0,1.56.06,2.39.06h3.79c1.31,0,2.49,0,2.74,0a22.86,22.86,0,0,1,.32,2.69.41.41,0,0,1-.51,0c-.31-1-.47-1.67-1.53-1.93a9.65,9.65,0,0,0-2-.12h-1.45c-.62,0-.62,0-.62.8v4c0,.55.06.55.67.55h1.17a7.06,7.06,0,0,0,1.72-.12c.24-.07.38-.2.49-.71l.16-.83a.42.42,0,0,1,.52,0c0,.48-.09,1.28-.09,2s.08,1.49.08,1.94a.38.38,0,0,1-.52,0l-.18-.77a.92.92,0,0,0-.62-.79,7.63,7.63,0,0,0-1.56-.1h-1.17c-.61,0-.68,0-.68.56v2.86c0,1,.06,1.75.38,2.09s.66.49,2.44.49a5.66,5.66,0,0,0,2.59-.32,5,5,0,0,0,1.44-1.95A.36.36,0,0,1,176.89,95.93Z"/><path class="cls-1" d="M84.39,108.71a3.23,3.23,0,0,0-2.13.9v-3.74H80v.42l.58.09V115l-.58.08v.43h2.31v-.35a2.91,2.91,0,0,0,1.67.48c2,0,3.15-1.31,3.15-3.57C87.08,110.06,86,108.71,84.39,108.71Zm-.66,6.3a2.43,2.43,0,0,1-1.47-.56v-4.28a2.87,2.87,0,0,1,1.17-.32c1.13,0,1.81,1,1.81,2.52S84.68,115,83.73,115Zm8.62-6.17h1.93v.47l-.54.1-2.68,6.48c-.61,1.49-1.16,2.72-2.42,2.72a4.66,4.66,0,0,1-1.12-.13V117h.39l.25.58a.81.81,0,0,0,.55.17c.8,0,1.32-1.19,1.64-2l.08-.17-2.71-6.21-.52-.11v-.47h3v.48l-.58.12,1.74,4.07,1.62-4.1-.59-.1Zm11-2.69h3.15v.47l-.63.08v8.21l.63.09v.48h-3.15V115l.68-.09v-3.73h-4v3.73l.63.09v.48h-3.1V115l.62-.09V106.7l-.62-.08v-.47h3.1v.47l-.63.08v3.51h4V106.7l-.68-.08Zm6.82,8.82.6.08v.43h-2.9v-.43l.59-.08v-5.62l-.59-.08v-.43h2.3Zm-1.8-8.18a1,1,0,0,1,1-1.06,1,1,0,0,1,1,1,1,1,0,0,1-1,1.09A1,1,0,0,1,108.37,106.79Zm6,8.18.6.08v.43H112v-.43l.58-.08v-8.59l-.58-.09v-.42h2.3Zm5.25-.21a3.82,3.82,0,0,0,.92-.07v.45a6.32,6.32,0,0,1-2.13.42c-1.33,0-1.64-.6-1.64-1.76v-4.34h-1.22v-.62h1.26v-1.38l1.68-.51v1.89H120v.62h-1.56v4C118.45,114.43,118.66,114.76,119.58,114.76Zm4.77-6.1a3.35,3.35,0,0,0-3.56,3.56c0,2.55,1.34,3.46,3.45,3.46a3.31,3.31,0,0,0,3.57-3.46A3.21,3.21,0,0,0,124.35,108.66Zm-.07,6.51c-1,0-1.6-.88-1.6-3s.63-3,1.6-3,1.63.92,1.63,3S125.33,115.17,124.28,115.17Zm11.2-.2.59.08v.43h-2.9v-.43l.58-.08v-3.78c0-1-.38-1.51-1.17-1.51a2.83,2.83,0,0,0-1.37.55V115l.59.08v.43h-2.92v-.43l.6-.08v-5.58l-.6-.08v-.47h2.33v.92a3.69,3.69,0,0,1,2.39-1.05c1.3,0,1.88.77,1.88,2.27Zm.56-8.85h1.83v.4h-.15l0-.21h-.5V108l.21,0v.14h-.87V108l.22,0v-1.64h-.5l0,.21H136Zm4.31.17V108l.18,0v.14h-.8V108l.18,0v-1.48l-.73,1.65h-.08l-.7-1.62V108l.19,0v.14H138V108l.18,0v-1.66l-.18,0v-.13h.71l.56,1.3.57-1.3h.68v.13Z"/></svg>