<?xml version="1.0" encoding="utf-8"?>
<!-- Generator: Adobe Illustrator 24.3.0, SVG Export Plug-In . SVG Version: 6.00 Build 0)  -->
<svg version="1.1" id="Layer_1" xmlns="http://www.w3.org/2000/svg" xmlns:xlink="http://www.w3.org/1999/xlink" x="0px" y="0px"
	 viewBox="0 0 220 140" style="enable-background:new 0 0 220 140;" xml:space="preserve">
<style type="text/css">
	.st0{fill-rule:evenodd;clip-rule:evenodd;fill:#231F20;}
</style>
<g id="Hilton-116x50-Copy">
	<g id="hilton" transform="translate(1.000000, 3.000000)">
		<g id="Group-16">
			<path id="Fill-1" class="st0" d="M19.6,102.7h180.7V35.5H19.6V102.7z M22.7,99.6h174.6v-61H22.7V99.6z"/>
			<polygon id="Fill-2" class="st0" points="68,53.1 68,85.1 70.5,85.4 70.5,87.3 58.1,87.3 58.1,85.4 60.7,85.1 60.7,70.5 
				44.9,70.5 44.9,85.1 47.3,85.4 47.3,87.3 35.2,87.3 35.2,85.4 37.6,85.1 37.6,53.1 35.2,52.8 35.2,50.9 47.3,50.9 47.3,52.8 
				44.9,53.1 44.9,66.8 60.7,66.8 60.7,53.1 58.1,52.8 58.1,50.9 70.5,50.9 70.5,52.8 			"/>
			<polygon id="Fill-3" class="st0" points="84.9,85.3 87.2,85.6 87.2,87.3 75.8,87.3 75.8,85.6 78.2,85.3 78.2,63.4 75.8,63.1 
				75.8,61.4 84.9,61.4 			"/>
			<polygon id="Fill-4" class="st0" points="92.2,85.7 94.5,85.3 94.5,52.9 92.2,52.5 92.2,50.9 101.3,50.9 101.3,85.3 103.6,85.7 
				103.6,87.3 92.2,87.3 			"/>
			<g id="Group-15" transform="translate(36.549618, 9.671556)">
				<path id="Fill-5" class="st0" d="M80.9,51.7H87v2.4h-6.1v15.4c0,4,0.8,5.2,4.4,5.2c1.3,0,2.5,0,3.6-0.3v1.8
					c-3.3,1.2-6.1,1.7-8.4,1.7c-5.2,0-6.5-2.4-6.5-6.9V54.2h-4.8v-2.4h5v-5.4l6.6-2V51.7z"/>
				<path id="Fill-7" class="st0" d="M117.7,64.9c0,8-5.5,13.5-14,13.5c-8.3,0-13.6-3.5-13.6-13.5c0-8.3,5.5-13.9,14-13.9
					C112.6,51,117.7,56,117.7,64.9 M110.2,64.8c0-8.2-2.4-11.7-6.4-11.7c-3.8,0-6.3,3.4-6.3,11.7c0,8.2,2.5,11.6,6.3,11.6
					C108,76.4,110.2,73.1,110.2,64.8"/>
				<path id="Fill-9" class="st0" d="M148.6,75.9v1.7h-11.4v-1.7l2.3-0.3V60.9c0-4.1-1.5-5.9-4.6-5.9c-1.4,0-3.7,1-5.4,2.1v18.5
					l2.3,0.3v1.7h-11.5v-1.7l2.3-0.3V53.9l-2.3-0.3v-1.8h9.1v3.6c2.8-2.3,5.6-4.1,9.4-4.1c5.1,0,7.4,3,7.4,8.8v15.5L148.6,75.9z"/>
				<path id="Fill-11" class="st0" d="M48.7,44.9c0,2-1.6,3.6-3.7,3.6c-2,0-3.7-1.6-3.7-3.6s1.6-3.6,3.7-3.6
					C47,41.3,48.7,42.9,48.7,44.9"/>
				<path id="Fill-13" class="st0" d="M160.9,97.6h0.5c0.4,0,0.5-0.1,0.5-0.4c0-0.3-0.1-0.4-0.5-0.4h-0.5V97.6z M162.4,97.2
					c0,0.4-0.1,0.6-0.5,0.7l0.6,0.8H162l-0.5-0.8c0,0-0.1,0-0.1,0h-0.4v0.7h-0.4v-2.2h1C162.1,96.5,162.4,96.7,162.4,97.2
					L162.4,97.2z M159.6,97.6c0,1,0.8,1.8,1.8,1.8c1,0,1.8-0.8,1.8-1.8s-0.8-1.8-1.8-1.8C160.4,95.8,159.6,96.6,159.6,97.6
					L159.6,97.6z M163.8,97.6c0,1.3-1,2.3-2.3,2.3s-2.3-1-2.3-2.3c0-1.3,1-2.3,2.3-2.3S163.8,96.3,163.8,97.6L163.8,97.6z"/>
			</g>
		</g>
	</g>
</g>
</svg>
