<svg xmlns="http://www.w3.org/2000/svg" viewBox="0 0 220 140" width="220px" height="140px">
  <g id="lxr_logo" transform="translate(-9447 -1699)">
    <rect id="Rectangle_27002" data-name="Rectangle 27002" fill="none" transform="translate(9447 1699)"/>
    <g id="Group_58462" data-name="Group 58462" transform="translate(9502 1748.01)">
      <g id="Group_58462-2" data-name="Group 58462" transform="translate(0.305 0.104)">
        <path id="Path_55038" data-name="Path 55038" fill="#010101" d="M.48,25.763H4.55V.685H.48V.17h11.8V.685H8.214V25.763h6.526A6.494,6.494,0,0,0,19.8,23.747a12.39,12.39,0,0,0,2.678-5.5h.4v8.027H.48Z" transform="translate(-0.48 -0.17)"/>
      </g>
      <g id="Group_58463" data-name="Group 58463" transform="translate(42.206 0.104)">
        <path id="Path_55039" data-name="Path 55039" fill="#010101" d="M66.36,25.763h3.524l7.327-12.25L69.407.685H66.36V.17H77.287V.685H73.77l5.864,9.642L85.5.685H81.981V.17h7.626V.685H86.083L79.964,10.842l9.127,14.921h3.04v.509h-11v-.509h3.524L77.5,14.029l-7,11.734h3.517v.509H66.36Z" transform="translate(-66.36 -0.17)"/>
      </g>
      <g id="Group_58464" data-name="Group 58464" transform="translate(84.768 -0.01)">
        <path id="Path_55040" data-name="Path 55040" fill="#010101" d="M133.28,25.7h4.07V.62h-4.07V.1h6.964q.439,0,.878-.019T142,.028q.439,0,.878-.019t.878-.019a26.841,26.841,0,0,1,3.81.242,6.365,6.365,0,0,1,3.078,1.374,5.684,5.684,0,0,1,1.813,2.239,5.99,5.99,0,0,1,.534,2.347,6.507,6.507,0,0,1-.2,1.412,4.758,4.758,0,0,1-.878,1.762,6.535,6.535,0,0,1-1.959,1.647,8.864,8.864,0,0,1-3.409,1.011V12.1c.388.051.922.14,1.6.273a9.367,9.367,0,0,1,2.054.681,7.59,7.59,0,0,1,1.927,1.266,4.329,4.329,0,0,1,1.247,2.035,9.048,9.048,0,0,1,.312,1.666c.064.623.108,1.266.146,1.921s.076,1.3.108,1.908a8.981,8.981,0,0,0,.2,1.539,5.675,5.675,0,0,0,.7,1.724,1.672,1.672,0,0,0,1.539.77,2.838,2.838,0,0,0,.992-.184,2.426,2.426,0,0,0,.916-.585l.331.407c-.121.1-.261.2-.42.312a3.123,3.123,0,0,1-.6.312,4.732,4.732,0,0,1-.9.242,8.326,8.326,0,0,1-1.3.089,7,7,0,0,1-2.436-.363,3.62,3.62,0,0,1-1.558-1.081,4.434,4.434,0,0,1-.859-1.762,14.07,14.07,0,0,1-.388-2.436l-.254-3.333a6.987,6.987,0,0,0-.731-2.862,4.018,4.018,0,0,0-1.374-1.5,3.9,3.9,0,0,0-1.628-.566,13.065,13.065,0,0,0-1.469-.089h-3.663V25.717h4.07v.515h-11.8V25.7Zm7.74-13.751h3.371a6.614,6.614,0,0,0,1.87-.254,3.322,3.322,0,0,0,1.45-.9,4.363,4.363,0,0,0,.935-1.743,9.762,9.762,0,0,0,.331-2.786,7.856,7.856,0,0,0-.5-3.059A4.152,4.152,0,0,0,147.2,1.466,4.257,4.257,0,0,0,145.434.7a10.512,10.512,0,0,0-1.927-.184q-.658,0-1.336.019A10.382,10.382,0,0,0,141.02.62Z" transform="translate(-133.28 0.01)"/>
      </g>
      <g id="Group_58465" data-name="Group 58465" transform="translate(0.229 39.474)">
        <path id="Path_55041" data-name="Path 55041" fill="#010101" d="M.36,67.4h.846V62.172H.36v-.1H2.815v.1H1.969v2.5H4.513v-2.5H3.667v-.1H6.122v.1H5.276V67.4h.846v.108H3.667V67.4h.846v-2.62H1.969V67.4h.846v.108H.36Z" transform="translate(-0.36 -62.07)"/>
      </g>
      <g id="Group_58466" data-name="Group 58466" transform="translate(8.383 39.334)">
        <path id="Path_55042" data-name="Path 55042" fill="#010101" d="M13.18,64.7a2.7,2.7,0,0,1,.242-1.132,3.245,3.245,0,0,1,.617-.9,2.912,2.912,0,0,1,.852-.6,2.234,2.234,0,0,1,.948-.216,2.409,2.409,0,0,1,.979.216,2.831,2.831,0,0,1,.852.6,2.869,2.869,0,0,1,.6.9,2.767,2.767,0,0,1,.223,1.132,2.877,2.877,0,0,1-.2,1.049,3.042,3.042,0,0,1-.566.91,2.894,2.894,0,0,1-.846.642,2.333,2.333,0,0,1-1.043.248,2.384,2.384,0,0,1-1.062-.235,2.854,2.854,0,0,1-.846-.63,2.932,2.932,0,0,1-.553-.91A3.3,3.3,0,0,1,13.18,64.7m.878,0a7.367,7.367,0,0,0,.089,1.2,2.483,2.483,0,0,0,.305.852,1.29,1.29,0,0,0,.553.509,1.819,1.819,0,0,0,.833.165,1.9,1.9,0,0,0,.827-.165,1.33,1.33,0,0,0,.553-.509,2.533,2.533,0,0,0,.305-.852,6.672,6.672,0,0,0,.089-1.2,7.52,7.52,0,0,0-.07-1.018,2.629,2.629,0,0,0-.267-.878,1.545,1.545,0,0,0-.541-.617,1.9,1.9,0,0,0-1.806,0,1.545,1.545,0,0,0-.541.617,2.781,2.781,0,0,0-.261.878,7.52,7.52,0,0,0-.07,1.018" transform="translate(-13.18 -61.85)"/>
      </g>
      <g id="Group_58467" data-name="Group 58467" transform="translate(16.072 39.474)">
        <path id="Path_55043" data-name="Path 55043" fill="#010101" d="M26.364,67.4h.846V62.178h-.445a2.3,2.3,0,0,0-.343.025,1.124,1.124,0,0,0-.388.146,1.372,1.372,0,0,0-.375.388,2.407,2.407,0,0,0-.305.731H25.27v-1.4h4.643v1.4H29.83a2.569,2.569,0,0,0-.312-.731,1.372,1.372,0,0,0-.375-.388.886.886,0,0,0-.388-.146,2.3,2.3,0,0,0-.343-.025h-.445V67.4h.846v.108H26.351V67.4Z" transform="translate(-25.27 -62.07)"/>
      </g>
      <g id="Group_58468" data-name="Group 58468" transform="translate(23.335 39.474)">
        <path id="Path_55044" data-name="Path 55044" fill="#010101" d="M36.69,67.4h.846V62.178H36.69V62.07h4.369v1.323h-.083a3.4,3.4,0,0,0-.216-.522,1.427,1.427,0,0,0-.273-.382,1.07,1.07,0,0,0-.382-.235,1.637,1.637,0,0,0-.534-.076H38.305v2.36h.5a1.653,1.653,0,0,0,.426-.045.672.672,0,0,0,.3-.172,1.1,1.1,0,0,0,.216-.343,4.667,4.667,0,0,0,.172-.56H40V65.8h-.083c-.038-.146-.07-.293-.108-.426A1.294,1.294,0,0,0,39.647,65a.751.751,0,0,0-.273-.254.907.907,0,0,0-.445-.1h-.617v2.76h1.444a1.311,1.311,0,0,0,.7-.178,1.613,1.613,0,0,0,.452-.426,1.966,1.966,0,0,0,.261-.515,2.939,2.939,0,0,0,.108-.445h.083v1.673H36.7V67.4Z" transform="translate(-36.69 -62.07)"/>
      </g>
      <g id="Group_58469" data-name="Group 58469" transform="translate(30.815 39.474)">
        <path id="Path_55045" data-name="Path 55045" fill="#010101" d="M48.45,67.4H49.3V62.178H48.45V62.07h2.461v.108h-.846V67.4h1.361a1.361,1.361,0,0,0,1.056-.42,2.611,2.611,0,0,0,.56-1.145h.083v1.673H48.456V67.4Z" transform="translate(-48.45 -62.07)"/>
      </g>
      <g id="Group_58470" data-name="Group 58470" transform="translate(38.479 39.34)">
        <path id="Path_55046" data-name="Path 55046" fill="#010101" d="M60.513,65.784H60.6a3.083,3.083,0,0,0,.216.693,1.88,1.88,0,0,0,.293.464,1.393,1.393,0,0,0,.337.286,1.558,1.558,0,0,0,.356.146,1.361,1.361,0,0,0,.343.051c.108.006.21.006.312.006a1.537,1.537,0,0,0,.661-.121,1.229,1.229,0,0,0,.413-.305,1.2,1.2,0,0,0,.216-.407,1.629,1.629,0,0,0,.064-.4.937.937,0,0,0-.1-.458,1.067,1.067,0,0,0-.254-.324,1.412,1.412,0,0,0-.331-.216,1.877,1.877,0,0,0-.337-.127l-.878-.267a2.23,2.23,0,0,1-.935-.5,1.137,1.137,0,0,1-.318-.84,1.619,1.619,0,0,1,.121-.636,1.562,1.562,0,0,1,.343-.509,1.668,1.668,0,0,1,.528-.337,2.051,2.051,0,0,1,1.119-.076,2.245,2.245,0,0,1,.312.1c.089.038.165.076.235.1a.5.5,0,0,0,.21.045.235.235,0,0,0,.134-.025.947.947,0,0,0,.1-.134h.108V63.38h-.089a2.114,2.114,0,0,0-.159-.528,1.709,1.709,0,0,0-.286-.452,1.32,1.32,0,0,0-.426-.312,1.361,1.361,0,0,0-.579-.121,2.028,2.028,0,0,0-.407.051,1.24,1.24,0,0,0-.413.172,1.083,1.083,0,0,0-.318.318.934.934,0,0,0-.127.5.767.767,0,0,0,.1.413,1.018,1.018,0,0,0,.254.293,1.557,1.557,0,0,0,.35.2,4.137,4.137,0,0,0,.394.14l.922.293.369.121a1.673,1.673,0,0,1,.432.229,1.225,1.225,0,0,1,.5,1.049,1.755,1.755,0,0,1-.134.681,1.662,1.662,0,0,1-.388.572,1.775,1.775,0,0,1-.611.394,2.055,2.055,0,0,1-.808.153c-.108,0-.2,0-.28-.006a1.282,1.282,0,0,1-.229-.019c-.07-.013-.14-.025-.216-.032s-.146-.032-.235-.057-.21-.064-.331-.108a1.007,1.007,0,0,0-.305-.064.216.216,0,0,0-.159.045.432.432,0,0,0-.07.121H60.5V65.784Z" transform="translate(-60.5 -61.86)"/>
      </g>
      <g id="Group_58471" data-name="Group 58471" transform="translate(49.914 39.34)">
        <path id="Path_55047" data-name="Path 55047" fill="#010101" d="M82,66.255a2.435,2.435,0,0,0,.3-.744,3.581,3.581,0,0,0,.083-.731,4.658,4.658,0,0,0-.032-.585.767.767,0,0,0-.121-.331.374.374,0,0,0-.223-.146,1.418,1.418,0,0,0-.356-.032v-.108H83.1v.108a.85.85,0,0,0-.318.051.363.363,0,0,0-.184.165.724.724,0,0,0-.083.293,4.237,4.237,0,0,0-.019.432,4.843,4.843,0,0,1-.032.56,3.727,3.727,0,0,1-.083.445,2.474,2.474,0,0,1-.14.382,3.774,3.774,0,0,1-.184.356,5.923,5.923,0,0,0,.35.579.43.43,0,0,0,.35.21.259.259,0,0,0,.2-.07.385.385,0,0,0,.108-.178,1.159,1.159,0,0,0,.057-.235,1.621,1.621,0,0,0,.013-.248h.108a1.393,1.393,0,0,1-.083.528,1.019,1.019,0,0,1-.21.337.694.694,0,0,1-.286.184.9.9,0,0,1-.305.051,1.114,1.114,0,0,1-.273-.032.569.569,0,0,1-.2-.108,1.118,1.118,0,0,1-.165-.178c-.051-.07-.108-.153-.172-.254a1.817,1.817,0,0,1-.229.191A2.373,2.373,0,0,1,81,67.33a2.181,2.181,0,0,1-.375.14,1.674,1.674,0,0,1-.445.057,1.649,1.649,0,0,1-.808-.184,1.756,1.756,0,0,1-.528-.452,1.732,1.732,0,0,1-.286-.56,1.824,1.824,0,0,1-.083-.5,1.569,1.569,0,0,1,.14-.693,1.912,1.912,0,0,1,.363-.522,2.808,2.808,0,0,1,.477-.394c.172-.114.343-.216.5-.305a2.949,2.949,0,0,1-.165-.394,1.547,1.547,0,0,1-.083-.547,1.208,1.208,0,0,1,.089-.464,1.35,1.35,0,0,1,.235-.35,1.046,1.046,0,0,1,.331-.223,1.021,1.021,0,0,1,.382-.076.71.71,0,0,1,.49.184.737.737,0,0,1,.2.572,1.1,1.1,0,0,1-.07.4,1.079,1.079,0,0,1-.184.3,1.355,1.355,0,0,1-.248.223,2.394,2.394,0,0,1-.261.159ZM80,64.01a2.218,2.218,0,0,0-.636.477,1.047,1.047,0,0,0-.235.712,2.338,2.338,0,0,0,.121.725,3.017,3.017,0,0,0,.324.693,2.1,2.1,0,0,0,.445.515.8.8,0,0,0,.5.2,1.037,1.037,0,0,0,.515-.134,2.221,2.221,0,0,0,.452-.331Zm.273-1.406a1.335,1.335,0,0,0,.108.471c.076.184.159.369.248.547.089-.051.172-.1.254-.159A.988.988,0,0,0,81.266,63a1.017,1.017,0,0,0,.064-.356.854.854,0,0,0-.127-.458.468.468,0,0,0-.432-.2.443.443,0,0,0-.35.178.652.652,0,0,0-.146.439" transform="translate(-78.48 -61.86)"/>
      </g>
      <g id="Group_58472" data-name="Group 58472" transform="translate(61.827 39.442)">
        <path id="Path_55048" data-name="Path 55048" fill="#010101" d="M97.216,67.382h.846V62.16h-.846v-.108h1.45a16.089,16.089,0,0,1,.553-.025c.064,0,.121-.006.184-.006a5.826,5.826,0,0,1,.8.051,1.3,1.3,0,0,1,.642.286,1.158,1.158,0,0,1,.375.464,1.2,1.2,0,0,1,.108.49,1.128,1.128,0,0,1-.045.293.956.956,0,0,1-.184.369,1.308,1.308,0,0,1-.407.343,1.931,1.931,0,0,1-.712.21v.013c.083.013.191.032.331.057a2.38,2.38,0,0,1,.426.14,1.5,1.5,0,0,1,.4.261.913.913,0,0,1,.261.426,1.721,1.721,0,0,1,.064.35c.013.127.019.267.032.4s.013.273.025.394a1.479,1.479,0,0,0,.045.324,1.051,1.051,0,0,0,.146.356.339.339,0,0,0,.318.159.6.6,0,0,0,.2-.038.511.511,0,0,0,.191-.121l.07.083a1.082,1.082,0,0,1-.089.064.474.474,0,0,1-.127.064,1.086,1.086,0,0,1-.184.051,1.672,1.672,0,0,1-.273.019,1.453,1.453,0,0,1-.509-.076.8.8,0,0,1-.324-.223.951.951,0,0,1-.178-.369,3.4,3.4,0,0,1-.083-.509l-.051-.693a1.436,1.436,0,0,0-.153-.6.809.809,0,0,0-.286-.312.761.761,0,0,0-.337-.114,2.8,2.8,0,0,0-.305-.019h-.763v2.76h.846v.108H97.21v-.1Zm1.609-2.862h.7a1.434,1.434,0,0,0,.388-.051.758.758,0,0,0,.305-.184.979.979,0,0,0,.2-.363,2.083,2.083,0,0,0,.07-.579,1.623,1.623,0,0,0-.1-.636.9.9,0,0,0-.267-.363.838.838,0,0,0-.369-.159,2.137,2.137,0,0,0-.4-.038c-.089,0-.184,0-.28.006a1.329,1.329,0,0,0-.242.019Z" transform="translate(-97.21 -62.02)"/>
      </g>
      <g id="Group_58473" data-name="Group 58473" transform="translate(69.446 39.474)">
        <path id="Path_55049" data-name="Path 55049" fill="#010101" d="M109.19,67.4h.846V62.178h-.846V62.07h4.369v1.323h-.083a4.181,4.181,0,0,0-.216-.522,1.427,1.427,0,0,0-.273-.382,1.069,1.069,0,0,0-.382-.235,1.637,1.637,0,0,0-.534-.076h-1.266v2.36h.5a1.653,1.653,0,0,0,.426-.045.672.672,0,0,0,.3-.172,1,1,0,0,0,.216-.343,4.67,4.67,0,0,0,.172-.56h.083V65.8h-.083c-.038-.146-.07-.293-.108-.426a1.5,1.5,0,0,0-.159-.369.751.751,0,0,0-.273-.254.907.907,0,0,0-.445-.1h-.617v2.76h1.444a1.312,1.312,0,0,0,.7-.178,1.612,1.612,0,0,0,.452-.426,1.966,1.966,0,0,0,.261-.515,2.941,2.941,0,0,0,.108-.445h.083v1.673H109.2V67.4Z" transform="translate(-109.19 -62.07)"/>
      </g>
      <g id="Group_58474" data-name="Group 58474" transform="translate(77.25 39.34)">
        <path id="Path_55050" data-name="Path 55050" fill="#010101" d="M121.473,65.784h.083a3.082,3.082,0,0,0,.216.693,1.88,1.88,0,0,0,.293.464,1.393,1.393,0,0,0,.337.286,1.558,1.558,0,0,0,.356.146,1.361,1.361,0,0,0,.343.051c.108.006.216.006.312.006a1.537,1.537,0,0,0,.661-.121,1.229,1.229,0,0,0,.413-.305,1.2,1.2,0,0,0,.216-.407,1.629,1.629,0,0,0,.064-.4.937.937,0,0,0-.1-.458,1.067,1.067,0,0,0-.254-.324,1.412,1.412,0,0,0-.331-.216,1.878,1.878,0,0,0-.337-.127l-.878-.267a2.23,2.23,0,0,1-.935-.5,1.137,1.137,0,0,1-.318-.84,1.618,1.618,0,0,1,.121-.636,1.562,1.562,0,0,1,.343-.509,1.668,1.668,0,0,1,.528-.337,2.051,2.051,0,0,1,1.119-.076,2.246,2.246,0,0,1,.312.1c.089.038.165.076.235.1a.5.5,0,0,0,.21.045.235.235,0,0,0,.134-.025.605.605,0,0,0,.1-.134h.108V63.38h-.089a2.114,2.114,0,0,0-.159-.528,1.709,1.709,0,0,0-.286-.452,1.32,1.32,0,0,0-.426-.312,1.361,1.361,0,0,0-.579-.121,2.028,2.028,0,0,0-.407.051,1.24,1.24,0,0,0-.413.172,1.083,1.083,0,0,0-.318.318.934.934,0,0,0-.127.5.767.767,0,0,0,.1.413,1.018,1.018,0,0,0,.254.293,1.557,1.557,0,0,0,.35.2,4.137,4.137,0,0,0,.394.14l.922.293.369.121a1.673,1.673,0,0,1,.432.229,1.225,1.225,0,0,1,.5,1.049,1.754,1.754,0,0,1-.134.681,1.661,1.661,0,0,1-.388.572,1.775,1.775,0,0,1-.611.394,2.055,2.055,0,0,1-.808.153c-.108,0-.2,0-.28-.006a1.282,1.282,0,0,1-.229-.019c-.07-.013-.14-.025-.216-.032s-.146-.032-.235-.057-.21-.064-.331-.108a1.007,1.007,0,0,0-.305-.064.216.216,0,0,0-.159.045.432.432,0,0,0-.07.121h-.114V65.784Z" transform="translate(-121.46 -61.86)"/>
      </g>
      <g id="Group_58475" data-name="Group 58475" transform="translate(83.642 39.334)">
        <path id="Path_55051" data-name="Path 55051" fill="#010101" d="M131.51,64.7a2.7,2.7,0,0,1,.242-1.132,3.245,3.245,0,0,1,.617-.9,2.912,2.912,0,0,1,.852-.6,2.234,2.234,0,0,1,.948-.216,2.409,2.409,0,0,1,.979.216,2.831,2.831,0,0,1,.852.6,2.869,2.869,0,0,1,.6.9,2.767,2.767,0,0,1,.223,1.132,2.877,2.877,0,0,1-.2,1.049,3.042,3.042,0,0,1-.566.91,2.9,2.9,0,0,1-.846.642,2.333,2.333,0,0,1-1.043.248,2.384,2.384,0,0,1-1.062-.235,2.775,2.775,0,0,1-.846-.63,2.932,2.932,0,0,1-.553-.91,3.3,3.3,0,0,1-.191-1.075m.878,0a7.366,7.366,0,0,0,.089,1.2,2.483,2.483,0,0,0,.305.852,1.29,1.29,0,0,0,.553.509,1.819,1.819,0,0,0,.833.165,1.9,1.9,0,0,0,.827-.165,1.33,1.33,0,0,0,.553-.509,2.533,2.533,0,0,0,.305-.852,6.673,6.673,0,0,0,.089-1.2,7.519,7.519,0,0,0-.07-1.018,2.629,2.629,0,0,0-.267-.878,1.545,1.545,0,0,0-.541-.617,1.9,1.9,0,0,0-1.806,0,1.545,1.545,0,0,0-.541.617,2.781,2.781,0,0,0-.261.878,7.522,7.522,0,0,0-.07,1.018" transform="translate(-131.51 -61.85)"/>
      </g>
      <g id="Group_58476" data-name="Group 58476" transform="translate(91.338 39.442)">
        <path id="Path_55052" data-name="Path 55052" fill="#010101" d="M143.623,67.382h.846V62.16h-.846v-.108h1.45a16.088,16.088,0,0,1,.553-.025c.064,0,.121-.006.184-.006a5.826,5.826,0,0,1,.8.051,1.3,1.3,0,0,1,.642.286,1.158,1.158,0,0,1,.375.464,1.2,1.2,0,0,1,.108.49,1.128,1.128,0,0,1-.045.293.956.956,0,0,1-.184.369,1.308,1.308,0,0,1-.407.343,1.931,1.931,0,0,1-.712.21v.013c.083.013.191.032.331.057a2.38,2.38,0,0,1,.426.14,1.5,1.5,0,0,1,.4.261.913.913,0,0,1,.261.426,1.721,1.721,0,0,1,.064.35c.013.127.019.267.032.4s.013.273.025.394a1.478,1.478,0,0,0,.045.324,1.051,1.051,0,0,0,.146.356.34.34,0,0,0,.318.159.6.6,0,0,0,.2-.038.511.511,0,0,0,.191-.121l.07.083a1.078,1.078,0,0,1-.089.064.474.474,0,0,1-.127.064,1.086,1.086,0,0,1-.184.051,1.672,1.672,0,0,1-.273.019,1.454,1.454,0,0,1-.509-.076.8.8,0,0,1-.324-.223.951.951,0,0,1-.178-.369,3.4,3.4,0,0,1-.083-.509l-.051-.693a1.436,1.436,0,0,0-.153-.6.809.809,0,0,0-.286-.312.76.76,0,0,0-.343-.114,2.8,2.8,0,0,0-.305-.019h-.763v2.76h.846v.108H143.61v-.1Zm1.609-2.862h.7a1.469,1.469,0,0,0,.388-.051.7.7,0,0,0,.3-.184.979.979,0,0,0,.2-.363,2.083,2.083,0,0,0,.07-.579,1.622,1.622,0,0,0-.1-.636.9.9,0,0,0-.267-.363.838.838,0,0,0-.369-.159,2.137,2.137,0,0,0-.4-.038c-.089,0-.184,0-.28.006a1.329,1.329,0,0,0-.242.019V64.52Z" transform="translate(-143.61 -62.02)"/>
      </g>
      <g id="Group_58477" data-name="Group 58477" transform="translate(98.786 39.474)">
        <path id="Path_55053" data-name="Path 55053" fill="#010101" d="M156.42,67.4h.846V62.178h-.445a2.3,2.3,0,0,0-.343.025,1.124,1.124,0,0,0-.388.146,1.372,1.372,0,0,0-.375.388,2.569,2.569,0,0,0-.312.731h-.083v-1.4h4.643v1.4h-.083a2.569,2.569,0,0,0-.312-.731,1.372,1.372,0,0,0-.375-.388.886.886,0,0,0-.388-.146,2.3,2.3,0,0,0-.343-.025h-.445V67.4h.846v.108H156.4V67.4Z" transform="translate(-155.32 -62.07)"/>
      </g>
      <g id="Group_58478" data-name="Group 58478" transform="translate(106.087 39.334)">
        <path id="Path_55054" data-name="Path 55054" fill="#010101" d="M166.813,65.781h.083a3.083,3.083,0,0,0,.216.693,1.881,1.881,0,0,0,.293.464,1.393,1.393,0,0,0,.337.286,1.558,1.558,0,0,0,.356.146,1.361,1.361,0,0,0,.343.051c.108.006.21.006.312.006a1.537,1.537,0,0,0,.661-.121,1.229,1.229,0,0,0,.413-.305,1.2,1.2,0,0,0,.216-.407,1.63,1.63,0,0,0,.064-.4.937.937,0,0,0-.1-.458,1.067,1.067,0,0,0-.254-.324,1.412,1.412,0,0,0-.331-.216,1.877,1.877,0,0,0-.337-.127l-.884-.273a2.23,2.23,0,0,1-.935-.5,1.137,1.137,0,0,1-.318-.84,1.619,1.619,0,0,1,.121-.636,1.563,1.563,0,0,1,.343-.509,1.63,1.63,0,0,1,.534-.337,2.051,2.051,0,0,1,1.119-.076,2.244,2.244,0,0,1,.312.1c.089.038.165.076.235.1a.5.5,0,0,0,.21.045.235.235,0,0,0,.134-.025.448.448,0,0,0,.1-.134h.108V63.37h-.089a2.114,2.114,0,0,0-.159-.528,1.709,1.709,0,0,0-.286-.452,1.32,1.32,0,0,0-.426-.312,1.361,1.361,0,0,0-.579-.121,2.028,2.028,0,0,0-.407.051,1.24,1.24,0,0,0-.413.172,1.083,1.083,0,0,0-.318.318.934.934,0,0,0-.127.5.767.767,0,0,0,.1.413,1.018,1.018,0,0,0,.254.293,1.557,1.557,0,0,0,.35.2c.134.051.261.1.394.14l.922.293.369.121a1.673,1.673,0,0,1,.432.229,1.225,1.225,0,0,1,.5,1.049,1.755,1.755,0,0,1-.134.681,1.662,1.662,0,0,1-.388.572,1.838,1.838,0,0,1-.611.394,2.054,2.054,0,0,1-.808.153c-.108,0-.2,0-.28-.006a1.283,1.283,0,0,1-.229-.019c-.07-.013-.14-.025-.216-.032a2.087,2.087,0,0,1-.235-.057c-.1-.032-.21-.064-.331-.108a1.008,1.008,0,0,0-.305-.064.216.216,0,0,0-.159.045.433.433,0,0,0-.07.121H166.8V65.781Z" transform="translate(-166.8 -61.85)"/>
      </g>
      <g id="Group_58479" data-name="Group 58479" transform="translate(0 33.171)">
        <rect id="Rectangle_27018" data-name="Rectangle 27018" fill="#010101" width="109.98" height="0.382"/>
      </g>
    </g>
  </g>
</svg>
