<?xml version="1.0" encoding="utf-8"?>
<!-- Generator: Adobe Illustrator 25.0.0, SVG Export Plug-In . SVG Version: 6.00 Build 0)  -->
<svg version="1.1" id="Layer_1" xmlns="http://www.w3.org/2000/svg" xmlns:xlink="http://www.w3.org/1999/xlink" x="0px" y="0px"
	 viewBox="0 0 220 140" style="enable-background:new 0 0 220 140;" xml:space="preserve">
<style type="text/css">
	.st0{fill:#294742;}
</style>
<g>
	<g>
		<polygon class="st0" points="129.2,48.5 117.3,48.5 117.3,51.7 121.6,51.7 121.6,81 124.8,81 124.8,51.7 129.2,51.7 		"/>
		<polygon class="st0" points="146.3,48.5 134.4,48.5 134.4,51.7 138.7,51.7 138.7,81 141.9,81 141.9,51.7 146.3,51.7 		"/>
		<path class="st0" d="M70.2,81h3.2V57.5c0-1.9-0.6-3.8-1.6-5.4l0,0c-1.8-2.7-4.8-4.5-8.3-4.5c-3.4,0-6.5,1.8-8.3,4.5l0,0
			c-1.8-2.7-4.8-4.5-8.3-4.5c-5.4,0-9.9,4.4-9.9,9.9V81h3.2V57.5c0-3.7,3-6.7,6.7-6.7c3.6,0,6.6,2.9,6.7,6.6v0.1v23.4H57V57.5l0,0
			c0-3.7,3-6.7,6.7-6.7c3.6,0,6.6,2.9,6.7,6.6L70.2,81L70.2,81L70.2,81z"/>
		<path class="st0" d="M96.8,78.7c-7.7,0-14-6.2-14-13.9c0-7.6,6.2-13.9,14-13.9s14,6.2,14,13.9C110.8,72.4,104.5,78.7,96.8,78.7
			L96.8,78.7L96.8,78.7z M96.8,47.6c-9.5,0-17.2,7.7-17.2,17.1c0,9.5,7.7,17.1,17.2,17.1S114,74.1,114,64.7
			C114.1,55.3,106.4,47.6,96.8,47.6L96.8,47.6L96.8,47.6z"/>
		<path class="st0" d="M166.7,78.7c-7.7,0-14-6.2-14-13.9c0-7.6,6.2-13.9,14-13.9s14,6.2,14,13.9C180.6,72.4,174.3,78.7,166.7,78.7
			L166.7,78.7L166.7,78.7z M166.7,47.6c-9.5,0-17.2,7.7-17.2,17.1c0,9.5,7.7,17.1,17.2,17.1s17.2-7.7,17.2-17.1
			C183.9,55.3,176.2,47.6,166.7,47.6L166.7,47.6L166.7,47.6z"/>
	</g>
	<g id="Canopy_x5F_Parent_x5F_Logo_x5F_DARK_x5F_GREY_x5F_RGB_1_">
		<g>
			<g>
				<path class="st0" d="M141.9,90.8c-0.6,0-1.1,0.2-1.8,0.7v-3.1h-1.9v0.3l0.5,0.1V96l-0.5,0.1v0.3h1.9v-0.3
					c0.3,0.2,0.7,0.4,1.4,0.4c1.7,0,2.6-1.1,2.6-2.9C144.1,91.9,143.1,90.8,141.9,90.8 M141.3,96c-0.5,0-0.9-0.2-1.2-0.5V92
					c0.3-0.2,0.7-0.3,1-0.3c0.9,0,1.5,0.8,1.5,2.1C142.6,95.2,142.1,96,141.3,96 M148.4,90.9h1.6v0.4l-0.4,0.1l-2.2,5.3
					c-0.5,1.2-1,2.2-2,2.2c-0.4,0-0.6,0-0.9-0.1v-1.2h0.3l0.2,0.5c0.1,0.1,0.3,0.1,0.5,0.1c0.7,0,1.1-1,1.4-1.6l0.1-0.1l-2.2-5.1
					l-0.4-0.1v-0.4h2.4v0.4l-0.5,0.1l1.4,3.4l1.3-3.4l-0.5-0.1V90.9z M157.5,88.7h2.6v0.4l-0.5,0.1v6.8l0.5,0.1v0.4h-2.6V96l0.6-0.1
					v-3.1h-3.3v3.1l0.5,0.1v0.4h-2.6V96l0.5-0.1v-6.8l-0.5-0.1v-0.4h2.6v0.4l-0.5,0.1v2.9h3.3v-2.9l-0.6-0.1V88.7z M161.6,89.2
					c0-0.5,0.3-0.9,0.8-0.9c0.5,0,0.8,0.4,0.8,0.8c0,0.5-0.4,0.9-0.8,0.9C161.9,90.1,161.6,89.8,161.6,89.2 M163.1,96l0.5,0.1v0.3
					h-2.4V96l0.5-0.1v-4.6l-0.5-0.1v-0.4h1.9V96z M166.5,96L167,96v0.3h-2.4V96l0.5-0.1v-7.1l-0.5-0.1v-0.3h1.9V96z M170.8,95.8
					c0.3,0,0.5,0,0.8-0.1v0.4c-0.7,0.2-1.3,0.4-1.8,0.4c-1.1,0-1.4-0.5-1.4-1.5v-3.6h-1v-0.5h1v-1.1l1.4-0.4v1.6h1.3v0.5h-1.3v3.3
					C169.9,95.5,170.1,95.8,170.8,95.8 M174.7,90.8c-1.8,0-2.9,1.2-2.9,2.9c0,2.1,1.1,2.8,2.8,2.8c1.8,0,2.9-1.1,2.9-2.8
					C177.6,91.8,176.5,90.8,174.7,90.8 M174.7,96.1c-0.8,0-1.3-0.7-1.3-2.5c0-1.8,0.5-2.5,1.3-2.5c0.8,0,1.3,0.8,1.3,2.5
					C176,95.5,175.5,96.1,174.7,96.1 M183.9,96l0.5,0.1v0.3H182V96l0.5-0.1v-3.1c0-0.9-0.3-1.2-1-1.2c-0.3,0-0.8,0.2-1.1,0.5V96
					l0.5,0.1v0.3h-2.4V96L179,96v-4.6l-0.5-0.1v-0.4h1.9v0.8c0.6-0.5,1.2-0.9,2-0.9c1.1,0,1.5,0.6,1.5,1.9V96z M187.9,88.8v1.4
					l0.2,0v0.1h-0.7v-0.1l0.2,0V89l-0.6,1.4h-0.1l-0.6-1.3v1.2l0.2,0v0.1H186v-0.1l0.1,0v-1.4l-0.1,0v-0.1h0.6l0.5,1.1l0.5-1.1h0.6
					v0.1L187.9,88.8z M184.4,88.7h1.5V89h-0.1l0-0.2h-0.4v1.3l0.2,0v0.1h-0.7v-0.1l0.2,0v-1.3h-0.4l0,0.2h-0.1V88.7z"/>
			</g>
		</g>
	</g>
</g>
</svg>
