<svg xmlns="http://www.w3.org/2000/svg" xmlns:xlink="http://www.w3.org/1999/xlink" preserveAspectRatio="none" width="194" height="440"><defs><path id="A" stroke="#f8951f" stroke-width="3" stroke-linejoin="miter" stroke-miterlimit="10" fill="none" d="M2 135.35q-.15 0 23.15 25.6 4.25 5.05 6.95 7.5 2.75 2.7 5.1 4 2.15 1.15 4.9 1.45 2.05.3 6.2.25.95 0 2.05 0 1 0 1.9 0h7.6q3.2 0 4.3.05 2.25.25 3.55 1.05 1.65 1.05 2.15 3.05.45 2.3-.55 6.05-1.6 5.8-1.45 12.35.15 6.6 2.05 13.2 2 6.85 5.55 13.15 3.65 6.6 9.05 12.2 6.85 7.2 15.05 11.7 8 4.45 17.05 6.25 8.85 1.75 18.3.7 9.5-1.1 19-4.9 9.3-3.7 16.4-9.25 7.25-5.4 12.2-12.45 4.8-7.05 7.2-15.55 2.5-8.55 2.3-18.2-.15-10.15-3.35-19.1-3.2-8.75-9.3-15.9l-.05-.2q-1.3-1.35-6.85-7.7-7.9-8.85-12-13.35-23.4-26.2-50.85-57.05-3.95-4.65-5.35-10.9-1.2-6.05 0-12.2.1-.4.15-1 .1-.1.1-.25.7-2.6 2.8-4.15-.05 3.1 1.6 7 1.45 3.2 4.05 6.6 5.2 6 46.35 51.1 4.35-2.75 6.3-4.15 3.3-2.3 5.2-4.1 9.35-8.5 14.65-19.6 5-10.8 5.65-22.5.75-11.85-3.2-22.9-4.1-11.5-12.65-20.75-8.6-9.35-20.2-14.7Q143.8 2.7 131.1 2.1q-12.55-.65-24.4 3.3-12.25 4.05-22.05 12.35-8.95 7.75-14.45 18.5-5.15 10.2-6.45 21.65-1.2 11.3 1.75 21.8 2.9 10.9 9.9 18.8 6.6 7.35 15.85 18.05 2.05 1.85 4.9 5 1.2 1.35 4.15 4.7.45.5 1 1.1 9.65 10 49.5 52.05 2.8 3.25 4.4 7.25 1.5 4 1.6 8.1.05 5.35-2 10.1-1.95 4.65-5.75 8.3-3.65 3.6-8.55 5.6-4.85 2.1-10.25 2.1-5.4 0-10.35-2.1-4.6-2-8.4-5.6-3.65-3.55-5.65-8.3-2.05-4.75-2.05-10.1 0-10.3 5.55-16.25 5.5-6 16.2-7.7-8.15-9.1-14.05-15.7-8.6-9.65-11.65-12.6-3.55-3.45-7.35-5.05-3-1.25-5.7-1.5l-71.5-.6.1.1-13.4-.1zm122.2-97.4q7.8-1 13.3.45 2.35.55 4.75 1.75 1.85.8 4.2 2.3 3.75 2.3 6.55 7 2.5 4.15 3.25 8.8.1.6.25 1.8.2 1.45.2 1.85 0 .85 0 2.6 0 1.45-.2 2.8-.3 2.6-1.1 4.15-.05.05-.05.2h-.1q-.9 1.45-2.05 1.65-1.05.3-2.25-.8-.1-.1-.85-.85-1.6-1.6-2.9-3.1l-28.05-29.5 5.05-1.1zm-39.55 302.5q-8 7.85-12.25 17.85-4.1 9.6-4.3 20.2-.25 10.35 3.25 20.5 3.5 10.25 10.4 18.95l.15.25q.1.1.25.25.2.2.45.45 1.15 1.7 3.2 3.75 1 1.15 1.45 1.6.65.7.9.85l13.9 12.9h47.75l-33.85-37.8q-1.5-1.5-3-3.35-2.6-3.1-4.2-6.6-1.45-3.55-1.75-7.1-.3-3.7.75-7.1 1.25-3.65 3.75-6.7.95-1.25 2.1-2.35 2.35-2.15 5.25-3.65 2.95-1.4 6-2.05 3.15-.6 6.15-.4 3.2.3 6.05 1.5 2.95.95 5.6 2.65 2.5 1.8 4.55 4.1 3 3.45 4.6 7.9 1.4 4.25 1.2 8.7-.15 4.5-2.2 8.4-1.9 4.05-5.4 6.8l-7.4 5.85 22.35 24.45q6-4.15 9.6-7.15 1.9-1.5 3.55-3.3 8.3-8.65 12.35-19.5 3.95-10.45 3.55-21.65-.4-11.2-5-21.4-4.9-10.6-13.55-18.75-8.8-8.25-20.3-12.55-11-4.1-22.85-3.95-12.05.15-23 4.45-11.3 4.55-20.05 13zm105.95-57.6q-2.5-9-9.35-12.15-2.85-1.45-6.65-1.9-2.9-.35-7.3-.3-1.6 0-8 0H70.75v39.4h120.7l.15-14.1-.15-.05q0-8.45-.85-10.9z"/></defs><use xlink:href="#A"/></svg>