{
    "asset" : {
        "generator" : "Khronos glTF Blender I/O v1.3.48",
        "version" : "2.0"
    },
    "scene" : 0,
    "scenes" : [
        {
            "name" : "Scene",
            "nodes" : [
                0,
                1
            ]
        }
    ],
    "nodes" : [
        {
            "mesh" : 0,
            "name" : "caroler_jacket.1",
            "translation" : [
                0,
                0.003946466837078333,
                0
            ]
        },
        {
            "mesh" : 1,
            "name" : "Plane",
            "scale" : [
                2.7923645973205566,
                2.7923645973205566,
                2.7923645973205566
            ],
            "translation" : [
                -0.03722996637225151,
                0,
                0.2694360315799713
            ]
        }
    ],
    "materials" : [
        {
            "doubleSided" : true,
            "emissiveFactor" : [
                1,
                1,
                1
            ],
            "emissiveTexture" : {
                "index" : 0,
                "texCoord" : 0
            },
            "name" : "Material_0.001",
            "normalTexture" : {
                "index" : 1,
                "texCoord" : 0
            },
            "occlusionTexture" : {
                "index" : 2,
                "texCoord" : 0
            },
            "pbrMetallicRoughness" : {
                "baseColorTexture" : {
                    "index" : 3,
                    "texCoord" : 0
                },
                "metallicFactor" : 0,
                "metallicRoughnessTexture" : {
                    "index" : 4,
                    "texCoord" : 0
                }
            }
        },
        {
            "alphaMode" : "BLEND",
            "doubleSided" : true,
            "emissiveFactor" : [
                0,
                0,
                0
            ],
            "name" : "AShadow",
            "pbrMetallicRoughness" : {
                "baseColorTexture" : {
                    "index" : 5,
                    "texCoord" : 0
                },
                "metallicFactor" : 0,
                "roughnessFactor" : 0.5
            }
        }
    ],
    "meshes" : [
        {
            "name" : "Mesh_0",
            "primitives" : [
                {
                    "attributes" : {
                        "POSITION" : 0,
                        "NORMAL" : 1,
                        "TEXCOORD_0" : 2
                    },
                    "indices" : 3,
                    "material" : 0
                }
            ]
        },
        {
            "name" : "Plane.001",
            "primitives" : [
                {
                    "attributes" : {
                        "POSITION" : 4,
                        "NORMAL" : 5,
                        "TEXCOORD_0" : 6
                    },
                    "indices" : 7,
                    "material" : 1
                }
            ]
        }
    ],
    "textures" : [
        {
            "source" : 0
        },
        {
            "source" : 1
        },
        {
            "source" : 2
        },
        {
            "source" : 3
        },
        {
            "source" : 4
        },
        {
            "source" : 5
        }
    ],
    "images" : [
        {
            "bufferView" : 4,
            "mimeType" : "image/jpeg",
            "name" : "Image_3"
        },
        {
            "bufferView" : 5,
            "mimeType" : "image/jpeg",
            "name" : "Image_2"
        },
        {
            "bufferView" : 6,
            "mimeType" : "image/jpeg",
            "name" : "Image_4"
        },
        {
            "bufferView" : 7,
            "mimeType" : "image/jpeg",
            "name" : "Image_0"
        },
        {
            "bufferView" : 8,
            "mimeType" : "image/jpeg",
            "name" : "Image_1"
        },
        {
            "bufferView" : 13,
            "mimeType" : "image/png",
            "name" : "Shadow"
        }
    ],
    "accessors" : [
        {
            "bufferView" : 0,
            "componentType" : 5126,
            "count" : 7148,
            "max" : [
                0.9348474740982056,
                5.302721977233887,
                1.218649983406067
            ],
            "min" : [
                -1.0822741985321045,
                -0.00443586939945817,
                -1.0712169408798218
            ],
            "type" : "VEC3"
        },
        {
            "bufferView" : 1,
            "componentType" : 5126,
            "count" : 7148,
            "type" : "VEC3"
        },
        {
            "bufferView" : 2,
            "componentType" : 5126,
            "count" : 7148,
            "type" : "VEC2"
        },
        {
            "bufferView" : 3,
            "componentType" : 5123,
            "count" : 34149,
            "type" : "SCALAR"
        },
        {
            "bufferView" : 9,
            "componentType" : 5126,
            "count" : 4,
            "max" : [
                1,
                0,
                1
            ],
            "min" : [
                -1,
                0,
                -1
            ],
            "type" : "VEC3"
        },
        {
            "bufferView" : 10,
            "componentType" : 5126,
            "count" : 4,
            "type" : "VEC3"
        },
        {
            "bufferView" : 11,
            "componentType" : 5126,
            "count" : 4,
            "type" : "VEC2"
        },
        {
            "bufferView" : 12,
            "componentType" : 5123,
            "count" : 6,
            "type" : "SCALAR"
        }
    ],
    "bufferViews" : [
        {
            "buffer" : 0,
            "byteLength" : 85776,
            "byteOffset" : 0
        },
        {
            "buffer" : 0,
            "byteLength" : 85776,
            "byteOffset" : 85776
        },
        {
            "buffer" : 0,
            "byteLength" : 57184,
            "byteOffset" : 171552
        },
        {
            "buffer" : 0,
            "byteLength" : 68298,
            "byteOffset" : 228736
        },
        {
            "buffer" : 0,
            "byteLength" : 11090,
            "byteOffset" : 297036
        },
        {
            "buffer" : 0,
            "byteLength" : 124761,
            "byteOffset" : 308128
        },
        {
            "buffer" : 0,
            "byteLength" : 143989,
            "byteOffset" : 432892
        },
        {
            "buffer" : 0,
            "byteLength" : 161121,
            "byteOffset" : 576884
        },
        {
            "buffer" : 0,
            "byteLength" : 23529,
            "byteOffset" : 738008
        },
        {
            "buffer" : 0,
            "byteLength" : 48,
            "byteOffset" : 761540
        },
        {
            "buffer" : 0,
            "byteLength" : 48,
            "byteOffset" : 761588
        },
        {
            "buffer" : 0,
            "byteLength" : 32,
            "byteOffset" : 761636
        },
        {
            "buffer" : 0,
            "byteLength" : 12,
            "byteOffset" : 761668
        },
        {
            "buffer" : 0,
            "byteLength" : 28411,
            "byteOffset" : 761680
        }
    ],
    "buffers" : [
        {
            "byteLength" : 790092,
            "uri" : "data:application/octet-stream;base64,"
        }
    ]
}
