<?xml version="1.0" encoding="utf-8"?>
<!-- Generator: Adobe Illustrator 24.0.2, SVG Export Plug-In . SVG Version: 6.00 Build 0)  -->
<svg version="1.1" id="Ebene_1" xmlns="http://www.w3.org/2000/svg" xmlns:xlink="http://www.w3.org/1999/xlink" x="0px" y="0px"
	 viewBox="0 0 153 48" style="enable-background:new 0 0 153 48;" xml:space="preserve">
<style type="text/css">
	.st0{fill-rule:evenodd;clip-rule:evenodd;fill:#FFFFFF;}
	.st1{fill-rule:evenodd;clip-rule:evenodd;fill:#B72F2A;}
</style>
<title>fidelity_international_rgb_fc</title>
<desc>Created with Sketch.</desc>
<g id="Page-1">
	<g id="fidelity_international_rgb_fc">
		<g id="fidelity" transform="translate(56.000000, 10.000000)">
			<polygon id="Y" class="st0" points="84.9,28.8 89.4,28.8 96.8,9.2 92.1,9.2 88.8,19.3 88.8,19.3 85.5,9.2 80.8,9.2 86.6,24.5 			
				"/>
			<path id="t" class="st0" d="M79.6,21.1c-0.3,0.1-0.5,0.1-0.9,0.1c-1.1,0-1.4-0.3-1.4-1v-7.7h2.3V9.2h-2.3V4.4H73v4.8h-2v3.3h2
				v8.2c0,3.3,1.7,4,4.5,4c0.7,0,1.4-0.1,2.1-0.2V21.1z"/>
			<path id="i2" class="st0" d="M65.1,24.5V9.2h4.3v15.3H65.1z M64.7,2.9c0-1.3,1.1-2.5,2.5-2.5c1.3,0,2.5,1.1,2.5,2.5
				c0,1.3-1.1,2.5-2.5,2.5C65.8,5.3,64.7,4.1,64.7,2.9z"/>
			<polygon id="l" class="st0" points="58.7,1.3 58.7,24.5 63,24.5 63,1.3 63,0.9 58.7,0.9 			"/>
			<path id="e" class="st0" d="M57.2,18H45.9c0.2,1.8,1.3,3.6,3.6,3.6c1.3,0,2.5-0.6,3.1-1.8l4.2,0.3c-1,3.1-3.8,4.8-7.5,4.8
				c-4.6,0-7.8-3.2-7.8-8c0-4.9,3.2-8.1,7.8-8.1c4.6,0,7.8,3.2,7.8,8.1V18z M52.9,15.3c-0.2-1.5-1.3-3.3-3.3-3.3
				c-2.2,0-3.3,1.6-3.6,3.3H52.9z"/>
			<path id="d" class="st0" d="M35.9,24.5v-2.1h-0.1c-1.2,1.8-3,2.6-5,2.6c-4.3,0-7.2-3.8-7.2-8.1c0-4.3,2.7-8,7.1-8
				c2,0,3.4,0.6,4.9,2.5h0.1v-10V0.9H40v0.4v23.2H35.9z M31.9,12.4c-2.5,0-3.8,2.2-3.8,4.5c0,2.4,1.3,4.5,3.9,4.5
				c2.4,0,3.8-2,3.8-4.6C35.9,14.5,34.6,12.4,31.9,12.4z"/>
			<path id="i1" class="st0" d="M17.3,24.5V9.3h4.7v15.2H17.3z M17.2,2.9c0-1.3,1.1-2.5,2.5-2.5c1.3,0,2.5,1.1,2.5,2.5
				c0,1.3-1.1,2.5-2.5,2.5C18.2,5.3,17.2,4.1,17.2,2.9z"/>
			<polygon id="F" class="st0" points="0.7,13.5 0.7,16.2 3,16.2 3,24.6 7.7,24.6 7.7,16.2 12.2,16.2 13.4,13.5 7.7,13.5 7.7,12 
				14.1,12 15.3,9.3 7.7,9.3 7.7,4.8 15.3,4.8 15.3,0.9 3,0.9 3,9.3 0.7,9.3 0.7,12 3,12 3,13.5 			"/>
		</g>
		<g id="international" transform="translate(58.000000, 41.799999)">
			<polygon id="L1" class="st0" points="87.2,5 87.2,6.1 84.2,6.1 84.2,0.7 85.5,0.7 85.5,5 			"/>
			<path id="A2" class="st0" d="M77.7,5.3l-0.2,0.8H76l1.8-5.4h1.7l1.8,5.4h-1.4l-0.2-0.8H77.7z M78.6,2.2l-0.6,2h1.3L78.6,2.2z"/>
			<polygon id="N3" class="st0" points="69.8,6.1 68.5,6.1 68.5,0.7 69.8,0.7 71.8,3.7 71.8,0.7 73.1,0.7 73.1,6.1 71.8,6.1 69.8,3 
							"/>
			<path id="O1" class="st0" d="M65.7,3.4c0,1.5-1.3,2.8-2.8,2.8C61.2,6.2,60,5,60,3.4c0-0.8,0.3-1.5,0.9-2.1c0.5-0.5,1.2-0.7,2-0.7
				C64.5,0.6,65.7,1.8,65.7,3.4z M61.3,3.4C61.3,4.3,62,5,62.8,5c0.8,0,1.5-0.7,1.5-1.6c0-0.9-0.6-1.6-1.5-1.6
				C61.9,1.8,61.3,2.5,61.3,3.4z"/>
			<polygon id="I2" class="st0" points="55.6,6.1 56.9,6.1 56.9,0.7 55.6,0.7 			"/>
			<polygon id="T2" class="st0" points="50.9,6.1 49.6,6.1 49.6,1.8 48.4,1.8 48.4,0.7 52.2,0.7 52.2,1.8 50.9,1.8 			"/>
			<path id="A1" class="st0" d="M42.6,5.3l-0.2,0.8H41l1.8-5.4h1.7l1.8,5.4h-1.4l-0.2-0.8H42.6z M43.6,2.2l-0.6,2h1.3L43.6,2.2z"/>
			<polygon id="N2" class="st0" points="34.8,6.1 33.5,6.1 33.5,0.7 34.8,0.7 36.8,3.7 36.8,0.7 38.1,0.7 38.1,6.1 36.8,6.1 34.8,3 
							"/>
			<path id="R1" class="st0" d="M27.5,6.1h-1.3V0.7H28c0.7,0,1.2,0.1,1.6,0.4c0.4,0.3,0.6,0.8,0.6,1.4c0,0.8-0.3,1.4-1,1.6l1.2,2
				h-1.6L27.5,4V6.1z M28,3.3c0.5,0,0.9-0.3,0.9-0.7c0-0.5-0.3-0.8-0.8-0.8h-0.5v1.5H28z"/>
			<polygon id="E1" class="st0" points="21.2,2.9 22.9,2.9 22.9,3.9 21.2,3.9 21.2,5 22.9,5 22.9,6.1 19.9,6.1 19.9,0.7 22.9,0.7 
				22.9,1.8 21.2,1.8 			"/>
			<polygon id="T1" class="st0" points="15.8,6.1 14.5,6.1 14.5,1.8 13.3,1.8 13.3,0.7 17,0.7 17,1.8 15.8,1.8 			"/>
			<polygon id="N1" class="st0" points="7,6.1 5.7,6.1 5.7,0.7 7,0.7 9,3.7 9,0.7 10.3,0.7 10.3,6.1 9,6.1 7,3 			"/>
			<polygon id="I1" class="st0" points="1,6.1 2.3,6.1 2.3,0.7 1,0.7 			"/>
		</g>
		<g id="symbol">
			<polygon id="symbol-container" class="st1" points="0,48 48,48 48,0 0,0 			"/>
			<polygon id="currency-symbol" class="st0" points="32.9,15.5 32.9,10.9 18.6,10.9 18.6,20.7 18.2,20.7 15.5,20.7 15.5,23.8 
				16.4,23.8 18.6,23.8 18.6,26.3 18.1,26.3 15.5,26.3 15.5,29.4 16.3,29.4 18.6,29.4 18.6,38.9 24.1,38.9 24.1,29.4 29,29.4 
				30.4,26.3 24.1,26.3 24.1,25.2 24.1,23.8 31.5,23.8 32.9,20.7 24.1,20.7 24.1,15.5 			"/>
		</g>
	</g>
</g>
</svg>
