<svg xmlns="http://www.w3.org/2000/svg" xmlns:xlink="http://www.w3.org/1999/xlink" preserveAspectRatio="none" width="232" height="34"><defs><path fill="#161d65" stroke="none" d="M105.25 11.55q0-2.1-.8-4-.8-1.85-2.25-3.25-1.4-1.4-3.3-2.15-1.9-.8-4-.8h-7.5v20.4h7.5q2.1 0 4-.8 1.85-.75 3.3-2.15 1.45-1.4 2.25-3.25.8-1.9.8-4m-7.15-4.2q1.65 1.55 1.65 4.2 0 2.85-1.75 4.35-1.55 1.35-4.1 1.35h-1.2V5.85h1.25q2.6 0 4.15 1.5m20.55-6h-5.75l-7.85 20.4h5.65l1.4-3.55h7.3l1.3 3.55h5.65l-7.7-20.4m-2.9 6.3h.05l2.15 6.5h-4.4l2.2-6.5m14.6-6.3H124l7.5 10.6v9.8h5.3v-9.8l7.5-10.6h-6.35l-3.8 5.55-3.8-5.55m-85.9 6.3q-1.35-3.2-3.85-4.9Q38.1 1 34.7 1.1q-1.8 0-3.35.55-1.55.55-2.8 1.6h-.05q-.45.4-3.7 3.25-3 2.65-6.7 5.9-3.3 2.85-3.35 2.9-.8.65-1.9.9-1.05.2-2.15 0-.1 0-.15 0l-.05-.05q-.5-.15-.75-.45 1.05 0 2.4-1 1.05-.9 9-8-.5-.7-.75-1.1-.4-.55-.7-.85-1.5-1.65-3.45-2.55-1.9-.85-3.95-1-2.1-.1-4.05.6-2 .7-3.65 2.15-1.65 1.5-2.55 3.5-.9 1.95-1 4.1-.15 2.2.55 4.2.75 2.15 2.2 3.8 1.35 1.55 3.25 2.5 1.8.9 3.8 1.1 2 .25 3.85-.25 1.9-.55 3.3-1.75 1.3-1.1 3.15-2.75.45-.45 1.7-1.55l.2-.15q1.35-1.3 9.15-8.55v.05q.6-.5 1.3-.75.7-.3 1.4-.3 1.9-.05 3.25 1.3Q39.5 9.8 39.5 11.7q0 1.9-1.35 3.25-1.35 1.3-3.25 1.3-1.9 0-3-1.05-1.2-1.15-1.3-3.3-4.1 3.5-4.95 4.4-.6.6-.9 1.3-.2.45-.25.95v7.25h-.05v8q0 .05 4.5-4 1.65-1.35 2.05-2.05.2-.4.25-.85.05-.35.05-1.05v-2q0-1.05.2-1.35.35-.6 1.55-.3 2.15.55 4.5-.1 2.55-.7 4.45-2.5 2.55-2.4 3.15-5.55.65-3.1-.7-6.4M13.2 7.4h.05q.25.15.3.35.05.2-.15.4l-.15.15q-.35.3-.55.5l-5.15 4.85-.2-.9q-.2-1.3.05-2.3.2-.65.75-1.55.4-.65 1.2-1.1.75-.4 1.55-.55.4-.1.65-.1H12q.25 0 .5.05.45.05.7.2m41.6-6.25h-2.5q-1.5 0-1.9.15-1.6.45-2.15 1.65-.4.8-.4 2.4v16.6h6.95V1.15m21.7 5.4q-.75-1.05-1.3-1.65-.25-.35-.55-.65-1.55-1.4-3.45-2.1-1.85-.7-3.8-.6-1.95.05-3.75.85-1.85.8-3.3 2.3-1.45 1.55-2.2 3.5-.75 1.9-.7 3.95 0 2.1.8 3.95.8 2 2.25 3.45 1.4 1.4 3.15 2.15 1.7.7 3.55.7 1.85.05 3.6-.55 1.8-.6 3.35-1.75l.05-.05q.05-.05.1-.1.3-.25.65-.55.4-.35.45-.45l2.3-2.35V8.35L71 14.2v-.05q-.25.3-.55.55-1.15.9-2.45 1-1.35.1-2.4-.75-.25-.2-.4-.35-.8-.85-1-1.95-.25-1.1.15-2.1.4-1.05 1.2-1.75 1.25-1.1 2.95-1 1.65.1 2.65 1.3l1.05 1.25 4.3-3.8M225.25 2.1v-.9h-3.85v.9h1.35v3.65h1.1V2.1h1.4m4.8 0v3.65h.95V1.2h-1.6l-1 2.7-1-2.7h-1.6v4.55h.95V2.1h.05l1.3 3.65h.6L230 2.1h.05M212.7 5.85q.7-.4 1.5-.4.95 0 1.9.35.85.35 1.6 1l2.1-4.1q-1.35-.8-3.05-1.25Q215 1 213.45 1q-3.1 0-5 1.9-2 1.85-2 4.95 0 2.7 1.5 4 .65.55 1.75 1 .8.3 2.25.75 1.45.4 2.05.7 1.15.65 1.15 1.6 0 1-.8 1.55-.7.5-1.75.5-1.25 0-2.55-.6-1.05-.55-2.15-1.5l-2.25 4.25q1.55 1.1 3.4 1.7 1.85.65 3.75.65 1.6 0 3.05-.45 1.55-.5 2.7-1.5 2.1-1.8 2.1-5.45 0-2.3-1.45-3.7-1.2-1.15-3.55-1.85l-1.35-.4q-1.05-.35-1.5-.65-.85-.55-.85-1.3 0-.8.75-1.3m-8.45 9.2q0-2.3-1.45-3.7-1.2-1.15-3.55-1.85l-1.35-.4q-1.05-.35-1.55-.65-.8-.55-.8-1.3 0-.8.75-1.3.7-.4 1.5-.4.95 0 1.9.35.85.35 1.6 1l2.1-4.1q-1.35-.8-3.1-1.25-1.7-.45-3.25-.45-3.1 0-5.05 1.9-1.95 1.85-1.95 4.95 0 2.7 1.5 4 .65.55 1.75 1 .8.3 2.25.75 1.45.4 2 .7 1.2.65 1.2 1.6 0 1-.8 1.55-.75.5-1.75.5-1.25 0-2.55-.6-1.05-.55-2.15-1.5l-2.25 4.25q1.55 1.1 3.4 1.7 1.85.65 3.75.65 1.6 0 3.05-.45 1.55-.5 2.7-1.5 2.1-1.8 2.1-5.45m-21.5 6.85h5.6L180.7 1.55h-5.75L167.1 21.9h5.65l1.4-3.55h7.25l1.35 3.55m-5-14.05h.05l2.2 6.45h-4.4l2.15-6.45m-9.55.4q0-3.4-2.1-5.1-1.9-1.6-5.3-1.6h-8.1V21.9h5.3v-6.75h3q3.5 0 5.3-1.65 1.9-1.75 1.9-5.25m-7.85-2.4q.75.1 1.2.3 1.15.55 1.15 2.25 0 1.65-1.2 2.15-.5.25-1.2.3-.45.05-1.4.05h-.9V5.8h.9q.95 0 1.45.05z" id="A"/></defs><use xlink:href="#A"/></svg>