<svg xmlns="http://www.w3.org/2000/svg" viewBox="0 0 220 140" width="220px" height="140px">
  <g id="canopy_logo" transform="translate(-9889 -1699)">
    <rect id="Rectangle_27004" data-name="Rectangle 27004" fill="none" transform="translate(9889 1699)"/>
    <g id="Group_58481" data-name="Group 58481" transform="translate(9913 1749.835)">
      <path id="Path_55011" data-name="Path 55011" fill="#fe5000" d="M11.42,22.348c-5.2,0-8.273-3.97-8.273-8.648a8.2,8.2,0,0,1,7.8-8.561c.173.014.332,0,.476,0A7.444,7.444,0,0,1,18.6,9.686h3.321A10.492,10.492,0,0,0,11.348,2.309,11.233,11.233,0,0,0,.014,13.426v.361A10.852,10.852,0,0,0,10.308,25.178q.52.022,1.04,0c6.266,0,9.485-3.624,10.669-7.175H18.682A7.327,7.327,0,0,1,11.42,22.348ZM42.562,3.276h2.916V24.644H42.547V22.3A10.635,10.635,0,0,1,34.9,25.163c-6.988,0-10.944-4.822-10.944-11.377A11.029,11.029,0,0,1,34.506,2.323c.3-.014.606-.014.9,0a11.323,11.323,0,0,1,7.161,2.411Zm0,5.01a9.211,9.211,0,0,0-7.1-3.234c-4.938,0-8.4,3.479-8.4,8.735,0,4.822,2.7,8.619,8.143,8.619a8.813,8.813,0,0,0,7.378-3.624ZM176.311,2.641c-.664.274-1.357.072-2.339.476a29.906,29.906,0,0,0-4.461,2.469A141.638,141.638,0,0,0,149.5,23.1a3.519,3.519,0,0,0-.014.39c-.072,1.4-.274,4.331-.4,5.587-.722,7.175-4.548,20.963-12.07,20.963-2.974,0-4.389-1.66-4.389-4.172,0-4.317,3.306-8.663,5.342-11.276,1.7-2.195,4.548-5.414,7.334-8.446.563-.606,1.126-1.213,1.7-1.819a114.957,114.957,0,0,0-.029-13.2c-.087-1.3-.188-1.906-1.314-1.04a51.766,51.766,0,0,0-4.245,4.649c-1.949,2.122-6.367,7.565-9.182,8.98a5.3,5.3,0,0,1-2.642.765c-1.66,0-2.541-1.314-2.527-3.133a20.98,20.98,0,0,1,.448-3.537c.361-1.906.866-4.548,1.386-7.161a31.55,31.55,0,0,1-13.745,11.839.585.585,0,0,0-.13.072,19.54,19.54,0,0,1-7.031,1.862c-.938.043-1.617-.592-.476-1.054,2.454-1.011,6.02-2.151,7.2-3.133a11.359,11.359,0,0,0,4.418-9.038c0-4.736-2.931-7.074-6.93-7.074-3.682,0-6.049,1.473-6.511,2.613a10.616,10.616,0,0,0-.563,3.147,230.068,230.068,0,0,0-.534,32.629c-.693,1.92-.9,2.888-1.949,2.844-.924-.043-1.169-1.848-1.242-2.7-.274-3.422-.346-8.244-.346-9.615,0-5.024.318-13.932.707-18.711.1-1.169.433-4.649.433-4.649a28.443,28.443,0,0,1-6.425,6.728,11.167,11.167,0,0,1-11.521,8.6c-6.194,0-10.236-4.1-10.236-10.4A11.589,11.589,0,0,1,85.08,2.525c.274-.014.549-.014.837-.014a9.807,9.807,0,0,1,10.308,9.3,11.064,11.064,0,0,1-.014,1.2,15.461,15.461,0,0,1-.1,1.631,24.551,24.551,0,0,0,6.468-8.4c.808-1.761,5.01-3.581,9.168-3.624,5.818-.058,10.5,2.7,10.5,8.72a11.683,11.683,0,0,1-3.133,7.912c4.808-3,8.922-8.5,10.02-12.792.534-2.079-.014-3.321,3.306-3.35,0,1.891-1.054,8.042-1.487,10.727a60.388,60.388,0,0,0-.809,6.237c0,2.195,2.036,2.238,5.111-.274,3.71-3.017,8.98-10.568,11.333-15.491.361-.765.693-1.155,1.372-1.155,1,0,1.1,1.559,1.314,3.8a100.3,100.3,0,0,1,.3,14.726,191.987,191.987,0,0,1,17.643-15.91c1.141-.9,2.916-2.31,4.476-3.364A17.105,17.105,0,0,1,175.719.1c.65-.217,1.141-.072,1.372.462a1.533,1.533,0,0,1-.693,2.05C176.355,2.626,176.326,2.626,176.311,2.641Zm-83.9,15.838a16.411,16.411,0,0,1-3.364,1.112c-4.071.881-8.735.621-11.608-1.949a6.982,6.982,0,0,0,7.392,5.226A8.012,8.012,0,0,0,92.415,18.479Zm1.126-5.039c0-5.674-2.931-9.327-7.84-9.327-5.27,0-8.561,4.2-8.561,9.341.982,6.208,10.424,7.45,15.838,3.7a11.188,11.188,0,0,0,.563-3.71ZM146.9,25.856c-.433.491-.866.967-1.27,1.444-4.432,5.125-10.424,12.532-10.438,18.336,0,1.256.577,2.714,2.223,2.714,3.884,0,6.584-6.353,7.955-11.261a52.779,52.779,0,0,0,1.444-9.731ZM73.068,24.138c-2.4,0-3.407-1.848-3.407-4.259v-.635l-.029-6.959V10.61c0-4.634-2.541-8.186-9.1-8.186a13.058,13.058,0,0,0-6.93,2.44V3.247H50.575v21.4h3.032V7.983a10.754,10.754,0,0,1,6.742-2.83c3.075,0,5.039,1.025,5.833,3.494a11.009,11.009,0,0,1,.3,2.916v8.446c0,3.133,1.675,4.952,5.068,5.068a5.333,5.333,0,0,0,4.49-1.53l-.1-.3A6,6,0,0,1,73.068,24.138Z" transform="translate(0 0)"/>
      <path id="Path_55012" data-name="Path 55012" fill="#fe5000" d="M24.17,25.521a3.432,3.432,0,0,0-2.281.953v-4H19.42v.462l.621.087v9.2l-.621.087v.462h2.469v-.375a3.161,3.161,0,0,0,1.79.52c2.151,0,3.378-1.4,3.378-3.812,0-2.137-1.213-3.581-2.888-3.581Zm-.707,6.757a2.512,2.512,0,0,1-1.574-.606V27.095a3.2,3.2,0,0,1,1.256-.347c1.213,0,1.935,1.04,1.935,2.7C25.08,31.2,24.473,32.278,23.463,32.278Zm9.226-6.612h2.065v.505l-.577.1-2.859,6.944c-.65,1.588-1.242,2.916-2.6,2.916a4.777,4.777,0,0,1-1.2-.144V34.429h.4l.274.621a.964.964,0,0,0,.592.188c.852,0,1.415-1.271,1.761-2.108l.072-.188-2.888-6.656-.563-.115v-.505h3.162v.52l-.621.115,1.862,4.375,1.747-4.389-.635-.1Zm11.781-2.888h3.378v.505l-.679.087v8.792l.679.087v.52H44.469v-.505l.722-.087v-4H40.874v4l.664.087v.52H38.218v-.505l.664-.087V23.4l-.664-.087v-.505h3.321v.505l-.664.087v3.754h4.317V23.4l-.722-.087Zm5.385.679a1.077,1.077,0,0,1,2.151-.1v.058a1.1,1.1,0,0,1-1.011,1.169h-.058a1.057,1.057,0,0,1-1.083-1.011c0-.043,0-.072,0-.115Zm1.92,8.764.635.087v.462h-3.1v-.462l.635-.087V26.214l-.635-.087v-.462h2.469V32.22Zm4.461,0,.635.087v.462h-3.1v-.462l.621-.087v-9.2l-.621-.087v-.462h2.469Zm5.616-.231a4.435,4.435,0,0,0,.982-.072v.491a7.294,7.294,0,0,1-2.281.462c-1.429,0-1.761-.65-1.761-1.891V26.33h-1.3v-.664h1.343V24.178l1.8-.549v2.036H62.3v.664H60.625v4.23c.014,1.1.245,1.444,1.227,1.429Zm5.111-6.526A3.6,3.6,0,0,0,63.137,28.8a2.626,2.626,0,0,0,0,.476,3.235,3.235,0,0,0,2.7,3.7,2.886,2.886,0,0,0,1,0,3.53,3.53,0,0,0,3.812-3.234c.014-.159.014-.318.014-.462a3.442,3.442,0,0,0-3.032-3.812,5.093,5.093,0,0,0-.664,0Zm-.072,6.973c-1.04,0-1.718-.938-1.718-3.191,0-2.281.664-3.234,1.718-3.234,1.083,0,1.747.982,1.747,3.234,0,2.3-.621,3.191-1.747,3.191Zm11.983-.217.635.087v.462H76.4v-.462l.621-.087V28.178c0-1.126-.4-1.617-1.256-1.617a3.213,3.213,0,0,0-1.473.592v5.082l.635.087v.462H71.814v-.462l.635-.087V26.272l-.635-.087V25.68H74.3v.982a3.994,3.994,0,0,1,2.57-1.126c1.4,0,2.021.823,2.021,2.426Zm5.212-9.3V24.7l.2.043v.144h-.866v-.144l.2-.043V23.124l-.78,1.776h-.072l-.751-1.733v1.545l.2.043V24.9H81.6v-.144l.188-.043v-1.79l-.188-.043v-.144h.765l.592,1.386.621-1.386H84.3v.144Zm-4.606-.188h1.964v.419H81.3l-.043-.217h-.534v1.747l.217.058v.144h-.924v-.144l.231-.043V22.951H79.7l-.043.217H79.48Z" transform="translate(8.618 9.907)"/>
    </g>
  </g>
</svg>
