<svg viewBox="0 0 220 140" width="220px" height="140px" version="1.1" xmlns="http://www.w3.org/2000/svg" xmlns:xlink="http://www.w3.org/1999/xlink">
    <g stroke="none" stroke-width="1" fill="none" fill-rule="evenodd">
        <g transform="translate(-34.000000, -29.000000)" fill="#262520">
            <g transform="translate(72.000000, 64.000000)">
                <path d="M97.8061517,57.694951 L99.6340518,57.694951 L99.6340518,58.093201 L99.4815018,58.093201 L99.4410018,57.883951 L98.9388017,57.883951 L98.9388017,59.5242011 L99.1548018,59.5593011 L99.1548018,59.6983511 L98.2854017,59.6983511 L98.2854017,59.5593011 L98.5041017,59.5242011 L98.5041017,57.883951 L98.0046017,57.883951 L97.9695017,58.093201 L97.8061517,58.093201 L97.8061517,57.694951 Z M102.116702,57.869101 L102.116702,59.5242011 L102.301652,59.5593011 L102.301652,59.6983511 L101.493002,59.6983511 L101.493002,59.5593011 L101.683352,59.5242011 L101.683352,58.047301 L100.947602,59.6983511 L100.870652,59.6983511 L100.171352,58.072951 L100.171352,59.5242011 L100.353602,59.5593011 L100.353602,59.6983511 L99.7771518,59.6983511 L99.7771518,59.5593011 L99.9553518,59.5242011 L99.9553518,57.869101 L99.7771518,57.827251 L99.7771518,57.694951 L100.487252,57.694951 L101.043452,58.992301 L101.621252,57.694951 L102.301652,57.694951 L102.301652,57.827251 L102.116702,57.869101 Z M97.2418517,66.5577012 L97.8358517,66.6427512 L97.8358517,67.0680012 L94.9306517,67.0680012 L94.9306517,66.6427512 L95.5111517,66.5577012 L95.5111517,62.7736511 C95.5111517,61.7260511 95.1291017,61.2576011 94.3353017,61.2576011 C93.9667517,61.2576011 93.3862516,61.5127511 92.9610016,61.8097511 L92.9610016,66.5577012 L93.5550017,66.6427512 L93.5550017,67.0680012 L90.6363016,67.0680012 L90.6363016,66.6427512 L91.2316516,66.5577012 L91.2316516,60.9741011 L90.6363016,60.8890511 L90.6363016,60.4219511 L92.9610016,60.4219511 L92.9610016,61.3426511 C93.6832517,60.7621511 94.3785017,60.2937011 95.3559017,60.2937011 C96.6600017,60.2937011 97.2418517,61.0591511 97.2418517,62.5617011 L97.2418517,66.5577012 Z M86.0287515,66.7561512 C85.0513515,66.7561512 84.4263015,65.8773012 84.4263015,63.7659011 C84.4263015,61.6261511 85.0513515,60.7473011 86.0287515,60.7473011 C87.0345015,60.7473011 87.6595515,61.6693511 87.6595515,63.7659011 C87.6595515,65.9205012 87.0777015,66.7561512 86.0287515,66.7561512 Z M86.1003015,60.2370011 C83.9173515,60.2370011 82.5282015,61.6693511 82.5282015,63.8091011 C82.5282015,66.3592512 83.8741515,67.2664512 85.9869015,67.2664512 C88.1685016,67.2664512 89.5576516,65.8773012 89.5576516,63.8091011 C89.5576516,61.5262511 88.2535516,60.2370011 86.1003015,60.2370011 Z M81.3226514,66.3457512 C81.6628514,66.3457512 81.9585014,66.3457512 82.2433515,66.2742012 L82.2433515,66.7278012 C81.4063514,67.0261512 80.6989514,67.1530512 80.1022514,67.1530512 C78.7711514,67.1530512 78.4579514,66.5442012 78.4579514,65.3818512 L78.4579514,61.0456511 L77.2402514,61.0456511 L77.2402514,60.4219511 L78.5025014,60.4219511 L78.5025014,59.032801 L80.1886514,58.522501 L80.1886514,60.4219511 L81.7465514,60.4219511 L81.7465514,61.0456511 L80.1886514,61.0456511 L80.1886514,64.9998011 C80.1886514,66.0190512 80.4006014,66.3457512 81.3226514,66.3457512 Z M76.0630513,66.5577012 L76.6597514,66.6427512 L76.6597514,67.0680012 L73.7532013,67.0680012 L73.7532013,66.6427512 L74.3337013,66.5577012 L74.3337013,57.955501 L73.7532013,57.870451 L73.7532013,57.445201 L76.0630513,57.445201 L76.0630513,66.5577012 Z M70.0960512,58.365901 C70.0960512,57.771901 70.5078012,57.303451 71.1018013,57.303451 C71.6836513,57.303451 72.1075513,57.771901 72.1075513,58.324051 C72.1075513,58.947751 71.6836513,59.414851 71.1018013,59.414851 C70.5078012,59.414851 70.0960512,58.989601 70.0960512,58.365901 Z M71.8956013,66.5577012 L72.4923013,66.6427512 L72.4923013,67.0680012 L69.5857512,67.0680012 L69.5857512,66.6427512 L70.1811012,66.5577012 L70.1811012,60.9322511 L69.5857512,60.8458511 L69.5857512,60.4219511 L71.8956013,60.4219511 L71.8956013,66.5577012 Z M65.0646011,57.728701 L68.2236012,57.728701 L68.2236012,58.195801 L67.5864012,58.280851 L67.5864012,66.5010012 L68.2236012,66.5860512 L68.2236012,67.0680012 L65.0646011,67.0680012 L65.0646011,66.5860512 L65.7450012,66.5010012 L65.7450012,62.7601511 L61.7044511,62.7601511 L61.7044511,66.5010012 L62.3281511,66.5860512 L62.3281511,67.0680012 L59.224501,67.0680012 L59.224501,66.5860512 L59.8482011,66.5010012 L59.8482011,58.280851 L59.224501,58.195801 L59.224501,57.728701 L62.3281511,57.728701 L62.3281511,58.195801 L61.7044511,58.280851 L61.7044511,61.7962511 L65.7450012,61.7962511 L65.7450012,58.280851 L65.0646011,58.195801 L65.0646011,57.728701 Z M54.049951,60.4219511 L55.977751,60.4219511 L55.977751,60.8890511 L55.439101,60.9889511 L52.7607009,67.4784012 C52.1505009,68.9674512 51.5983509,70.2000012 50.3361009,70.2000012 C49.8285009,70.2000012 49.6287009,70.1581512 49.2169509,70.0731012 L49.2169509,68.6124012 L49.6017009,68.6124012 L49.8555009,69.1942512 C49.9837509,69.3076512 50.1808509,69.3643512 50.4076509,69.3643512 C51.2014509,69.3643512 51.7266009,68.1736512 52.0519509,67.3947012 L52.1235009,67.2246012 L49.4167509,61.0024511 L48.8916009,60.8890511 L48.8916009,60.4219511 L51.8535009,60.4219511 L51.8535009,60.9025511 L51.2730009,61.0159511 L53.0158509,65.0983511 L54.645301,60.9889511 L54.049951,60.8890511 L54.049951,60.4219511 Z M45.4180508,66.6009012 C44.7525008,66.6009012 44.3124008,66.3025512 43.9438508,66.0339012 L43.9438508,61.7530511 C44.3704508,61.5559511 44.7795008,61.4277011 45.1197008,61.4277011 C46.2537008,61.4277011 46.9341008,62.4064511 46.9341008,63.9508511 C46.9341008,65.5938012 46.3671008,66.6009012 45.4180508,66.6009012 Z M46.0836008,60.2937011 C45.3762008,60.2937011 44.7093008,60.5488511 43.9438508,61.1860511 L43.9438508,57.445201 L41.6340007,57.445201 L41.6340007,57.870451 L42.2158507,57.955501 L42.2158507,66.5577012 L41.6340007,66.6427512 L41.6340007,67.0680012 L43.9438508,67.0680012 L43.9438508,66.7143012 C44.3124008,66.9546012 44.8227008,67.1962512 45.6165008,67.1962512 C47.6293508,67.1962512 48.7768509,65.8921512 48.7768509,63.6241511 C48.7768509,61.6396511 47.6428508,60.2937011 46.0836008,60.2937011 L46.0836008,60.2937011 Z"></path>
                <path d="M136.170452,38.9259007 L136.170452,47.9182508 L129.101852,38.9259007 L127.915202,38.9259007 L127.915202,50.1471009 L129.149102,50.1471009 L129.149102,40.9455007 L136.394552,50.1471009 L137.404352,50.1471009 L137.404352,38.9259007 L136.170452,38.9259007 Z M121.676852,44.5351508 C121.676852,41.9877007 119.817902,39.9033007 117.254252,39.9033007 C114.687902,39.9033007 112.861352,41.9553007 112.861352,44.5041008 L112.861352,44.5351508 C112.861352,47.0839508 114.721652,49.1683509 117.285302,49.1683509 C119.851652,49.1683509 121.676852,47.1163508 121.676852,44.5689008 L121.676852,44.5351508 Z M122.991752,44.5041008 L122.991752,44.5351508 C122.991752,47.6293508 120.668402,50.3388009 117.254252,50.3388009 C113.840102,50.3388009 111.546452,47.6617508 111.546452,44.5689008 L111.546452,44.5351508 C111.546452,41.4423007 113.871152,38.7328507 117.285302,38.7328507 C120.700802,38.7328507 122.991752,41.4099007 122.991752,44.5041008 Z M104.606102,50.1471009 L105.872402,50.1471009 L105.872402,38.9259007 L104.606102,38.9259007 L104.606102,50.1471009 Z M90.4176016,40.0963507 L94.1841017,40.0963507 L94.1841017,50.1471009 L95.4679517,50.1471009 L95.4679517,40.0963507 L99.2344518,40.0963507 L99.2344518,38.9259007 L90.4176016,38.9259007 L90.4176016,40.0963507 Z M81.6655514,49.1683509 C79.1950514,49.1683509 77.3199014,47.1325508 77.3199014,44.5351508 L77.3199014,44.5041008 C77.3199014,41.9229007 79.1802014,39.9033007 81.6655514,39.9033007 C83.1870015,39.9033007 84.2454015,40.5445507 85.1917515,41.4423007 L86.0557515,40.5121507 C84.9339015,39.4551007 83.7162015,38.7328507 81.6804014,38.7328507 C78.3783014,38.7328507 76.0050013,41.3626507 76.0050013,44.5351508 L76.0050013,44.5689008 C76.0050013,47.7900008 78.3945014,50.3388009 81.6318014,50.3388009 C83.6676015,50.3388009 84.9501015,49.5531009 86.1192015,48.3678009 L85.2862515,47.5497008 C84.2130015,48.5757009 83.2032015,49.1683509 81.6655514,49.1683509 Z M64.1425511,45.0643508 L70.2648012,45.0643508 L70.2648012,43.9101008 L64.1425511,43.9101008 L64.1425511,40.0801507 L70.9870513,40.0801507 L70.9870513,38.9259007 L62.8762511,38.9259007 L62.8762511,50.1471009 L71.0667013,50.1471009 L71.0667013,48.9928509 L64.1425511,48.9928509 L64.1425511,45.0643508 Z M51.3337509,38.9259007 L50.0661009,38.9259007 L50.0661009,50.1471009 L57.647701,50.1471009 L57.647701,48.9766509 L51.3337509,48.9766509 L51.3337509,38.9259007 Z M38.5236007,38.9259007 L37.2573007,38.9259007 L37.2573007,50.1471009 L44.8389008,50.1471009 L44.8389008,48.9766509 L38.5236007,48.9766509 L38.5236007,38.9259007 Z M30.7003505,44.5351508 C30.7003505,41.9877007 28.8414005,39.9033007 26.2750505,39.9033007 C23.7114004,39.9033007 21.8835004,41.9553007 21.8835004,44.5041008 L21.8835004,44.5351508 C21.8835004,47.0839508 23.7424504,49.1683509 26.3088005,49.1683509 C28.8724505,49.1683509 30.7003505,47.1163508 30.7003505,44.5689008 L30.7003505,44.5351508 Z M32.0139006,44.5041008 L32.0139006,44.5351508 C32.0139006,47.6293508 29.6892005,50.3388009 26.2750505,50.3388009 C22.8622504,50.3388009 20.5699504,47.6617508 20.5699504,44.5689008 L20.5699504,44.5351508 C20.5699504,41.4423007 22.8933004,38.7328507 26.3088005,38.7328507 C29.7216005,38.7328507 32.0139006,41.4099007 32.0139006,44.5041008 Z M15.4548003,47.5497008 L16.2877503,48.3678009 C15.1173003,49.5531009 13.8348002,50.3388009 11.8003502,50.3388009 C8.56170015,50.3388009 6.17490011,47.7900008 6.17490011,44.5689008 L6.17490011,44.5351508 C6.17490011,41.3626507 8.54415015,38.7328507 11.8476002,38.7328507 C13.8820502,38.7328507 15.1011003,39.4551007 16.2243003,40.5121507 L15.3576003,41.4423007 C14.4126003,40.5445507 13.3555502,39.9033007 11.8314002,39.9033007 C9.34740017,39.9033007 7.48710013,41.9229007 7.48710013,44.5041008 L7.48710013,44.5351508 C7.48710013,47.1325508 9.36360017,49.1683509 11.8314002,49.1683509 C13.3717502,49.1683509 14.3815503,48.5757009 15.4548003,47.5497008 L15.4548003,47.5497008 Z"></path>
                <path d="M54.529201,1.58085003 C55.624051,2.37600004 56.046601,4.19040007 56.141101,7.25895013 C56.236951,4.19040007 56.662201,2.37600004 57.758401,1.58085003 C58.239001,1.24875002 58.876201,1.00575002 59.5282511,0.830250015 L52.7566509,0.830250015 C53.4087009,1.00575002 54.047251,1.24875002 54.529201,1.58085003 Z M70.8021013,29.2707005 L70.8021013,0.828900015 L63.2326511,0.828900015 C63.4756511,0.891000016 63.6984011,0.954450017 63.8752511,1.01925002 C65.0187011,1.44315003 65.5951512,2.35980004 65.5951512,3.73545007 L65.5951512,29.2707005 C65.5951512,30.6450005 65.0187011,31.5603006 63.8752511,31.9855506 C63.6984011,32.0530506 63.4756511,32.1138006 63.2326511,32.1759006 L73.1632513,32.1759006 C72.9216013,32.1138006 72.6988513,32.0530506 72.5206513,31.9855506 C71.3772013,31.5603006 70.8021013,30.6450005 70.8021013,29.2707005 Z M90.0382516,30.9258005 C89.1283516,30.9258005 87.9255016,30.4978505 87.4057515,28.4688005 C87.1533015,27.4711505 86.9589015,26.4991505 86.7550515,25.4718004 C86.5080015,24.1893004 86.2164015,22.8663004 85.8478515,21.4245004 C84.5721015,16.3525503 76.3627513,16.4997003 76.3627513,16.4997003 C76.3627513,16.4997003 87.5340015,15.3819003 87.5340015,7.72875014 C87.5340015,6.11280011 86.7699015,0.828900015 76.9027514,0.828900015 L75.9577513,0.828900015 C79.3314014,1.51335003 81.2929514,4.32135008 81.2929514,8.62650015 C81.2929514,13.0896002 78.9169514,15.9894003 74.7225013,16.4997003 C79.3705514,16.8871503 80.2899014,21.0910504 80.7678014,25.1815504 C81.4428014,30.5140505 83.2558515,32.9184006 87.0264015,32.9184006 C90.2029516,32.9184006 92.1064516,31.3996506 92.7976516,28.7536505 C92.1955516,30.2332505 91.0912516,30.9258005 90.0382516,30.9258005 Z M105.784652,1.01925002 C105.966902,0.954450017 106.188302,0.891000016 106.435352,0.828900015 L96.4993517,0.828900015 C96.7437017,0.891000016 96.9664517,0.954450017 97.1446517,1.01925002 C98.2881017,1.44315003 98.8645517,2.35980004 98.8645517,3.73545007 L98.8645517,29.2707005 C98.8645517,30.6450005 98.2881017,31.5603006 97.1446517,31.9855506 C96.9664517,32.0530506 96.7437017,32.1138006 96.4993517,32.1759006 L106.435352,32.1759006 C106.188302,32.1138006 105.966902,32.0530506 105.784652,31.9855506 C104.639852,31.5603006 104.071502,30.6450005 104.071502,29.2707005 L104.071502,3.73545007 C104.071502,2.35980004 104.639852,1.44315003 105.784652,1.01925002 Z M138.755702,4.53060008 C136.310852,2.20050004 133.284152,0.57510001 129.898352,0.0891000016 C134.573402,1.59165003 137.193752,7.42635013 137.193752,16.5010503 C137.193752,25.4043004 134.453252,31.4739006 129.732302,32.9143506 C133.142402,32.4769506 136.271702,30.9001505 138.709802,28.6092005 C141.895803,25.6257005 143.577903,21.2058004 143.577903,16.5010503 C143.577903,11.3805002 141.952503,7.58970013 138.755702,4.53060008 Z M117.443252,16.5010503 C117.443252,7.42635013 120.066302,1.59165003 124.737302,0.0891000016 C121.354202,0.57510001 118.330202,2.20050004 115.884002,4.53060008 C112.683152,7.58970013 111.063152,11.3805002 111.063152,16.5010503 C111.063152,21.2058004 112.746602,25.6257005 115.928552,28.6092005 C118.373402,30.9001505 121.497302,32.4769506 124.900652,32.9143506 C120.183752,31.4739006 117.443252,25.4043004 117.443252,16.5010503 Z M46.1133008,31.9140006 C40.4392507,31.9140006 37.5138007,29.0817005 37.5138007,23.0607004 L37.5138007,3.73545007 C37.5138007,2.36115004 38.0821507,1.44315003 39.2269507,1.01925002 C39.4105507,0.955800017 39.6265507,0.891000016 39.8763007,0.828900015 L29.9403005,0.828900015 C30.1873505,0.891000016 30.4101005,0.955800017 30.5883005,1.01925002 C31.7277006,1.44315003 32.3068506,2.36115004 32.3068506,3.73545007 L32.3068506,23.0607004 C32.3068506,29.1492005 36.9346507,32.9251506 44.6526008,32.9251506 C50.1700509,32.9251506 55.636201,30.0186005 56.142451,23.5575004 C55.625401,28.6078505 51.7860009,31.9140006 46.1133008,31.9140006 Z M26.2386005,10.7460002 L26.2386005,0.513000009 L24.5254504,2.72295005 L24.2082004,2.49750004 C22.7205004,1.45800003 20.0380504,0.283500005 16.7454003,0.0864000015 C20.7940504,0.843750015 24.1150504,4.59810008 26.2386005,10.7460002 Z M27.1161005,26.1130505 C25.1127004,29.5407005 21.5797504,32.9143506 15.4318503,32.9143506 C6.20055011,32.9143506 0,26.0577005 0,16.5010503 C0,7.83675014 5.4405001,1.40535002 13.3042502,0.0891000016 C8.81010016,1.51335003 6.28695011,7.63425013 6.28695011,16.5010503 C6.28695011,26.2831505 10.2856502,31.9140006 16.9830003,31.9140006 C21.1828504,31.9140006 24.6510004,29.9187005 27.1161005,26.1130505 L27.1161005,26.1130505 Z"></path>
            </g>
        </g>
    </g>
</svg>