<svg viewBox="0 0 220 140" width="220px" height="140px" version="1.1" xmlns="http://www.w3.org/2000/svg" xmlns:xlink="http://www.w3.org/1999/xlink">
  <g stroke="none" stroke-width="1" fill="none" fill-rule="evenodd">
    <g transform="translate(-34.000000, -29.000000)" fill-rule="nonzero">
      <g transform="translate(63.000000, 73.000000)">
        <g>
          <rect fill="#FFFFFF" x="0.108783675" y="0.121837716" width="36.9226298" height="47.7574839"></rect>
          <path d="M0,0 L0,48.0011593 L37.1401972,48.0011593 L37.1401972,0 L0,0 Z M35.5563068,46.4230708 L1.55198043,46.4230708 L1.55198043,1.58098941 L35.5563068,1.58098941 L35.5563068,46.4230708 Z M34.5700015,2.51507857 L2.55424069,2.51507857 L2.55424069,45.4701258 L34.5700015,45.4701258 L34.5700015,2.51507857 Z M8.12251441,24.2065434 C9.08503316,25.1014004 10.3145458,25.6557766 11.6224479,25.7846319 L11.6224479,12.6073027 C11.6368628,11.8470219 11.3379713,11.1142726 10.7959036,10.5809834 C10.253836,10.0476942 9.51630481,9.76080492 8.75636063,9.78762987 L8.75636063,8.7230003 L27.7673957,8.7230003 L27.7673957,15.4762909 L26.2386225,15.4762909 C26.3357023,14.1599238 25.8625517,12.8652928 24.9395364,11.9217413 C24.016521,10.9781899 22.7326134,10.47667 21.4144291,10.5447642 L16.9601002,10.5447642 L16.9601002,23.8424807 C18.1639729,20.9807448 19.2996744,20.1989528 21.2925914,19.6086201 L21.1939608,20.8516549 C22.2748277,20.0715135 23.6226052,19.7555873 24.9375697,19.9741332 C24.9375697,20.037953 24.6953447,20.8966188 24.6953447,20.8966188 C26.1603304,20.8824635 27.519387,21.6584339 28.2518457,22.9272474 C27.1792929,22.7604628 26.0880951,22.7516668 25.012993,22.9011393 L25.5525601,24.0876066 C24.5130043,24.087629 23.4885305,24.3362877 22.5646351,24.8128311 L23.3478776,25.7005059 C21.8214385,27.2649794 19.4506985,27.6455704 17.5112708,26.6374959 L17.3662259,26.6084869 C17.9464055,26.1588478 18.4250537,25.7715779 19.0240891,25.2595694 C22.6299053,22.1091941 24.1775344,21.9655997 26.5519194,22.2469868 C25.4075152,21.3477084 22.3456173,21.0953303 19.3736473,23.5262828 C13.0047258,28.8929441 9.36554921,26.692613 7.45095653,25.1493353 L8.12251441,24.2065434 Z M28.3707825,39.2593031 L8.75636063,39.2593031 L8.75636063,38.2222321 C9.51874766,38.2364633 10.2542688,37.9406785 10.7945443,37.4025903 C11.3348198,36.8645021 11.6335861,36.130187 11.6224479,35.3677485 L11.6224479,28.2750529 L11.6369523,28.2750529 C13.5271554,28.4063636 15.4054342,27.8874059 16.9601002,26.8042976 L16.9601002,37.2344763 L22.0236177,37.2344763 C25.3364432,37.2344763 26.8463606,34.5453439 26.8463606,31.1585455 L28.3707825,31.1585455 L28.3707825,39.2593031 Z" fill="#00A18E"></path>
          <path d="M58.6822657,7.00711913 L59.4147425,7.03902901 L59.2696976,8.57360405 C59.2496975,9.07783795 59.1905344,9.57975451 59.0927428,10.0748188 C59.0550311,10.3649086 58.9012835,10.4040707 58.292095,10.4040707 C58.1470501,10.4040707 57.3478527,10.3605572 57.1796006,10.3605572 L50.7062467,10.3605572 C50.142022,10.3605572 48.820663,10.3605572 47.5515201,10.4040707 L47.5515201,9.79633256 L49.4371038,9.76007134 L49.4371038,0.964548587 L47.6893127,0.951494546 L47.6893127,0.346657312 C53.8377661,0.346657312 56.0337459,0.346657312 58.5517253,0.277035759 C58.5517253,0.748431685 58.5517253,0.951494546 58.5995901,1.63465603 L58.7141756,3.17068152 L57.9991043,3.25625801 C57.940494,2.70783145 57.7134976,2.19100922 57.3493031,1.77680003 C56.3256044,1.14233137 55.1107894,0.889608768 53.9189912,1.06317912 L52.8514607,1.06317912 L52.7963437,4.78648171 C53.4866314,4.85153316 54.1825105,4.75212187 54.8269723,4.49639191 C55.3868456,4.17149133 55.4289086,3.59566308 55.4709716,2.97632135 L56.1961961,2.97632135 C56.1541331,3.93216725 56.1004665,4.79953575 56.1004665,5.73217446 C56.1004665,6.07012907 56.1541331,6.65030868 56.1628358,7.23338917 L55.4260077,7.23338917 C55.1968368,5.61613854 55.1968368,5.48269723 52.7832896,5.42322882 L52.8427581,9.64548587 L53.8435679,9.64548587 C55.056769,9.7540103 56.2793846,9.61586165 57.4377805,9.23936015 C58.3573652,8.76361287 58.4821038,8.08190184 58.6822657,7.00711913 Z M81.0902524,0.951494546 L82.9569802,0.936990056 L82.9569802,0.297342045 C81.1584235,0.314747434 79.3821069,0.314747434 77.6280306,0.297342045 C77.4017606,0.845611768 77.3060309,1.08783675 76.6736352,2.44835792 L74.673466,6.64305643 L72.6994049,2.403394 C72.2526666,1.3880797 72.2178558,1.30395365 71.8291355,0.297342045 C71.3069739,0.297342045 69.0587779,0.314747434 68.6047874,0.314747434 L66.2855194,0.314747434 L66.2855194,0.936990056 L67.3864102,0.951494546 C67.6185811,0.941210971 67.8511697,0.957268341 68.0797248,0.999359363 C68.0333105,4.49494146 68.0057519,5.61613854 68.0333105,9.76007134 L66.1477268,9.79633256 L66.1477268,10.4040707 C66.8265369,10.4040707 67.9868961,10.3605572 68.7106701,10.3605572 C69.3227596,10.3605572 70.3728847,10.4040707 70.990776,10.4040707 L70.990776,9.79633256 L69.0805346,9.76007134 C69.0805346,5.92798507 69.0805346,5.26367943 69.1530571,1.93779987 L72.1395316,8.47497352 C72.6196302,9.54685533 72.7313148,9.8920622 72.9401794,10.4040707 L73.8742686,10.4040707 C74.2849677,9.37293088 74.7602053,8.36868259 75.2971591,7.39728991 L77.0710582,3.81032953 C77.4510758,3.04304201 77.5352019,2.82547466 77.8064358,2.16261946 C77.8397962,4.88511224 77.8630033,7.58874918 77.8630033,9.76587313 L75.9339062,9.80213436 L75.9339062,10.4098725 C76.9492205,10.4098725 78.5302099,10.366359 79.5208666,10.366359 C80.5115232,10.366359 81.5210357,10.366359 82.4681789,10.4098725 L83.0048451,10.4098725 L83.0048451,9.79633256 L81.1424685,9.76007134 C81.1424685,9.09141435 81.1424685,5.00985085 81.0902524,0.951494546 Z M101.463259,6.2485343 C101.805805,6.5980767 102.002811,7.06467096 102.01443,7.5539384 C101.998377,8.10944858 101.748743,8.63241654 101.326917,8.99423426 C100.021513,10.3649086 97.6862899,10.4345301 96.1285076,10.4345301 C95.6106973,10.4345301 95.0972384,10.408422 94.5736263,10.408422 L93.2754744,10.408422 C92.0585477,10.408422 91.8061696,10.408422 89.5579737,10.4345301 L89.5579737,9.79633256 L91.4435574,9.76007134 C91.5001249,9.23936015 91.5001249,8.27336111 91.5001249,7.51477628 L91.5001249,3.53474422 C91.5001249,2.6934838 91.4435574,1.83916933 91.4334042,0.964548587 L89.6072889,0.936990056 L89.6072889,0.314747434 C91.3652331,0.346657312 92.3355835,0.346657312 93.3523482,0.346657312 L94.5127074,0.314747434 C95.3075535,0.297342045 96.2619489,0.20306286 96.8899934,0.20306286 C97.801712,0.17384652 98.7122967,0.289383073 99.5878285,0.545368825 C100.996214,1.06317912 101.428448,1.90879089 101.428448,2.58760102 C101.428448,4.28172545 99.1280362,4.82854473 98.6305322,4.9373284 C98.4666204,4.96735414 98.3044239,5.00608762 98.1446317,5.05336432 C98.346256,5.0595089 98.5470622,5.08182071 98.7451176,5.12008498 C99.7463094,5.20506961 100.696258,5.59944525 101.463259,6.2485343 L101.463259,6.2485343 Z M94.7868423,1.10669259 L94.8289053,4.75312138 C95.721658,4.83714681 96.6200927,4.66931841 97.4223081,4.26867141 C97.9402929,3.91163234 98.2494544,3.3225982 98.2490641,2.6934838 C98.2689906,2.0817795 97.9514467,1.50852926 97.4223081,1.20097177 C96.812609,0.951081934 96.1533089,0.84583221 95.4961119,0.893476585 C95.2940204,0.870651836 95.0894504,0.885404485 94.8927251,0.936990056 C94.7868423,0.951494546 94.7868423,0.964548587 94.7868423,1.10669259 Z M98.691451,7.46256012 C98.6776478,6.80173775 98.3188408,6.19638845 97.7457583,5.86706621 C96.8221761,5.49062891 95.8228968,5.33708474 94.8289053,5.41887747 L94.8289053,7.44080338 C94.8289053,8.32412682 94.7868423,9.41051313 94.7868423,9.76152179 C95.7590934,9.82863236 96.7337583,9.67131628 97.6355241,9.30172945 C98.296163,8.92670977 98.7006654,8.22216432 98.691451,7.46256012 Z M120.401772,9.79633256 L120.419177,10.4040707 C117.115054,10.3605572 116.771298,10.3605572 113.602067,10.4040707 L113.649932,9.79633256 L115.329552,9.76007134 L114.25767,7.18842526 L110.763538,7.18842526 L109.733719,9.76007134 L111.456853,9.79633256 L111.456853,10.4040707 C109.452332,10.3605572 109.198504,10.3605572 106.889389,10.4040707 L106.889389,9.79633256 L108.44427,9.76007134 C108.870702,8.94927034 109.086819,8.41115376 110.09053,6.07012907 L111.153709,3.66528463 C111.955807,1.71733162 112.141465,1.19952132 112.528735,0.1450449 L114.501345,0.1450449 C114.813192,0.999359363 114.901669,1.17341324 116.076533,3.83498716 L117.033829,5.98020124 C117.336973,6.57778623 117.614009,7.18842526 117.883792,7.76715441 C118.475575,8.98988292 118.572755,9.16248635 118.8788,9.76007134 L120.401772,9.79633256 Z M113.922616,6.52702051 L113.554202,5.56247192 C112.889896,4.11202292 112.717293,3.66093328 112.469266,3.03288886 L111.06088,6.52702051 L113.922616,6.52702051 Z M132.923498,4.03805002 L131.763139,3.75811337 C130.129933,3.33603271 129.217601,3.07640233 129.217601,2.1756735 C129.217601,1.27494467 130.235816,0.704918215 131.441139,0.704918215 C132.557192,0.628673952 133.617637,1.20094176 134.166533,2.1756735 C134.364081,2.58424061 134.504168,3.01816878 134.582812,3.46512267 L135.363153,3.28816789 C135.25716,2.83480051 135.208431,2.36993173 135.218108,1.90443954 C135.222908,1.37003249 135.267512,0.836725452 135.35155,0.308945638 L134.816334,0.178405227 L134.323181,0.613539928 C133.43663,0.220034225 132.479203,0.0112755449 131.50931,0 C129.188592,0 127.237738,1.3054041 127.237738,3.07640233 C127.237738,5.29558931 129.865951,5.97730034 131.100284,6.30220092 L132.211327,6.57778623 C133.465966,6.87802917 134.439217,7.11300191 134.439217,8.16167654 C134.439217,8.98988292 133.551542,9.92832342 131.690616,9.92832342 C130.439613,10.0312243 129.23939,9.41197229 128.598259,8.33282952 C128.329815,7.86212271 128.142047,7.34980563 128.042737,6.81711031 L127.301558,6.94765072 C127.387126,7.54829597 127.432192,8.15401719 127.436449,8.76071197 C127.436449,9.23645925 127.382783,9.75717044 127.336368,10.2677285 L127.942656,10.5172057 L128.430007,9.90366579 C129.472144,10.4051716 130.609764,10.6772111 131.76604,10.7014127 C134.440668,10.7014127 136.407476,9.14943231 136.407476,7.23048828 C136.401675,5.00985085 134.033091,4.3658515 132.917696,4.04240137 L132.923498,4.03805002 Z M149.831382,4.03805002 L148.671023,3.75811337 C147.065376,3.33458226 146.153043,3.07205099 146.153043,2.1756735 C146.153043,1.27929602 147.168358,0.700566868 148.367879,0.700566868 C149.484647,0.622708813 150.545719,1.19762101 151.090372,2.1756735 C151.276453,2.58969242 151.419352,3.02179326 151.516804,3.46512267 L152.297145,3.29251924 C152.216404,2.83562446 152.174192,2.37275373 152.170956,1.90879089 C152.174672,1.37537986 152.209542,0.842641249 152.275389,0.313296985 L151.748876,0.182756574 L151.21511,0.617891275 C150.339794,0.213164461 149.387349,0.00238945546 148.422996,8.8817842e-16 C146.122584,8.8817842e-16 144.174631,1.3054041 144.174631,3.07640233 C144.174631,5.29558931 146.785439,5.97730034 148.051681,6.30220092 L149.130815,6.57778623 C150.386904,6.87802917 151.352903,7.11300191 151.352903,8.16167654 C151.352903,8.98988292 150.482634,9.92832342 148.618807,9.92832342 C147.370692,10.0361884 146.172218,9.41492457 145.540954,8.33282952 C145.262869,7.8636929 145.066674,7.35064163 144.960774,6.81565986 L144.199288,6.94620027 C144.298273,7.54543215 144.346791,8.1519143 144.344333,8.75926153 C144.344333,9.2350088 144.299369,9.75571999 144.258757,10.266278 L144.863594,10.5157553 L145.358197,9.90221534 C146.391888,10.4028586 147.521298,10.6749461 148.669572,10.6999623 C151.373209,10.6999623 153.335667,9.14798186 153.335667,7.22903783 C153.337117,5.00985085 150.936624,4.3658515 149.831382,4.04240137 L149.831382,4.03805002 Z M168.91784,0.314747434 L168.91784,0.936990056 L170.497379,0.964548587 C170.236299,1.38662925 169.970866,1.84352068 169.686578,2.28010583 L167.927184,5.00985085 L165.152475,0.964548587 L166.723311,0.936990056 L166.723311,0.314747434 L159.862687,0.314747434 L159.862687,0.936990056 L161.413217,0.964548587 C162.094928,1.76374599 162.387919,2.12490779 162.854964,2.7674567 L165.097358,5.87141756 L165.097358,9.75136864 L163.108792,9.79633256 L163.108792,10.4040707 C166.697203,10.3605572 167.113482,10.3605572 170.443713,10.4040707 L170.443713,9.79633256 L168.459498,9.75136864 L168.459498,5.82065185 L171.814387,0.964548587 L173.377971,0.936990056 L173.377971,0.314747434 L168.91784,0.314747434 Z" fill="#000000"></path>
          <path d="M57.9483385,27.5411257 C57.9483385,29.4267094 55.9916828,31.0004465 53.3214062,31.0004465 C52.1624921,30.9851197 51.0220443,30.7079413 49.9853735,30.1896455 L49.4965722,30.8365458 L48.8641764,30.5682127 C48.9091404,30.0475015 48.9512034,29.5325921 48.9512034,29.0727998 C48.9493763,28.4591556 48.9130578,27.8460991 48.8424197,27.2365314 L49.5966532,27.1146937 C49.6925645,27.6510291 49.8815535,28.1664538 50.1550761,28.6376651 C50.8008604,29.7004441 51.992221,30.3065158 53.2314784,30.2026996 C55.1170621,30.2026996 55.9873315,29.2657095 55.9873315,28.4476563 C55.9873315,27.4062339 54.9865217,27.1814143 53.7260815,26.8710182 L52.6512988,26.5896311 C51.4140658,26.2618296 48.791654,25.5931726 48.791654,23.3739857 C48.791654,21.5942847 50.7309043,20.2758266 53.0342173,20.2758266 C54.0121699,20.2793488 54.9773431,20.4982336 55.8611424,20.9169251 L56.37025,20.4556823 L56.8750063,20.6007272 C56.8033436,21.1334945 56.765556,21.6702719 56.7618713,22.2078247 C56.7737783,22.6687455 56.8183707,23.1282409 56.8953126,23.5828503 L56.1396286,23.7525529 C56.0467578,23.3125401 55.9112254,22.8826256 55.7349534,22.4689055 C55.1805607,21.4885924 54.1128936,20.9133042 52.9892534,20.9894475 C51.7679753,20.9894475 50.7555619,21.5913838 50.7555619,22.4689055 C50.7555619,23.3710848 51.6852998,23.6510214 53.3170549,24.0643994 L54.4426033,24.3283811 C55.5638004,24.644579 57.9483385,25.2827766 57.9483385,27.5411257 Z M72.667495,20.5818713 L72.6805491,21.1983122 L74.5893399,21.2519788 C74.6573185,23.4643322 74.5929002,25.6787711 74.3964302,27.8834316 C74.3268087,28.5143769 74.0686288,30.1896455 71.3504873,30.1896455 C70.5401248,30.2943325 69.7286168,30.0047778 69.1675616,29.4107544 C68.7303326,28.8420753 68.5292731,28.1266773 68.6062378,27.4134861 C68.5859315,26.892775 68.5859315,26.3198476 68.5525712,25.7962355 L68.5148595,23.1854273 C68.5148595,22.4718064 68.5148595,22.0772843 68.5395172,21.2650328 L70.5802989,21.2113662 L70.5802989,20.5818713 C69.5301738,20.6036281 68.9572465,20.6036281 66.8816539,20.6036281 C64.8742325,20.6036281 64.34917,20.6036281 63.3266034,20.5818713 L63.3266034,21.1983122 L65.1411151,21.2519788 L65.2295925,25.8295958 C65.2557006,27.8123596 65.2557006,28.7870613 66.0853574,29.6616821 C67.3457047,30.6367275 68.9192056,31.1170322 70.5092269,31.0120501 C71.8944057,31.0120501 73.9482415,30.8002846 74.9243937,29.522439 C75.4802572,28.5097768 75.7211643,27.3542306 75.6162578,26.2038117 L75.6786271,21.2519788 L77.545355,21.1983122 L77.545355,20.5818713 C76.7069955,20.6036281 76.2718608,20.6036281 75.0665377,20.6036281 C73.9018271,20.6036281 73.4623411,20.6036281 72.667495,20.5818713 Z M82.4536744,20.6036281 L82.4536744,21.2519788 L84.3566635,21.2519788 L84.3566635,30.0475015 L82.4536744,30.077961 L82.4536744,30.6813477 C85.8346711,30.6813477 86.2074365,30.6813477 89.604388,30.6813477 L89.604388,30.077961 L87.7188043,30.0475015 L87.7188043,21.2519788 L89.604388,21.2519788 L89.604388,20.6036281 C87.3286335,20.6108803 84.8309604,20.6036281 82.4478726,20.6036281 L82.4536744,20.6036281 Z M106.56884,20.5441597 L105.932092,20.5818713 C105.035715,20.6036281 104.0175,20.6036281 102.765762,20.6036281 L97.6282719,20.6036281 C97.0364887,20.6036281 96.4679127,20.6036281 95.8877331,20.5818713 C95.6542108,20.5818713 95.4525984,20.5441597 95.2234275,20.5441597 L94.6708064,20.6892046 C94.6940136,21.1838077 94.6940136,21.4942038 94.6940136,21.6334469 C94.6940136,22.0004105 94.6940136,22.2875994 94.6708064,22.7401395 L94.5779776,24.2224983 L95.3264093,24.2428046 L95.4250399,23.5175801 C95.4714031,22.5246292 96.2008374,21.6969322 97.1800832,21.5261136 C97.8901949,21.3695784 98.6176695,21.3061925 99.3441531,21.3375553 L99.3441531,30.0475015 L97.2917677,30.077961 L97.2917677,30.6813477 C99.7652668,30.6813477 102.255688,30.6813477 104.763031,30.6813477 L104.763031,30.077961 L102.754159,30.0475015 L102.754159,21.3375553 C103.732821,21.2114812 104.726241,21.3993979 105.591237,21.8742214 C106.001714,22.2107256 106.08439,22.6328062 106.242489,23.5146792 L106.34547,24.2253992 L107.028632,24.1485254 C106.994098,22.9923543 107.021696,21.8351627 107.111307,20.6819523 L106.56884,20.5441597 Z M121.958103,29.5369435 C120.811508,29.9122583 119.598385,30.0402936 118.398702,29.9126098 L117.383387,29.9126098 L117.307964,25.7164608 C119.708457,25.7933346 119.708457,25.9122714 119.979691,27.545477 L120.704916,27.545477 C120.688961,26.9449911 120.633844,26.3691629 120.633844,26.0312082 C120.633844,25.1014704 120.688961,24.2297506 120.732474,23.2753551 L120.020304,23.2753551 C119.985493,23.8714897 119.946331,24.4560206 119.351647,24.7838221 C118.706338,25.0456617 118.005775,25.1418956 117.313766,25.0637588 L117.389189,21.3375553 L118.430611,21.3375553 C119.635004,21.1640531 120.862004,21.420855 121.895734,22.0627798 C122.2395,22.4959459 122.460881,23.0133351 122.536833,23.5610936 L123.221445,23.4682649 L123.14167,21.9235367 C123.092355,21.2505283 123.092355,21.0532673 123.092355,20.5427092 C120.533763,20.6021776 118.388548,20.6094299 112.213987,20.6021776 L112.213987,21.2505283 L113.973382,21.2505283 L113.973382,30.0460511 L112.074744,30.0765105 L112.074744,30.6798973 C113.369995,30.6363838 114.660895,30.6363838 115.222218,30.6363838 C118.144873,30.6363838 119.064458,30.6363838 121.697023,30.675546 L122.824022,30.675546 C123.404201,30.675546 123.588408,30.6320325 123.639174,30.3477445 C123.710125,29.8567569 123.756115,29.3624852 123.776967,28.866836 L123.945219,27.2930989 L123.186634,27.2930989 C122.998075,28.3577284 122.871886,29.0727998 121.952302,29.5325921 L121.958103,29.5369435 Z M135.750423,24.3283811 L134.597316,24.0643994 C133.001822,23.6582737 132.069183,23.378337 132.069183,22.4689055 C132.069183,21.5913838 133.084498,20.9894475 134.270965,20.9894475 C135.399082,20.9049146 136.473928,21.4819373 137.026818,22.4689055 C137.203585,22.8870996 137.341476,23.3206797 137.438746,23.7641565 L138.210385,23.5828503 C138.13508,23.1281416 138.092424,22.6686252 138.082745,22.2078247 C138.086333,21.6703656 138.123148,21.1336425 138.192979,20.6007272 L137.67952,20.4556823 L137.151557,20.9169251 C136.276372,20.5015825 135.320906,20.282766 134.35219,20.2758266 C132.031472,20.2758266 130.102375,21.5942847 130.102375,23.3739857 C130.102375,25.5931726 132.713183,26.2618296 133.986677,26.5896311 L135.057108,26.8710182 C136.298693,27.1814143 137.274845,27.416387 137.274845,28.4476563 C137.274845,29.2657095 136.423431,30.2026996 134.54655,30.2026996 C133.299143,30.3122512 132.097281,29.7059824 131.44404,28.6376651 C131.18487,28.1616945 131.002756,27.6476639 130.904473,27.1146937 L130.135735,27.2365314 C130.21641,27.8453725 130.25904,28.4586522 130.263374,29.0727998 C130.263374,29.5325921 130.209708,30.0475015 130.171996,30.5682127 L130.805842,30.8365458 L131.28159,30.1896455 C132.313496,30.7040029 133.447387,30.9810329 134.600217,31.0004465 C137.306755,31.0004465 139.250356,29.4325112 139.250356,27.5411257 C139.243104,25.2827766 136.861467,24.644579 135.744621,24.3240298 L135.750423,24.3283811 Z" fill="#000000"></path>
        </g>
        <g transform="translate(47.864817, 37.711674)" fill="#000000">
          <path d="M5.43628286,3.48107761 C4.63241635,3.50500145 3.86577922,3.82529459 3.28381654,4.38035599 L3.28381654,0.609188581 L0.963098138,0.609188581 L0.963098138,1.03562059 L1.54327774,1.12264753 L1.54327774,9.77602628 L0.963098138,9.86015232 L0.963098138,10.295287 L3.28381654,10.295287 L3.28381654,9.93847656 C3.78165511,10.268791 4.36907205,10.4379266 4.96633738,10.4229265 C6.99696599,10.4229265 8.1457216,9.11752243 8.1457216,6.83016435 C8.1457216,4.82854473 7.00566868,3.48107761 5.43628286,3.48107761 Z M4.76617542,9.82534154 C4.22150681,9.80995017 3.69846681,9.60882031 3.28381654,9.25531508 L3.28381654,4.9431302 C3.65111753,4.75218643 4.05424255,4.64004258 4.46738293,4.61387828 C5.60743584,4.61387828 6.29204777,5.5972827 6.29204777,7.15216403 C6.29204777,8.80567589 5.72057087,9.8180893 4.76617542,9.8180893 L4.76617542,9.82534154 Z M13.4500136,3.60871712 L15.3892639,3.60871712 L15.3892639,4.08011304 L14.8482464,4.18019402 L12.1533122,10.7072145 C11.5397723,12.2040779 10.9842503,13.4442118 9.71510742,13.4442118 C9.33547799,13.4493245 8.95674933,13.4059437 8.58810854,13.3151218 L8.58810854,11.8429161 L8.97392798,11.8429161 L9.23065745,12.4230957 C9.38951356,12.5444034 9.58665268,12.604626 9.78617942,12.5927982 C10.5839264,12.5927982 11.1118898,11.3976283 11.4396913,10.6114849 L11.5122137,10.4403319 L8.78827051,4.18309492 L8.26030707,4.06850945 L8.26030707,3.59711353 L11.2409798,3.59711353 L11.2409798,4.08301394 L10.6608002,4.19759941 L12.414393,8.30237009 L14.0534004,4.16859043 L13.4543649,4.06850945 L13.4500136,3.60871712 Z M24.5299935,0.90072883 L27.7035759,0.90072883 L27.7035759,1.37212476 L27.0682793,1.450449 L27.0682793,9.71800832 L27.7093777,9.80503526 L27.7093777,10.2894852 L24.5299935,10.2894852 L24.5299935,9.80503526 L25.2146055,9.71800832 L25.2146055,5.94684091 L21.1533483,5.94684091 L21.1533483,9.71800832 L21.7799422,9.80503526 L21.7799422,10.2894852 L18.6556751,10.2894852 L18.6556751,9.80503526 L19.2837195,9.71800832 L19.2837195,1.450449 L18.6556751,1.36632296 L18.6556751,0.894927034 L21.7784918,0.894927034 L21.7784918,1.36632296 L21.1518978,1.450449 L21.1518978,4.98664367 L25.213155,4.98664367 L25.213155,1.450449 L24.5285431,1.36632296 L24.5299935,0.90072883 Z M29.593511,1.54182729 C29.5859781,1.17909043 29.7725719,0.83989916 30.0829543,0.652023556 C30.3933367,0.464147953 30.7803724,0.456130786 31.0982686,0.630992046 C31.4161649,0.805853305 31.6166258,1.13702741 31.6241396,1.49976427 C31.6428835,1.78199253 31.5447197,2.0595064 31.3526859,2.2671772 C31.1606521,2.47484799 30.8916553,2.5943921 30.6088253,2.59775416 C30.3274775,2.60861473 30.0549345,2.49853844 29.8600452,2.29533236 C29.6651558,2.09212628 29.5665582,1.81522382 29.5891596,1.53457504 L29.593511,1.54182729 Z M31.4036714,9.78327852 L32.0027068,9.86740456 L32.0027068,10.3025393 L29.080052,10.3025393 L29.080052,9.86740456 L29.6790875,9.78327852 L29.6790875,4.12652741 L29.080052,4.04240137 L29.080052,3.60726667 L31.4007705,3.60726667 L31.4036714,9.78327852 Z M35.5969194,9.78327852 L36.1945044,9.86740456 L36.1945044,10.3025393 L33.2718497,10.3025393 L33.2718497,9.86740456 L33.8520293,9.78327852 L33.8520293,1.12264753 L33.2718497,1.03562059 L33.2718497,0.609188581 L35.5925681,0.609188581 L35.5969194,9.78327852 Z M40.8867069,9.56861207 C41.1973901,9.58250391 41.5086111,9.55863877 41.8135438,9.49754007 L41.8135438,9.9544315 C41.1258347,10.2201897 40.3980148,10.3673231 39.6610775,10.3895662 C38.3194122,10.3895662 38.0061152,9.77602628 38.0061152,8.60696438 L38.0061152,4.22950929 L36.7804858,4.22950929 L36.7804858,3.60146487 L38.0496287,3.60146487 L38.0496287,2.20613293 L39.7452036,1.69267399 L39.7452036,3.60146487 L41.3145894,3.60146487 L41.3145894,4.22950929 L39.7423027,4.22950929 L39.7423027,8.2080909 C39.7423027,9.2350088 39.95987,9.56135982 40.8867069,9.56135982 L40.8867069,9.56861207 Z M45.6891436,3.41725785 C44.7179741,3.35189798 43.7658996,3.70917358 43.0774866,4.39730859 C42.3890737,5.0854436 42.0314137,6.03737374 42.0963814,7.00856958 C41.9455724,7.97020448 42.2634485,8.94600095 42.9517381,9.63429051 C43.6400276,10.3225801 44.6158241,10.6404562 45.577459,10.4896472 C46.5325575,10.5682211 47.4751043,10.2308104 48.1633556,9.56395415 C48.8516068,8.89709788 49.2186045,7.96567257 49.1702212,7.00856958 C49.2809501,6.04603251 48.954161,5.08457386 48.279816,4.38887465 C47.6054711,3.69317545 46.654664,3.33658073 45.6891436,3.41725785 Z M45.6180716,9.97473779 C44.6332167,9.97473779 44.0066227,9.09141435 44.0066227,6.96650656 C44.0066227,4.81404024 44.6332167,3.92926635 45.6180716,3.92926635 C46.6333859,3.92926635 47.2570897,4.85610326 47.2570897,6.96650656 C47.2599798,9.13782871 46.6754489,9.97473779 45.6209725,9.97473779 L45.6180716,9.97473779 Z M56.8953126,9.77602628 L57.494348,9.86015232 L57.494348,10.295287 L54.5745942,10.295287 L54.5745942,9.86015232 L55.1547738,9.77602628 L55.1547738,5.96859764 C55.1547738,4.91412122 54.7704048,4.44417574 53.9712074,4.44417574 C53.469946,4.50586603 52.9934751,4.69735431 52.5889295,4.99969771 L52.5889295,9.77602628 L53.1879649,9.86015232 L53.1879649,10.295287 L50.255157,10.295287 L50.255157,9.86015232 L50.8541925,9.77602628 L50.8541925,4.15698684 L50.255157,4.0728608 L50.255157,3.60146487 L52.5932808,3.60146487 L52.5932808,4.52830179 C53.2418726,3.8962412 54.098098,3.52148149 55.0024766,3.47382536 C56.3078807,3.47382536 56.8982135,4.24401378 56.8982135,5.75393119 L56.8953126,9.77602628 Z M61.8007311,1.03562059 L61.8007311,2.70073604 L61.9863886,2.73554682 L61.9863886,2.88059172 L61.1741371,2.88059172 L61.1741371,2.73554682 L61.3641459,2.70073604 L61.3641459,1.21547626 L60.624417,2.87478992 L60.5475432,2.87478992 L59.8426249,1.24158435 L59.8426249,2.70073604 L60.0282824,2.73554682 L60.0282824,2.88059172 L59.4481028,2.88059172 L59.4481028,2.73554682 L59.6279585,2.70073604 L59.6279585,1.03562059 L59.4481028,0.995008016 L59.4481028,0.860116258 L60.1617237,0.860116258 L60.721597,2.16552036 L61.3017766,0.860116258 L61.9849381,0.860116258 L61.9849381,0.995008016 L61.8007311,1.03562059 Z M57.4638886,0.860116258 L59.3030579,0.860116258 L59.3030579,1.26189063 L59.1493103,1.26189063 L59.1086977,1.05012508 L58.6053919,1.05012508 L58.6053919,2.70073604 L58.8200584,2.73554682 L58.8200584,2.88059172 L57.949789,2.88059172 L57.949789,2.73554682 L58.1702572,2.70073604 L58.1702572,1.05012508 L57.6669514,1.05012508 L57.6306902,1.26189063 L57.4667895,1.26189063 L57.4638886,0.860116258 Z"></path>
        </g>
      </g>
    </g>
  </g>
</svg>