<svg viewBox="0 0 220 140" width="220px" height="140px" version="1.1" xmlns="http://www.w3.org/2000/svg" xmlns:xlink="http://www.w3.org/1999/xlink">
    <g id="hampton_logo--showcase" stroke="none" stroke-width="1" fill="none" fill-rule="evenodd">
        <rect id="Rectangle" fill-rule="nonzero" x="0" y="0" fill="none"></rect>
        <polyline id="Fill-1" fill="#AA073B" points="54 88.593012 54 50.577502 109.932524 34.1707992 165.864762 50.577502 165.864762 88.593012 109.932524 105 54 88.593012"></polyline>
        <polyline id="Fill-4" class="inactive-gray" fill="#FFFFFF" points="57.0306012 86.3301365 57.0306012 52.8406627 109.932524 37.322743 162.834161 52.8406627 162.834161 86.3301365 109.932524 101.848056 57.0306012 86.3301365"></polyline>
        <polyline id="Fill-5" fill="#00247D" points="109.932524 38.2277791 57.9010596 53.490498 57.9010596 85.6803012 109.932524 100.942735 161.963703 85.6803012 161.963703 53.490498 109.932524 38.2277791"></polyline>
        <path d="M75.4365382,64.0712088 L72.8808883,64.0712088 L72.9146093,65.2308755 L75.0753236,65.2630964 C75.0753236,65.2630964 74.191434,69.2721727 72.750291,72.1543735 C71.3071476,75.0351486 69.5702316,77.4870723 66.9837185,77.1888153 C64.3954908,76.8897028 62.0684577,74.4064137 62.1021787,70.8951928 C62.1338993,67.3836867 62.2870725,66.0512249 64.133153,64.1045703 C64.8861595,63.3093133 64.8204322,62.2155141 63.6087633,62.5477028 C62.3945224,62.8776104 61.5769316,63.6403614 61.0191067,65.8941124 C60.4644252,68.1455823 60.2029448,71.735502 62.5928474,75.7648233 C64.5592375,79.0764458 69.2761732,79.0097229 71.6037778,76.989502 C73.299257,75.516751 75.2736487,72.94849 76.4513109,70.0677149 C77.6318308,67.1843735 78.2539542,65.3628956 78.2539542,65.3628956 L82.7439878,65.3628956 C82.7439878,65.3628956 78.4837141,75.6975301 83.9213642,78.413494 C83.9213642,78.413494 82.8751566,75.7648233 83.5947279,72.8823373 C84.3162997,70.0001365 85.724579,65.860751 86.0526441,65.3971124 C86.0526441,65.3971124 86.5773196,65.3298193 86.7084885,65.3298193 C86.8388001,65.3298193 87.2637415,65.5297028 87.4297744,65.2630964 C87.5923781,64.9984859 87.5592287,64.3366747 87.5592287,64.3366747 L86.4150017,64.2365904 C86.4150017,64.2365904 87.2637415,61.1559317 88.1496315,59.2021486 C89.0335211,57.2477952 90.0820149,55.5580522 91.6557556,54.13349 C91.6557556,54.13349 90.377502,53.6376305 87.9521638,55.4918996 C85.5273971,57.3470241 83.0709098,64.2365904 83.0709098,64.2365904 L78.6797529,64.1707229 C78.6797529,64.1707229 79.4013247,61.2565863 80.6132794,58.8383092 C81.8258056,56.4186064 82.9060199,54.8298032 82.9060199,54.8298032 C82.9060199,54.8298032 78.1565063,56.0219759 77.4026425,56.153996 C76.6496359,56.2871566 73.6896202,56.9931647 72.5436786,57.5221004 C71.3968796,58.0533173 70.9050678,59.6426908 71.330295,59.87451 C71.7575226,60.1068996 72.6422696,59.4111566 73.4275682,58.848004 C74.2140099,58.2837108 77.7312791,56.4186064 79.6630909,56.4858996 C79.6630909,56.4858996 77.4026425,58.6720723 75.4365382,64.0712088 Z M138.280433,65.3298193 C138.280433,65.3298193 137.526284,65.2308755 137.101628,64.038988 C136.672972,62.846245 136.869296,62.3158835 136.869296,62.3158835 C136.869296,62.3155984 137.427121,61.653502 138.115258,61.8844659 C138.803966,62.1174257 138.606784,64.3366747 138.280433,65.3298193 Z M136.933595,69.4372691 C136.345764,70.5960803 135.494166,71.6553775 134.707725,71.2923936 C133.923569,70.9285542 134.084172,68.3443253 134.511686,66.7885984 C134.936627,65.2308755 135.854238,63.8060281 135.854238,63.8060281 C135.854238,63.8060281 135.98655,65.2630964 137.886355,66.4569799 C137.886355,66.4569799 137.526284,68.2776024 136.933595,69.4372691 Z M158.16895,63.2434458 C157.511391,63.3760361 157.708859,63.7404458 157.773729,66.1587229 C157.840599,68.5772851 155.350105,72.0876506 153.810371,73.3128996 C152.270351,74.5372932 150.109065,75.3995582 148.698214,74.07451 C147.290506,72.749747 148.599909,69.2721727 149.648117,66.4889157 C150.698039,63.7070843 150.860929,62.813739 150.698039,61.7852369 C150.534578,60.7590161 148.89511,60.7926627 148.17411,61.089494 C147.454539,61.3886064 145.651324,62.9774096 145.651324,62.9774096 L145.781921,61.3221687 L143.456031,61.2565863 C143.326006,61.8844659 142.5067,63.3093133 141.687966,64.1707229 C140.868947,65.0312771 140.016778,65.1966586 140.016778,65.1966586 C140.016778,65.1966586 140.016778,64.8000281 140.082505,63.4755502 C140.147375,62.1496466 138.902271,61.0244819 137.886355,60.8910361 C136.869296,60.7590161 134.840037,60.9894096 133.199711,63.2109398 C131.562529,65.4290482 131.169023,68.3788273 131.169023,68.3788273 C130.842672,69.0734297 129.465542,70.3976225 128.778548,70.8293253 C128.08984,71.2593173 127.566308,71.5909357 128.08984,69.006992 C128.615659,66.4233333 130.383152,61.9511888 130.383152,61.9511888 L132.676464,61.9511888 L132.841354,61.122 L130.546613,61.089494 L131.858874,56.7838715 L129.040886,57.1810723 L127.762061,61.0575582 L125.697651,61.089494 L125.697651,61.9181124 L127.534302,61.9181124 C127.534302,61.9181124 126.615548,64.7005141 126.5181,65.1644378 C126.418652,65.6283614 124.945216,69.006992 125.174119,71.0933655 C125.44703,73.5760843 127.696334,72.6510884 128.711964,72.0534337 C129.72788,71.4583454 131.29962,69.7024498 131.29962,69.7024498 C131.597107,72.4857068 134.282497,73.1803092 136.642108,71.9222691 C138.999147,70.6628032 139.787304,66.3568956 139.787304,66.3568956 C140.671479,66.3896867 142.244934,64.9645542 142.244934,64.9645542 L139.787304,72.3525462 L142.473837,72.3525462 C143.717226,67.7806024 145.454714,64.8664659 146.175428,63.8724659 C146.896428,62.8776104 147.652292,62.5140562 147.914059,62.7789518 C148.17411,63.0455582 147.681727,64.0712088 146.896428,66.0922851 C146.109986,68.1139317 145.391844,70.2658876 145.781921,72.5173574 C146.175428,74.7696827 147.389383,75.6655944 149.781,75.7981847 C152.172046,75.9293494 155.350105,74.2404618 157.283632,71.2923936 C159.215443,68.3443253 159.151145,66.4569799 159.215443,65.0652088 C159.281171,63.6742932 158.82308,63.1102851 158.16895,63.2434458 Z M121.17704,67.2180201 C120.223708,69.5379237 118.687689,71.1603735 118.095572,70.9944217 C117.50717,70.8293253 117.637481,68.8744016 118.620248,66.3568956 C119.604157,63.8393896 120.933278,62.1470803 121.568261,62.4148273 C121.970341,62.5787831 122.126943,64.8995422 121.17704,67.2180201 Z M94.6360611,65.1644378 C94.113386,66.6554378 93.4249637,68.2776024 92.6382362,69.1395823 C91.8515087,70.0001365 90.9018918,70.4965663 90.4423721,70.3323253 C89.9842812,70.1658032 90.2463332,68.2776024 90.8347356,66.6554378 C91.4259957,65.0312771 92.3761842,63.3093133 93.1303338,62.7789518 C93.8827688,62.2488755 94.6043405,62.2155141 94.8000937,62.3158835 C94.9972756,62.4148273 95.1615939,63.6742932 94.6360611,65.1644378 Z M123.042553,60.7926627 C121.229051,60.5100884 120.094826,62.0164859 120.094826,62.0164859 L119.9648,61.0244819 L117.76865,61.0244819 L115.637942,67.5821446 C114.916941,69.0734297 113.737565,70.1994498 112.689928,70.7634578 C111.641149,71.325755 111.837188,69.8019639 112.294707,68.5427831 C112.754798,67.2844578 113.90274,64.6677229 114.327967,62.9121124 C114.754052,61.1559317 113.672695,60.4265422 112.196402,60.8245984 C110.723538,61.2223695 108.727142,63.7732369 108.727142,63.7732369 C109.053493,60.8910361 107.645499,60.626996 106.629583,60.9238273 C105.612524,61.2223695 103.809881,62.8776104 103.809881,62.8776104 C103.974771,62.4148273 103.974771,60.8245984 103.974771,60.8245984 L101.55029,60.8245984 C101.55029,60.8245984 99.648484,67.1843735 99.321562,67.8128233 C99.1166642,68.2085984 97.2908735,70.6953092 96.4721396,70.5627189 C95.65312,70.4306988 96.0123341,69.2385261 96.4064123,68.0466386 C96.8004905,66.8538956 98.6985813,60.7926627 98.6985813,60.7926627 L95.9143147,60.7926627 L95.5536717,61.5537028 C95.0952951,60.3621004 92.4079048,60.1952932 90.4103657,62.3158835 C88.4119693,64.4361888 87.6912549,67.349755 87.4929298,69.2385261 C87.2977482,71.1272972 87.5592287,72.3194699 89.3624435,72.3194699 C91.1639438,72.3194699 93.1303338,69.9348394 93.1303338,69.9348394 C93.1303338,71.5909357 93.5558468,72.4857068 95.0295677,72.4512048 C96.5052891,72.4186988 98.5039713,70.3323253 98.5039713,70.3323253 L97.8801332,72.1207269 L100.73127,72.1207269 C101.254517,70.1658032 102.564491,66.9194779 103.189186,65.595 C103.809881,64.2699518 104.597752,63.2109398 105.318752,62.9446185 C106.040038,62.6797229 106.334953,63.2434458 106.171492,63.8060281 C106.004888,64.3688956 103.547543,72.1877349 103.547543,72.1877349 L106.07233,72.2193855 C106.07233,72.2193855 107.415739,68.5088514 108.136454,66.7885984 C108.856882,65.0652088 109.871941,63.4755502 110.790123,62.813739 C111.707162,62.1496466 111.477116,62.9446185 111.28222,63.6742932 C111.084753,64.4025422 109.216954,69.3711165 109.020057,70.2325261 C108.825447,71.0933655 109.216954,72.5518594 110.756402,72.5849357 C112.294707,72.6177269 114.622312,70.2325261 114.622312,70.2325261 L112.656493,76.6256627 L115.443332,76.6923855 L117.048507,71.8233253 C117.440871,72.1877349 117.473163,72.3856225 118.915449,72.4857068 C120.357163,72.5849357 122.649618,70.4965663 123.666391,68.0794297 C124.682307,65.6605823 125.040664,61.1014699 123.042553,60.7926627 Z" id="Fill-8" class="inactive-gray" fill="#FFFFFE"></path>
        <path d="M91.1167916,82.939245 C90.3712151,82.939245 89.8808321,83.4031687 89.8808321,84.1659197 C89.8808321,84.7952249 90.2506197,85.3931647 91.1167916,85.3931647 C91.9766764,85.3931647 92.3398913,84.7952249 92.3398913,84.1659197 C92.3398913,83.4031687 91.8557953,82.939245 91.1167916,82.939245 Z M89.2821419,81.2358153 L89.9191254,81.2358153 L89.9191254,82.984012 L89.9316993,82.984012 C90.1863213,82.5831044 90.7027094,82.4051767 91.1996651,82.4051767 C92.2061505,82.4051767 93.0151681,83.0470281 93.0151681,84.1659197 C93.0151681,85.2850964 92.2061505,85.9269478 91.1996651,85.9269478 C90.7089964,85.9269478 90.1797485,85.736759 89.9316993,85.3866064 L89.9191254,85.3866064 L89.9191254,85.8123213 L89.2821419,85.8123213 L89.2821419,81.2358153 Z" id="Fill-9" class="inactive-gray" fill="#FFFFFE"></path>
        <path d="M96.8713617,82.4818795 L97.5852176,82.4818795 L95.8385854,86.3848835 C95.5202365,87.0903213 95.2724731,87.211506 94.6797841,87.211506 C94.5203239,87.211506 94.3611494,87.1986747 94.1954023,87.1858434 L94.1954023,86.6517751 C94.310568,86.6577631 94.4120167,86.6771526 94.5646184,86.6771526 C94.9601254,86.6771526 95.0552871,86.594747 95.2593276,86.1681767 L95.4059281,85.8633614 L93.8641937,82.4818795 L94.5969105,82.4818795 L95.7437094,85.1131566 L96.8713617,82.4818795" id="Fill-10" class="inactive-gray" fill="#FFFFFE"></path>
        <polyline id="Fill-11" class="inactive-gray" fill="#FFFFFE" points="101.42255 81.2734538 102.378168 81.2734538 102.378168 83.040755 105.200157 83.040755 105.200157 81.2734538 106.155775 81.2734538 106.155775 85.8123213 105.200157 85.8123213 105.200157 83.7530361 102.378168 83.7530361 102.378168 85.8123213 101.42255 85.8123213 101.42255 81.2734538"></polyline>
        <polygon id="Fill-12" class="inactive-gray" fill="#FFFFFE" points="107.724943 85.8123213 108.680561 85.8123213 108.680561 81.2734538 107.724943 81.2734538"></polygon>
        <polyline id="Fill-13" class="inactive-gray" fill="#FFFFFE" points="110.249158 81.2734538 111.204776 81.2734538 111.204776 85.0624016 113.969896 85.0624016 113.969896 85.8123213 110.249158 85.8123213 110.249158 81.2734538"></polyline>
        <polyline id="Fill-14" class="inactive-gray" fill="#FFFFFE" points="115.672234 81.9857349 113.964181 81.9857349 113.964181 81.2734538 118.335048 81.2734538 118.335048 81.9857349 116.627566 81.9857349 116.627566 85.8123213 115.672234 85.8123213 115.672234 81.9857349"></polyline>
        <polyline id="Fill-6" fill="#AA073B" points="162.055721 94.1084859 162.055721 92.0797108 161.282996 92.0797108 161.282996 91.8085422 163.144223 91.8085422 163.144223 92.0797108 162.37207 92.0797108 162.37207 94.1084859 162.055721 94.1084859"></polyline>
        <polyline id="Fill-7" fill="#AA073B" points="163.45457 91.8085422 164.018682 91.8085422 164.670526 93.7041566 165.337515 91.8085422 165.863619 91.8085422 165.863619 94.1084859 165.550986 94.1084859 165.550986 92.0377952 164.79455 94.1084859 164.49049 94.1084859 163.762917 92.0511968 163.762917 94.1084859 163.45457 94.1084859 163.45457 91.8085422"></polyline>
        <path d="M123.541509,83.5428876 C123.541509,82.5448956 122.929674,81.8585622 121.859747,81.8585622 C120.789249,81.8585622 120.177414,82.5448956 120.177414,83.5428876 C120.177414,84.5408795 120.789249,85.2280683 121.859747,85.2280683 C122.929674,85.2280683 123.541509,84.5408795 123.541509,83.5428876 Z M119.183502,83.5428876 C119.183502,82.2654578 119.935651,81.1465663 121.859747,81.1465663 C123.783557,81.1465663 124.535421,82.2654578 124.535421,83.5428876 C124.535421,84.8206024 123.783557,85.9397791 121.859747,85.9397791 C119.935651,85.9397791 119.183502,84.8206024 119.183502,83.5428876 Z" id="Fill-15" class="inactive-gray" fill="#FFFFFE"></path>
        <polyline id="Fill-16" class="inactive-gray" fill="#FFFFFE" points="125.849396 81.2734538 126.945613 81.2734538 129.653008 84.6808835 129.665296 84.6808835 129.665296 81.2734538 130.582906 81.2734538 130.582906 85.8123213 129.506407 85.8123213 126.779866 82.4051767 126.767006 82.4051767 126.767006 85.8123213 125.849396 85.8123213 125.849396 81.2734538"></polyline>
    </g>
</svg>