<svg xmlns="http://www.w3.org/2000/svg" viewBox="0 0 220 140" width="220px" height="140px">
  <g id="hilton_garden_inn_logo" transform="translate(-11436 -1699)">
    <rect id="Rectangle_27012" data-name="Rectangle 27012" fill="none" transform="translate(11436 1699)"/>
    <g id="hilton-garden-inn-logo" transform="translate(11471 1742.623)">
      <path id="Path_35864" data-name="Path 35864" fill="#56565a" d="M16.151,74.5V79.4A8.846,8.846,0,0,1,8.638,82.88C2.913,82.88,0,78.638,0,73.322,0,70.2.818,67.444,3.271,65.3A9.224,9.224,0,0,1,9.4,63.1a7.5,7.5,0,0,1,4.038,1.227l1.227-.92h.664v5.316H14.209c-.511-2.964-1.124-4.651-4.549-4.651-2.147,0-3.731.869-4.293,2.964A19.721,19.721,0,0,0,4.7,72.76a39.826,39.826,0,0,0,.358,5.469c.307,2.2,1.278,3.833,3.782,3.833a3.029,3.029,0,0,0,2.5-.92,2.008,2.008,0,0,0,.613-1.584V74.549H9.1V73.424h8.791v1.124H16.151Z" transform="translate(0 -30.36)"/>
      <path id="Path_35865" data-name="Path 35865" fill="#56565a" d="M44.584,80.449v2.5a2.881,2.881,0,0,1-.92,2.5,2.5,2.5,0,0,1-1.431.562,2.188,2.188,0,0,1-2.249-2.4c0-2.709,2.453-3.067,4.6-3.169m6.031,7.207v-.92h-2.2V77.791c0-1.789-.409-2.811-2.2-3.578a8.085,8.085,0,0,0-3.271-.613c-2.1,0-5.724.92-5.724,3.578a1.731,1.731,0,0,0,1.84,1.789,1.772,1.772,0,0,0,1.84-1.84c0-.767-.664-1.227-.664-1.738,0-.716,1.482-.92,1.993-.92,1.891,0,2.3.767,2.3,2.453v2.556c-2.147.2-4.753.46-6.542,1.789A4.223,4.223,0,0,0,36.1,84.691c0,2.249,1.738,3.271,3.833,3.271a5.961,5.961,0,0,0,4.7-2.249,5.154,5.154,0,0,0,.46.92c.716.92,2.249.971,3.322.971h2.2Z" transform="translate(-17.649 -35.493)"/>
      <path id="Path_35866" data-name="Path 35866" fill="#56565a" d="M76.891,78.407a1.97,1.97,0,0,1-2.1-1.891c0-.869.562-1.329.562-1.533s-.256-.307-.46-.307c-.409,0-1.278,1.073-1.482,1.329a7.293,7.293,0,0,0-1.329,4.5v6.133H74.8v.92h-9v-.92H68V74.88H65.8v-.92h6.338v2.453C73.16,74.778,74.08,73.5,76.227,73.5a2.644,2.644,0,0,1,2.862,2.709,2.066,2.066,0,0,1-2.2,2.2" transform="translate(-32.169 -35.444)"/>
      <path id="Path_35867" data-name="Path 35867" fill="#56565a" d="M100.607,69.689a3.447,3.447,0,0,1,2.76,1.942,9.968,9.968,0,0,1,.613,4.242,11.888,11.888,0,0,1-.409,3.527c-.511,1.176-1.636,2.5-3.016,2.5-2.709,0-2.862-4.242-2.862-6.133,0-1.993.1-6.082,2.913-6.082m9.507,12.88v-.92h-2.147V63.3H101.68v.92h2.147v6.491a5.046,5.046,0,0,0-4.191-2.147,5.637,5.637,0,0,0-2.607.664,7.245,7.245,0,0,0-3.629,6.7c0,3.884,2.4,7.053,6.389,7.053,2.044,0,2.964-.869,4.038-2.453v2.044Z" transform="translate(-45.662 -30.458)"/>
      <path id="Path_35868" data-name="Path 35868" fill="#56565a" d="M135.707,79.016h-4.958c.051-2.147-.307-4.6,2.658-4.6,1.84,0,2.3,1.124,2.3,2.709Zm4.293.971a7.3,7.3,0,0,0-1.738-4.293,6.635,6.635,0,0,0-4.856-1.993,6.97,6.97,0,0,0-7.207,7.156,7.087,7.087,0,0,0,7.462,7.258c3.067,0,4.856-1.533,6.184-4.14l-.818-.409c-1.176,1.891-2.5,3.527-4.958,3.527-3.169,0-3.373-2.964-3.373-5.367V79.987Z" transform="translate(-61.698 -35.542)"/>
      <path id="Path_35869" data-name="Path 35869" fill="#56565a" d="M164.618,87.656v-.92h1.84V78.4c0-1.482,0-3.373-1.993-3.373A4.1,4.1,0,0,0,161.04,78a9.191,9.191,0,0,0-.153,2.044v6.644h2.1v.92H154.6v-.92h2.2V74.929h-2.2v-.92h6.287v2.1a5.608,5.608,0,0,1,2.607-1.993,6.8,6.8,0,0,1,2.453-.511,7.267,7.267,0,0,1,1.84.256c2.249.664,2.76,2.1,2.76,4.191v8.689h2.147v.92Z" transform="translate(-75.582 -35.493)"/>
      <path id="Path_35870" data-name="Path 35870" fill="#56565a" d="M199,82.913v-.971h2.249V64.871H199V63.9h8.791v.971h-2.249V81.942h2.249v.971Z" transform="translate(-97.289 -30.751)"/>
      <path id="Path_35871" data-name="Path 35871" fill="#56565a" d="M228.018,87.656v-.92h1.84V78.4c0-1.482,0-3.373-1.993-3.373A4.04,4.04,0,0,0,224.44,78a9.192,9.192,0,0,0-.153,2.044v6.644h2.1v.92H218v-.92h2.2V74.929H218v-.92h6.287v2.1a5.607,5.607,0,0,1,2.607-1.993,6.8,6.8,0,0,1,2.453-.511,7.268,7.268,0,0,1,1.84.256c2.249.664,2.76,2.1,2.76,4.191v8.689h2.147v.92Z" transform="translate(-106.578 -35.493)"/>
      <path id="Path_35872" data-name="Path 35872" fill="#56565a" d="M264.818,87.656v-.92h1.84V78.4c0-1.482,0-3.373-1.993-3.373A4.1,4.1,0,0,0,261.24,78a9.192,9.192,0,0,0-.153,2.044v6.644h2.1v.92H254.8v-.92H257V74.929h-2.2v-.92h6.287v2.1a5.607,5.607,0,0,1,2.607-1.993,6.8,6.8,0,0,1,2.453-.511,7.268,7.268,0,0,1,1.84.256c2.249.664,2.76,2.1,2.76,4.191v8.689h2.147v.92Z" transform="translate(-124.569 -35.493)"/>
      <rect id="Rectangle_23262" class="inactive-dark-gray" data-name="Rectangle 23262" fill="#bf3038" width="28.213" height="27.907" transform="translate(0.409 1)"/>
      <path id="Path_35873" class="inactive-gray" data-name="Path 35873" fill="#FFFFFF" d="M10.364,10.3a.677.677,0,0,0-.664.664.6.6,0,0,0,.664.613.677.677,0,0,0,.664-.664.634.634,0,0,0-.664-.613" transform="translate(-4.742 -4.547)"/>
      <path id="Path_35874" class="inactive-gray" data-name="Path 35874" fill="#FFFFFF" d="M13.053,6.568C11.111,4.83,9.782,4.83,6.869,4.626c0,0-1.431-.153-2.5-.358-.2-.051-.511-.051-.562.051-.153.051-.1.358-.051.562.2,1.073.358,2.5.358,2.5.153,2.913.2,4.242,1.891,6.184,0,0,4.7,5.06,8.382,1.38a.842.842,0,0,0,.2-.562,41.412,41.412,0,0,0-3.527-3.731,16.432,16.432,0,0,0-2.3-1.942c-.051,0-.1-.051-.153,0a.736.736,0,0,0-.358.307.4.4,0,0,0,0,.256,9.285,9.285,0,0,0,1.942,2.3c1.278,1.278,2.964,2.811,2.964,2.811-2.147,1.636-5.367-1.022-5.367-1.022-2.1-1.738-2.76-5.213-2.556-7.667,2.453-.153,5.929.511,7.667,2.607,0,0,1.738,2.3,1.38,4.344a.188.188,0,0,0,.051.153.838.838,0,0,0,1.329.1c.051-.051.051-.051.051-.1.613-3.118-2.658-6.236-2.658-6.236" transform="translate(-1.809 -1.581)"/>
      <path id="Path_35875" class="inactive-gray" data-name="Path 35875" fill="#FFFFFF" d="M44.729,10.864a.664.664,0,1,0-.664.664.644.644,0,0,0,.664-.664" transform="translate(-21.218 -4.498)"/>
      <path id="Path_35876" class="inactive-gray" data-name="Path 35876" fill="#FFFFFF" d="M38.2,13.59c1.738-1.942,1.789-3.271,1.942-6.184,0,0,.153-1.431.358-2.5.051-.2.051-.511-.051-.562-.051-.1-.358-.051-.562-.051-1.073.2-2.5.358-2.5.358-2.913.153-4.242.2-6.184,1.891,0,0-5.06,4.7-1.38,8.382a.842.842,0,0,0,.562.2A41.411,41.411,0,0,0,34.11,11.6a16.434,16.434,0,0,0,1.942-2.3V9.143a.736.736,0,0,0-.307-.358.4.4,0,0,0-.256,0,9.285,9.285,0,0,0-2.3,1.942c-1.278,1.278-2.811,2.964-2.811,2.964C28.744,11.546,31.4,8.274,31.4,8.274c1.738-2.1,5.213-2.76,7.667-2.556.153,2.453-.511,5.929-2.607,7.667,0,0-2.3,1.738-4.344,1.38a.188.188,0,0,0-.153.051.838.838,0,0,0-.1,1.329c.051.051.051.051.1.051,3.118.664,6.236-2.607,6.236-2.607" transform="translate(-13.922 -1.601)"/>
      <path id="Path_35877" class="inactive-gray" data-name="Path 35877" fill="#FFFFFF" d="M44.208,45.229a.664.664,0,0,0,0-1.329.6.6,0,0,0-.613.664.58.58,0,0,0,.613.664" transform="translate(-21.31 -20.973)"/>
      <path id="Path_35878" class="inactive-gray" data-name="Path 35878" fill="#FFFFFF" d="M31.184,38.748c1.942,1.738,3.271,1.789,6.184,1.942l2.5.358a1.008,1.008,0,0,0,.562,0c.1-.051.051-.358.051-.562-.2-1.073-.358-2.5-.358-2.5-.153-2.913-.2-4.242-1.891-6.184,0,0-4.7-5.06-8.382-1.38a.842.842,0,0,0-.2.562,41.412,41.412,0,0,0,3.527,3.731,16.432,16.432,0,0,0,2.3,1.942h.153a.736.736,0,0,0,.358-.307.4.4,0,0,0,0-.256,9.284,9.284,0,0,0-1.942-2.3c-1.278-1.278-2.964-2.811-2.964-2.811C33.229,29.344,36.449,32,36.449,32c2.1,1.738,2.76,5.213,2.556,7.667-2.453.153-5.929-.511-7.667-2.607,0,0-1.738-2.3-1.38-4.344a.188.188,0,0,0-.051-.153.838.838,0,0,0-1.329-.1c-.051.051-.051.051-.051.1-.613,3.118,2.658,6.184,2.658,6.184" transform="translate(-13.909 -13.726)"/>
      <path id="Path_35879" class="inactive-gray" data-name="Path 35879" fill="#FFFFFF" d="M9.8,44.664A.664.664,0,1,0,10.464,44a.644.644,0,0,0-.664.664" transform="translate(-4.791 -21.022)"/>
      <path id="Path_35880" class="inactive-gray" data-name="Path 35880" fill="#FFFFFF" d="M6.068,31.684c-1.738,1.942-1.789,3.271-1.942,6.184,0,0-.153,1.431-.358,2.5-.051.2-.051.511.051.562.051.153.358.1.562.051,1.073-.2,2.5-.358,2.5-.358,2.913-.153,4.242-.2,6.184-1.891,0,0,5.06-4.7,1.38-8.382a.842.842,0,0,0-.562-.2,41.413,41.413,0,0,0-3.731,3.527,16.432,16.432,0,0,0-1.942,2.3v.153a.736.736,0,0,0,.307.358.4.4,0,0,0,.256,0,9.285,9.285,0,0,0,2.3-1.942c1.278-1.278,2.811-2.964,2.811-2.964,1.636,2.147-1.022,5.367-1.022,5.367-1.738,2.1-5.213,2.76-7.667,2.556-.153-2.453.511-5.929,2.607-7.667,0,0,2.3-1.738,4.344-1.38a.188.188,0,0,0,.153-.051.838.838,0,0,0,.1-1.329c-.051-.051-.051-.051-.1-.051-3.169-.613-6.236,2.658-6.236,2.658" transform="translate(-1.826 -13.665)"/>
      <path id="Path_35881" data-name="Path 35881" fill="#56565a" d="M89.7,2.687V27.22l1.891.256v1.431H82.082V27.476l2.044-.256V16.027H71.962V27.22l1.891.256v1.431H64.5V27.476l1.84-.256V2.687L64.5,2.431V1h9.353V2.431l-1.891.256V13.164H84.127V2.687l-2.044-.256V1h9.507V2.431Z" transform="translate(-31.533 0)"/>
      <path id="Path_35882" data-name="Path 35882" fill="#56565a" d="M132.551,35.1l1.789.256v1.278H125.6V35.353l1.789-.256V18.282l-1.789-.2V16.8h6.951Z" transform="translate(-61.405 -7.724)"/>
      <path id="Path_35883" data-name="Path 35883" fill="#56565a" d="M150.1,27.68l1.789-.256V2.482L150.1,2.227V1h7V27.424l1.789.256v1.227H150.1Z" transform="translate(-73.382 0)"/>
      <path id="Path_35884" data-name="Path 35884" fill="#56565a" d="M179.593,11.373h4.7v1.84h-4.7V25.02c0,3.067.613,4.038,3.424,4.038a11.669,11.669,0,0,0,2.76-.2v1.329a20.089,20.089,0,0,1-6.44,1.278c-4.038,0-4.958-1.84-4.958-5.316V13.213H170.7v-1.84h3.782V7.233l5.06-1.533v5.673Z" transform="translate(-83.453 -2.298)"/>
      <path id="Path_35885" data-name="Path 35885" fill="#56565a" d="M217.387,26.229c0-6.287-1.891-9-4.907-9-2.964,0-4.8,2.607-4.8,9,0,6.287,1.891,8.944,4.8,8.944,3.118,0,4.907-2.5,4.907-8.944m5.724.153c0,6.184-4.191,10.324-10.784,10.324-6.389,0-10.427-2.709-10.427-10.324,0-6.389,4.191-10.682,10.784-10.682,6.491,0,10.427,3.833,10.427,10.682" transform="translate(-98.707 -7.187)"/>
      <path id="Path_35886" data-name="Path 35886" fill="#56565a" d="M269.071,35.011v1.278h-8.74V35.011l1.738-.256V23.46c0-3.118-1.176-4.549-3.527-4.549a8.875,8.875,0,0,0-4.14,1.636V34.7l1.789.256v1.278H247.4V34.96l1.789-.256V18.093l-1.789-.256v-1.38h7v2.76c2.2-1.738,4.293-3.118,7.207-3.118,3.936,0,5.673,2.3,5.673,6.747v11.96Z" transform="translate(-120.951 -7.382)"/>
      <path id="Path_35887" data-name="Path 35887" fill="#56565a" d="M134.322,3.811a2.836,2.836,0,0,1-2.811,2.811A2.8,2.8,0,0,1,128.7,3.811a2.811,2.811,0,0,1,5.622,0" transform="translate(-62.92 0)"/>
      <path id="Path_35888" data-name="Path 35888" fill="#56565a" d="M288.247,69.609h-.818v2.2h-.511v-2.2H286.1V69.2h2.1v.409Zm1.993,1.482.716-1.84h.716v2.607h-.46V69.813h0l-.767,2.044h-.358l-.767-2.044h0v2.044h-.46V69.251h.716Z" transform="translate(-139.871 -33.342)"/>
    </g>
  </g>
</svg>
