<?xml version="1.0" encoding="utf-8"?>
<!-- Generator: Adobe Illustrator 25.2.3, SVG Export Plug-In . SVG Version: 6.00 Build 0)  -->
<svg version="1.1" xmlns="http://www.w3.org/2000/svg" xmlns:xlink="http://www.w3.org/1999/xlink" x="0px" y="0px"
	 viewBox="0 0 229.73 73.29" width="220px" height="140px" style="enable-background:new 0 0 229.73 73.29;" xml:space="preserve">
<style type="text/css">
	.st0{fill:#FFFFFF;}
	.st1{fill:#00567A;}
	.st2{fill:#00B3BA;}
</style>
<g id="Layer_1">
	<g>
		<g>
			<path class="st2" d="M8.21,59.85c1.78,0,3.71,0.72,4.91,1.84l0.2,0.19l1.78-1.6l-0.26-0.22c-1.88-1.59-4.3-2.49-6.65-2.49
				C3.6,57.56,0,61.01,0,65.41c0,4.42,3.64,7.88,8.28,7.88c2.33,0,4.89-0.86,6.68-2.24l0.12-0.09v-6.48H8.06v2.29h4.67v2.97
				C11.7,70.51,10.01,71,8.39,71c-3.8,0-5.78-2.8-5.78-5.56C2.6,62.3,5.07,59.85,8.21,59.85z"/>
			<path class="st2" d="M32.99,62.51c0-1.16-0.41-2.2-1.18-3.03c-0.99-1.04-2.38-1.55-4.25-1.55h-8.23v14.99h2.52v-5.86h5.39
				l3.31,5.86h2.88l-3.62-6.23C31.77,66.02,32.99,64.44,32.99,62.51z M28.04,64.76h-6.2v-4.53h5.72c1.09,0,1.79,0.24,2.34,0.79
				c0.39,0.41,0.6,0.93,0.6,1.47C30.49,63.76,29.42,64.76,28.04,64.76z"/>
			<path class="st2" d="M42.14,57.93l-6.95,14.99h2.64l1.94-4.32h6.8l1.96,4.32h2.76l-6.95-14.99H42.14z M40.72,66.46l2.44-5.4
				l2.44,5.4H40.72z"/>
			<polygon class="st2" points="64.68,68.46 55.95,57.93 53.77,57.93 53.77,72.92 56.29,72.92 56.29,62.38 65.01,72.92 67.2,72.92 
				67.2,57.93 64.68,57.93 			"/>
			<path class="st2" d="M78.53,57.93h-6.69v14.99h6.69c2.82,0,4.22-0.75,5.58-1.98c1.4-1.36,2.21-3.37,2.21-5.53
				c0-2.1-0.74-4.02-2.1-5.39C82.66,58.54,81.01,57.93,78.53,57.93z M82.22,69.31c-0.91,0.77-1.71,1.32-3.75,1.32h-4.11V60.23h4.11
				c1.93,0,2.83,0.48,3.8,1.36c0.94,0.96,1.46,2.32,1.46,3.82C83.72,66.93,83.16,68.36,82.22,69.31z"/>
			<polygon class="st2" points="106.93,57.93 101.66,69.63 96.37,57.93 93.55,57.93 100.53,72.92 102.69,72.92 109.67,57.93 			"/>
			<path class="st2" d="M115.39,57.93l-6.95,14.99h2.64l1.94-4.32h6.8l1.96,4.32h2.75l-6.95-14.99H115.39z M113.98,66.46l2.44-5.4
				l2.45,5.4H113.98z"/>
			<path class="st2" d="M138.84,68.66c-1.43,1.48-3.4,2.33-5.38,2.33c-3.21,0-5.63-2.39-5.63-5.56c0-3.18,2.39-5.58,5.56-5.58
				c1.83,0,3.76,0.75,5.04,1.97l0.21,0.2l1.73-1.7l-0.23-0.21c-1.71-1.59-4.25-2.55-6.79-2.55c-4.55,0-8.12,3.45-8.12,7.86
				c0,4.49,3.53,7.88,8.21,7.88c3.58,0,5.99-1.85,7.11-2.95l0.22-0.21l-1.71-1.68L138.84,68.66z"/>
			<path class="st2" d="M148.79,57.93l-6.95,14.99h2.65l1.94-4.32h6.8l1.96,4.32h2.75l-6.95-14.99H148.79z M147.38,66.46l2.44-5.4
				l2.44,5.4H147.38z"/>
			<polygon class="st2" points="156.46,60.23 162.05,60.23 162.05,72.92 164.57,72.92 164.57,60.23 170.14,60.23 170.14,57.93 
				156.46,57.93 			"/>
			<rect x="172.63" y="57.93" class="st2" width="2.52" height="14.99"/>
			<path class="st2" d="M186.59,57.56c-4.64,0-8.28,3.44-8.28,7.83c0,4.43,3.64,7.9,8.28,7.9c4.59,0,8.32-3.54,8.32-7.9
				C194.91,61.07,191.17,57.56,186.59,57.56z M186.59,71c-3.18,0-5.67-2.46-5.67-5.61c0-3.11,2.49-5.54,5.67-5.54
				c3.15,0,5.72,2.48,5.72,5.54C192.3,68.53,189.79,71,186.59,71z"/>
			<polygon class="st2" points="209.47,68.46 200.75,57.93 198.57,57.93 198.57,72.92 201.08,72.92 201.08,62.38 209.81,72.92 
				211.99,72.92 211.99,57.93 209.47,57.93 			"/>
			<path class="st2" d="M222.97,63.73l-0.26-0.02c-2.57-0.14-4.26-0.35-4.26-1.76c0-1.6,1.78-2.17,3.45-2.17
				c3,0,4.69,1.31,5.13,1.71l0.23,0.2l1.55-1.78l-0.24-0.19c-1.27-1.04-3.67-2.16-6.6-2.16c-2.91,0-6.03,1.2-6.03,4.57
				c0,3.6,3.83,3.85,6.91,4.04c2.83,0.2,4.37,0.64,4.37,2.37c0,1.86-2.16,2.52-4.17,2.52c-3.1,0-5.04-1.46-6.23-2.56l-0.23-0.21
				l-1.56,1.77l0.22,0.2c2.23,2.04,4.77,3.03,7.76,3.03c4.22,0,6.73-1.87,6.73-4.99C229.73,64.21,225.5,63.91,222.97,63.73z"/>
		</g>
		<g>
			<polygon class="st1" points="85.65,13.89 75.38,13.89 75.38,15.78 78.02,16.16 78.02,41.19 75.38,41.57 75.38,43.47 88.3,43.47 
				88.3,41.57 85.65,41.19 			"/>
			<polygon class="st1" points="55.78,3.98 58.81,4.36 58.81,20 40.83,20 40.83,4.36 43.61,3.98 43.61,1.89 29.8,1.89 29.8,3.98 
				32.57,4.36 32.57,40.94 29.8,41.32 29.8,43.47 43.61,43.47 43.61,41.32 40.83,40.94 40.83,24.29 58.81,24.29 58.81,40.94 
				55.78,41.32 55.78,43.47 69.83,43.47 69.83,41.32 67,40.94 67,4.36 69.83,3.98 69.83,1.89 55.78,1.89 			"/>
			<polygon class="st1" points="104.19,0.63 93.92,0.63 93.92,2.53 96.5,2.9 96.5,41.19 93.92,41.57 93.92,43.47 106.84,43.47 
				106.84,41.57 104.19,41.19 			"/>
			<path class="st1" d="M82.12,9.4c2.58,0,4.48-2.08,4.48-4.86C86.6,2.08,84.71,0,82.12,0c-2.65,0-4.48,2.08-4.48,4.74
				C77.65,7.51,79.47,9.4,82.12,9.4z"/>
			<path class="st1" d="M122.54,34.26V16.66h6.94v-2.78h-6.94V5.43l-7.5,2.27v6.18h-5.61v2.78h5.42v19.3c0,5.17,1.39,7.88,7.31,7.88
				c2.65,0,5.8-0.57,9.52-1.89v-2.02c-1.26,0.32-2.58,0.32-4.09,0.32C123.49,40.25,122.54,38.8,122.54,34.26z"/>
			<path class="st1" d="M197.28,41.19V23.41c0-6.69-2.58-10.1-8.39-10.1c-4.34,0-7.44,2.08-10.65,4.67v-4.1H167.9v2.08l2.64,0.38
				v24.85l-2.64,0.38v1.89h12.99v-1.89l-2.65-0.38V20.07c1.88-1.33,4.48-2.46,6.11-2.46c3.53,0,5.24,2.08,5.24,6.75v16.83
				l-2.58,0.38v1.89h12.92v-1.89L197.28,41.19z"/>
			<path class="st1" d="M148.7,13.07c-9.71,0-15.89,6.37-15.89,15.89c0,11.35,6,15.39,15.38,15.39c9.72,0,15.89-6.18,15.89-15.39
				C164.08,18.81,158.28,13.07,148.7,13.07z M148.38,42.08c-4.35,0-7.12-3.91-7.12-13.3c0-9.52,2.77-13.43,7.12-13.43
				c4.48,0,7.25,4.1,7.25,13.43C155.64,38.36,153.05,42.08,148.38,42.08z"/>
		</g>
	</g>
</g>
<g id="Layer_2">
</g>
<g id="Layer_3">
</g>
</svg>
