<svg xmlns="http://www.w3.org/2000/svg" viewBox="0 0 220 140" width="220px" height="140px">
  <defs>
    <style>
      .cls-1 {
        fill: none;
      }

      .cls-2 {
        fill: #002b51;
      }
    </style>
  </defs>
  <g id="hilton_grand_vacations_logo" transform="translate(-12541 -1699)">
    <rect id="Rectangle_27017" data-name="Rectangle 27017" fill="none" transform="translate(12541 1699)"/>
    <g id="Group_58513" data-name="Group 58513" transform="translate(12504 1670)">
      <g id="Group_58512" data-name="Group 58512" transform="translate(61.04 61.05)">
        <g id="Group_58510" data-name="Group 58510" transform="translate(0 23.551)">
          <g id="Group_58507" data-name="Group 58507" transform="translate(52.616)">
            <path id="Path_55108" data-name="Path 55108" fill="#002b51" d="M272.226,152.779v14.383l1.116.15v.843h-5.528v-.843l1.189-.15v-6.545h-7.064v6.545l1.089.15v.843H257.6v-.843l1.092-.15V152.779l-1.092-.15v-.819h5.429v.819l-1.089.15v6.151H269v-6.151l-1.189-.15v-.819h5.528v.819Z" transform="translate(-257.6 -151.066)"/>
            <path id="Path_55109" data-name="Path 55109" fill="#002b51" d="M328.579,165.225l1.041.15v.744H324.54v-.744l1.041-.15v-9.843l-1.041-.15v-.744h4.042v10.737Zm.372-14.407a1.789,1.789,0,0,1-1.761,1.909,1.712,1.712,0,0,1-1.759-1.836,1.762,1.762,0,1,1,3.52-.072Z" transform="translate(-306.621 -149.03)"/>
            <path id="Path_55110" data-name="Path 55110" fill="#002b51" d="M351.77,166.053l1.017-.15V150.854l-1.017-.15v-.744h4.039v15.946l1.041.15v.744H351.77Z" transform="translate(-326.562 -149.711)"/>
            <path id="Path_55111" data-name="Path 55111" fill="#002b51" d="M379.706,160.325h2.728v1.092h-2.728v6.917c0,1.785.372,2.356,1.984,2.356a6.694,6.694,0,0,0,1.611-.123v.792a11.266,11.266,0,0,1-3.745.744c-2.329,0-2.875-1.065-2.875-3.1v-7.586H374.55v-1.092h2.206v-2.431l2.95-.894Z" transform="translate(-343.244 -154.867)"/>
            <path id="Path_55112" data-name="Path 55112" fill="#002b51" d="M421.177,174.46c0,3.619-2.428,6.05-6.248,6.05-3.694,0-6.05-1.587-6.05-6.05a5.871,5.871,0,0,1,6.248-6.25C418.9,168.213,421.177,170.469,421.177,174.46Zm-3.322-.072c0-3.67-1.089-5.281-2.851-5.281-1.711,0-2.8,1.539-2.8,5.281,0,3.694,1.092,5.231,2.8,5.231C416.838,179.616,417.856,178.155,417.856,174.388Z" transform="translate(-368.384 -163.076)"/>
            <path id="Path_55113" data-name="Path 55113" fill="#002b51" d="M473.022,179.682v.744h-5.081v-.744l1.017-.15v-6.617c0-1.836-.669-2.655-2.059-2.655a5.069,5.069,0,0,0-2.4.966v8.306l1.041.15v.744H460.43v-.744l1.041-.15v-9.768l-1.041-.15v-.819H464.5v1.611a6.485,6.485,0,0,1,4.189-1.836c2.281,0,3.3,1.338,3.3,3.97v6.992Z" transform="translate(-406.135 -163.339)"/>
          </g>
          <g id="Group_58508" data-name="Group 58508" transform="translate(0 21.64)">
            <path id="Path_55114" data-name="Path 55114" fill="#002b51" d="M75.543,239.1v.819l-1.116.15v6.371a12.954,12.954,0,0,1-4.933,1.041c-5.876,0-8.454-3.223-8.454-8.528,0-5.279,3.4-8.5,8.826-8.5a15.718,15.718,0,0,1,4.561.669v2.9H73.335l-.372-1.885a8.273,8.273,0,0,0-2.578-.4c-3.793,0-5.876,2.95-5.876,7.139,0,5.081,1.686,7.163,5.576,7.163a9.926,9.926,0,0,0,1.263-.1v-5.876l-1.363-.15V239.1h5.557Z" transform="translate(-61.04 -230.295)"/>
            <path id="Path_55115" data-name="Path 55115" fill="#002b51" d="M125.223,250.723c.72-1.263,1.81-2.5,3.172-2.5a4.02,4.02,0,0,1,1.191.174v3.073h-.792l-.519-1.389a3.511,3.511,0,0,0-3.049,1.563v7.61l1.288.147v.744H121.16V259.4l1.041-.147v-9.768l-1.041-.15v-.816h4.066v2.206Z" transform="translate(-105.067 -243.308)"/>
            <path id="Path_55116" data-name="Path 55116" fill="#002b51" d="M166.939,259.259V260H163.2l-.3-1.338c-1.636,1.041-2.059,1.561-3.4,1.561a3.072,3.072,0,0,1-3.223-3.172c0-2.728,1.537-3.445,6.62-4.636v-.5c0-2.059-.645-2.7-2.182-2.7a2.607,2.607,0,0,0-2.131.717l-.372,1.413h-.891v-2.728a11.442,11.442,0,0,1,3.694-.594c3.769,0,4.883,1.164,4.883,5.033v6.05Zm-4.039-6.023c-2.875.594-3.694,1.684-3.694,3.3a1.664,1.664,0,0,0,1.834,1.884,4.645,4.645,0,0,0,1.86-.546Z" transform="translate(-130.786 -243.169)"/>
            <path id="Path_55117" data-name="Path 55117" fill="#002b51" d="M214.692,259.6v.744h-5.081V259.6l1.017-.147v-6.62c0-1.834-.669-2.653-2.059-2.653a5.069,5.069,0,0,0-2.4.966v8.3l1.041.147v.744H202.1v-.744l1.041-.147v-9.768l-1.041-.15v-.816h4.066v1.611a6.5,6.5,0,0,1,4.189-1.834c2.281,0,3.3,1.338,3.3,3.967v6.992Z" transform="translate(-164.34 -243.506)"/>
            <path id="Path_55118" data-name="Path 55118" fill="#002b51" d="M266.787,245.961v.744h-4.066v-1.338a5.662,5.662,0,0,1-3.742,1.561c-2.728,0-4.709-2.356-4.709-5.825,0-3.967,2.5-6.248,6.32-6.248a3.916,3.916,0,0,1,2.131.471v-4.561l-1.29-.15v-.744h4.312v15.938Zm-4.066-9.42a2.389,2.389,0,0,0-1.686-.645c-2.059,0-3.544,1.761-3.544,4.636,0,2.7,1.191,4.411,3.172,4.411a4.868,4.868,0,0,0,2.059-.594Z" transform="translate(-202.545 -229.87)"/>
          </g>
          <g id="Group_58509" data-name="Group 58509" transform="translate(69.018 21.396)">
            <path id="Path_55119" data-name="Path 55119" fill="#002b51" d="M331.882,232.723l-1.089-.15v-.843h3.841v.843l-.993.15-5.6,15.494H325.61l-5.7-15.494-1.041-.15v-.843h5.5v.843l-1.189.15,4.462,12.22Z" transform="translate(-318.87 -230.988)"/>
            <path id="Path_55120" data-name="Path 55120" fill="#002b51" d="M385.831,259.259V260h-3.74l-.3-1.338c-1.636,1.041-2.056,1.561-3.394,1.561a3.072,3.072,0,0,1-3.22-3.172c0-2.728,1.537-3.445,6.615-4.636v-.5c0-2.059-.645-2.7-2.179-2.7a2.614,2.614,0,0,0-2.131.717l-.369,1.413h-.891v-2.728a11.424,11.424,0,0,1,3.691-.594c3.766,0,4.88,1.164,4.88,5.033v6.05Zm-4.037-6.023c-2.872.594-3.691,1.684-3.691,3.3a1.663,1.663,0,0,0,1.834,1.884,4.624,4.624,0,0,0,1.858-.546Z" transform="translate(-360.107 -242.925)"/>
            <path id="Path_55121" data-name="Path 55121" fill="#002b51" d="M419.53,254.36a6.253,6.253,0,0,1,6.4-6.32,9.073,9.073,0,0,1,3.445.594v2.8h-.819l-.423-1.314a2.148,2.148,0,0,0-1.984-.891c-1.834,0-3.3,1.759-3.3,4.561,0,3.148,1.413,4.984,3.742,4.984a7.572,7.572,0,0,0,3.073-.72v1.017a8.641,8.641,0,0,1-4.462,1.263c-3.44,0-5.67-2.431-5.67-5.975" transform="translate(-392.585 -242.933)"/>
            <path id="Path_55122" data-name="Path 55122" fill="#002b51" d="M473.379,259.259V260h-3.742l-.3-1.338c-1.636,1.041-2.059,1.561-3.4,1.561a3.072,3.072,0,0,1-3.223-3.172c0-2.728,1.536-3.445,6.617-4.636v-.5c0-2.059-.645-2.7-2.182-2.7a2.607,2.607,0,0,0-2.131.717l-.372,1.413h-.891v-2.728a11.442,11.442,0,0,1,3.694-.594c3.769,0,4.883,1.164,4.883,5.033v6.05Zm-4.039-6.023c-2.875.594-3.694,1.684-3.694,3.3a1.664,1.664,0,0,0,1.834,1.884,4.624,4.624,0,0,0,1.858-.546v-4.636Z" transform="translate(-424.213 -242.925)"/>
            <path id="Path_55123" data-name="Path 55123" fill="#002b51" d="M509.633,240.242h2.728v1.089h-2.728v6.917c0,1.785.372,2.356,1.984,2.356a6.694,6.694,0,0,0,1.612-.123v.792a11.322,11.322,0,0,1-3.742.744c-2.329,0-2.875-1.065-2.875-3.1v-7.586H504.48v-1.089h2.206v-2.431l2.95-.891v3.322Z" transform="translate(-454.795 -234.789)"/>
            <path id="Path_55124" data-name="Path 55124" fill="#002b51" d="M546.5,245.147l1.041.147v.744H542.46v-.744l1.041-.147V235.3l-1.041-.147v-.744H546.5Zm.372-14.4a1.79,1.79,0,0,1-1.761,1.909,1.711,1.711,0,0,1-1.759-1.834,1.761,1.761,0,1,1,3.52-.075" transform="translate(-482.608 -228.96)"/>
            <path id="Path_55125" data-name="Path 55125" fill="#002b51" d="M579.655,254.368c0,3.619-2.431,6.05-6.245,6.05-3.694,0-6.05-1.587-6.05-6.05a5.869,5.869,0,0,1,6.248-6.248c3.766,0,6.047,2.257,6.047,6.248m-3.322-.075c0-3.67-1.092-5.279-2.851-5.279-1.711,0-2.8,1.537-2.8,5.279,0,3.694,1.089,5.231,2.8,5.231,1.836,0,2.851-1.462,2.851-5.231" transform="translate(-500.843 -242.991)"/>
            <path id="Path_55126" data-name="Path 55126" fill="#002b51" d="M631.492,259.6v.744h-5.081V259.6l1.015-.147v-6.62c0-1.834-.669-2.653-2.059-2.653a5.079,5.079,0,0,0-2.4.966v8.3l1.041.147v.744h-5.1v-.744l1.041-.147v-9.768l-1.041-.15v-.816h4.066v1.611a6.5,6.5,0,0,1,4.189-1.834c2.281,0,3.3,1.338,3.3,3.967v6.992Z" transform="translate(-538.586 -243.262)"/>
            <path id="Path_55127" data-name="Path 55127" fill="#002b51" d="M680.3,250.535h-.819l-.447-1.263a2.554,2.554,0,0,0-1.81-.57,1.655,1.655,0,0,0-1.834,1.686c0,1.041.768,1.387,2.578,2.3,2.3,1.14,3.025,2.032,3.025,3.643,0,2.131-1.662,3.619-4.933,3.619a10.461,10.461,0,0,1-3.544-.594v-2.728h.867l.471,1.561a2.48,2.48,0,0,0,1.984.792c1.635,0,2.356-.792,2.356-1.759,0-1.413-1.065-1.81-2.95-2.728-1.959-.966-2.677-1.81-2.677-3.37,0-2.083,1.561-3.469,4.387-3.469a9.131,9.131,0,0,1,3.346.594Z" transform="translate(-577.853 -242.654)"/>
          </g>
        </g>
        <g id="Group_58511" data-name="Group 58511" transform="translate(72.265 0)">
          <path id="Path_55128" data-name="Path 55128" fill="#002b51" d="M349.727,73.3c0-1.793-1.226-3.231-3.459-3.924V65.29H350.4v10h-1.293a3.446,3.446,0,0,0,.616-1.992M344.02,61.05c-7.5,0-13.02,4.765-13.02,9.856a8.412,8.412,0,0,0,3.349,6.382l.142-.1a7.388,7.388,0,0,1-2.816-5.769c.391-5.571,7.262-8.711,13.368-8.711,4.323,0,12.086,1,12.086,8.223,0,3.769-4.029,8.673-12.485,8.673-4.331,0-7.7-2.318-7.7-5.651,0-2.886,2.259-4.941,5.629-4.941a9.458,9.458,0,0,1,2.463.4,6.811,6.811,0,0,0-4.717,1v4.88h4.141V69.742a5.155,5.155,0,0,1,1.8.693v4.853h1.079a4.472,4.472,0,0,1-3.8,1.317v.2c3.935.311,5.6-1.555,5.6-3.657,0-2.471-2.318-3.919-4.687-4.216V65.29h-4.141v3.691c-2.68.541-5.3,2.131-5.3,4.77,0,4.061,5.675,6.574,10.611,6.574,7.5,0,13.277-3.627,13.277-8.716,0-6.165-8.336-10.56-14.889-10.56" transform="translate(-331 -61.05)"/>
          <path id="Path_55129" data-name="Path 55129" fill="#002b51" d="M428.35,126.724a.926.926,0,1,1,.929.929.923.923,0,0,1-.929-.929m1.689,0a.763.763,0,1,0-.76.766.76.76,0,0,0,.76-.766m-.958.062v.471h-.169v-1.089h.351c.2,0,.407.054.407.3a.253.253,0,0,1-.222.254v.005c.15.029.169.1.185.214a1.576,1.576,0,0,0,.064.316h-.217c-.011-.062-.029-.131-.037-.2a.4.4,0,0,0-.062-.233c-.04-.046-.1-.04-.155-.046h-.145Zm.179-.171c.161-.005.2-.072.2-.155s-.037-.123-.174-.123h-.2v.278Z" transform="translate(-402.291 -108.467)"/>
        </g>
      </g>
    </g>
  </g>
</svg>
