<svg xmlns="http://www.w3.org/2000/svg" viewBox="0 0 220 140" width="220px" height="140px">
  <defs>
    <style>
      .cls-1 {
        fill: none;
      }

      .cls-2 {
        fill: #124d97;
      }
    </style>
  </defs>
  <g id="hilton_hotels_and_resorts_logo" transform="translate(-10110 -1699)">
    <rect id="Rectangle_27005" data-name="Rectangle 27005" fill="none" transform="translate(10110 1699)"/>
    <g id="Group_58482" data-name="Group 58482" transform="translate(10162 1726.66)">
      <g id="Group_43855" data-name="Group 43855" transform="translate(7.461 80.135)">
        <path id="Path_42418" data-name="Path 42418" fill="#124d97" d="M20.805,181.631v-3.178H17.49v3.178H16.2V174.4h1.29v2.9h3.316v-2.9h1.29v7.231Z" transform="translate(-16.2 -174.216)"/>
        <path id="Path_42419" data-name="Path 42419" fill="#124d97" d="M35.5,181.553a3.787,3.787,0,0,1,0-7.553,3.455,3.455,0,0,1,3.454,3.776A3.507,3.507,0,0,1,35.5,181.553Zm0-6.4c-1.382,0-2.165,1.151-2.165,2.671,0,1.474.829,2.671,2.165,2.671s2.165-1.151,2.165-2.671C37.665,176.349,36.836,175.151,35.5,175.151Z" transform="translate(-24.723 -174)"/>
        <path id="Path_42420" data-name="Path 42420" fill="#124d97" d="M52.046,175.551v6.079h-1.29v-6.079H48.5V174.4h5.757l.184,1.151Z" transform="translate(-33.624 -174.216)"/>
        <path id="Path_42421" data-name="Path 42421" fill="#124d97" d="M64.4,181.631V174.4h4.513v1.105H65.69v1.8h2.579l.184,1.151H65.69v2.072h3.316v1.105Z" transform="translate(-42.202 -174.216)"/>
        <path id="Path_42422" data-name="Path 42422" fill="#124d97" d="M78.2,181.631V174.4h1.29v6.125h2.763l.184,1.105Z" transform="translate(-49.646 -174.216)"/>
        <path id="Path_42423" data-name="Path 42423" fill="#124d97" d="M91.787,181.615a6.34,6.34,0,0,1-2.487-.553l.184-1.151a5.449,5.449,0,0,0,2.349.645c.829,0,1.428-.368,1.428-.967s-.368-.829-1.428-1.2c-1.52-.553-2.3-1.013-2.3-2.118a2.171,2.171,0,0,1,2.441-2.072,5.584,5.584,0,0,1,2.118.415l-.184,1.2a4.406,4.406,0,0,0-1.934-.553c-.691,0-1.2.368-1.2.875,0,.553.414.737,1.52,1.151,1.52.507,2.165,1.059,2.165,2.165C94.412,180.786,93.353,181.615,91.787,181.615Z" transform="translate(-55.634 -174.108)"/>
        <path id="Path_42424" data-name="Path 42424" fill="#124d97" d="M116.011,181.561l-.967-.967a2.994,2.994,0,0,1-2.3,1.013c-1.566,0-2.441-.737-2.441-1.98a2.4,2.4,0,0,1,1.612-2.165,2.135,2.135,0,0,1-.691-1.566,1.851,1.851,0,0,1,2.072-1.8,3.945,3.945,0,0,1,1.888.461L115,175.712a2.971,2.971,0,0,0-1.658-.553c-.6,0-.875.322-.875.783,0,.414.184.691.645,1.151L115,179.028a4.634,4.634,0,0,0,.414-1.7l1.059.23a6.85,6.85,0,0,1-.737,2.257l1.566,1.566Zm-3.454-3.408a1.554,1.554,0,0,0-1.013,1.382,1.153,1.153,0,0,0,1.29,1.151,2.038,2.038,0,0,0,1.52-.691Z" transform="translate(-66.963 -174.054)"/>
        <path id="Path_42425" data-name="Path 42425" fill="#124d97" d="M139.791,181.723l-2.118-2.9h-.783v2.809H135.6V174.4h2.257c1.658,0,2.717.783,2.717,2.211a2.089,2.089,0,0,1-1.52,2.072l2.026,2.717Zm-1.98-6.217h-.921v2.349h.921c.921,0,1.474-.414,1.474-1.2C139.284,175.92,138.778,175.505,137.811,175.505Z" transform="translate(-80.611 -174.216)"/>
        <path id="Path_42426" data-name="Path 42426" fill="#124d97" d="M150.7,181.631V174.4h4.513v1.105h-3.224v1.8h2.579l.184,1.151h-2.763v2.072h3.316v1.105Z" transform="translate(-88.757 -174.216)"/>
        <path id="Path_42427" data-name="Path 42427" fill="#124d97" d="M166.287,181.615a6.339,6.339,0,0,1-2.487-.553l.184-1.151a5.449,5.449,0,0,0,2.349.645c.829,0,1.428-.368,1.428-.967s-.368-.829-1.428-1.2c-1.52-.553-2.3-1.013-2.3-2.118a2.171,2.171,0,0,1,2.441-2.072,5.584,5.584,0,0,1,2.119.415l-.184,1.2a4.406,4.406,0,0,0-1.934-.553c-.737,0-1.2.368-1.2.875,0,.553.414.737,1.52,1.151,1.52.507,2.165,1.059,2.165,2.165C168.958,180.786,167.9,181.615,166.287,181.615Z" transform="translate(-95.824 -174.108)"/>
        <path id="Path_42428" data-name="Path 42428" fill="#124d97" d="M180.9,181.553a3.787,3.787,0,0,1,0-7.553,3.792,3.792,0,0,1,0,7.553Zm-.046-6.4c-1.382,0-2.165,1.151-2.165,2.671,0,1.474.829,2.671,2.165,2.671s2.164-1.151,2.164-2.671C183.019,176.349,182.144,175.151,180.854,175.151Z" transform="translate(-103.16 -174)"/>
        <path id="Path_42429" data-name="Path 42429" fill="#124d97" d="M199.991,181.723l-2.118-2.9h-.783v2.809H195.8V174.4h2.257c1.658,0,2.717.783,2.717,2.211a2.089,2.089,0,0,1-1.52,2.072l2.026,2.717Zm-1.934-6.217h-.921v2.349h.921c.921,0,1.474-.414,1.474-1.2C199.484,175.92,198.978,175.505,198.057,175.505Z" transform="translate(-113.086 -174.216)"/>
        <path id="Path_42430" data-name="Path 42430" fill="#124d97" d="M212.592,175.551v6.079H211.3v-6.079H209V174.4h5.757l.184,1.151Z" transform="translate(-120.207 -174.216)"/>
        <path id="Path_42431" data-name="Path 42431" fill="#124d97" d="M225.887,181.615a6.339,6.339,0,0,1-2.487-.553l.184-1.151a5.45,5.45,0,0,0,2.349.645c.829,0,1.428-.368,1.428-.967s-.368-.829-1.428-1.2c-1.52-.553-2.3-1.013-2.3-2.118a2.171,2.171,0,0,1,2.441-2.072,5.584,5.584,0,0,1,2.118.415l-.184,1.2a4.405,4.405,0,0,0-1.934-.553c-.737,0-1.2.368-1.2.875,0,.553.414.737,1.52,1.151,1.52.507,2.165,1.059,2.165,2.165C228.558,180.786,227.5,181.615,225.887,181.615Z" transform="translate(-127.975 -174.108)"/>
      </g>
      <g id="Group_43856" data-name="Group 43856" transform="translate(33.804)">
        <path id="Path_42432" data-name="Path 42432" fill="#124d97" d="M105.638,21.047c0-3.086-2.118-5.573-5.941-6.77v-7h7.138V24.455h-2.211a5.985,5.985,0,0,0,1.013-3.408M95.782,0C82.887,0,73.4,8.2,73.4,16.948c0,4.513,2.533,8.336,5.757,10.961l.23-.184a12.735,12.735,0,0,1-4.836-9.9C75.242,8.244,87.032,2.855,97.579,2.855c7.415,0,20.771,1.7,20.771,14.139,0,6.494-6.908,14.922-21.461,14.922-7.461,0-13.218-4.007-13.218-9.717,0-4.974,3.869-8.52,9.671-8.52a15.656,15.656,0,0,1,4.237.691c-2.395-.414-6.171.184-8.106,1.7v8.382h7.138V14.968a8.126,8.126,0,0,1,3.086,1.2v8.382h1.842A7.659,7.659,0,0,1,95,26.8v.368c6.77.553,9.625-2.671,9.625-6.309,0-4.237-4.007-6.724-8.06-7.277V7.277H89.427v6.356c-4.605.921-9.119,3.684-9.119,8.2,0,7,9.764,11.329,18.238,11.329,12.9,0,22.843-6.217,22.843-15.014C121.435,7.553,107.066,0,95.782,0" transform="translate(-73.4)"/>
        <path id="Path_42433" data-name="Path 42433" fill="#124d97" d="M170.7,66.312a1.612,1.612,0,1,1,1.612,1.612,1.632,1.632,0,0,1-1.612-1.612m2.947,0a1.287,1.287,0,0,0-1.29-1.29,1.313,1.313,0,1,0,1.29,1.29m-1.658.092v.829h-.276V65.345h.6c.322,0,.691.092.691.507a.4.4,0,0,1-.368.414h0c.276.046.276.184.322.368s.046.368.092.553h-.368c0-.092-.046-.23-.046-.322a.619.619,0,0,0-.092-.414c-.046-.092-.184-.046-.276-.092l-.276.046Zm.276-.276c.276,0,.322-.138.322-.276s-.046-.23-.322-.23H171.9v.461l.368.046Z" transform="translate(-125.889 -34.903)"/>
      </g>
      <g id="Group_43857" data-name="Group 43857" transform="translate(0 40.482)">
        <path id="Path_42434" data-name="Path 42434" fill="#124d97" d="M25.146,92.4v24.731l1.934.276v1.428H17.593v-1.428l2.026-.276V105.9H7.461v11.237l1.888.276v1.428H0v-1.428l1.888-.276V92.4L0,92.128V90.7H9.349v1.428L7.461,92.4V103H19.619V92.4l-2.026-.276V90.7h9.533v1.428Z" transform="translate(0 -89.41)"/>
        <path id="Path_42435" data-name="Path 42435" fill="#124d97" d="M73.854,115.809l1.8.276v1.29H66.9v-1.336l1.8-.276V98.815l-1.8-.276v-1.29h6.954ZM74.5,91.032a3.067,3.067,0,0,1-3.04,3.27,2.963,2.963,0,0,1-3.04-3.178,3.053,3.053,0,0,1,3.04-3.224A3.086,3.086,0,0,1,74.5,91.032Z" transform="translate(-36.09 -87.9)"/>
        <path id="Path_42436" data-name="Path 42436" fill="#124d97" d="M94.2,116.525l1.75-.276V90.366L94.2,90.09V88.8h6.954v27.448l1.8.276v1.29H94.2Z" transform="translate(-50.817 -88.385)"/>
        <path id="Path_42437" data-name="Path 42437" fill="#124d97" d="M125.788,101.711h4.7V103.6h-4.7v11.882c0,3.086.645,4.053,3.408,4.053a10.5,10.5,0,0,0,2.763-.23v1.382a20.124,20.124,0,0,1-6.448,1.29c-4.007,0-4.928-1.842-4.928-5.342V103.6H116.9v-1.888h3.776V97.52L125.742,96v5.711Z" transform="translate(-63.062 -92.27)"/>
        <path id="Path_42438" data-name="Path 42438" fill="#124d97" d="M172.439,117.931c0,6.217-4.191,10.408-10.731,10.408-6.355,0-10.408-2.717-10.408-10.408,0-6.448,4.191-10.731,10.731-10.731C168.524,107.2,172.439,111.069,172.439,117.931Zm-5.711-.138c0-6.309-1.888-9.073-4.882-9.073-2.947,0-4.836,2.625-4.836,9.073,0,6.355,1.888,8.981,4.836,8.981C164.978,126.819,166.728,124.286,166.728,117.792Z" transform="translate(-81.62 -98.311)"/>
        <path id="Path_42439" data-name="Path 42439" fill="#124d97" d="M224.492,126.559v1.29h-8.75v-1.29l1.75-.276V114.907c0-3.178-1.151-4.559-3.546-4.559a9.008,9.008,0,0,0-4.145,1.658v14.277l1.8.276v1.29h-8.8v-1.29l1.8-.276V109.519l-1.8-.276v-1.428h7v2.763c2.165-1.75,4.283-3.178,7.184-3.178,3.915,0,5.665,2.3,5.665,6.816v12.02Z" transform="translate(-109.402 -98.419)"/>
      </g>
    </g>
  </g>
</svg>
