<svg width="160" height="50" xmlns="http://www.w3.org/2000/svg" xmlns:xlink="http://www.w3.org/1999/xlink">
    <g fill="#231F20" fill-rule="evenodd">
        <path d="M23 45.277h113.826V3H23v42.277zm1.94-1.938h109.948V4.94H24.939v38.4z"/>
        <path d="M53.469 14.052v20.139l1.577.209v1.18h-7.817V34.4l1.683-.209v-9.167h-9.989v9.167l1.542.209v1.18h-7.676V34.4l1.542-.209V14.052l-1.542-.208v-1.146h7.676v1.146l-1.542.208v8.611h9.989v-8.611l-1.683-.208v-1.146h7.817v1.146zM64.125 34.33l1.472.208v1.041h-7.186v-1.041l1.474-.208V20.544l-1.474-.206v-1.043h5.714zM68.717 34.569l1.438-.202V13.91l-1.438-.202v-1.01h5.714v21.669l1.472.202v1.011h-7.186zM84.631 19.295h3.855v1.528H84.63v9.687c0 2.5.524 3.3 2.802 3.3.843 0 1.58 0 2.28-.175v1.111c-2.068.73-3.821 1.042-5.293 1.042-3.294 0-4.066-1.492-4.066-4.341V20.823H77.34v-1.528h3.12v-3.402l4.171-1.251v4.653zM107.8 27.594c0 5.07-3.433 8.472-8.832 8.472-5.224 0-8.554-2.223-8.554-8.472 0-5.244 3.436-8.75 8.834-8.75 5.329 0 8.553 3.16 8.553 8.75m-4.697-.104c0-5.14-1.542-7.397-4.032-7.397-2.417 0-3.961 2.154-3.961 7.397 0 5.174 1.544 7.326 3.96 7.326 2.597 0 4.033-2.048 4.033-7.326M127.29 34.538v1.042h-7.186v-1.042l1.438-.208V25.06c0-2.57-.946-3.716-2.91-3.716-.912 0-2.349.625-3.4 1.354V34.33l1.472.208v1.042h-7.22v-1.042l1.47-.208V20.65l-1.47-.208v-1.145h5.748v2.257c1.787-1.424 3.505-2.571 5.923-2.571 3.225 0 4.662 1.876 4.662 5.556v9.792l1.472.208zM64.333 14.99a2.303 2.303 0 01-2.313 2.292 2.302 2.302 0 01-2.314-2.292 2.302 2.302 0 012.314-2.292 2.303 2.303 0 012.313 2.292M135.038 48.177h.344c.23 0 .308-.066.308-.23 0-.163-.078-.225-.308-.225h-.344v.455zm.935-.246c0 .221-.09.361-.291.418l.348.517h-.315l-.316-.475c-.025 0-.05.004-.086.004h-.275v.471h-.28v-1.395h.616c.423 0 .599.144.599.46zm-1.78.25c0 .636.521 1.157 1.157 1.157.632 0 1.156-.52 1.156-1.157 0-.636-.524-1.156-1.156-1.156a1.16 1.16 0 00-1.157 1.156zm2.633.005a1.476 1.476 0 11-2.953 0 1.476 1.476 0 112.953 0z"/>
    </g>
</svg>
