<svg width="220px" height="140px" viewBox="0 0 220 140" version="1.1" xmlns="http://www.w3.org/2000/svg" xmlns:xlink="http://www.w3.org/1999/xlink">
    <defs>
        <polygon id="path-1" points="0.000100328168 0.4325 131.078682 0.4325 131.078682 61.1926939 0.000100328168 61.1926939"></polygon>
    </defs>
    <g id="Page-1" stroke="none" stroke-width="1" fill="none" fill-rule="evenodd">
        <g id="Brand-Showcase-Component---add-new-signia-logo" transform="translate(-1038.000000, -82.000000)">
            <g id="signia-by-hilton" transform="translate(1077.000000, 119.000000)">
                <polyline id="Fill-1" fill="#22365B" points="90.492 42.262 91.972 42.447 91.972 50.095 83.183 50.095 83.183 42.447 84.54 42.262 84.54 41.243 77.785 41.243 77.785 42.262 79.1425 42.447 79.1425 60.3345 77.785 60.5195 77.785 61.5685 84.54 61.5685 84.54 60.5195 83.183 60.3345 83.183 52.192 91.972 52.192 91.972 60.3345 90.492 60.5195 90.492 61.5685 97.3705 61.5685 97.3705 60.5195 95.9815 60.3345 95.9815 42.447 97.3705 42.262 97.3705 41.243 90.492 41.243 90.492 42.262"></polyline>
                <polyline id="Fill-2" fill="#22365B" points="105.3585 47.104 100.3315 47.104 100.3315 48.0285 101.628 48.214 101.628 60.459 100.3315 60.6435 100.3315 61.5685 106.654 61.5685 106.654 60.6435 105.3585 60.459 105.3585 47.104"></polyline>
                <path d="M103.6315,44.914 C104.8955,44.914 105.821,43.8955 105.821,42.5395 C105.821,41.3365 104.8955,40.3185 103.6315,40.3185 C102.337,40.3185 101.4415,41.3365 101.4415,42.631 C101.4415,43.988 102.337,44.914 103.6315,44.914" id="Fill-3" fill="#22365B"></path>
                <polyline id="Fill-4" fill="#22365B" points="114.4265 40.6265 109.3985 40.6265 109.3985 41.5515 110.6645 41.7365 110.6645 60.459 109.3985 60.643 109.3985 61.5685 115.722 61.5685 115.722 60.643 114.4265 60.459 114.4265 40.6265"></polyline>
                <path d="M123.402,57.065 L123.402,48.461 L126.794,48.461 L126.794,47.1045 L123.402,47.1045 L123.402,42.97 L119.7315,44.081 L119.7315,47.1045 L116.986,47.1045 L116.986,48.461 L119.6385,48.461 L119.6385,57.898 C119.6385,60.4275 120.318,61.754 123.217,61.754 C124.512,61.754 126.0545,61.476 127.874,60.8275 L127.874,59.841 C127.2585,59.996 126.6095,59.996 125.8685,59.996 C123.8635,59.996 123.402,59.2855 123.402,57.065" id="Fill-5" fill="#22365B"></path>
                <path d="M136.264,46.7025 C131.514,46.7025 128.4905,49.8175 128.4905,54.475 C128.4905,60.0255 131.421,62 136.0185,62 C140.769,62 143.7895,58.978 143.7895,54.475 C143.7895,49.5095 140.9525,46.7025 136.264,46.7025 M136.109,60.8895 C133.9815,60.8895 132.6235,58.978 132.6235,54.3825 C132.6235,49.7255 133.9815,47.8125 136.109,47.8125 C138.3005,47.8125 139.6575,49.8175 139.6575,54.3825 C139.6575,59.0705 138.3935,60.8895 136.109,60.8895" id="Fill-6" fill="#22365B"></path>
                <path d="M160.3215,51.7605 C160.3215,48.492 159.0575,46.8245 156.2195,46.8245 C154.0915,46.8245 152.5795,47.844 151.0075,49.109 L151.0075,47.104 L145.95,47.104 L145.95,48.121 L147.244,48.306 L147.244,60.4585 L145.95,60.643 L145.95,61.568 L152.3025,61.568 L152.3025,60.643 L151.0075,60.4585 L151.0075,50.1255 C151.9325,49.4775 153.1965,48.9235 153.9985,48.9235 C155.727,48.9235 156.559,49.9415 156.559,52.223 L156.559,60.4585 L155.2935,60.643 L155.2935,61.568 L161.6165,61.568 L161.6165,60.643 L160.3215,60.4585 L160.3215,51.7605" id="Fill-7" fill="#22365B"></path>
                <path d="M98.176,18.535 C99.0965,18.845 100.197,17.7515 100.619,16.4995 C100.833,15.863 101.047,14.9205 100.875,14.4035 C100.7085,13.9045 100.1695,13.823 99.717,13.6705 C98.7965,13.3605 97.708,14.1235 97.2865,15.3765 C97.048,16.083 97.0725,16.7945 97.306,17.3355 C97.485,17.753 97.7745,18.3995 98.176,18.535" id="Fill-8" fill="#22365B"></path>
                <g id="Group-12">
                    <mask id="mask-2" fill="white">
                        <use xlink:href="#path-1"></use>
                    </mask>
                    <g id="Clip-10"></g>
                    <path d="M42.2815,19.9895 C43.2955,20.3765 44.5255,19.626 45.0295,18.31 C45.313,17.568 45.3055,16.8035 45.062,16.2095 C44.874,15.7515 44.5695,15.042 44.128,14.873 C43.114,14.485 41.86,15.5895 41.3565,16.9045 C41.1,17.5725 40.8385,18.57 41.0145,19.133 C41.1855,19.678 41.7825,19.798 42.2815,19.9895" id="Fill-9" fill="#22365B" mask="url(#mask-2)"></path>
                    <path d="M130.58,31.106 C127.1035,29.636 123.2355,34.079 121.354,34.0315 C118.0615,33.9495 120.7385,26.5585 118.3465,26.135 C115.8315,25.6905 111.551,34.8275 108.461,33.978 C107.0295,33.584 109.677,25.2685 115.146,25.2685 C116.2395,25.2685 117.885,24.1505 117.9345,23.097 C117.9845,22.0435 116.914,21.623 116.1835,21.6325 C109.333,21.6325 105.797,30.0685 105.797,30.0685 C105.797,30.0685 101.947,35.8425 99.251,35.8095 C95.622,35.7655 96.9855,28.1515 97.74,26.3075 C98.304,24.927 100.3115,22.6515 97.3915,22.6515 C95.9585,22.6515 95.353,23.551 95.0745,24.065 C94.617,24.904 88.499,36.455 85.56,36.263 C82.265,36.0495 84.9385,27.1965 85.0815,25.6365 C85.223,24.077 85.5795,22.135 83.338,21.281 C82.1875,20.8425 80.4485,21.687 79.132,22.714 C77.815,23.7405 73.4655,28.5795 73.4655,28.5795 C73.4655,28.5795 76.3815,22.168 74.1305,21.7685 C72.7795,21.5285 71.6275,22.9235 71.1435,23.4495 C70.8035,23.8195 61.979,33.1265 61.979,33.1265 C62.0355,32.795 64.8805,26.3075 62.145,26.825 C61.125,27.0175 59.136,29.732 59.136,29.732 C59.136,29.732 63.509,22.302 60.324,20.5155 C59.2165,19.895 57.464,20.3885 56.634,20.9055 C54.125,22.468 51.699,25.947 50.4345,28.138 C49.9305,29.0105 45.511,36.6655 42.4595,36.265 C38.1365,35.698 41.79,26.3595 42.666,24.6765 C43.513,23.0505 42.3295,22.6315 40.984,22.5845 C40.034,22.5525 39.388,23.044 39.181,23.208 C33.5185,27.697 30.5915,29.409 30.5915,29.409 C30.5915,29.409 32.282,27.7065 32.608,26.4525 C33.5965,22.6515 29.322,21.8645 19.912,19.479 C19.276,19.3175 5.8795,16.4585 6.256,14.757 C6.758,12.4895 13.3855,9.764 19.1605,7.774 C24.9355,5.784 31.962,4.842 35.161,4.842 C36.2975,4.842 38.7995,4.341 39.365,2.96 C40.331,0.5965 36.299,0.146 32.997,0.579 C30.758,0.8715 23.7685,1.831 17.157,4.2785 C7.077,8.0085 2.641,12.062 2.08,14.438 C1.078,18.687 5.411,20.1475 11.73,21.8715 C21.8895,24.6425 27.28,25.7825 27.7345,27.001 C28.01,27.738 25.718,29.1045 25.711,29.1105 C21.673,32.0015 8.221,36.604 4.5275,36.314 C-3.817,35.661 0.835,41.9505 6.7735,40.9415 C14.3235,39.661 27.859,33.476 38.5355,26.765 C38.4675,26.982 38.0915,27.7115 37.925,29.239 C37.755,30.788 37.008,37.765 42.182,37.8035 C46.3535,37.8355 49.872,32.452 50.2485,31.9635 C50.125,34.056 51.792,35.3475 53.4195,35.6175 C56.1295,36.068 59.185,33.2195 60.267,32.098 C60.1245,32.9625 59.8635,34.749 59.819,35.0555 C59.432,35.448 55.329,39.6385 51.531,44.4655 C46.1775,51.2685 40.7565,60.7615 48.6785,61.181 C53.4855,61.437 56.6405,57.4415 57.86,53.936 C59.9435,47.943 62.0195,35.586 62.04,35.2265 L71.129,25.823 L68.7435,35.4175 C68.7335,35.4515 68.513,36.2595 69.068,36.5925 C69.707,36.9765 70.3145,36.422 70.8265,35.8275 C71.4425,35.113 79.0755,24.521 81.249,24.673 C82.728,24.7755 80.47,29.7915 81.2915,33.2935 C81.4695,34.0505 82.026,37.4485 85.1835,37.7015 C88.72,37.984 93.4095,30.9055 93.4095,30.9055 C93.6565,32.1895 94.5775,36.5705 99.016,36.5315 C100.2995,36.5205 102.314,36.327 105.3205,33.2245 C105.4905,34.3315 105.824,37.0245 108.663,37.2085 C112.5955,37.4625 116.307,30.888 116.307,30.888 C116.307,30.888 115.4805,35.2075 121.5015,35.49 C124.506,35.631 133.2445,32.232 130.58,31.106 M57.773,27.755 C57.4595,28.4405 55.4475,32.3665 53.7935,31.987 C52.639,31.722 52.7545,28.4545 54.72,25.7995 C54.72,25.7995 57.174,22.3045 58.626,23.025 C59.7505,23.583 58.364,26.4575 57.773,27.755 M49.179,57.829 C46.9295,57.74 48.498,51.1455 52.71,45.523 C55.5575,41.723 58.6215,38.284 59.3835,37.44 C58.989,39.868 55.843,58.092 49.179,57.829" id="Fill-11" fill="#22365B" mask="url(#mask-2)"></path>
                </g>
                <path d="M67.6665,48.166 C67.1235,48.166 66.611,48.362 66.0245,48.851 L66.0245,45.9805 L64.252,45.9805 L64.252,46.306 L64.697,46.372 L64.697,52.9725 L64.252,53.0375 L64.252,53.364 L66.0245,53.364 L66.0245,53.092 C66.308,53.277 66.6985,53.462 67.3075,53.462 C68.852,53.462 69.733,52.4615 69.733,50.7215 C69.733,49.199 68.863,48.166 67.6665,48.166 M67.1555,53.0045 C66.6445,53.0045 66.308,52.777 66.0245,52.57 L66.0245,49.286 C66.3505,49.1335 66.666,49.036 66.9265,49.036 C67.797,49.036 68.3185,49.786 68.3185,50.9715 C68.3185,52.233 67.884,53.0045 67.1555,53.0045 M73.7795,48.2635 L75.2585,48.2635 L75.2585,48.6225 L74.8455,48.6985 L72.79,53.679 C72.3225,54.821 71.8975,55.7675 70.9305,55.7675 C70.538,55.7675 70.3865,55.7345 70.071,55.669 L70.071,54.5495 L70.364,54.5495 L70.5605,54.995 C70.659,55.0825 70.8105,55.126 70.9845,55.126 C71.5935,55.126 71.996,54.212 72.2455,53.614 L72.3005,53.483 L70.224,48.7095 L69.821,48.6225 L69.821,48.2635 L72.094,48.2635 L72.094,48.634 L71.648,48.7205 L72.9855,51.853 L74.2365,48.6985 L73.7795,48.6225 L73.7795,48.2635" id="Fill-13" fill="#22365B"></path>
            </g>
        </g>
    </g>
</svg>