<?xml version="1.0" encoding="UTF-8"?>
<svg width="116px" height="50px" viewBox="0 0 116 50" version="1.1" xmlns="http://www.w3.org/2000/svg" xmlns:xlink="http://www.w3.org/1999/xlink">
    <g id="Hilton-116x50-Copy" stroke="none" stroke-width="1" fill="none" fill-rule="evenodd">
        <g id="hilton" transform="translate(1.000000, 3.000000)" fill="#231F20">
            <g id="Group-16">
                <path d="M0,42.2769352 L113.826389,42.2769352 L113.826389,0 L0,0 L0,42.2769352 Z M1.93930534,40.3390556 L111.887519,40.3390556 L111.887519,1.93918519 L1.93930534,1.93918519 L1.93930534,40.3390556 Z" id="Fill-1"></path>
                <polygon id="Fill-2" points="30.4685015 11.0523111 30.4685015 31.1913759 32.0462267 31.3998296 32.0462267 32.5796167 24.2293947 32.5796167 24.2293947 31.3998296 25.9119824 31.1913759 25.9119824 22.0237648 15.9226237 22.0237648 15.9226237 31.1913759 17.4651046 31.3998296 17.4651046 32.5796167 9.78924962 32.5796167 9.78924962 31.3998296 11.3312954 31.1913759 11.3312954 11.0523111 9.78924962 10.8438574 9.78924962 9.69801481 17.4651046 9.69801481 17.4651046 10.8438574 15.9226237 11.0523111 15.9226237 19.6633204 25.9119824 19.6633204 25.9119824 11.0523111 24.2293947 10.8438574 24.2293947 9.69801481 32.0462267 9.69801481 32.0462267 10.8438574"></polygon>
                <polygon id="Fill-3" points="41.1249779 31.3304611 42.5965351 31.5384796 42.5965351 32.5794426 35.4114893 32.5794426 35.4114893 31.5384796 36.884787 31.3304611 36.884787 17.5442296 35.4114893 17.3375167 35.4114893 16.2952481 41.1249779 16.2952481"></polygon>
                <polygon id="Fill-4" points="45.7170458 31.5688991 47.1546641 31.3674083 47.1546641 10.9102231 45.7170458 10.707862 45.7170458 9.69823241 51.4309695 9.69823241 51.4309695 31.3674083 52.9029618 31.5688991 52.9029618 32.5802694 45.7170458 32.5802694"></polygon>
                <g id="Group-15" transform="translate(36.549618, 9.671556)">
                    <path d="M25.0816099,6.62377963 L28.9362893,6.62377963 L28.9362893,8.15127963 L25.0816099,8.15127963 L25.0816099,17.838937 C25.0816099,20.3390759 25.6054878,21.1380759 27.8837473,21.1380759 C28.726129,21.1380759 29.4636481,21.1380759 30.1637473,20.9635667 L30.1637473,22.0745944 C28.095213,22.8044 26.3421366,23.116863 24.8701443,23.116863 C21.5758924,23.116863 20.8044344,21.6241778 20.8044344,18.7754556 L20.8044344,8.15127963 L17.7903962,8.15127963 L17.7903962,6.62377963 L20.9106023,6.62377963 L20.9106023,3.22150185 L25.0816099,1.97034444 L25.0816099,6.62377963 Z" id="Fill-5"></path>
                    <path d="M48.2510656,14.9220648 C48.2510656,19.9919722 44.8175771,23.39425 39.4186763,23.39425 C34.1946916,23.39425 30.8643252,21.1713241 30.8643252,14.9220648 C30.8643252,9.67851852 34.2999893,6.1717963 39.698455,6.1717963 C45.0273023,6.1717963 48.2510656,9.3325463 48.2510656,14.9220648 M43.5548748,14.8184907 C43.5548748,9.67851852 42.012829,7.42164815 39.5222336,7.42164815 C37.1051725,7.42164815 35.5609511,9.57494444 35.5609511,14.8184907 C35.5609511,19.9919722 37.1051725,22.1443981 39.5222336,22.1443981 C42.1181267,22.1443981 43.5548748,20.0964167 43.5548748,14.8184907" id="Fill-7"></path>
                    <path d="M67.7398443,21.8663148 L67.7398443,22.9081481 L60.5539282,22.9081481 L60.5539282,21.8663148 L61.9924168,21.6587315 L61.9924168,12.3871111 C61.9924168,9.81777778 61.0464779,8.67193519 59.0815008,8.67193519 C58.170371,8.67193519 56.7336229,9.29642593 55.6823863,10.0257963 L55.6823863,21.6587315 L57.1539435,21.8663148 L57.1539435,22.9081481 L49.9349588,22.9081481 L49.9349588,21.8663148 L51.4052107,21.6587315 L51.4052107,7.97694444 L49.9349588,7.7697963 L49.9349588,6.6239537 L55.6823863,6.6239537 L55.6823863,8.88125926 C57.4689664,7.45733333 59.1876687,6.31018519 61.6056,6.31018519 C64.8302336,6.31018519 66.2674168,8.18626852 66.2674168,11.8661944 L66.2674168,21.6587315 L67.7398443,21.8663148 Z" id="Fill-9"></path>
                    <path d="M4.78317023,2.318275 C4.78317023,3.5842287 3.7471626,4.60996019 2.47010153,4.60996019 C1.19173511,4.60996019 0.156162595,3.5842287 0.156162595,2.318275 C0.156162595,1.0523213 1.19173511,0.0265898148 2.47010153,0.0265898148 C3.7471626,0.0265898148 4.78317023,1.0523213 4.78317023,2.318275" id="Fill-11"></path>
                    <path d="M75.4881893,35.5053667 L75.8328,35.5053667 C76.0625405,35.5053667 76.140426,35.4396537 76.140426,35.2760241 C76.140426,35.1119593 76.0625405,35.050163 75.8328,35.050163 L75.4881893,35.050163 L75.4881893,35.5053667 Z M76.4232504,35.259487 C76.4232504,35.4805611 76.3331817,35.6206907 76.1321588,35.6777 L76.4806855,36.1947 L76.1652275,36.1947 L75.8493344,35.7190426 C75.8245328,35.7190426 75.8001664,35.7229593 75.7631817,35.7229593 L75.4881893,35.7229593 L75.4881893,36.1947 L75.2092809,36.1947 L75.2092809,34.7999315 L75.8245328,34.7999315 C76.247029,34.7999315 76.4232504,34.9431074 76.4232504,35.259487 L76.4232504,35.259487 Z M74.6436321,35.5097185 C74.6436321,36.1455241 75.1644641,36.6668759 75.8001664,36.6668759 C76.4319527,36.6668759 76.9567008,36.1455241 76.9567008,35.5097185 C76.9567008,34.873913 76.4319527,34.3529963 75.8001664,34.3529963 C75.1644641,34.3529963 74.6436321,34.873913 74.6436321,35.5097185 L74.6436321,35.5097185 Z M77.2765099,35.5140704 C77.2765099,36.3304778 76.6164412,36.9906537 75.8001664,36.9906537 C74.9838916,36.9906537 74.3233878,36.3304778 74.3233878,35.5140704 C74.3233878,34.697663 74.9838916,34.0366167 75.8001664,34.0366167 C76.6164412,34.0366167 77.2765099,34.697663 77.2765099,35.5140704 L77.2765099,35.5140704 Z" id="Fill-13"></path>
                </g>
            </g>
        </g>
    </g>
</svg>