<svg xmlns="http://www.w3.org/2000/svg" viewBox="0 0 220 140" width="220px" height="140px">
  <g id="homewood_logo" transform="translate(-12099 -1699)">
    <rect id="Rectangle_27015" data-name="Rectangle 27015" fill="none" transform="translate(12099 1699)"/>
    <g id="Homewood-Suites" transform="translate(12130.996 1742.454)">
      <g id="Group_1563" data-name="Group 1563" transform="translate(75.79 45.662)">
        <path id="Path_1480" data-name="Path 1480" fill="#004750" d="M216.6,130.9h2.624c1.61,0,2.519.595,2.519,1.819a1.629,1.629,0,0,1-1.365,1.714v.035a1.739,1.739,0,0,1,1.61,1.784c0,1.225-.91,1.994-2.554,1.994H216.6Zm2.554,3.184c1.12,0,1.749-.385,1.749-1.225s-.525-1.19-1.714-1.19H217.44v2.449h1.714Zm.21,3.394c1.19,0,1.749-.455,1.749-1.295,0-.91-.735-1.33-1.924-1.33H217.44v2.624Z" transform="translate(-216.6 -130.76)"/>
        <path id="Path_1481" data-name="Path 1481" fill="#004750" d="M243.584,135.029,241.1,130.9h.945l1.994,3.394,1.994-3.394h.91l-2.484,4.129v3.219h-.875Z" transform="translate(-232.528 -130.76)"/>
        <path id="Path_1482" data-name="Path 1482" fill="#004750" d="M281.7,130.9h.875v3.079h3.779V130.9h.875v7.348h-.875v-3.464h-3.779v3.464H281.7Z" transform="translate(-258.922 -130.76)"/>
        <path id="Path_1483" data-name="Path 1483" fill="#004750" d="M310.6,130.9h.875v7.348H310.6Z" transform="translate(-277.71 -130.76)"/>
        <path id="Path_1484" data-name="Path 1484" fill="#004750" d="M326.1,130.9h.875v6.543h3.534v.8H326.1Z" transform="translate(-287.786 -130.76)"/>
        <path id="Path_1485" data-name="Path 1485" fill="#004750" d="M347.844,131.7H345.5v-.8h5.563v.8h-2.344v6.543h-.875Z" transform="translate(-300.398 -130.76)"/>
        <path id="Path_1486" data-name="Path 1486" fill="#004750" d="M370.3,134.314c0-2.344,1.365-3.814,3.184-3.814s3.149,1.47,3.149,3.814c0,2.379-1.33,3.814-3.149,3.814S370.3,136.658,370.3,134.314Zm5.458,0c0-1.924-.945-3.009-2.274-3.009-1.365,0-2.309,1.085-2.309,3.009s.945,3.044,2.309,3.044C374.814,137.323,375.758,136.2,375.758,134.314Z" transform="translate(-316.521 -130.5)"/>
        <path id="Path_1487" data-name="Path 1487" fill="#004750" d="M400.1,130.9h.91l3.884,5.808h.035V130.9h.8v7.348h-.77l-3.989-5.983h-.035v5.983h-.84Z" transform="translate(-335.894 -130.76)"/>
      </g>
      <g id="Group_1564" data-name="Group 1564" transform="translate(147.309 43.982)">
        <path id="Path_1488" data-name="Path 1488" fill="#004750" d="M421,127.065a1.33,1.33,0,1,1,2.659-.035,1.359,1.359,0,0,1-1.33,1.365A1.329,1.329,0,0,1,421,127.065Zm2.519,0a1.173,1.173,0,0,0-1.155-1.19,1.151,1.151,0,0,0-1.155,1.19,1.173,1.173,0,0,0,1.155,1.19A1.2,1.2,0,0,0,423.519,127.065Zm-1.644-.77h.525q.525,0,.525.42a.42.42,0,0,1-.315.42l.35.665h-.21l-.315-.63h-.315v.63h-.21C421.875,127.764,421.875,126.295,421.875,126.295Zm.49.665c.21,0,.35-.07.35-.245s-.105-.245-.35-.245h-.28v.525h.28Z" transform="translate(-421 -125.7)"/>
      </g>
      <line id="Line_2" data-name="Line 2" fill="#007f7b" y2="0.42" transform="translate(33.698 50.42)"/>
      <path id="Path_1489" data-name="Path 1489" fill="#004750" d="M.037,84.438c.245,1.05,1.68,1.575,2.309,2.029.63.42,8.223,3.184,9.412,3.814,1.085.56,6.648,4.794,7.978,5.808l-5.983.735s15.885,1.959,27.187,1.959c11.162,0,28.622-3.464,28.622-3.464l-7.7.56c1.5-1.225,4.409-4.269,4.444-7.418a10.037,10.037,0,0,0-1.19-4.934c-.77-1.26-1.435-2.379-1.924-3.219a10.365,10.365,0,0,1-.735-1.26h0c-.735-1.61-.175-2.1-.175-2.1h0a1.266,1.266,0,0,1,1.05-.315h0a1.078,1.078,0,0,1,.35.035c.42.14,3.989.98,5.843,1.575,1.889.595,1.4-.98.77-1.4a37.325,37.325,0,0,1-3.149-2.414,3.524,3.524,0,0,1-.77-1.749c-.07-.42-.175-4.269-3.674-6.018a15.512,15.512,0,0,0-5.283-1.5,8.982,8.982,0,0,0-6.613,1.5c-2.554,1.645-5.878,7.313-6.333,7.943-.42.63-.63.56-.875,1.05s.42.525,1.085.56a21.409,21.409,0,0,0,2.659-.42s.735.8.525,1.5c-.035.07-.035.14-.07.21a.034.034,0,0,1-.035.035c-.035.035-.07.07-.07.1a.953.953,0,0,1-.35.28c-17.74-3.6-28.622,2.414-28.622,2.414S9.345,78.525,8.61,78.42c-1.085-.175-.385,1.085-.385,1.085a40.949,40.949,0,0,0,2.974,2.9c.945.735.245.735-.49,1.19a3.865,3.865,0,0,1-1.645.42s-6.718-.42-7.558-.42C.632,83.6-.173,83.318.037,84.438Zm28.482.35c-.49.1-.945.245-1.33.35-2.449-1.365-3.394-2.8-3.709-3.814.665-.07,1.33-.14,1.959-.175A22.8,22.8,0,0,0,28.519,84.788Zm-.245-3.709c.91,0,1.749.035,2.519.07a30.5,30.5,0,0,0,1.819,2.834c-.595.1-1.155.175-1.714.28A8.6,8.6,0,0,1,28.274,81.079ZM54.586,67.118c-1.575.315-5.983,3.5-5.983,3.5a8.8,8.8,0,0,1,5.843-4.234c7.243-1.12,9.762,3.849,9.762,3.849C60.955,66.488,56.2,66.8,54.586,67.118ZM50,73.066s-1.994,1.05-2.519.595c0,0,3.849-3.814,5.913-4.479,2.064-.63,2.9-.245,2.9-.245s-3.884,1.959-5.528,3.989a3.431,3.431,0,0,0,3.779,2.309s1.05.28.595-1.12c0,0-.7-2.2,2.624-3.079a3.439,3.439,0,0,0,3.114,4.444s.28.875-.14.91-3.009.14-4.3.28a5.819,5.819,0,0,1-3.779-.385C51.157,75.41,50.6,73.941,50,73.066Zm-1.4,8.118c-7.033-2.379-20.329-1.47-20.329-1.47C42.725,76.845,48.6,81.184,48.6,81.184Zm-13.856.385,1.924,2.064-1.715.1a8.332,8.332,0,0,1-2.169-2.379C34.047,81.464,34.747,81.569,34.747,81.569Zm12.036,2.974s-14.066,1.225-18.929,3.534c-4.129,1.994-5.528,3.464-3.744,7.488,0,0-1.4-.525-2.064-3.184C21.486,89.931,25.685,84.508,46.784,84.543ZM21.381,81.6c.245-.035.455-.07.7-.1a11.26,11.26,0,0,0,3.464,4.129.844.844,0,0,0-.28.1A12.12,12.12,0,0,1,21.381,81.6Z" transform="translate(0 -42.31)"/>
      <g id="Group_1573" data-name="Group 1573" transform="translate(0.527)">
        <g id="Group_1565" data-name="Group 1565" transform="translate(0 0.42)">
          <path id="Path_1490" data-name="Path 1490" fill="#004750" d="M13.292,17.925h4.794V17.89c-1.19-.455-1.155-2.029-1.155-3.184V4.419c0-1.155-.035-2.729,1.155-3.184V1.2H13.292v.035c1.155.455,1.155,2.029,1.12,3.149V7.953H5.139V4.419c0-1.155-.035-2.729,1.12-3.184V1.2H1.5v.035c1.155.455,1.155,1.994,1.12,3.149V14.741c0,1.155.035,2.729-1.12,3.184H6.259V17.89c-1.155-.455-1.12-2.029-1.12-3.184V9.738h9.272v5.039c.035,1.12.035,2.659-1.12,3.149Z" transform="translate(-1.5 -1.2)"/>
        </g>
        <g id="Group_1566" data-name="Group 1566" transform="translate(17.285)">
          <path id="Path_1491" data-name="Path 1491" fill="#004750" d="M60.172,0A9.031,9.031,0,0,0,50.9,8.747c0,5,3.989,8.817,9.272,8.817a9.036,9.036,0,0,0,9.342-8.922A8.729,8.729,0,0,0,60.487,0h-.315Zm.14,15.78a6.1,6.1,0,0,1-4.794-2.309A7.994,7.994,0,0,1,53.734,8.5a7.1,7.1,0,0,1,1.749-4.829,6.327,6.327,0,0,1,4.724-1.924c4.234.035,6.473,3.814,6.473,7.348a7,7,0,0,1-1.714,4.759A6.171,6.171,0,0,1,60.312,15.78Z" transform="translate(-50.9)"/>
        </g>
        <g id="Group_1567" data-name="Group 1567" transform="translate(35.76 0.42)">
          <path id="Path_1492" data-name="Path 1492" fill="#004750" d="M108.459,3.579l4.9,11.617a6.11,6.11,0,0,0,2.2,3.044l5.738-14.7,1.47,12.421c0,.84-.14,1.645-1.05,1.924v.035h4.829V17.89a3.038,3.038,0,0,1-1.295-2.624l-1.68-12.491c0-.315.07-1.295.8-1.54V1.2H120.04a4.33,4.33,0,0,1-.385,1.575l-4.3,10.917-.035-.07L110.558,2.355c-.035-.07-.035-.1-.07-.175a2.427,2.427,0,0,1-.28-.98h-4.374v.035a1.807,1.807,0,0,1,.8,2.2,1.515,1.515,0,0,1-.035.175l-1.5,10.812a5.127,5.127,0,0,1-1.4,3.429v.07h4.094V17.89c-1.155-.525-1.015-1.61-.84-3.114Z" transform="translate(-103.7 -1.2)"/>
        </g>
        <g id="Group_1568" data-name="Group 1568" transform="translate(59.693 0.42)">
          <path id="Path_1493" data-name="Path 1493" fill="#004750" d="M180.218,1.2H172.1v.035c1.19.455,1.155,2.029,1.155,3.184V14.671c0,1.155.035,2.729-1.155,3.184v.07h10.567l1.12-3.254h0a6.37,6.37,0,0,1-4.164,1.54h-3.849V9.738h2.064c.7,0,1.714,0,2.134.7h.035V7.813h-.035a2.9,2.9,0,0,1-1.12.14h-3.079V2.984H178.4A3.562,3.562,0,0,1,181.407,4h.035V1.2Z" transform="translate(-172.1 -1.2)"/>
        </g>
        <g id="Group_1569" data-name="Group 1569" transform="translate(70.644 0.42)">
          <path id="Path_1494" data-name="Path 1494" fill="#004750" d="M215.856,5.749l2.834,8.852c.735,2.344.98,2.484,2.659,3.6a7.093,7.093,0,0,1,.63.455l5.353-17.425h-3.849V1.27c1.854.665,1.225,2.554.8,3.919l-.1.315-2.9,9.412L217.711,3.754a5.2,5.2,0,0,1-.385-2.554h-3.5v.035c1.4.735.875,2.449.42,3.954l-3.009,9.8-.035-.1-3.849-11.9a5.04,5.04,0,0,1-.315-1.784H203.4v.035a6.034,6.034,0,0,1,1.959,3.429c.07.175.1.35.175.525l3.009,9.412c.7,2.239.98,2.414,2.519,3.5.245.175.525.35.84.595Z" transform="translate(-203.4 -1.2)"/>
        </g>
        <g id="Group_1570" data-name="Group 1570" transform="translate(94.577)">
          <path id="Path_1495" data-name="Path 1495" fill="#004750" d="M281.072,0A9.031,9.031,0,0,0,271.8,8.747c0,5,3.989,8.817,9.272,8.817a9.036,9.036,0,0,0,9.342-8.922A8.729,8.729,0,0,0,281.387,0h-.315Zm.14,15.78a6.1,6.1,0,0,1-4.794-2.309A7.994,7.994,0,0,1,274.634,8.5a7.105,7.105,0,0,1,1.75-4.829,6.327,6.327,0,0,1,4.724-1.924c4.164,0,6.438,3.779,6.438,7.348a7,7,0,0,1-1.715,4.759A5.988,5.988,0,0,1,281.212,15.78Z" transform="translate(-271.8)"/>
        </g>
        <g id="Group_1571" data-name="Group 1571" transform="translate(114.731)">
          <path id="Path_1496" data-name="Path 1496" fill="#004750" d="M338.672,0A9.031,9.031,0,0,0,329.4,8.747c0,5,3.989,8.817,9.272,8.817a9.036,9.036,0,0,0,9.342-8.922A8.723,8.723,0,0,0,338.987.035h-.035A.87.87,0,0,0,338.672,0Zm.1,15.78a6.1,6.1,0,0,1-4.794-2.309A7.994,7.994,0,0,1,332.2,8.5a7.1,7.1,0,0,1,1.75-4.829,6.326,6.326,0,0,1,4.724-1.924c4.164,0,6.438,3.779,6.438,7.348a7,7,0,0,1-1.715,4.759A5.988,5.988,0,0,1,338.777,15.78Z" transform="translate(-329.4)"/>
        </g>
        <g id="Group_1572" data-name="Group 1572" transform="translate(134.186 0.385)">
          <path id="Path_1497" data-name="Path 1497" fill="#004750" d="M385,17.79h6.088c5.6,0,9.517-3.5,9.517-8.5,0-5.039-3.6-8.188-9.377-8.188H385v.035c1.155.35,1.155,1.924,1.12,3.044V14.571c0,1.33,0,2.414-1.12,3.219Zm5.983-14.906a6.921,6.921,0,0,1,5,1.68A6.706,6.706,0,0,1,397.771,9.6a5.988,5.988,0,0,1-2.169,4.864,8,8,0,0,1-5.039,1.54h-1.889V2.884Z" transform="translate(-385 -1.1)"/>
        </g>
      </g>
      <g id="Group_1581" data-name="Group 1581" transform="translate(75.02 21.134)">
        <g id="Group_1579" data-name="Group 1579">
          <g id="Group_1574" data-name="Group 1574">
            <path id="Path_1498" data-name="Path 1498" fill="#004750" d="M215.17,77.16a13.479,13.479,0,0,0,4.549.77c3.744,0,6.788-2.344,6.788-5.248,0-2.519-2.484-3.639-4.864-4.724-1.994-.91-3.919-1.784-3.919-3.429,0-1.75,1.784-2.344,3.324-2.344A5.8,5.8,0,0,1,225,63.724V60.96a13.333,13.333,0,0,0-3.779-.56,8.65,8.65,0,0,0-4.339,1.015,3.755,3.755,0,0,0-2.029,3.394c0,2.869,2.484,3.989,4.864,5.074,1.994.91,3.884,1.749,3.884,3.6,0,1.749-2.134,2.694-3.674,2.694a8.866,8.866,0,0,1-5.528-2.064Z" transform="translate(-214.4 -60.4)"/>
          </g>
          <g id="Group_1575" data-name="Group 1575" transform="translate(12.806 0.35)">
            <path id="Path_1499" data-name="Path 1499" fill="#004750" d="M251,61.47c1.155.455,1.155,1.994,1.12,3.149V72c0,1.749,0,3.394,1.295,4.794A6.217,6.217,0,0,0,258,78.58a6.411,6.411,0,0,0,4.969-2.064l.07-.07V78.2h3.674V78.16c-1.19-.455-1.155-2.029-1.155-3.184V64.654c0-1.155-.035-2.729,1.155-3.184v-.035h-4.794v.035c1.155.455,1.12,2.029,1.12,3.184v8.118a3.4,3.4,0,0,1-.525,2.239,4.566,4.566,0,0,1-3.744,1.784c-2.694,0-4.094-1.68-4.094-5V64.619c0-1.155-.035-2.729,1.12-3.184V61.4L251,61.47Z" transform="translate(-251 -61.4)"/>
          </g>
          <g id="Group_1576" data-name="Group 1576" transform="translate(30.406 0.35)">
            <path id="Path_1500" data-name="Path 1500" fill="#004750" d="M301.3,78.16h4.759v-.035c-1.155-.455-1.155-2.029-1.12-3.184V64.654c0-1.155-.035-2.729,1.12-3.219V61.4H301.3v.035c1.155.455,1.155,2.029,1.12,3.149V74.906c0,1.19.035,2.8-1.12,3.254Z" transform="translate(-301.3 -61.4)"/>
          </g>
          <g id="Group_1577" data-name="Group 1577" transform="translate(36.074 0.385)">
            <path id="Path_1501" data-name="Path 1501" fill="#004750" d="M318.3,61.5l-.8,2.8h.035a4.378,4.378,0,0,1,3.044-1.015h2.274V75.041c0,1.155.035,2.729-1.12,3.184v.035H326.7v-.035c-1.33-.77-1.33-1.784-1.33-3.184V63.284h2.309c.77,0,1.854.1,2.2,1.015h.035l.735-2.8H318.3Z" transform="translate(-317.5 -61.5)"/>
          </g>
          <g id="Group_1578" data-name="Group 1578" transform="translate(63.261)">
            <path id="Path_1502" data-name="Path 1502" fill="#004750" d="M396,77.16a13.424,13.424,0,0,0,4.514.77c3.744,0,6.788-2.344,6.788-5.248,0-2.519-2.484-3.639-4.864-4.724-1.995-.91-3.919-1.784-3.919-3.429,0-1.75,1.785-2.344,3.324-2.344a5.8,5.8,0,0,1,3.954,1.54V60.96a13.333,13.333,0,0,0-3.779-.56,8.65,8.65,0,0,0-4.339,1.015,3.755,3.755,0,0,0-2.029,3.394c0,2.869,2.484,3.989,4.864,5.074,1.994.91,3.884,1.749,3.884,3.6,0,1.749-2.134,2.694-3.674,2.694a8.866,8.866,0,0,1-5.528-2.064Z" transform="translate(-395.2 -60.4)"/>
          </g>
        </g>
        <g id="Group_1580" data-name="Group 1580" transform="translate(50.665 0.385)">
          <path id="Path_1503" data-name="Path 1503" fill="#004750" d="M367.213,61.5H359.2v.035c1.19.455,1.155,2.029,1.155,3.184V74.971c0,1.155.035,2.729-1.155,3.184v.035h10.567l1.12-3.254h0a6.37,6.37,0,0,1-4.164,1.54h-3.849V70.038h2.064c.7,0,1.715,0,2.134.7h.035V68.113h-.035a2.9,2.9,0,0,1-1.12.14h-3.079V63.284H365.5a3.562,3.562,0,0,1,3.009,1.015h.035V61.5Z" transform="translate(-359.2 -61.5)"/>
        </g>
      </g>
    </g>
  </g>
</svg>
