<svg xmlns="http://www.w3.org/2000/svg" viewBox="0 0 220 140" width="220px" height="140px">
  <g id="home2_logo" transform="translate(-12320 -1699)">
    <rect id="Rectangle_27016" data-name="Rectangle 27016" fill="none" transform="translate(12320 1699)"/>
    <g id="Group_58506" data-name="Group 58506" transform="translate(15257 -4659.574)">
      <path id="Path_39183" data-name="Path 39183" fill="#b2bb1f" d="M209.016,0V60.091L179.1,48.581V11.769Zm-3.992,53.869V46.3L189.677,42.67l10.058-10.214a20.534,20.534,0,0,0,4.925-13.791c-.778-9.851-6.429-10.577-10.836-9.851-5.962,1.97-10.318,6.688-10.784,12.91l5.859-.311c.311-3.111,2.229-5.548,4.977-6.118,2.54-.57,4.822,1.089,4.874,4.614.052,3.007-1.815,5.548-3.318,7.518l-12.6,12.6v5.911Z" transform="translate(-2974.242 6397)"/>
      <path id="Path_39184" data-name="Path 39184" fill="#4a3900" d="M155.05,45.353v3.785H138.2V22.8h16.85v3.733H142.192v7.518h10.992v3.577H142.192v7.725Z" transform="translate(-2954.547 6386.021)"/>
      <path id="Path_39185" data-name="Path 39185" fill="#4a3900" d="M166.785,83.7v4.977H165.9l-1.97-3.059v3.059H163V83.7h.83l1.97,3.007V83.7Z" transform="translate(-2966.49 6356.695)"/>
      <path id="Path_39186" data-name="Path 39186" fill="#4a3900" d="M153.78,86.189a2.483,2.483,0,0,1-.518,1.97,1.759,1.759,0,0,1-1.348.518,1.971,1.971,0,0,1-1.348-.518c-.518-.518-.467-1.141-.467-1.97a2.685,2.685,0,0,1,.467-1.97,1.759,1.759,0,0,1,1.348-.518,1.971,1.971,0,0,1,1.348.518C153.78,84.685,153.78,85.307,153.78,86.189Zm-.985,0c0-.933-.052-1.192-.259-1.4a.876.876,0,0,0-1.244,0c-.207.207-.259.415-.259,1.4,0,.933.052,1.192.259,1.4a.876.876,0,0,0,1.244,0C152.743,87.329,152.795,87.122,152.795,86.189Z" transform="translate(-2960.277 6356.695)"/>
      <path id="Path_39187" data-name="Path 39187" fill="#4a3900" d="M142.026,83.7v.881h-1.3v4.1H139.8v-4.1h-1.3V83.7Z" transform="translate(-2954.692 6356.695)"/>
      <path id="Path_39188" data-name="Path 39188" fill="#4a3900" d="M131.815,87.8v.881H128.6V83.7h.985v4.1Z" transform="translate(-2949.925 6356.695)"/>
      <path id="Path_39189" data-name="Path 39189" fill="#4a3900" d="M108.753,22.8V49.138h-4.044V32.7h-.052l-5.5,12.651h-3.37L90.3,32.7h-.052V49.138H86.2V22.8h3.785l7.57,17.161L104.969,22.8Z" transform="translate(-2929.508 6386.021)"/>
      <rect id="Rectangle_23589" data-name="Rectangle 23589" fill="#4a3900" width="0.985" height="4.977" transform="translate(-2825.421 6440.396)"/>
      <path id="Path_39190" data-name="Path 39190" fill="#4a3900" d="M111.177,83.7v4.977h-.933V86.6h-1.711v2.074H107.6V83.7h.933v2.022h1.711V83.7Z" transform="translate(-2939.813 6356.695)"/>
      <path id="Path_39191" data-name="Path 39191" fill="#4a3900" d="M91.84,83.7l-1.5,2.9v2.074H89.4V86.6l-1.5-2.9h1.089l.881,2.022L90.8,83.7Z" transform="translate(-2930.327 6356.695)"/>
      <path id="Path_39192" data-name="Path 39192" fill="#4a3900" d="M79.2,86.137a1.151,1.151,0,0,1,.674,1.089,1.375,1.375,0,0,1-1.5,1.452H76.3V83.7h1.97c.985,0,1.555.518,1.555,1.4A1.256,1.256,0,0,1,79.2,86.137Zm-.311,1.037a.6.6,0,0,0-.622-.622h-.985V87.8h.985A.572.572,0,0,0,78.892,87.174Zm-.052-2.022c0-.363-.207-.57-.622-.57h-.933v1.141h.933A.559.559,0,0,0,78.84,85.152Z" transform="translate(-2924.74 6356.695)"/>
      <path id="Path_39193" data-name="Path 39193" fill="#4a3900" d="M60.428,27.117c.83,1.555,1.141,2.333,1.141,8.658s-.311,7.1-1.141,8.658a9.561,9.561,0,0,1-16.487,0c-.83-1.555-1.141-2.333-1.141-8.658s.311-7.1,1.141-8.658A9.338,9.338,0,0,1,52.184,22.4,9.238,9.238,0,0,1,60.428,27.117Zm-2.852,8.658c0-5.392-.311-6.17-1.348-7.466a5.094,5.094,0,0,0-4.1-1.918,5.173,5.173,0,0,0-4.1,1.918c-1.037,1.348-1.348,2.074-1.348,7.466s.311,6.17,1.348,7.466a5.094,5.094,0,0,0,4.1,1.918,5.173,5.173,0,0,0,4.1-1.918C57.317,41.894,57.576,41.168,57.576,35.776Z" transform="translate(-2908.61 6386.214)"/>
      <path id="Path_39194" data-name="Path 39194" fill="#4a3900" d="M60.077,84.122l-.622.622a1.351,1.351,0,0,0-1.037-.363c-.518,0-.778.259-.778.622a.56.56,0,0,0,.156.363.977.977,0,0,0,.467.207l.57.1a1.75,1.75,0,0,1,.933.363,1.412,1.412,0,0,1,.363,1.037c0,.985-.778,1.5-1.815,1.5a2.274,2.274,0,0,1-1.815-.674l.622-.622a1.6,1.6,0,0,0,1.192.415c.57,0,.881-.207.881-.622a.589.589,0,0,0-.156-.415.51.51,0,0,0-.415-.156L58,86.4a1.9,1.9,0,0,1-.985-.415A1.291,1.291,0,0,1,56.656,85a1.533,1.533,0,0,1,1.711-1.5A2.445,2.445,0,0,1,60.077,84.122Z" transform="translate(-2915.207 6356.792)"/>
      <path id="Path_39195" data-name="Path 39195" fill="#4a3900" d="M48.715,87.8v.881H45.5V83.7h3.215v.881H46.433v1.141H48.4V86.6h-1.97V87.8Z" transform="translate(-2909.91 6356.695)"/>
      <path id="Path_39196" data-name="Path 39196" fill="#4a3900" d="M36.726,83.7v.881h-1.3v4.1H34.5v-4.1H33.2V83.7Z" transform="translate(-2903.987 6356.695)"/>
      <path id="Path_39197" data-name="Path 39197" fill="#4a3900" d="M18.458,22.8V49.138H14.413V37.628H3.992v11.51H0V22.8H3.992V34.051H14.413V22.8Z" transform="translate(-2888 6386.021)"/>
      <rect id="Rectangle_23590" data-name="Rectangle 23590" fill="#4a3900" width="0.985" height="4.977" transform="translate(-2874.572 6440.396)"/>
      <path id="Path_39198" data-name="Path 39198" fill="#4a3900" d="M16.529,83.7v3.266a1.718,1.718,0,0,1-1.815,1.711A1.689,1.689,0,0,1,12.9,86.966V83.7h.985v3.215a.821.821,0,0,0,.83.933.858.858,0,0,0,.881-.933V83.7Z" transform="translate(-2894.212 6356.695)"/>
      <path id="Path_39199" data-name="Path 39199" fill="#4a3900" d="M3.877,84.122l-.622.622a1.351,1.351,0,0,0-1.037-.363c-.518,0-.778.259-.778.622a.56.56,0,0,0,.156.363.977.977,0,0,0,.467.207l.57.1a1.75,1.75,0,0,1,.933.363,1.412,1.412,0,0,1,.363,1.037c0,.985-.778,1.5-1.815,1.5A2.342,2.342,0,0,1,.3,87.907l.622-.622a1.6,1.6,0,0,0,1.192.415c.57,0,.881-.207.881-.622a.589.589,0,0,0-.156-.415.51.51,0,0,0-.415-.156L1.8,86.4a1.9,1.9,0,0,1-.985-.415A1.291,1.291,0,0,1,.456,85a1.533,1.533,0,0,1,1.711-1.5A2.445,2.445,0,0,1,3.877,84.122Z" transform="translate(-2888.145 6356.792)"/>
      <path id="Path_39200" data-name="Path 39200" fill="#b2bb1f" d="M222.137,124.474a2.437,2.437,0,1,1,2.437-2.437A2.434,2.434,0,0,1,222.137,124.474Zm0-4.459a1.969,1.969,0,0,0-1.97,1.97,1.937,1.937,0,0,0,1.97,1.97,1.969,1.969,0,0,0,1.97-1.97A2,2,0,0,0,222.137,120.015Zm.518,3.318-.518-1.037h-.363v1.037h-.467v-2.644h.985a.789.789,0,0,1,.83.83.732.732,0,0,1-.518.726l.57,1.141h-.518Zm-.467-2.229h-.467v.778h.467a.382.382,0,0,0,.415-.415C222.655,121.311,222.448,121.1,222.189,121.1Z" transform="translate(-2993.792 6339.41)"/>
    </g>
  </g>
</svg>
