<?xml version="1.0" encoding="utf-8"?>
<!-- Generator: Adobe Illustrator 24.3.0, SVG Export Plug-In . SVG Version: 6.00 Build 0)  -->
<svg version="1.1" id="Layer_1" xmlns="http://www.w3.org/2000/svg" xmlns:xlink="http://www.w3.org/1999/xlink" x="0px" y="0px"
	 viewBox="0 0 220 140" style="enable-background:new 0 0 220 140;" xml:space="preserve">
<style type="text/css">
	.st0{fill:#43526A;}
</style>
<g>
	<g>
		<path class="st0" d="M192.7,49.3h-9.1v21.9h9.1c4.9,0,8.3-4.5,8.3-10.9S197.6,49.3,192.7,49.3z M197.4,60.2c0,5.1-1.6,7.9-4.6,8.5
			h-5.7V51.8h5.7C195.6,52.1,197.4,55.3,197.4,60.2z"/>
		<path class="st0" d="M132.9,71.3l8.1-21.9h-2.7l-6,16.7l-0.3-1c-1.4-5-4.3-15.1-4.3-15.2c-0.1-0.5-0.3-0.5-2.1-0.5h-0.5l-0.1,0.4
			c-0.1,0.1-2.8,9.6-4.6,15.9l-5.8-16.3h-4.1l7.9,21.3l0.3,0.7h2.1l4.8-15.9l4.7,15.9C130.6,71.3,132.9,71.3,132.9,71.3z"/>
		<path class="st0" d="M39.9,57.4H28.2v-8h-3.8v8h-0.3c-1.6,0-2.7-0.1-3.3-0.1l-0.7-0.1v2.5l0.7-0.1c0.3-0.1,1,0,1.6,0h0.1
			c0.3,0,0.5,0,0.8,0l0,0h0.9v11.6h3.8V59.6h11.6v11.6h3.6V49.4h-3.6L39.9,57.4L39.9,57.4z"/>
		<polygon class="st0" points="71.7,57.7 78.4,70.7 78.7,71.1 80.2,71.1 87.7,56.4 87.7,71.3 90.4,71.3 90.4,49.4 87.8,49.4 
			78.8,66.6 69.9,49.5 69.9,49.3 67.8,49.3 67.8,71.3 71.6,71.3 		"/>
		<path class="st0" d="M109.2,68.6c-1.1,0.2-7.6,0.2-11.5,0.2v-8.3c3-0.1,7.2,0,8.8,0.1l0.7,0.1v-2.6l-0.7,0.1
			c-1.6,0.2-6.6,0.2-8.7,0.2v-6.5c5.9,0,9.6,0.1,10.3,0.1l1.2,0.1l-1.4-2.8H94.2v21.9h15.3l0.8-2.9L109.2,68.6z"/>
		<path class="st0" d="M55.6,48.7c-5.5,0-10,5.1-10,11.4c0,6.2,4.5,11.4,10,11.4s10-5.1,10-11.4S61.1,48.7,55.6,48.7z M63.3,60.1
			c0,4.5-3.4,8.1-7.7,8.1c-4.2,0-7.7-3.6-7.7-8.1s3.4-8.1,7.7-8.1S63.3,55.6,63.3,60.1z"/>
		<path class="st0" d="M150,48.7c-5.5,0-10,5.1-10,11.4c0,6.2,4.5,11.4,10,11.4c5.5,0,10-5.1,10-11.4S155.6,48.7,150,48.7z
			 M157.7,60.1c0,4.5-3.4,8.1-7.7,8.1s-7.7-3.6-7.7-8.1s3.4-8.1,7.7-8.1S157.7,55.6,157.7,60.1z"/>
		<path class="st0" d="M171.6,48.7c-5.5,0-10,5.1-10,11.4c0,6.2,4.5,11.4,10,11.4c5.5,0,10-5.1,10-11.4S177.2,48.7,171.6,48.7z
			 M179.3,60.1c0,4.5-3.4,8.1-7.7,8.1s-7.7-3.6-7.7-8.1s3.4-8.1,7.7-8.1S179.3,55.6,179.3,60.1z"/>
	</g>
	<g>
		<path class="st0" d="M75.8,84.8L75.7,85l0,0L75.8,84.8c-1.8-0.8-3.3-1.4-3.3-3c0-1.2,1.3-1.6,2.4-1.6c1,0,1.9,0.1,2.6,1.3l0.7,1
			l1.4-2.7l-0.4-0.3c-1-0.8-2.8-1.2-4.2-1.2c-2.5,0-5.2,1.5-5.2,4.3c0,3,2.5,4.1,4.5,5c1.8,0.8,3.3,1.4,3.3,3.1
			c0,1.2-1.2,2.1-2.9,2.1c-1.2,0-2.6-0.2-3.6-1.9l-0.7-1.2l-1.2,3.2l0.4,0.3c1.5,1.2,3.1,1.6,5.2,1.6c2.8,0,5.7-1.7,5.7-4.9
			C80.4,86.7,77.9,85.6,75.8,84.8z"/>
		<path class="st0" d="M95.3,79c0,0.8,0,3,0,5.8v3.4c0,2.5-1.8,4.2-4.4,4.2c-1.2,0-2.3-0.4-3-1.1c-0.7-0.7-1.1-1.8-1.1-3v-10h-3.3
			v9.8c0,4,2.7,6.6,7,6.6c2,0,3.6-0.7,4.8-2.1c0,0.1,0.1,0.3,0.1,0.5c0,0.3,0.1,0.6,0.1,0.7v0.7h2.9v-0.7c-0.1-2.7-0.1-6.2,0-9.6
			c0-1.9,0.1-3.6,0.1-5.2v-0.7h-3.1V79z"/>
		<path class="st0" d="M106.6,85.1c0-2.2,0-4.4,0-6.1v-0.7h-3.1V79c0.1,1.8,0,8.8,0,12.2v0.5c0,1,0,1.8,0,2.1v0.7h3.2v-0.7
			c0-2.1,0-4.7,0-7.4L106.6,85.1z"/>
		<path class="st0" d="M110.6,80.2h4.5v14.2h3.2v-0.7c0-2.1,0-4.6,0-7.1v-0.3c0-2.1,0-4.3,0-6.1h4.6v-2h-11.6L110.6,80.2z"/>
		<path class="st0" d="M147.4,84.8l-0.1,0.3l0,0l0,0l0,0L147.4,84.8L147.4,84.8c-1.8-0.8-3.3-1.4-3.3-3c0-1.2,1.3-1.6,2.4-1.6
			c1,0,1.9,0.1,2.6,1.3l0.7,1l1.4-2.7l-0.4-0.3c-1-0.8-2.8-1.2-4.2-1.2c-2.5,0-5.2,1.5-5.2,4.3c0,3,2.5,4.1,4.5,5
			c1.8,0.8,3.3,1.4,3.3,3.1c0,1.2-1.2,2.1-2.9,2.1c-1.2,0-2.6-0.2-3.6-1.9l-0.7-1.2l-1.2,3.2l0.4,0.3c1.5,1.2,3.1,1.6,5.2,1.6
			c2.8,0,5.7-1.7,5.7-4.9C152,86.7,149.5,85.6,147.4,84.8z"/>
		<path class="st0" d="M129.7,92.3v-5.6c2.2,0,5.2,0,6.3,0.1l0.7,0.1v-2.3l-0.7,0.1c-1,0.1-4.5,0.1-6.1,0.1h-0.1v-4.4
			c2,0,6.6,0,7.5,0.1l1.3,0.1l-1.3-2.4h-10.4v16.1h11.6l0.7-2.5l-1,0.2C137.2,92.3,132.6,92.3,129.7,92.3z"/>
	</g>
</g>
</svg>
