<?xml version="1.0" standalone="no"?>
<!DOCTYPE svg PUBLIC "-//W3C//DTD SVG 20010904//EN"
 "http://www.w3.org/TR/2001/REC-SVG-20010904/DTD/svg10.dtd">
<svg version="1.0" xmlns="http://www.w3.org/2000/svg"
 width="1527.000000pt" height="697.000000pt" viewBox="0 0 1527.000000 697.000000"
 preserveAspectRatio="xMidYMid meet">

<g transform="translate(0.000000,697.000000) scale(0.100000,-0.100000)"
fill="#000000" stroke="none">
<path d="M3824 6954 c-146 -17 -386 -58 -559 -95 -747 -158 -1462 -478 -1786
-799 -127 -126 -163 -195 -163 -314 0 -129 45 -204 170 -286 147 -96 273 -138
1010 -336 276 -73 546 -148 600 -164 220 -67 320 -122 307 -168 -21 -83 -359
-280 -733 -428 -277 -109 -676 -233 -902 -280 -40 -8 -165 -19 -278 -23 -222
-8 -271 -19 -310 -69 -38 -47 -14 -138 49 -190 136 -111 319 -148 533 -108
526 99 1516 534 2337 1028 90 54 166 97 167 95 2 -2 -3 -23 -10 -49 -42 -137
-46 -429 -8 -559 54 -190 173 -278 356 -266 182 11 375 142 557 377 l64 82 7
-45 c13 -94 70 -167 167 -215 47 -23 68 -27 136 -26 134 1 241 52 413 197 53
44 92 70 89 60 -3 -10 -11 -60 -18 -112 l-12 -95 -133 -140 c-660 -702 -1065
-1315 -1091 -1652 -14 -173 39 -259 187 -310 75 -25 251 -25 335 0 198 59 376
219 485 436 71 142 156 442 254 895 47 220 136 694 136 727 0 12 119 142 301
331 403 417 441 455 435 437 -3 -8 -48 -191 -101 -407 -88 -357 -95 -395 -83
-420 16 -35 73 -43 113 -17 14 9 92 103 173 208 276 360 516 630 627 706 52
36 99 48 120 30 21 -18 19 -105 -7 -257 -31 -183 -31 -380 0 -486 29 -100 53
-148 105 -205 89 -96 222 -120 344 -63 132 63 286 205 434 400 74 97 85 108
90 88 55 -190 112 -289 201 -350 86 -59 129 -71 253 -71 93 1 120 5 176 25 79
30 182 97 266 174 41 36 64 52 67 43 2 -7 12 -43 21 -81 21 -82 58 -140 115
-178 51 -35 89 -42 178 -37 159 9 358 170 522 423 l45 69 7 -57 c19 -149 112
-242 280 -282 82 -19 219 -19 316 1 190 38 473 154 560 229 73 63 49 106 -71
125 -110 17 -226 -20 -415 -132 -64 -39 -139 -81 -167 -96 -59 -30 -122 -33
-160 -8 -56 37 -85 162 -85 368 0 175 -30 250 -101 250 -80 0 -151 -61 -354
-302 -201 -239 -311 -331 -396 -334 -53 -1 -69 17 -69 78 0 140 98 341 228
472 97 97 185 141 308 154 98 10 154 34 207 87 66 66 66 144 1 188 -23 16 -45
20 -114 19 -296 -2 -577 -219 -785 -609 -27 -49 -74 -124 -104 -165 -71 -97
-263 -288 -322 -323 -140 -80 -248 -51 -301 81 -21 52 -23 73 -22 227 0 224
20 322 100 487 78 161 76 199 -17 219 -73 17 -151 -4 -196 -53 -12 -12 -73
-114 -137 -226 -198 -348 -351 -569 -485 -702 -85 -85 -156 -126 -199 -115
-79 19 -113 80 -120 215 -5 116 7 218 55 455 30 144 37 203 38 296 0 109 -1
118 -27 157 -31 46 -94 87 -150 97 -56 10 -161 -25 -254 -86 -79 -52 -240
-208 -417 -405 -45 -51 -83 -91 -84 -90 -1 1 14 44 33 96 51 135 74 233 74
317 0 65 -3 77 -25 98 -17 18 -35 25 -63 25 -86 0 -113 -24 -541 -475 -222
-235 -405 -425 -406 -423 -2 2 12 47 30 101 85 243 82 387 -7 387 -46 0 -79
-23 -167 -116 l-83 -87 37 74 c91 180 142 361 133 474 -10 119 -66 177 -178
183 -86 5 -157 -15 -240 -69 -127 -81 -309 -292 -440 -508 -88 -146 -223 -351
-274 -416 -67 -86 -201 -219 -255 -254 -123 -79 -237 -58 -291 54 -62 128 -15
436 112 735 72 170 73 175 61 203 -19 40 -57 59 -132 65 -88 6 -125 -11 -256
-114 -189 -148 -561 -414 -580 -414 -3 0 17 28 44 63 66 85 92 140 98 209 7
77 -15 134 -72 187 -112 104 -282 157 -1256 395 -406 100 -659 182 -759 246
-58 37 -65 52 -44 96 65 136 443 333 1026 533 369 126 844 217 1258 240 171
10 250 29 325 81 44 30 75 87 75 134 0 64 -93 118 -230 135 -105 14 -165 13
-306 -5z m2100 -1836 c34 -49 9 -159 -78 -343 -65 -137 -113 -212 -179 -282
-59 -62 -93 -83 -137 -83 -93 0 -94 212 -3 395 53 105 180 254 262 306 57 37
113 39 135 7z m11 -1335 c-157 -791 -390 -1306 -646 -1432 -73 -35 -155 -45
-184 -21 -124 103 35 591 317 973 130 174 535 663 544 654 1 -1 -13 -80 -31
-174z"/>
<path d="M9142 5883 c-95 -47 -140 -195 -91 -303 29 -64 46 -80 88 -80 96 0
179 115 197 275 7 62 -15 96 -74 113 -52 16 -80 15 -120 -5z"/>
<path d="M4611 5770 c-77 -56 -131 -170 -131 -276 0 -65 20 -88 97 -110 41
-12 60 -13 92 -4 49 13 106 67 132 124 37 82 17 209 -43 274 -32 34 -94 30
-147 -8z"/>
<path d="M9453 3701 c-71 -51 -94 -161 -52 -247 51 -106 201 -124 282 -35 79
88 56 245 -43 296 -16 8 -55 15 -88 15 -49 0 -66 -5 -99 -29z"/>
<path d="M10022 3673 c3 -36 5 -37 53 -48 l50 -10 0 -755 0 -755 -52 -9 -53
-10 0 -38 0 -38 260 0 260 0 0 39 0 39 -55 7 -55 6 0 805 0 804 -206 0 -205 0
3 -37z"/>
<path d="M7462 3618 c2 -29 8 -43 18 -45 8 -1 32 -4 53 -8 l37 -6 0 -724 0
-724 -55 -6 -55 -7 0 -44 0 -44 275 0 275 0 0 44 0 44 -55 7 -55 6 0 330 0
329 355 0 355 0 0 -329 0 -329 -60 -7 -60 -7 0 -44 0 -44 280 0 280 0 0 44 0
44 -55 7 -55 6 0 725 0 724 23 5 c12 2 36 6 52 7 28 3 30 6 33 46 l3 42 -281
0 -281 0 3 -42 c3 -37 6 -43 28 -46 14 -1 40 -5 58 -8 l32 -5 0 -309 0 -310
-355 0 -355 0 0 310 0 310 23 5 c12 2 36 6 52 7 28 3 30 6 33 46 l3 42 -276 0
-276 0 3 -42z"/>
<path d="M11105 3505 c-22 -8 -86 -28 -142 -45 l-103 -31 0 -124 0 -125 -110
0 -110 0 0 -55 0 -55 104 0 105 0 3 -442 c4 -471 5 -478 55 -546 41 -54 94
-75 207 -80 112 -5 216 9 329 44 l77 25 0 37 0 37 -122 0 c-143 0 -177 10
-210 64 -23 36 -23 40 -26 449 l-3 412 135 0 136 0 0 55 0 55 -135 0 -135 0 0
170 c0 94 -3 170 -7 169 -5 0 -26 -7 -48 -14z"/>
<path d="M6367 3273 c-12 -11 -8 -21 13 -26 19 -5 20 -14 20 -270 0 -256 -1
-265 -20 -270 -11 -3 -20 -10 -20 -17 0 -8 27 -11 88 -11 48 1 115 -2 149 -5
84 -9 142 18 181 84 23 40 27 58 27 127 0 63 -5 89 -22 122 -47 87 -139 116
-225 69 l-48 -25 0 114 0 115 -68 0 c-38 0 -72 -3 -75 -7z m276 -271 c33 -29
47 -69 47 -131 0 -68 -23 -137 -51 -151 -27 -15 -82 -12 -107 6 -21 14 -22 22
-22 149 l0 133 28 11 c34 13 80 6 105 -17z"/>
<path d="M12085 3210 c-248 -39 -426 -195 -491 -430 -25 -90 -25 -319 -1 -410
21 -80 66 -173 106 -221 44 -53 133 -109 220 -137 100 -33 317 -42 429 -18
286 60 461 288 462 599 0 316 -149 532 -415 601 -77 20 -233 28 -310 16z m213
-111 c128 -62 199 -318 172 -624 -24 -281 -109 -405 -275 -405 -129 0 -214 80
-260 246 -23 80 -32 377 -15 481 43 272 193 391 378 302z"/>
<path d="M13713 3196 c-85 -20 -142 -47 -234 -111 l-79 -55 0 75 0 75 -205 0
-205 0 0 -40 0 -39 50 -7 50 -7 0 -492 0 -493 -50 -7 -50 -7 0 -39 0 -39 255
0 255 0 0 39 0 39 -50 7 -50 7 0 419 0 419 40 25 c70 44 141 68 205 68 93 1
152 -40 182 -127 16 -45 18 -92 18 -426 l0 -375 -52 -9 -53 -10 0 -38 0 -38
260 0 260 0 0 39 0 39 -55 7 -55 6 0 393 c0 221 -4 417 -10 447 -6 30 -24 82
-41 116 -32 66 -79 108 -149 132 -56 19 -169 22 -237 7z"/>
<path d="M9290 3146 c0 -36 15 -46 73 -46 l27 0 0 -499 0 -499 -50 -7 -50 -7
0 -39 0 -39 255 0 255 0 0 39 0 39 -50 7 -50 7 0 539 0 539 -205 0 -205 0 0
-34z"/>
<path d="M6820 3079 c0 -6 8 -18 18 -27 20 -18 172 -362 172 -388 0 -41 -71
-134 -102 -134 -5 0 -19 11 -32 25 -13 14 -26 25 -30 25 -3 0 -6 -20 -6 -45 0
-39 3 -45 25 -51 62 -15 122 19 158 91 8 17 52 120 97 230 99 240 106 255 125
255 8 0 15 7 15 15 0 12 -13 15 -60 15 -47 0 -60 -3 -60 -15 0 -8 7 -15 16
-15 18 0 18 0 -40 -145 -50 -124 -41 -126 -105 29 -46 110 -47 116 -26 116 8
0 15 7 15 15 0 12 -17 15 -90 15 -58 0 -90 -4 -90 -11z"/>
<path d="M230 661 c-122 -40 -198 -130 -219 -259 -27 -166 58 -329 196 -376
60 -20 176 -20 236 0 61 21 132 84 164 148 38 73 44 216 14 297 -27 72 -75
127 -142 164 -46 25 -67 29 -139 32 -47 1 -96 -1 -110 -6z m155 -62 c58 -15
122 -71 151 -133 33 -71 33 -181 0 -251 -71 -153 -255 -192 -370 -78 -105 104
-102 308 6 411 34 33 100 60 146 61 13 1 43 -4 67 -10z"/>
<path d="M5189 655 c-138 -50 -217 -180 -207 -340 8 -123 64 -217 160 -270 49
-28 60 -30 158 -30 98 0 109 2 158 30 64 35 96 71 131 145 22 47 26 69 26 150
0 82 -4 103 -27 152 -55 117 -156 179 -291 177 -40 0 -88 -6 -108 -14z m217
-73 c75 -38 121 -115 131 -216 11 -121 -44 -227 -141 -272 -66 -31 -127 -31
-191 0 -61 28 -87 56 -115 119 -30 68 -36 142 -16 208 27 94 80 152 166 180
38 13 123 3 166 -19z"/>
<path d="M7276 654 c-70 -22 -156 -110 -181 -184 -22 -65 -25 -186 -6 -245 31
-96 115 -179 207 -205 65 -19 190 -9 247 20 58 29 111 86 141 149 17 38 21 65
21 151 0 95 -3 111 -28 162 -30 62 -74 106 -140 140 -55 28 -190 35 -261 12z
m221 -73 c91 -46 139 -142 131 -265 -10 -157 -121 -259 -262 -242 -125 14
-207 116 -209 261 -1 119 62 223 158 260 51 19 130 13 182 -14z"/>
<path d="M11849 654 c-59 -18 -133 -83 -167 -148 -25 -47 -27 -60 -27 -166 0
-131 16 -177 83 -245 67 -67 103 -80 222 -80 87 0 113 4 150 22 73 35 75 37
55 66 l-17 26 -51 -26 c-42 -22 -66 -27 -122 -27 -102 0 -172 42 -221 134 -29
53 -27 210 3 265 65 122 207 165 333 103 l55 -28 17 23 c23 29 23 30 -14 50
-92 48 -206 60 -299 31z"/>
<path d="M960 340 l0 -320 35 0 35 0 0 125 0 125 73 0 72 -1 84 -124 85 -125
43 0 c33 0 42 3 37 13 -4 6 -43 62 -86 123 -43 62 -78 116 -78 122 0 5 12 13
27 17 78 19 129 102 120 192 -7 71 -39 117 -101 148 -46 23 -60 25 -198 25
l-148 0 0 -320z m297 241 c84 -39 99 -144 29 -208 l-36 -33 -110 0 -110 0 0
123 c0 68 3 127 7 130 3 4 45 7 92 7 63 0 97 -6 128 -19z"/>
<path d="M1750 340 l0 -320 195 0 195 0 0 30 0 30 -155 0 -155 0 0 290 0 290
-40 0 -40 0 0 -320z"/>
<path d="M2621 638 c-5 -13 -63 -155 -130 -317 -67 -161 -121 -295 -121 -298
0 -2 18 -3 41 -1 l41 3 32 80 32 80 153 0 153 0 32 -80 32 -80 42 -3 43 -3
-14 33 c-7 18 -67 162 -132 321 l-118 287 -39 0 c-31 0 -40 -5 -47 -22z m113
-231 c31 -76 56 -143 56 -148 0 -5 -53 -9 -120 -9 -89 0 -120 3 -120 12 0 25
114 298 121 291 4 -5 32 -70 63 -146z"/>
<path d="M3250 340 l0 -320 40 0 40 0 2 261 3 260 190 -260 190 -261 43 0 42
0 0 320 0 320 -40 0 -40 0 -2 -260 -3 -260 -190 260 -190 260 -42 0 -43 0 0
-320z"/>
<path d="M4160 341 l0 -321 145 0 c120 0 153 3 198 20 70 26 126 75 162 141
40 74 47 197 16 280 -28 75 -80 132 -149 166 -54 26 -66 28 -214 31 l-158 4 0
-321z m286 244 c61 -18 118 -64 147 -118 29 -56 31 -194 3 -247 -52 -98 -114
-132 -253 -138 l-103 -4 0 261 0 261 78 0 c43 0 101 -7 128 -15z"/>
<path d="M6330 340 l0 -320 168 0 c141 0 173 3 208 19 59 27 88 72 92 146 4
71 -17 114 -74 147 l-35 21 29 17 c63 39 81 152 34 218 -43 59 -89 72 -265 72
l-157 0 0 -320z m341 222 c20 -23 29 -43 29 -68 0 -89 -56 -124 -200 -124
l-90 0 0 116 0 116 116 -4 116 -3 29 -33z m-17 -256 c46 -19 66 -51 66 -108 0
-39 -6 -54 -29 -80 l-29 -33 -126 -3 -126 -4 0 121 0 121 105 0 c68 0 118 -5
139 -14z"/>
<path d="M8020 340 l0 -320 40 0 40 0 2 261 3 260 190 -260 190 -260 43 -1 42
0 0 320 0 320 -40 0 -40 0 -2 -260 -3 -260 -190 260 -190 260 -42 0 -43 0 0
-320z"/>
<path d="M8930 340 l0 -320 35 0 35 0 2 263 3 262 190 -260 191 -260 42 -3 42
-3 0 320 0 321 -35 0 -35 0 0 -260 c0 -143 -3 -260 -7 -259 -5 0 -93 117 -197
260 l-189 259 -38 0 -39 0 0 -320z"/>
<path d="M9830 340 l0 -320 215 0 215 0 0 30 0 30 -175 0 -175 0 0 120 0 120
150 0 150 0 0 30 0 30 -150 0 -150 0 0 110 0 110 165 0 165 0 0 30 0 30 -205
0 -205 0 0 -320z"/>
<path d="M10500 630 l0 -30 110 0 110 0 0 -290 0 -290 40 0 40 0 0 290 0 290
110 0 110 0 0 30 0 30 -260 0 -260 0 0 -30z"/>
<path d="M12480 341 l0 -321 40 0 40 0 0 125 0 125 68 0 68 0 85 -122 86 -123
46 -3 47 -3 -86 122 c-47 67 -88 128 -91 134 -2 7 8 15 25 18 39 8 91 53 108
94 20 47 18 132 -5 173 -10 19 -37 49 -60 65 -43 30 -43 30 -207 33 l-164 4 0
-321z m287 248 c100 -37 119 -169 34 -226 -30 -20 -46 -23 -137 -23 l-104 0 0
130 0 130 89 0 c49 0 102 -5 118 -11z"/>
<path d="M13270 340 l0 -320 215 0 215 0 0 30 0 30 -175 0 -176 0 3 118 3 117
148 3 147 3 0 29 0 30 -150 0 -150 0 0 110 0 110 165 0 165 0 0 30 0 30 -205
0 -205 0 0 -320z"/>
<path d="M14010 340 l0 -320 215 0 215 0 0 30 0 30 -175 0 -176 0 3 118 3 117
148 3 147 3 0 29 0 30 -150 0 -151 0 3 108 3 107 168 3 167 2 0 30 0 30 -210
0 -210 0 0 -320z"/>
<path d="M14750 340 l0 -320 40 0 40 0 0 108 0 108 38 37 39 38 129 -145 129
-144 48 -1 c26 -1 47 1 47 4 0 2 -65 77 -145 166 -80 90 -145 165 -145 168 1
3 63 71 140 151 l138 145 -44 3 -45 3 -164 -168 -164 -168 -1 168 0 167 -40 0
-40 0 0 -320z"/>
</g>
</svg>
