<svg viewBox="0 0 220 140" width="220px" height="140px" version="1.1" xmlns="http://www.w3.org/2000/svg" xmlns:xlink="http://www.w3.org/1999/xlink">
    <g stroke="none" stroke-width="1" fill="none" fill-rule="evenodd">
        <g transform="translate(-34.000000, -29.000000)" fill-rule="nonzero">
            <g transform="translate(48.000000, 68.000000)">
                <path d="M15.3425997,0.724799971 L15.3425997,2.90599993 C15.3410661,3.1247225 15.1637264,3.30143784 14.9449997,3.30219993 L1.27679998,3.30219993 C1.0588506,3.30066637 0.882762036,3.12395337 0.881999985,2.90599993 L0.881999985,0.724799971 C0.881999985,0.506530327 1.0585317,0.329371248 1.27679998,0.328599977 L14.9449997,0.328599977 C15.1640426,0.328599977 15.3418285,0.50575849 15.3425997,0.724799971 L15.3425997,0.724799971 Z M175.470397,0.520399974 C175.397644,0.396507103 175.262553,0.322772229 175.118997,0.328599977 L172.379197,0.328599977 C172.240293,0.332109779 172.112682,0.405934372 172.040397,0.524599974 L167.700397,7.95999985 L163.360397,0.520399974 C163.287654,0.404160189 163.161477,0.33213418 163.024397,0.328599977 L160.311197,0.328599977 C160.167148,0.322245261 160.031389,0.396050514 159.958397,0.520399974 C159.886055,0.653254366 159.894163,0.815424417 159.979397,0.940399967 L166.058197,11.2107998 L166.058197,18.3339997 C166.058197,18.5528149 166.235582,18.7301997 166.454397,18.7301997 L168.900197,18.7301997 C169.115646,18.7222788 169.288476,18.5494487 169.296397,18.3339997 L169.296397,11.1799998 L169.315997,11.1519998 L175.459197,0.931999967 C175.53709,0.806921095 175.541373,0.649529712 175.470397,0.520399974 Z M83.5309986,15.7509997 L75.2107987,15.7509997 L75.2107987,10.8789998 L81.8873986,10.8789998 C82.1056682,10.8790012 82.2828273,10.7024681 82.2835986,10.4841998 L82.2835986,8.27639984 C82.2756777,8.06095084 82.1028476,7.88812076 81.8873986,7.88019985 L75.2107987,7.88019985 L75.2107987,3.30219993 L83.1907986,3.30219993 C83.4092949,3.30143192 83.5862306,3.12449624 83.5869986,2.90599993 L83.5869986,0.724799971 C83.5869986,0.505984756 83.4096138,0.328599977 83.1907986,0.328599977 L72.3687988,0.328599977 C72.26372,0.328599977 72.162945,0.370342357 72.0886431,0.444644269 C72.0143412,0.518946181 71.9725988,0.619721199 71.9725988,0.724799971 L71.9725988,18.3269997 C71.9725988,18.5458149 72.1499836,18.7232021 72.3687988,18.7232021 L83.5309986,18.7232021 C83.6363197,18.7235718 83.7374548,18.6819938 83.8120597,18.6076515 C83.8866647,18.5333092 83.9285986,18.4323215 83.9285986,18.3269997 L83.9285986,16.1471997 C83.9278273,15.9281582 83.7500414,15.7509984 83.5309986,15.7509997 L83.5309986,15.7509997 Z M100.799998,8.07899985 C98.1525983,6.85399987 97.3461983,5.96919988 97.3461983,4.8295999 C97.3461983,3.78939992 98.1105983,2.86959993 99.7933983,2.86959993 C101.142716,3.00429954 102.434028,3.48667208 103.541198,4.26959991 L103.581798,4.29479991 C103.847798,4.47119991 104.182398,4.27939991 104.364398,4.01479991 L105.344398,2.55599994 C105.423592,2.43121605 105.448373,2.27949659 105.412998,2.13599995 C105.392792,2.01259731 105.322986,1.90283087 105.219798,1.83219995 C103.637325,0.698181387 101.742983,0.0810777495 99.7961983,0.0653999819 C96.5761984,0.0653999819 94.0827984,1.85459995 94.0827984,4.8323999 C94.0827984,7.61419985 95.6787984,9.18079983 98.7937983,10.6661998 C101.144398,11.7861998 102.458998,12.6667998 102.458998,13.9953997 C102.458998,15.2049997 101.702998,16.1527997 99.6953983,16.1527997 C98.1371218,16.0589722 96.6434806,15.4968439 95.4099984,14.5399997 L95.3399984,14.4839997 C95.2192363,14.3954433 95.0671416,14.3609685 94.9199984,14.3887997 C94.7784394,14.4160774 94.6566251,14.5055107 94.5881984,14.6323997 L93.6305984,16.2801997 C93.4331984,16.6343997 93.5115984,16.7127997 93.7467984,16.9465997 C95.4204695,18.3081885 97.5228544,19.0319685 99.6799983,18.9891997 C103.486598,18.9891997 105.788212,16.8975997 105.788212,13.9925997 C105.793798,11.0301998 104.095598,9.60919982 100.799998,8.07899985 Z M9.42199984,5.60099989 L6.80119988,5.60099989 C6.62313798,5.60177073 6.47919989,5.74633631 6.47919989,5.92439988 L6.47919989,18.3269997 C6.47919989,18.5458149 6.65658467,18.7231997 6.87539988,18.7231997 L9.34779984,18.7231997 C9.56661505,18.7231997 9.74399983,18.5458149 9.74399983,18.3269997 L9.74399983,5.92439988 C9.74399983,5.74633631 9.60006175,5.60177073 9.42199984,5.60099989 L9.42199984,5.60099989 Z M122.364198,5.60097258 L119.744798,5.60097258 C119.566736,5.60177073 119.422798,5.74633631 119.422798,5.92439988 L119.422798,18.3269997 C119.422798,18.4320784 119.46454,18.5328535 119.538842,18.6071554 C119.613144,18.6814573 119.713919,18.7231997 119.818998,18.7231997 L122.292798,18.7231997 C122.511066,18.7224284 122.687598,18.5452693 122.687598,18.3269997 L122.687598,5.92439988 C122.687598,5.83789619 122.652957,5.75499518 122.591396,5.69422372 C122.529835,5.63345227 122.446494,5.59987646 122.359998,5.60097258 L122.364198,5.60097258 Z M151.092197,18.1127997 C151.167868,18.2455751 151.167868,18.4084242 151.092197,18.5411997 C151.014411,18.6629213 150.876541,18.7326606 150.732397,18.7231997 L147.940797,18.7231997 C147.805625,18.7324786 147.67732,18.6625937 147.611797,18.5439997 L144.075398,11.4977998 L144.044598,11.4375998 L140.916998,11.4375998 L140.916998,18.3269997 C140.909795,18.5422224 140.737394,18.7152356 140.522198,18.7231997 L138.080598,18.7231997 C137.861555,18.723201 137.683769,18.5460412 137.682998,18.3269997 L137.682998,0.724799971 C137.683769,0.50575849 137.861555,0.328598619 138.080598,0.328599977 L145.342398,0.328599977 C146.86218,0.240846011 148.348059,0.800692556 149.432074,1.86950022 C150.51609,2.93830789 151.096872,4.41612947 151.030597,5.93699988 C150.959488,8.24861887 149.48619,10.2832789 147.312197,11.0721998 L151.092197,18.1127997 Z M147.621597,5.91599988 C147.642559,5.1567926 147.334364,4.42557516 146.776283,3.91042373 C146.218202,3.3952723 145.464705,3.1464659 144.709598,3.22799993 L140.949198,3.22799993 L140.949198,8.73699983 L144.709598,8.73699983 C145.483827,8.80145162 146.248155,8.5282949 146.806161,7.98772639 C147.364167,7.44715787 147.661444,6.69188485 147.621597,5.91599988 Z M61.626599,6.09799988 C61.6731028,7.71995345 61.0287681,9.2853793 59.8539706,10.404641 C58.679173,11.5239026 57.0844024,12.0917335 55.4665991,11.9667998 L52.0323991,11.9667998 L52.0323991,18.3283997 C52.0237647,18.5433019 51.8511306,18.715326 51.6361991,18.7231997 L49.1903992,18.7231997 C48.9718996,18.7231997 48.7943379,18.5468938 48.7927992,18.3283997 L48.7927992,0.724799971 C48.7935704,0.50575849 48.9713563,0.328599977 49.1903992,0.328599977 L55.4399991,0.328599977 C59.119199,0.328599977 61.626599,2.66379994 61.626599,6.09799988 L61.626599,6.09799988 Z M58.414999,6.07279988 C58.4071666,5.25790226 58.057244,4.48380569 57.4506872,3.93955544 C56.8441304,3.39530519 56.0367788,3.13100472 55.2257991,3.21119993 L52.0323991,3.21119993 L52.0323991,9.10939983 L55.2257991,9.10939983 C56.0621628,9.17043974 56.8854198,8.87549499 57.492743,8.29723154 C58.1000663,7.71896809 58.4349902,6.91114976 58.414999,6.07279988 L58.414999,6.07279988 Z M38.7295993,18.1869997 C38.7898233,18.3042435 38.7861291,18.4440987 38.7197993,18.5579997 C38.641677,18.668617 38.5119927,18.7310772 38.3767993,18.7231997 L36.0625994,18.7231997 C35.7265994,18.7231997 35.5697994,18.6125997 35.3905994,18.2555997 L34.0591994,15.3155997 L25.9685996,15.3155997 L24.6343996,18.2555997 C24.5354762,18.5388801 24.2651726,18.7260569 23.9651996,18.7189997 L21.6509996,18.7189997 C21.5154812,18.72656 21.3855243,18.6642229 21.3065996,18.5537997 C21.2391113,18.4401119 21.2359259,18.2994255 21.2981996,18.1827997 L29.5581995,0.290799978 C29.6155895,0.145871214 29.7580226,0.0527849621 29.9137995,0.058399982 L30.1783995,0.058399982 C30.3347786,0.0444381379 30.4806742,0.138434137 30.5325995,0.286599978 L38.7295993,18.1869997 Z M32.8495994,12.5869998 L30.1195995,6.58239987 L30.0915995,6.51799987 L29.8759995,6.51799987 L27.1739995,12.5869998 L32.8495994,12.5869998 Z M127.882998,0.328599977 L114.221798,0.328599977 C114.003071,0.329362067 113.825732,0.5060774 113.824198,0.724799971 L113.824198,2.90599993 C113.826493,3.12417519 114.003612,3.30004643 114.221798,3.30079993 L127.888598,3.30079993 C128.106867,3.30079993 128.284027,3.12426821 128.284798,2.90599993 L128.284798,0.724799971 C128.284798,0.505984756 128.107413,0.328599977 127.888598,0.328599977 L127.882998,0.328599977 Z" fill="#23145F"></path>
                <path d="M101.919998,38.3217993 C102.029661,38.4833042 101.999429,38.70158 101.849998,38.8271993 C100.664267,39.8968171 99.1053383,40.4570256 97.5099983,40.3867993 C93.9092123,40.3867993 90.9901985,37.4677855 90.9901985,33.8669994 C90.9901985,30.2662134 93.9092123,27.3471995 97.5099983,27.3471995 C99.1150302,27.3117451 100.671095,27.9010419 101.849998,28.9907995 C101.9249,29.056017 101.969381,29.1493908 101.972831,29.2486462 C101.976281,29.3479016 101.93839,29.4441386 101.868198,29.5143995 L100.855998,30.7085995 C100.806567,30.7799731 100.725851,30.8232466 100.639047,30.8249106 C100.552244,30.8265745 100.469928,30.7864262 100.417798,30.7169995 C99.6283691,30.0246482 98.6199911,29.632997 97.5701983,29.6109995 C95.2506025,29.6160254 93.3742728,31.5005036 93.3792986,33.8200994 C93.3843244,36.1396952 95.2688025,38.016025 97.5883983,38.0109993 C98.6646142,38.0100709 99.7105905,37.6548522 100.564798,37.0001994 C100.625499,36.9449859 100.705876,36.9165411 100.787795,36.9212823 C100.869714,36.9260236 100.946272,36.9635516 101.000198,37.0253994 L101.919998,38.3217993 Z M62.4399989,38.0319993 L57.143799,38.0319993 L57.143799,27.8721995 C57.1372515,27.6850054 56.9866182,27.5349845 56.799399,27.5291995 L55.1333991,27.5291995 C54.9437376,27.5291995 54.78977,27.6825396 54.7889991,27.8721995 L54.7889991,39.8603993 C54.7889991,40.0506062 54.9431922,40.2047993 55.1333991,40.2047993 L62.4399989,40.2047993 C62.6302058,40.2047993 62.7843989,40.0506062 62.7843989,39.8603993 L62.7843989,38.3749993 C62.7836279,38.1853394 62.6296604,38.0319978 62.4399989,38.0319993 L62.4399989,38.0319993 Z M74.3721987,38.0319993 L69.0759988,38.0319993 L69.0759988,27.8721995 C69.0694937,27.6855267 68.9196716,27.5357046 68.7329988,27.5291995 L67.0669989,27.5291995 C66.8773374,27.5291995 66.7233698,27.6825396 66.7225989,27.8721995 L66.7225989,39.8603993 C66.7225989,40.0506062 66.876792,40.2047993 67.0669989,40.2047993 L74.3763987,40.2047993 C74.5668334,40.2047993 74.7214277,40.0508324 74.7221987,39.8603993 L74.7221987,38.3749993 C74.7218282,38.2836585 74.6851874,38.1962061 74.6203372,38.131881 C74.5554869,38.0675558 74.4677395,38.0316273 74.3763987,38.0319993 L74.3721987,38.0319993 Z M86.3491985,27.5319995 L78.8199987,27.5319995 C78.6303372,27.5319979 78.4763696,27.6853396 78.4755987,27.8749995 L78.4755987,39.8631993 C78.4755987,40.0534062 78.6297918,40.2075993 78.8199987,40.2075993 L86.3533985,40.2075993 C86.5436054,40.2075993 86.6977985,40.0534062 86.6977985,39.8631993 L86.6977985,38.3749993 C86.6970275,38.1853394 86.54306,38.0319978 86.3533985,38.0319993 L80.8303986,38.0319993 L80.8303986,34.8623994 L85.4657985,34.8623994 C85.5571391,34.8623994 85.6447386,34.8261145 85.7093261,34.761527 C85.7739136,34.6969394 85.8101985,34.60934 85.8101985,34.5179994 L85.8101985,33.0199994 C85.8036917,32.8325539 85.6532441,32.6821062 85.4657985,32.6755994 L80.8303986,32.6755994 L80.8303986,29.7019995 L86.3533985,29.7019995 C86.54306,29.702001 86.6970275,29.5486594 86.6977985,29.3589995 L86.6977985,27.8721995 C86.6970275,27.6825396 86.54306,27.5291995 86.3533985,27.5291995 L86.3491985,27.5319995 Z M32.3091994,37.0309994 C32.2550259,36.9690665 32.1782321,36.9315077 32.0960859,36.9267685 C32.0139396,36.9220293 31.933336,36.9505074 31.8723995,37.0057994 C31.0181917,37.6604522 29.9722153,38.0156709 28.8959995,38.0165993 C26.5764036,38.0216251 24.6919254,36.1452953 24.6868996,33.8256994 C24.6818738,31.5061035 26.5582036,29.6216253 28.8777995,29.6165995 C29.9272028,29.6384457 30.9351896,30.0301375 31.7239995,30.7225995 C31.7764281,30.7920364 31.85895,30.8321518 31.9459413,30.8304896 C32.0329326,30.8288273 32.1138617,30.7855886 32.1635995,30.7141995 L33.1799994,29.5199995 C33.2505824,29.4499398 33.2887424,29.3536135 33.2852877,29.2542234 C33.2818329,29.1548334 33.2370766,29.0613892 33.1617994,28.9963995 C31.9828962,27.9066419 30.4268314,27.3173451 28.8217995,27.3527995 C26.4924993,27.3527994 24.3401371,28.5954662 23.1754869,30.6126994 C22.0108368,32.6299325 22.0108368,35.1152663 23.1754869,37.1324994 C24.3401371,39.1497326 26.4924993,40.3923994 28.8217995,40.3923993 C30.4171164,40.4624738 31.9759891,39.9022854 33.1617994,38.8327993 C33.3107707,38.7067873 33.3403914,38.4885615 33.2303994,38.3273993 L32.3091994,37.0309994 Z M153.774597,27.5319995 L152.108597,27.5319995 C151.918936,27.5319979 151.764968,27.6853396 151.764197,27.8749995 L151.764197,35.3551994 L151.745997,35.3551994 L144.213998,27.3499847 L143.760398,27.3499847 C143.576509,27.3483056 143.42428,27.4924897 143.415998,27.6761995 L143.415998,39.8631993 C143.422504,40.0506448 143.572952,40.2010925 143.760398,40.2075993 L145.408198,40.2075993 C145.598404,40.2075993 145.752598,40.0534062 145.752598,39.8631993 L145.752598,32.0749994 L145.770798,32.0749994 L153.340597,40.3868135 L153.774597,40.3868135 C153.959006,40.3884655 154.111447,40.243461 154.118997,40.0591993 L154.118997,27.8791995 C154.116042,27.6882211 153.962746,27.5336885 153.771797,27.5291995 L153.774597,27.5319995 Z M120.394398,27.5319995 L118.714398,27.5319995 C118.527179,27.5377845 118.376546,27.6878054 118.369998,27.8749995 L118.369998,39.8631993 C118.376505,40.0506448 118.526952,40.2010925 118.714398,40.2075993 L120.394398,40.2075993 C120.581843,40.2010925 120.732291,40.0506448 120.738798,39.8631993 L120.738798,27.8721995 C120.732174,27.6839554 120.579909,27.5335325 120.391598,27.5291995 L120.394398,27.5319995 Z M114.202198,27.5319995 L104.921598,27.5319995 C104.731937,27.5319979 104.577969,27.6853396 104.577198,27.8749995 L104.577198,29.3617995 C104.577969,29.5514594 104.731937,29.704801 104.921598,29.7047995 L108.375398,29.7047995 L108.375398,39.8631993 C108.38114,40.0498993 108.530351,40.2003337 108.716998,40.2075993 L110.396998,40.2075993 C110.584192,40.2010517 110.734213,40.0504185 110.739998,39.8631993 L110.739998,29.7019995 L114.193798,29.7019995 C114.38346,29.702001 114.537427,29.5486594 114.538198,29.3589995 L114.538198,27.8721995 C114.537461,27.6847034 114.386871,27.5322468 114.199398,27.5291995 L114.202198,27.5319995 Z M49.8399992,33.8851994 C49.8245523,37.4756114 46.9051098,40.3756589 43.3146746,40.3671922 C39.7242394,40.3586884 36.8185367,37.4448745 36.8200596,33.8544296 C36.8215837,30.2639847 39.7297582,27.3526377 43.3201993,27.3470704 C45.0558531,27.3362515 46.7233295,28.022148 47.9489347,29.2511745 C49.1745399,30.4802009 49.8557854,32.1495828 49.8399992,33.8851994 L49.8399992,33.8851994 Z M47.4851992,33.8851994 C47.5127854,32.3822581 46.7267641,30.981526 45.4295818,30.221979 C44.1323995,29.462432 42.526199,29.462432 41.2290167,30.221979 C39.9318345,30.981526 39.1458131,32.3822581 39.1733993,33.8851994 C39.2149823,36.1507097 41.0634074,37.9655186 43.3292993,37.9655186 C45.5951912,37.9655186 47.4436162,36.1507097 47.4851992,33.8851994 Z M138.587398,33.8851994 C138.571951,37.4756114 135.652508,40.3756589 132.062073,40.3671922 C128.471638,40.3586884 125.565935,37.4448745 125.567458,33.8544296 C125.568982,30.2639847 128.477157,27.3526377 132.067598,27.3471995 C133.805543,27.3324746 135.476507,28.01675 136.704938,29.2462336 C137.933369,30.4757173 138.616212,32.1472671 138.599998,33.8851994 L138.587398,33.8851994 Z M136.232598,33.8851994 C136.260184,32.3822581 135.474163,30.981526 134.17698,30.221979 C132.879798,29.462432 131.273597,29.462432 129.976415,30.221979 C128.679233,30.981526 127.893212,32.3822581 127.920798,33.8851994 C127.962381,36.1507097 129.810806,37.9655186 132.076698,37.9655186 C134.34259,37.9655186 136.191015,36.1507097 136.232598,33.8851994 Z" fill="#891993"></path>
                <path d="M61.542599,50.7761991 C60.7141116,50.8004172 59.9238097,51.1300005 59.323599,51.7015991 L59.323599,47.8221992 L56.928199,47.8221992 L56.928199,48.2631992 L57.530199,48.3499992 L57.530199,57.272199 L56.928199,57.360399 L56.928199,57.799999 L59.323599,57.799999 L59.323599,57.433199 C59.8372093,57.7728451 60.442631,57.9468 61.058199,57.931599 C63.1455989,57.931599 64.3355989,56.579199 64.3355989,54.2285991 C64.3355989,52.1719991 63.1595989,50.7761991 61.542599,50.7761991 Z M60.852399,57.316999 C60.2906789,57.3009598 59.7512937,57.093504 59.323599,56.728999 L59.323599,52.2895991 C59.7021723,52.0935387 60.1174885,51.9786234 60.542999,51.9521991 C61.7189989,51.9521991 62.4245989,52.9657991 62.4245989,54.5673991 C62.4245989,56.272599 61.8365989,57.316999 60.852399,57.316999 Z M69.8039988,50.9091991 L71.8031988,50.9091991 L71.8031988,51.3935991 L71.2431988,51.4971991 L68.4655988,58.226999 C67.8341988,59.766999 67.2601989,61.0493989 65.9455989,61.0493989 C65.5542444,61.0551417 65.163757,61.0109178 64.7835989,60.9177989 L64.7835989,59.402999 L65.1811989,59.402999 L65.4457989,60.006399 C65.6093914,60.1318549 65.8125688,60.1944474 66.0183989,60.182799 C66.8415989,60.182799 67.3861989,58.947999 67.7235988,58.140199 L67.7977988,57.963799 L64.9907989,51.5111991 L64.4461989,51.3935991 L64.4461989,50.9091991 L67.5177989,50.9091991 L67.5177989,51.4075991 L66.9157989,51.5251991 L68.7231988,55.758799 L70.4199988,51.4999991 L69.8025988,51.3963991 L69.8039988,50.9091991 Z M81.2265986,48.1091992 L84.5039986,48.1091992 L84.5039986,48.5935992 L83.8431986,48.6817992 L83.8431986,57.206399 L84.5039986,57.294599 L84.5039986,57.799999 L81.2265986,57.799999 L81.2265986,57.300199 L81.9265986,57.211999 L81.9265986,53.3339991 L77.7433987,53.3339991 L77.7433987,57.213399 L78.3901987,57.301599 L78.3901987,57.799999 L75.1701987,57.799999 L75.1701987,57.300199 L75.8169987,57.211999 L75.8169987,48.6887992 L75.1701987,48.6005992 L75.1701987,48.1161992 L78.3901987,48.1161992 L78.3901987,48.6005992 L77.7433987,48.6887992 L77.7433987,52.3287991 L81.9307986,52.3287991 L81.9307986,48.6887992 L81.2307986,48.6005992 L81.2265986,48.1091992 Z M86.4457985,48.7699992 C86.4264205,48.3898562 86.6153899,48.0292734 86.9390063,47.8288824 C87.2626228,47.6284914 87.6696335,47.6200291 88.0012995,47.8067959 C88.3329655,47.9935626 88.5367592,48.3459793 88.5331985,48.7265992 C88.5528412,49.0171704 88.4520431,49.3030203 88.2544826,49.517 C88.056922,49.7309798 87.7800111,49.8542304 87.4887985,49.8577991 C87.2029762,49.8662971 86.9268284,49.7538375 86.7282624,49.5480751 C86.5296965,49.3423128 86.4271349,49.062338 86.4457985,48.7769992 L86.4457985,48.7699992 Z M88.3119985,57.265199 L88.9293985,57.353399 L88.9293985,57.799999 L85.9165985,57.799999 L85.9165985,57.358999 L86.5339985,57.270799 L86.5339985,51.4383991 L85.9165985,51.3487991 L85.9165985,50.9091991 L88.3119985,50.9091991 L88.3119985,57.265199 Z M92.6337984,57.265199 L93.2511984,57.353399 L93.2511984,57.799999 L90.2383985,57.799999 L90.2383985,57.358999 L90.8417985,57.270799 L90.8417985,48.3499992 L90.2383985,48.2631992 L90.2383985,47.8221992 L92.6337984,47.8221992 L92.6337984,57.265199 Z M98.0867983,57.043999 C98.4073,57.0583035 98.7283564,57.0338599 99.0429983,56.971199 L99.0429983,57.441599 C98.3336225,57.7131305 97.5832936,57.8622495 96.8239984,57.882599 C95.4421984,57.882599 95.1187984,57.251199 95.1187984,56.044399 L95.1187984,51.5559991 L93.8587984,51.5559991 L93.8587984,50.9091991 L95.1677984,50.9091991 L95.1677984,49.4671991 L96.9163983,48.9379991 L96.9163983,50.9091991 L98.5333983,50.9091991 L98.5333983,51.5559991 L96.9121983,51.5559991 L96.9121983,55.655199 C96.9121983,56.713599 97.1319983,57.050999 98.0867983,57.050999 L98.0867983,57.043999 Z M103.039998,50.7173991 C102.038782,50.6500998 101.057298,51.0185706 100.347734,51.7281348 C99.6381698,52.437699 99.2696989,53.4191831 99.3369983,54.4203991 C99.1850756,55.4102674 99.5135391,56.4133269 100.221539,57.1216035 C100.929539,57.8298801 101.932471,58.1587353 102.922398,58.007199 C103.906772,58.0883202 104.878285,57.7408036 105.587875,57.0537407 C106.297465,56.3666777 106.676131,55.4068772 106.626798,54.4203991 C106.740926,53.4283879 106.40432,52.4374614 105.709579,51.7202128 C105.014838,51.0029642 104.035143,50.6349471 103.039998,50.7173991 Z M102.967198,57.477999 C101.952198,57.477999 101.305398,56.566599 101.305398,54.3769991 C101.305398,52.1579991 101.952198,51.2465991 102.967198,51.2465991 C104.010198,51.2465991 104.657001,52.2013991 104.657001,54.3769991 C104.658398,56.611399 104.054998,57.477999 102.968598,57.477999 L102.967198,57.477999 Z M114.587198,57.272199 L115.203198,57.360399 L115.203198,57.799999 L112.200198,57.799999 L112.200198,57.358999 L112.802198,57.270799 L112.802198,53.3507991 C112.802198,52.2629991 112.404598,51.7785991 111.581398,51.7785991 C111.064873,51.8432567 110.573881,52.0405218 110.156198,52.3511991 L110.156198,57.274999 L110.773598,57.363199 L110.773598,57.799999 L107.745398,57.799999 L107.745398,57.358999 L108.362798,57.270799 L108.362798,51.4817991 L107.745398,51.3935991 L107.745398,50.9091991 L110.156198,50.9091991 L110.156198,51.8639991 C110.824916,51.2124517 111.707475,50.8258969 112.639798,50.7761991 C113.992198,50.7761991 114.599798,51.5699991 114.599798,53.1281991 L114.587198,57.272199 Z M115.170998,48.0811992 L117.067998,48.0811992 L117.067998,48.4941992 L116.909798,48.4941992 L116.866398,48.2771992 L116.348398,48.2771992 L116.348398,49.9781991 L116.570998,50.0145991 L116.570998,50.1545991 L115.669398,50.1545991 L115.669398,50.0145991 L115.897598,49.9781991 L115.897598,48.2799992 L115.378198,48.2799992 L115.341798,48.4969992 L115.170998,48.4969992 L115.170998,48.0811992 Z M119.642598,48.2617992 L119.642598,49.9781991 L119.834398,50.0145991 L119.834398,50.1545991 L118.999998,50.1545991 L118.999998,50.0145991 L119.195998,49.9781991 L119.195998,48.4465992 L118.439998,50.1587991 L118.360198,50.1587991 L117.633598,48.4787992 L117.633598,49.9837991 L117.825398,50.0201991 L117.825398,50.1601991 L117.226198,50.1601991 L117.226198,50.0201991 L117.412398,49.9837991 L117.412398,48.2617992 L117.226198,48.2183992 L117.226198,48.0783992 L117.962598,48.0783992 L118.540798,49.4237991 L119.139998,48.0783992 L119.839998,48.0783992 L119.839998,48.2183992 L119.642598,48.2617992 Z" fill="#23145F"></path>
            </g>
        </g>
    </g>
</svg>