<svg width="220px" height="140px" viewBox="0 0 220 140" version="1.1" xmlns="http://www.w3.org/2000/svg" xmlns:xlink="http://www.w3.org/1999/xlink">
    <g id="Page-1" stroke="none" stroke-width="1" fill="none" fill-rule="evenodd">
        <g id="Brand-Showcase-Component---Tempo" transform="translate(-1038.000000, -103.000000)">
            <g id="tempo-color" transform="translate(1038.000000, 103.000000)">
                <g id="Tempo-Logo-Final" transform="translate(33.000000, 26.000000)">
                    <path d="M116.64702,40.815936 L116.64702,26.82162 L120.755124,26.82162 C125.72532,26.82162 128.231208,29.140776 128.231208,33.823692 C128.231208,38.46528 125.72532,40.815936 120.755124,40.815936 L116.64702,40.815936 Z M133.570836,33.823692 C133.570836,28.0728 129.093804,24.827544 122.39766,24.827544 L111.471444,24.827544 L111.471444,50.895936 L116.64702,50.895936 L116.64702,42.819588 L122.39766,42.819588 C129.011652,42.819588 133.570836,39.574332 133.570836,33.823692 Z M115.577028,67.845204 L115.994592,67.897368 L115.994592,68.158188 L113.906772,68.158188 L113.906772,67.897368 L114.324336,67.845204 L114.324336,63.718704 L113.906772,63.66654 L113.906772,63.353304 L115.577028,63.353304 L115.577028,67.845204 Z M118.604052,67.845204 L119.074284,67.897368 L119.074284,68.158188 L116.933796,68.158188 L116.933796,67.897368 L117.351612,67.845204 L117.351612,61.57746 L116.933796,61.473132 L116.933796,61.211304 L118.604052,61.211304 L118.604052,67.845204 Z M115.054632,62.622 C114.63732,62.622 114.324336,62.308764 114.324336,61.83828 C114.324336,61.420968 114.63732,61.054812 115.054632,61.054812 C115.4727,61.054812 115.73352,61.420968 115.73352,61.83828 C115.73352,62.308764 115.4727,62.622 115.054632,62.622 Z M122.412528,67.68846 C122.677128,67.68846 122.885784,67.68846 123.09444,67.636296 L123.09444,67.949532 C122.46822,68.158188 121.995216,68.263272 121.577904,68.263272 C120.588048,68.263272 120.378636,67.845204 120.378636,67.00932 L120.378636,63.875448 L119.491596,63.875448 L119.491596,63.353304 L120.378636,63.353304 L120.378636,62.413344 L121.633344,62.047188 L121.633344,63.353304 L122.677128,63.353304 L122.677128,63.875448 L121.577904,63.875448 L121.577904,66.696084 C121.577904,67.479804 121.737924,67.68846 122.412528,67.68846 Z M134.051148,67.897368 L134.364132,67.897368 L134.364132,68.158188 L132.277068,68.158188 L132.277068,67.897368 L132.694632,67.845204 L132.694632,65.128644 C132.694632,64.34568 132.437088,63.979776 131.859756,63.979776 C131.602464,63.979776 131.1849,64.188432 130.920552,64.398096 L130.920552,67.897368 L131.338116,67.949532 L131.338116,68.158188 L129.251052,68.158188 L129.251052,67.897368 L129.668364,67.845204 L129.668364,63.77112 L129.251052,63.718704 L129.251052,63.353304 L130.920552,63.353304 L130.920552,64.084104 C131.442444,63.66654 131.964084,63.30114 132.645996,63.30114 C133.633836,63.30114 134.051148,63.875448 134.051148,64.972152 L134.051148,67.897368 Z M125.807472,67.949532 C125.125812,67.949532 124.659612,67.32306 124.659612,65.808036 C124.659612,64.293516 125.125812,63.66654 125.807472,63.66654 C126.537768,63.66654 127.011024,64.293516 127.011024,65.808036 C127.011024,67.32306 126.593712,67.949532 125.807472,67.949532 Z M125.9118,63.248472 C124.290936,63.248472 123.303096,64.293516 123.303096,65.808036 C123.303096,67.68846 124.290936,68.315436 125.807472,68.315436 C127.428336,68.315436 128.416176,67.32306 128.416176,65.808036 C128.416176,64.136268 127.428336,63.248472 125.9118,63.248472 Z M137.381076,61.299504 L137.849544,61.299504 L137.849544,61.376616 L137.744964,61.390728 L137.744964,62.742456 L137.849544,62.756568 L137.849544,62.835948 L137.32992,62.835948 L137.32992,62.756568 L137.441808,62.742456 L137.441808,61.530336 L136.868256,62.835948 L136.765692,62.835948 L136.23876,61.530336 L136.23876,62.742456 L136.33452,62.756568 L136.33452,62.835948 L135.987264,62.835948 L135.987264,62.756568 L136.089828,62.742456 L136.089828,61.390728 L135.987264,61.376616 L135.987264,61.299504 L136.465056,61.299504 L136.915128,62.365212 L137.381076,61.299504 Z M96.99606,22.650516 L94.419864,22.650516 L108.623592,0.104832 L110.46042,1.278144 L96.99606,22.650516 Z M41.97312,27.004824 L41.97312,36.7731 L50.576904,36.7731 L50.576904,38.95038 L41.97312,38.95038 L41.97312,48.718908 L57.294972,48.718908 L57.294972,50.895936 L36.797544,50.895936 L36.797544,24.827544 L57.294972,24.827544 L57.294972,27.004824 L41.97312,27.004824 Z M26.36676,24.827544 L26.36676,27.004824 L15.770916,27.004824 L15.770916,50.895936 L10.595844,50.895936 L10.595844,27.004824 L0,27.004824 L0,24.827544 L26.36676,24.827544 Z M134.501472,61.299504 L135.79272,61.299504 L135.79272,61.586532 L135.690408,61.586532 L135.645804,61.434828 L135.2988,61.434828 L135.2988,62.742456 L135.401112,62.756568 L135.401112,62.835948 L134.89056,62.835948 L134.89056,62.756568 L134.993124,62.742456 L134.993124,61.434828 L134.648388,61.434828 L134.604036,61.586532 L134.501472,61.586532 L134.501472,61.299504 Z M110.670588,61.420968 L112.966812,61.420968 L112.966812,61.681788 L112.445172,61.786116 L112.445172,67.740624 L112.966812,67.845204 L112.966812,68.158188 L110.670588,68.158188 L110.670588,67.845204 L111.140064,67.740624 L111.140064,65.024316 L108.216864,65.024316 L108.216864,67.740624 L108.634428,67.845204 L108.634428,68.158188 L106.390116,68.158188 L106.390116,67.845204 L106.807428,67.740624 L106.807428,61.786116 L106.390116,61.681788 L106.390116,61.420968 L108.634428,61.420968 L108.634428,61.681788 L108.216864,61.786116 L108.216864,64.34568 L111.140064,64.34568 L111.140064,61.786116 L110.670588,61.681788 L110.670588,61.420968 Z M79.706844,45.95976 L80.991036,48.002724 L63.186228,76.104 L61.351416,74.9322 L79.706844,45.95976 Z M102.149712,63.353304 L103.506732,63.353304 L103.506732,63.718704 L103.0365,63.77112 L101.105424,68.524344 C100.68786,69.621048 100.270548,70.45668 99.33084,70.45668 C99.017604,70.45668 98.861112,70.45668 98.495964,70.404516 L98.495964,69.359976 L98.808948,69.359976 L99.017604,69.777792 C99.069768,69.829956 99.22626,69.934284 99.435168,69.934284 C99.957564,69.934284 100.374876,69.0984 100.583532,68.47218 L100.68786,68.315436 L98.70462,63.77112 L98.391636,63.718704 L98.391636,63.353304 L100.531368,63.353304 L100.531368,63.718704 L100.114056,63.77112 L101.366244,66.800412 L102.567024,63.77112 L102.149712,63.718704 L102.149712,63.353304 Z M95.729256,67.845204 C95.25978,67.845204 94.946796,67.636296 94.684968,67.42764 L94.684968,64.293516 C94.946796,64.136268 95.25978,64.084104 95.5206,64.084104 C96.355476,64.084104 96.825708,64.763496 96.825708,65.8602 C96.825708,67.113648 96.40764,67.845204 95.729256,67.845204 Z M96.198984,63.30114 C95.729256,63.30114 95.25978,63.457884 94.684968,63.927612 L94.684968,61.211304 L93.014964,61.211304 L93.014964,61.473132 L93.433032,61.57746 L93.433032,67.845204 L93.014964,67.897368 L93.014964,68.158188 L94.684968,68.158188 L94.684968,67.949532 C94.894632,68.106024 95.311944,68.315436 95.885748,68.315436 C97.347348,68.315436 98.18298,67.42764 98.18298,65.755872 C98.18298,64.293516 97.347348,63.30114 96.198984,63.30114 Z M93.399768,28.332612 L82.261368,45.942372 L70.889616,27.848016 L70.889616,50.895936 L68.712588,50.895936 L68.712588,24.827544 L75.0078,24.827544 L83.995128,39.128544 L93.04092,24.827544 L98.493696,24.827544 L98.493696,50.895936 L93.399768,50.895936 L93.399768,28.332612 Z M156.24,49.581504 C150.694236,49.581504 147.72366,45.830988 147.72366,37.86174 C147.72366,29.892744 150.694236,26.142228 156.24,26.142228 C161.745444,26.142228 164.715768,29.892744 164.715768,37.86174 C164.715768,45.830988 161.745444,49.581504 156.24,49.581504 Z M156.24,24.148152 C148.239252,24.148152 142.139592,29.235276 142.139592,37.86174 C142.139592,46.488204 148.239252,51.57558 156.24,51.57558 C164.200428,51.57558 170.3394,46.488204 170.3394,37.86174 C170.3394,29.235276 164.200428,24.148152 156.24,24.148152 L156.24,24.148152 Z" id="Fill-1" fill="#1C1B1A"></path>
                </g>
            </g>
        </g>
    </g>
</svg>