<svg viewBox="0 0 220 140" width="220px" height="140px" version="1.1" xmlns="http://www.w3.org/2000/svg" xmlns:xlink="http://www.w3.org/1999/xlink">
    <g stroke="none" stroke-width="1" fill="none" fill-rule="evenodd">
        <g id="tru_logo">
            <rect id="Rectangle_27014" x="0" y="0" width="220" height="140"></rect>
            <circle id="Oval" fill="#00AEEF" fill-rule="nonzero" cx="77.5" cy="71.5" r="39.5"></circle>
            <path d="M50.6001279,83.2769642 C49.4750237,82.7414432 49.2926793,81.5995992 49.2926793,79.9389693 L49.2926793,61.2008845 L54.9544103,61.2008845 L54.9544103,58.3469182 L49.2926793,58.3469182 L49.2926793,50 L45.8824498,50 L45.8824498,58.3469182 L40.8324133,58.3469182 C40.5220397,59.2827926 40.2491696,60.2341147 40.0112166,61.2008845 L45.8824498,61.2008845 L45.8824498,80.2093044 C45.8294276,84.9491799 47.3981073,86.4476088 51.9437868,86.4553326 C52.9757789,86.4579072 54.0840711,86.3201651 54.9751019,85.7794948 L54.9751019,83.7262354 C54.4849703,83.8523917 53.9379369,83.9244811 53.3598662,83.9244811 C52.2722655,83.9244811 51.2932955,83.6760303 50.6001279,83.2769642 Z M62.0167021,64.8619942 L61.9093646,64.8619942 L61.9093646,58.3469182 L58.7720051,58.3469182 L58.7720051,86.1347924 L62.1796482,86.1347924 L62.1796482,71.3255779 C62.1796482,65.5622909 66.4020219,61.0386835 72.5706964,61.3617983 L72.5706964,57.9684491 C67.5374718,57.7547556 63.7483279,60.3924538 62.0167021,64.8619942 Z M98.9809,58.3469182 L98.9809,86.1347924 L95.8435406,86.1347924 L95.8435406,81.1245818 L95.7362031,81.1245818 C93.9476755,84.8410458 90.2684555,86.9406485 86.1003972,86.9406485 C79.0665564,86.9406485 76.3055249,82.8482899 76.3055249,76.3872809 L76.3055249,58.3469182 L79.7144612,58.3469182 L79.7144612,76.4400606 C79.8774073,81.4476966 81.7719793,84.0866822 87.182825,84.0866822 C93.029487,84.0866822 95.573257,78.5950176 95.573257,72.9398647 L95.573257,58.3469182 L98.9809,58.3469182 Z" id="Fill-2" class="inactive-gray" fill="#FFF200" fill-rule="nonzero"></path>
            <path d="M181.307567,77.3758945 L183.058591,77.3758945 L183.058591,77.7543637 L182.912457,77.7543637 L182.87366,77.5548306 L182.393874,77.5548306 L182.393874,79.1189123 L182.599497,79.1523824 L182.599497,79.2849753 L181.766661,79.2849753 L181.766661,79.1523824 L181.97875,79.1189123 L181.97875,77.5548306 L181.497671,77.5548306 L181.464047,77.7543637 L181.307567,77.7543637 L181.307567,77.3758945 Z M185.436828,77.5406702 L185.436828,79.1189123 L185.614,79.1523824 L185.614,79.2849753 L184.840653,79.2849753 L184.840653,79.1523824 L185.021704,79.1189123 L185.021704,77.7105951 L184.316897,79.2849753 L184.243183,79.2849753 L183.573294,77.7363413 L183.573294,79.1189123 L183.750465,79.1523824 L183.750465,79.2849753 L183.196966,79.2849753 L183.196966,79.1523824 L183.367671,79.1189123 L183.367671,77.5406702 L183.196966,77.5020509 L183.196966,77.3758945 L183.875908,77.3758945 L184.410009,78.6117122 L184.963509,77.3758945 L185.614,77.3758945 L185.614,77.5020509 L185.436828,77.5406702 Z M180.767,85.8257975 L181.336018,85.9056108 L181.336018,86.3124007 L178.554295,86.3124007 L178.554295,85.9056108 L179.110381,85.8257975 L179.110381,82.2174675 C179.110381,81.2172276 178.744399,80.7718184 177.983983,80.7718184 C177.630933,80.7718184 177.074847,81.01512 176.666189,81.2983282 L176.666189,85.8257975 L177.237794,85.9056108 L177.237794,86.3124007 L174.439259,86.3124007 L174.439259,85.9056108 L175.010863,85.8257975 L175.010863,80.500196 L174.439259,80.4203827 L174.439259,79.9736862 L176.666189,79.9736862 L176.666189,80.8529189 C177.359356,80.2980883 178.024073,79.8513917 178.96166,79.8513917 C180.20962,79.8513917 180.767,80.5825838 180.767,82.0140725 L180.767,85.8257975 Z M170.026781,86.0137448 C169.090488,86.0137448 168.493018,85.1769933 168.493018,83.1636404 C168.493018,81.123254 169.090488,80.2839279 170.026781,80.2839279 C170.990232,80.2839279 171.587701,81.1631606 171.587701,83.1636404 C171.587701,85.2168999 171.031615,86.0137448 170.026781,86.0137448 Z M170.094029,79.798612 C168.00418,79.798612 166.673453,81.1631606 166.673453,83.203547 C166.673453,85.636563 167.96409,86.5016353 169.985398,86.5016353 C172.07654,86.5016353 173.407266,85.1769933 173.407266,83.203547 C173.407266,81.0279931 172.158013,79.798612 170.094029,79.798612 Z M165.518605,85.6236899 C165.844497,85.6236899 166.1303,85.6236899 166.401877,85.5554624 L166.401877,85.9879986 C165.600078,86.2724941 164.921136,86.3935013 164.352118,86.3935013 C163.074413,86.3935013 162.776972,85.8116371 162.776972,84.7045505 L162.776972,80.5684234 L161.609191,80.5684234 L161.609191,79.9736862 L162.817062,79.9736862 L162.817062,78.6503315 L164.432298,78.1637283 L164.432298,79.9736862 L165.92597,79.9736862 L165.92597,80.5684234 L164.432298,80.5684234 L164.432298,84.3402418 C164.432298,85.3134481 164.635334,85.6236899 165.518605,85.6236899 Z M160.480208,85.8257975 L161.051812,85.9056108 L161.051812,86.3124007 L158.268796,86.3124007 L158.268796,85.9056108 L158.824882,85.8257975 L158.824882,77.6230581 L158.268796,77.5406702 L158.268796,77.1364549 L160.480208,77.1364549 L160.480208,85.8257975 Z M154.765454,78.0144003 C154.765454,77.4466966 155.158594,77 155.728906,77 C156.284992,77 156.692357,77.4466966 156.692357,77.9732064 C156.692357,78.5679436 156.284992,79.0146402 155.728906,79.0146402 C155.158594,79.0146402 154.765454,78.6091375 154.765454,78.0144003 Z M156.489321,85.8257975 L157.059632,85.9056108 L157.059632,86.3124007 L154.276616,86.3124007 L154.276616,85.9056108 L154.845634,85.8257975 L154.845634,80.4602893 L154.276616,80.3791888 L154.276616,79.9736862 L156.489321,79.9736862 L156.489321,85.8257975 Z M149.943025,77.40679 L152.970461,77.40679 L152.970461,77.8534865 L152.360059,77.9332998 L152.360059,85.7717305 L152.970461,85.852831 L152.970461,86.3124007 L149.943025,86.3124007 L149.943025,85.852831 L150.59481,85.7717305 L150.59481,82.2033071 L146.725486,82.2033071 L146.725486,85.7717305 L147.322955,85.852831 L147.322955,86.3124007 L144.349835,86.3124007 L144.349835,85.852831 L144.947304,85.7717305 L144.947304,77.9332998 L144.349835,77.8534865 L144.349835,77.40679 L147.322955,77.40679 L147.322955,77.8534865 L146.725486,77.9332998 L146.725486,81.2854551 L150.59481,81.2854551 L150.59481,77.9332998 L149.943025,77.8534865 L149.943025,77.40679 Z M139.392911,79.9736862 L141.239633,79.9736862 L141.239633,80.4203827 L140.722344,80.5143564 L138.157882,86.7050303 C137.573346,88.1236459 137.043124,89.29896 135.835254,89.29896 C135.346415,89.29896 135.156311,89.2577661 134.763172,89.1766655 L134.763172,87.7850834 L135.129154,87.7850834 L135.373573,88.339914 C135.496429,88.4480481 135.686533,88.5008278 135.903794,88.5008278 C136.662916,88.5008278 137.16598,87.3667076 137.477647,86.6226424 L137.546188,86.4604414 L134.953275,80.5285168 L134.451505,80.4203827 L134.451505,79.9736862 L137.288836,79.9736862 L137.288836,80.4332558 L136.731457,80.5413899 L138.401008,84.4342154 L139.961929,80.5143564 L139.392911,80.4203827 L139.392911,79.9736862 Z M131.122748,85.8657041 C130.485189,85.8657041 130.063599,85.5824959 129.711842,85.3250339 L129.711842,81.2442612 C130.117914,81.0550266 130.512347,80.9327321 130.838239,80.9327321 C131.923254,80.9327321 132.575038,81.8660319 132.575038,83.3387146 C132.575038,84.9066582 132.031884,85.8657041 131.122748,85.8657041 Z M131.760307,79.8513917 C131.082658,79.8513917 130.443806,80.0959806 129.711842,80.7035909 L129.711842,77.1364549 L127.499137,77.1364549 L127.499137,77.5406702 L128.05393,77.6230581 L128.05393,85.8257975 L127.499137,85.9056108 L127.499137,86.3124007 L129.711842,86.3124007 L129.711842,85.9738382 C130.063599,86.2042667 130.552437,86.4346952 131.312852,86.4346952 C133.241048,86.4346952 134.341581,85.1911537 134.341581,83.0284728 C134.341581,81.1361271 133.255273,79.8513917 131.760307,79.8513917 Z" id="Fill-3" fill="#00AEEF" fill-rule="nonzero"></path>
        </g>
    </g>
</svg>