<svg xmlns="http://www.w3.org/2000/svg" viewBox="0 0 220 140" width="220px" height="140px">
  <g id="waldorf_logo" transform="translate(-9226 -1699)">
    <rect id="Rectangle_27001" data-name="Rectangle 27001" fill="none" transform="translate(9226 1699)"/>
    <g id="wa_logo" transform="translate(9256 1733.732)">
      <g id="Waldorf_Web_Style_Standards" transform="translate(0 0.267)">
        <g id="Group-6" transform="translate(0 0)">
          <g id="Page-1-Copy" transform="translate(0 0)">
            <path id="Fill-1" fill="#231f20" fill-rule="evenodd" d="M151.584,45.652H151.3v.521h.257a.265.265,0,0,0,.293-.277A.262.262,0,0,0,151.584,45.652Zm.341,1.382L151.3,46.3v.733h-.233V45.429h.535a.468.468,0,0,1,.489.474.461.461,0,0,1-.451.459l.588.672Zm-.381-1.945a1.18,1.18,0,1,0,1.177,1.183A1.179,1.179,0,0,0,151.544,45.089Zm0,2.557a1.38,1.38,0,1,1,1.37-1.382A1.378,1.378,0,0,1,151.544,47.646Z" transform="translate(6.581 1.688)"/>
            <path id="Fill-3" fill="#231f20" fill-rule="evenodd" d="M148.835,47.588l2.676,6.707H146.14Zm-5.418,10.176h1.308l.968-2.374h6.267l.983,2.374h1.311l-5.419-13Zm-3.456,0h1.191V45.11h-1.191Zm-4.613-9.137a2.643,2.643,0,0,1-2.882,2.755h-2.125c.209.21,5.455,6.313,5.506,6.382h1.5c-.278-.312-4.851-5.565-4.851-5.565h.656a3.522,3.522,0,0,0,3.468-3.487,3.572,3.572,0,0,0-3.8-3.6h-3.974V57.764h1.2V46.216h2.468A2.607,2.607,0,0,1,135.348,48.627Zm-10.384,2.738a5.138,5.138,0,0,1-5.178,5.463,5.33,5.33,0,0,1-5.215-5.41,5.008,5.008,0,0,1,5.147-5.34A5.092,5.092,0,0,1,124.964,51.365Zm1.277.089a6.474,6.474,0,1,0-6.455,6.538A6.419,6.419,0,0,0,126.24,51.454Zm-13.878-5.238V45.109h-6.593v1.106h2.692V57.764h1.208V46.216ZM100.333,57.974a3.248,3.248,0,0,0,3.3-3.383c0-1.683-1.036-2.757-2.727-3.762-1.415-.83-2.382-1.335-2.382-2.843a1.835,1.835,0,0,1,1.813-1.977,3.279,3.279,0,0,1,2.261.971l.74-.884a4.17,4.17,0,0,0-3.019-1.2,2.961,2.961,0,0,0-3.02,3.136c0,1.824,1.19,2.794,2.9,3.8,1.485.867,2.2,1.492,2.2,2.827a1.972,1.972,0,0,1-2.021,2.184,3.527,3.527,0,0,1-2.552-1.039l-.726.866A4.42,4.42,0,0,0,100.333,57.974ZM90.25,47.588l2.675,6.707H87.558ZM84.83,57.764h1.31l.968-2.374h6.268l.982,2.374H95.67l-5.421-13Z" transform="translate(3.718 1.682)"/>
            <path id="Fill-5" fill="#231f20" fill-rule="evenodd" d="M83.061,46.031V44.922H76.308V57.578H77.5V52.066h4.264V50.954H77.5V46.031ZM71.7,48.443A2.645,2.645,0,0,1,68.812,51.2H66.688c.207.206,5.455,6.311,5.5,6.38h1.5c-.275-.312-4.85-5.566-4.85-5.566H69.5a3.521,3.521,0,0,0,3.469-3.485,3.573,3.573,0,0,0-3.8-3.605H65.2V57.58H66.4V46.035h2.468A2.606,2.606,0,0,1,71.7,48.443ZM61.251,51.18a5.138,5.138,0,0,1-5.18,5.462,5.325,5.325,0,0,1-5.211-5.409A5,5,0,0,1,56,45.9,5.093,5.093,0,0,1,61.251,51.18Zm1.278.091a6.473,6.473,0,1,0-6.458,6.534A6.418,6.418,0,0,0,62.529,51.272ZM41.092,46a5,5,0,0,1,5.264,5.181,5.116,5.116,0,0,1-5.418,5.325h-1.97V46Zm-.17,11.581c3.95,0,6.695-2.6,6.695-6.415,0-3.778-2.71-6.241-6.629-6.241H37.78V57.58Zm-5.476,0V56.471H30.355V44.924H29.163V57.58ZM21.532,47.4l2.675,6.706H18.841ZM16.114,57.58h1.312l.966-2.376h6.267l.982,2.376h1.312l-5.421-13Zm-11.042.345,3.315-8.042L11.7,57.926l5.075-13H15.464L11.646,54.947,8.369,47.092,5.16,54.981,1.308,44.924H0Z" transform="translate(0 1.674)"/>
            <g id="Group-9" transform="translate(54.401)">
              <path id="Fill-7" fill="#231f20" fill-rule="evenodd" d="M18.186,28.15l-.53,1.11L4.545.76H5.557ZM17.111.76h1.015L30.752,28.15l-.531,1.11Zm13.878,2.8.528-1.126L45.552,32.941H44.536ZM7.725.223H.363V.76H1.675L16.986,33.384l6.348-13.258,6.218,13.258,6.326-13.214,5.794,12.771h-1.08v.533h7.36v-.533H46.64L31.316.292l-5.631,11.99.6,1.293,3.359-7.15,4.122,9.092H27.177l.445.959H34.2l.411.908H28.042l.44.95h6.562l.2.435L31.207,27.2,19.215.76h1.2V.223H13.055V.76h1.31l8.3,18.021L18.638,27.2,6.648.76H7.725ZM38.261,12.572,43.819.76H40.583V.223h7.356V.76H45.015L38.87,13.866Z" transform="translate(-0.363 -0.223)"/>
            </g>
            <path id="Fill-10" fill="#231f20" fill-rule="evenodd" d="M44.506,69.934V63.581H43.9v2.827H40.511V63.581h-.6v6.352h.6V66.976H43.9v2.958Z" transform="translate(1.749 2.507)"/>
            <path id="Fill-12" fill="#231f20" fill-rule="evenodd" d="M51.609,66.727a2.557,2.557,0,0,0-2.635-2.653,2.513,2.513,0,0,0-2.584,2.679,2.674,2.674,0,0,0,2.617,2.717,2.58,2.58,0,0,0,2.6-2.742m.642.042a3.251,3.251,0,1,1-6.5-.017,3.251,3.251,0,1,1,6.5.017" transform="translate(2.005 2.502)"/>
            <path id="Fill-14" fill="#231f20" fill-rule="evenodd" d="M55.86,64.136v-.555h-3.31v.555H53.9v5.8h.606v-5.8Z" transform="translate(2.303 2.507)"/>
            <path id="Fill-16" fill="#231f20" fill-rule="evenodd" d="M60.411,69.934v-.555H57.5V67.148h2.659v-.556H57.5V64.136h2.745v-.555H56.9v6.352Z" transform="translate(2.494 2.507)"/>
            <path id="Fill-18" fill="#231f20" fill-rule="evenodd" d="M64.9,69.934v-.555H62.348v-5.8h-.6v6.352Z" transform="translate(2.706 2.507)"/>
            <path id="Fill-20" fill="#231f20" fill-rule="evenodd" d="M67.2,70.044a1.63,1.63,0,0,0,1.655-1.7c0-.847-.52-1.384-1.37-1.89-.712-.418-1.2-.672-1.2-1.429a.922.922,0,0,1,.91-.993,1.639,1.639,0,0,1,1.134.488l.374-.442a2.1,2.1,0,0,0-1.518-.6,1.489,1.489,0,0,0-1.518,1.576c0,.914.6,1.4,1.457,1.907.744.434,1.1.749,1.1,1.419a.99.99,0,0,1-1.013,1.1,1.786,1.786,0,0,1-1.285-.521l-.362.431a2.218,2.218,0,0,0,1.63.655" transform="translate(2.874 2.503)"/>
            <path id="Fill-22" fill="#231f20" fill-rule="evenodd" d="M73.472,66.849a1.983,1.983,0,0,0-1,1.488,1.141,1.141,0,0,0,1.144,1.169,2.42,2.42,0,0,0,1.6-.654ZM73.663,64a.821.821,0,0,0-.841.826,1.278,1.278,0,0,0,.416.914l.34.385c.394-.281.916-.725.916-1.264A.794.794,0,0,0,73.663,64Zm2.478,5.937-.6-.678a2.962,2.962,0,0,1-1.926.782,1.689,1.689,0,0,1-1.748-1.654,2.507,2.507,0,0,1,1.256-1.951l-.381-.434a1.805,1.805,0,0,1-.52-1.158,1.416,1.416,0,0,1,1.431-1.367,1.343,1.343,0,0,1,1.42,1.358,2.307,2.307,0,0,1-1.163,1.681l1.717,1.94a5.443,5.443,0,0,0,.564-.66l.407.381a7.52,7.52,0,0,1-.623.7l.936,1.061Z" transform="translate(3.15 2.503)"/>
            <path id="Fill-24" fill="#231f20" fill-rule="evenodd" d="M83.085,65.348a1.328,1.328,0,0,1-1.448,1.383H80.57c.105.106,2.739,3.167,2.766,3.205h.754c-.137-.159-2.436-2.8-2.436-2.8h.331a1.767,1.767,0,0,0,1.741-1.75,1.793,1.793,0,0,0-1.907-1.812H79.823v6.358h.6v-5.8h1.24a1.308,1.308,0,0,1,1.423,1.211" transform="translate(3.498 2.507)"/>
            <path id="Fill-26" fill="#231f20" fill-rule="evenodd" d="M88.607,69.934v-.555H85.7V67.148h2.66v-.556H85.7V64.136h2.749v-.555H85.094v6.352Z" transform="translate(3.729 2.507)"/>
            <path id="Fill-28" fill="#231f20" fill-rule="evenodd" d="M91.168,70.044a1.63,1.63,0,0,0,1.658-1.7c0-.847-.519-1.384-1.372-1.89-.71-.418-1.2-.672-1.2-1.429a.924.924,0,0,1,.91-.993,1.644,1.644,0,0,1,1.138.488l.372-.442a2.1,2.1,0,0,0-1.517-.6,1.489,1.489,0,0,0-1.518,1.576c0,.914.6,1.4,1.457,1.907.743.434,1.1.749,1.1,1.419a.987.987,0,0,1-1.011,1.1,1.775,1.775,0,0,1-1.282-.521l-.365.431a2.219,2.219,0,0,0,1.627.655" transform="translate(3.924 2.503)"/>
            <path id="Fill-30" fill="#231f20" fill-rule="evenodd" d="M99.458,66.727a2.555,2.555,0,0,0-2.634-2.653,2.51,2.51,0,0,0-2.581,2.679,2.673,2.673,0,0,0,2.615,2.717,2.579,2.579,0,0,0,2.6-2.742m.643.042a3.251,3.251,0,1,1-6.5-.017,3.251,3.251,0,1,1,6.5.017" transform="translate(4.102 2.502)"/>
            <path id="Fill-32" fill="#231f20" fill-rule="evenodd" d="M104.524,65.348a1.329,1.329,0,0,1-1.449,1.383h-1.066c.107.106,2.739,3.167,2.764,3.205h.754l-2.434-2.8h.328a1.77,1.77,0,0,0,1.743-1.75,1.794,1.794,0,0,0-1.907-1.812h-2v6.358h.6v-5.8h1.24a1.31,1.31,0,0,1,1.423,1.211" transform="translate(4.438 2.507)"/>
            <path id="Fill-34" fill="#231f20" fill-rule="evenodd" d="M109.108,64.136v-.555H105.8v.555h1.354v5.8h.606v-5.8Z" transform="translate(4.637 2.507)"/>
            <path id="Fill-36" fill="#231f20" fill-rule="evenodd" d="M111.37,70.044a1.631,1.631,0,0,0,1.656-1.7c0-.847-.52-1.384-1.369-1.89-.714-.418-1.2-.672-1.2-1.429a.924.924,0,0,1,.912-.993,1.645,1.645,0,0,1,1.136.488l.373-.442a2.1,2.1,0,0,0-1.515-.6,1.487,1.487,0,0,0-1.518,1.576c0,.914.6,1.4,1.456,1.907.746.434,1.1.749,1.1,1.419a.988.988,0,0,1-1.012,1.1,1.787,1.787,0,0,1-1.283-.521l-.364.431a2.218,2.218,0,0,0,1.63.655" transform="translate(4.809 2.503)"/>
          </g>
        </g>
      </g>
    </g>
  </g>
</svg>
