<svg xmlns="http://www.w3.org/2000/svg" xmlns:xlink="http://www.w3.org/1999/xlink" preserveAspectRatio="none" width="286" height="60"><defs><path fill="#20285d" stroke="none" d="M68.05 13.65q2.45 2.45 2.45 5.85 0 3.4-2.45 5.9-2.45 2.45-5.95 2.45-3.45 0-5.6-2.05-2.15-2.05-2.3-5.95l-9.15 8q-2.1 2.35-2.1 4.2L43.2 60l8.2-7.25q2.95-2.5 3.55-3.7.65-1.25.65-3.6v-4.5q.05-.3.05-.7.05-.35.2-.7.2-.2.35-.45l.6-.4.85-.1 1.25.15q4 1.05 8.45-.2 4.45-1.2 8.1-4.5 4.7-4.35 5.8-10.15 1.15-5.8-1.45-11.75Q77.45 6.1 72.85 3q-4.6-3.1-10.9-3Q55.6-.2 50.6 3.9L25.25 25.95q-2.9 2.6-7.35 1.75h-.5q-1.15-.35-1.4-.8 2.1 0 4.45-1.65L37 10.45 34.3 6.8Q28.8.7 20.75.2q-8.05-.55-14 4.85-6.2 5.65-6.7 14.1-.45 8.45 5.05 14.8 5.05 5.75 12.95 6.55 7.9.8 13.05-3.65L40.15 29l17.1-15.9q2.35-1.95 4.8-1.95 3.55 0 6 2.5m-45.7-.8l-.95 1.05-9.6 8.8-.25-1.3q-.45-3.75 1.4-7.05 1.55-2.35 5.15-3.2.7-.15 1.2-.25h1.75q.7 0 1.3.35 1.05.65.35 1.35l-.35.25M98.9 0h-4.55Q91.5 0 90.7.35q-2.95.85-3.8 2.7-.9 1.9-.75 4.7v30.5H98.9V0m36.85 6.35q-.25-.35-.5-.6Q129.75.5 122.05.7q-7.65.25-12.95 5.9-5.5 5.65-5.4 13.7.15 8 5.65 13.65 5.15 5 12.35 5.2 7.2.2 12.6-4.3h.25l6.45-6.4V13.2l-13.5 11.7q-2.1 1.75-4.4 1.95-2.3.15-4.4-1.45l-.45-.35q-.15-.15-.35-.25-1.4-1.65-1.85-3.7-.4-2.05.3-3.8.7-2.1 2.15-3.15 2.45-2 5.5-1.85 3.05.2 4.8 2.55l1.85 2.35 8-7.2-2.9-3.65m44.05-1.4q-3.3-2.8-9.15-2.8h-13.6V36.3h8.9V25.05H171q12.15 0 12.15-11.6 0-5.7-3.35-8.5m-9.95 4.35l1.95.5q1.05.4 1.5 1.35.5 1 .5 2.5 0 1.55-.55 2.4-.5.9-1.65 1.25l-1.9.4-3.75.05v-8.6h1.4q1.65 0 2.5.15m36.3 27.1h9.5l-12.9-34.25h-9.85L179.75 36.4h9.5l2.35-6h12.3l2.25 6m-8.2-23.7l3.6 10.9h-7.35l3.75-10.9m38.4-1.8l3.45-7Q234.85.95 229.1.95q-5.25 0-8.55 3.25-3.3 3.2-3.3 8.4 0 4.45 2.2 6.35 2.15 1.85 7.05 3.25.4.1.9.25l2 .75 1 .55.75.65.6.8q.15.4.15 1 0 1.65-1.25 2.5-1.3.9-3.05.9-3.75 0-7.85-3.4L216 33.25q5.35 3.95 11.95 3.95 5.95 0 9.8-3.15 3.45-2.8 3.45-9.15 0-3.85-2.15-5.95-2.2-2.1-6.2-3.4l-2.2-.6q-4-1.15-4-3.35 0-1.25 1.2-2.1 1.25-.8 2.65-.8 3.4 0 5.85 2.2m27.15 0l3.5-7Q262.1.95 256.2.95q-5.15 0-8.45 3.25-3.35 3.2-3.35 8.4 0 4.45 2.2 6.35 2.25 1.85 7.15 3.25.35.1.85.25l2.05.75 1 .55.75.65.6.8q.15.4.15 1 0 1.65-1.3 2.5-1.3.9-3.05.9-3.85 0-7.85-3.4l-3.75 7.05q5.4 3.95 11.95 3.95 6 0 9.75-3.15 3.5-2.8 3.5-9.15 0-3.85-2.15-5.95-2.2-2.1-6.15-3.4l-2.25-.6q-3.95-1.15-3.95-3.35 0-1.25 1.2-2.1 1.25-.8 2.55-.8 3.4 0 5.85 2.2m10.3-7.85h2.25V1.4h-6.45v1.65h2.35v6.1h1.85v-6.1m12.2 6.1V1.4h-2.7l-1.75 4.7-1.75-4.7h-2.7v7.75h1.75v-6.1l2.2 6.1h.95l2.25-6.1v6.1H286z" id="A"/></defs><use xlink:href="#A"/></svg>