<svg xmlns="http://www.w3.org/2000/svg" xmlns:xlink="http://www.w3.org/1999/xlink" preserveAspectRatio="none" width="300" height="130"><defs><path id="A" stroke="#20285d" stroke-width="2.5" stroke-linejoin="miter" stroke-miterlimit="10" fill="none" d="M231.2 73.6q5.3 5.25 12.05 8.05 6.45 2.7 13.6 2.85 7 .15 13.85-2.15 6.9-2.3 12.75-6.85l.2-.1q.05-.05.15-.15.15-.15.3-.3 1.15-.75 2.55-2.1.75-.65 1.05-.95.5-.45.6-.6l8.7-9.15v-31.4L271.5 53q-1 1-2.25 2-2.1 1.7-4.45 2.75-2.4.95-4.8 1.15-2.5.2-4.8-.5-2.45-.8-4.5-2.45-.85-.65-1.6-1.4-1.45-1.55-2.45-3.45-.95-1.95-1.4-3.95-.4-2.05-.25-4.05.2-2.1 1-3.95.65-1.95 1.8-3.7 1.2-1.65 2.75-3 2.35-1.95 5.35-3 2.85-.95 5.85-.8 3.05.1 5.65 1.45 2.75 1.25 4.6 3.55l3.95 4.85 16.5-14.7q-2.8-3.95-4.85-6.3-1-1.25-2.2-2.35-5.85-5.45-13.15-8.1-7.05-2.6-14.6-2.35-7.55.25-14.45 3.3-7.15 3.2-12.65 8.9-5.55 5.8-8.45 13.35-2.75 7.25-2.65 15.05.1 7.9 3 15.1 3.05 7.45 8.75 13.2zM92.9 127.95q0 .1 17.25-15.2 3.4-2.8 5.05-4.6 1.85-1.8 2.7-3.35.8-1.4 1-3.2.2-1.35.15-4.1 0-.6 0-1.35 0-.65 0-1.25v-5q0-2.1.05-2.8.15-1.5.7-2.35.7-1.1 2.05-1.4 1.55-.3 4.1.35 3.9 1.05 8.3.95 4.45-.1 8.9-1.35 4.65-1.3 8.9-3.65 4.45-2.4 8.2-5.95 4.85-4.5 7.9-9.9 3-5.25 4.2-11.2 1.2-5.85.5-12.05-.75-6.25-3.3-12.5-2.5-6.1-6.25-10.8-3.65-4.75-8.4-8-4.75-3.15-10.5-4.75-5.75-1.65-12.25-1.5-6.85.1-12.9 2.2-5.9 2.1-10.7 6.1l-.15.05q-.9.85-5.2 4.5-5.95 5.2-9 7.9-17.65 15.4-38.45 33.45-3.15 2.6-7.35 3.5-4.1.8-8.25 0-.25-.05-.65-.1-.1-.05-.2-.05-1.75-.45-2.8-1.85 2.1.05 4.75-1.05Q43.4 56.7 45.7 55q4.05-3.45 34.45-30.5-1.85-2.85-2.8-4.15-1.55-2.15-2.75-3.4-5.75-6.15-13.25-9.65Q54.1 4 46.2 3.6q-8-.5-15.45 2.1-7.75 2.7-14 8.3-6.3 5.65-9.9 13.3-3.4 7.4-3.8 15.75-.45 8.25 2.2 16.05Q8 67.15 13.6 73.6q5.2 5.9 12.45 9.5 6.9 3.4 14.6 4.25 7.65.8 14.7-1.15 7.35-1.9 12.7-6.5Q73 75.35 80.2 69.25q1.25-1.35 3.4-3.2.9-.8 3.15-2.75.35-.3.75-.65 6.75-6.35 35.1-32.55 2.2-1.85 4.9-2.9 2.7-1 5.45-1.05 3.6-.05 6.8 1.3 3.15 1.3 5.6 3.8 2.45 2.4 3.8 5.6 1.4 3.2 1.4 6.75 0 3.55-1.4 6.8-1.35 3.05-3.8 5.55-2.4 2.4-5.6 3.7-3.2 1.35-6.8 1.35Q126 61 122 57.35q-4.05-3.6-5.2-10.65-6.15 5.35-10.6 9.25-6.5 5.65-8.5 7.65-2.3 2.35-3.4 4.85-.85 1.95-1 3.75l-.4 47 .05-.05-.05 8.8zM192.35 3.9q-6.05 1.65-8.2 6.15-.95 1.9-1.25 4.4-.25 1.9-.2 4.8 0 1.05 0 5.25v58.25h26.55V3.35l-9.5-.1-.05.1q-5.7 0-7.35.55zM27.2 47.6q-.65-5.15.3-8.75.4-1.55 1.2-3.15.55-1.2 1.55-2.75 1.55-2.45 4.7-4.3 2.8-1.65 5.95-2.15.4-.05 1.2-.15 1-.15 1.25-.15.6 0 1.75 0 1 0 1.9.15 1.75.2 2.8.7.05.05.15.05v.05q.95.6 1.1 1.35.2.7-.55 1.5-.05.05-.55.55-1.1 1.05-2.1 1.9L27.95 50.9l-.75-3.3z"/></defs><use xlink:href="#A"/></svg>