<?xml version="1.0" encoding="utf-8"?>
<!-- Generator: Adobe Illustrator 22.1.0, SVG Export Plug-In . SVG Version: 6.00 Build 0)  -->
<svg version="1.1" id="Layer_1" xmlns="http://www.w3.org/2000/svg" xmlns:xlink="http://www.w3.org/1999/xlink" x="0px" y="0px"
	 viewBox="0 0 295.9 108.1" style="enable-background:new 0 0 295.9 108.1;" xml:space="preserve">
<style type="text/css">
	.st0{fill:#55565A;}
	.st1{fill:#E76727;}
</style>
<g>
	<g>
		<path class="st0" d="M201.6,14.4c3.9,0,7.7,2.1,9.7,4.9c0.1,0.1,0.1,0.1,0.2,0.2c0.1,0.1,0.2,0.2,0.2,0.3l0,0
			c1.4,1.7,3.5,2.8,5.9,2.8c4.2,0,7.6-3.4,7.6-7.6c0-2-0.7-3.7-2-5.1C218.1,3.7,211.9,0,201.6,0c-16.3,0-28.5,11.2-28.5,27
			c0,16,12.2,27.3,28.5,27.3c10.4,0,16.5-3.7,21.6-9.4h0c1.2-1.3,1.9-3,1.9-4.9c0-4.1-3.3-7.4-7.4-7.4c-2.2,0-4.2,1-5.6,2.6
			c-2.4,2.4-5.2,4.9-10.5,4.9c-7.5,0-11.6-5.4-11.6-13C190,19.7,194.2,14.4,201.6,14.4 M259.5,20.6c-7.1-1.6-10.4-2-10.4-4.9
			c0-2.1,1.8-3.1,5.6-3.1c3.9,0,7.6,1.8,10,3.9l0,0c1.2,1.1,2.7,1.8,4.4,1.8c3.6,0,6.5-2.9,6.5-6.5c0-1.9-0.8-3.6-2.2-4.8
			C269.2,2.8,263.1,0,254.6,0c-11.1,0-20.2,4.8-20.2,16.5c0,10.9,7.9,14.8,15,16.6c8.4,2.2,11.7,2.2,11.7,5c0,2.2-1.7,3.2-7.1,3.2
			c-4.2,0-8.1-1.5-11.4-4.1l0.2,0.1c0,0,0,0,0,0c-2.6-2.4-6.7-2.3-9.2,0.3c-2,2.1-2.3,5.2-1,7.6c0,0.1,0.1,0.2,0.1,0.3
			c0.1,0.2,0.2,0.4,0.4,0.6c0.1,0.1,0.2,0.3,0.3,0.4c0.1,0.1,0.2,0.3,0.4,0.4c0.1,0.1,0.2,0.2,0.3,0.3c4.5,4.1,11.1,7.1,21,7.1
			c16.4,0,21.4-7.8,21.4-17.4C276.6,25.9,267.1,22.4,259.5,20.6 M28.5,14.4c3.9,0,7.7,2.1,9.7,4.9c0,0.1,0.1,0.1,0.2,0.2
			c0.1,0.1,0.2,0.2,0.3,0.3l0,0c1.4,1.7,3.5,2.8,5.9,2.8c4.2,0,7.6-3.4,7.6-7.6c0-2-0.8-3.7-2-5.1C44.9,3.7,38.7,0,28.5,0
			C12.2,0,0,11.2,0,27c0,16,12.2,27.3,28.5,27.3c10.4,0,16.5-3.7,21.6-9.4h0c1.2-1.3,1.9-3,1.9-4.9c0-4.1-3.3-7.4-7.4-7.4
			c-2.2,0-4.2,1-5.6,2.6c-2.4,2.4-5.2,4.9-10.5,4.9c-7.5,0-11.6-5.4-11.6-13C16.9,19.7,21,14.4,28.5,14.4 M135.8,40.3
			c-7.3,0-11.9-5.4-11.9-13.1c0-7.8,4.5-13.1,11.9-13.1c7.3,0,11.7,5.3,11.7,13.1C147.5,35,143.1,40.3,135.8,40.3 M135.8,0
			C119.6,0,107,11.4,107,27.2c0,15.8,12.6,27,28.7,27c16.1,0,28.6-11.2,28.6-27C164.4,11.4,151.9,0,135.8,0 M98.9,3.3
			C96.3,2,94.5,1.7,90.7,2c-6.8,0.6-12.1,5.3-13.1,6.5v0.3c0-0.1,0-0.2,0-0.3h0v0c-0.3-4.4-4-7.8-8.4-7.8c-4.6,0-8.3,3.7-8.4,8.2
			v36.9c0.1,4.5,3.9,8.2,8.4,8.2c4.6,0,8.4-3.7,8.5-8.3v-10c0-13.7,7.9-17.1,12.3-17.2c1.2,0,4.2,1.1,6.5,0.7
			c4.6-0.8,7.6-5.2,6.8-9.8C102.9,6.7,101.1,4.5,98.9,3.3"/>
		<path class="st1" d="M21.9,94.6l-5.7-13.2l-5.7,13.2H21.9z M0.5,103.9l12.2-27.1c0.7-1.4,1.8-2.3,3.4-2.3h0.3
			c1.6,0,2.8,0.9,3.4,2.3L32,103.9c0.2,0.4,0.3,0.8,0.3,1.2c0,1.5-1.2,2.7-2.7,2.7c-1.4,0-2.2-0.8-2.8-2l-2.7-6.1H8.3L5.5,106
			c-0.5,1.1-1.4,1.8-2.6,1.8c-1.5,0-2.7-1.2-2.7-2.7C0.2,104.7,0.4,104.3,0.5,103.9"/>
		<path class="st1" d="M50.6,80.3h-8c-1.4,0-2.6-1.2-2.6-2.7c0-1.4,1.2-2.7,2.6-2.7h21.7c1.4,0,2.6,1.2,2.6,2.7
			c0,1.4-1.2,2.7-2.6,2.7h-8V105c0,1.6-1.3,2.8-2.9,2.8c-1.6,0-2.9-1.3-2.9-2.8V80.3z"/>
		<path class="st1" d="M101,78.6c-0.1-0.3-0.2-0.7-0.2-1.1c0-1.6,1.4-2.8,3-2.8c1.4,0,2.4,0.9,2.8,2.1l7.5,22.5l7.3-22.4
			c0.5-1.4,1.4-2.3,2.9-2.3h0.4c1.5,0,2.5,0.9,2.9,2.3l7.3,22.4l7.5-22.5c0.4-1.2,1.4-2,2.8-2c1.5,0,2.8,1.2,2.8,2.8
			c0,0.4-0.1,0.8-0.2,1.2l-9.7,27c-0.5,1.4-1.6,2.4-3,2.4h-0.6c-1.4,0-2.4-0.9-2.9-2.4l-7.3-21.3l-7.3,21.3
			c-0.5,1.5-1.5,2.4-2.9,2.4h-0.6c-1.4,0-2.5-0.9-3-2.4L101,78.6z"/>
		<path class="st1" d="M187.4,91.4L187.4,91.4c0-6.4-4.6-11.7-11.1-11.7c-6.5,0-11,5.2-11,11.5v0.1c0,6.3,4.6,11.6,11.1,11.6
			C182.9,102.9,187.4,97.7,187.4,91.4 M159.3,91.4L159.3,91.4c0-9.3,7.1-17,17.1-17c10,0,17,7.6,17,16.8v0.1
			c0,9.2-7.1,16.9-17.1,16.9C166.3,108.1,159.3,100.5,159.3,91.4"/>
		<path class="st1" d="M222.4,91.1c4.1,0,6.7-2.1,6.7-5.5v-0.1c0-3.5-2.5-5.4-6.8-5.4H214v11H222.4z M208.3,77.8
			c0-1.6,1.3-2.9,2.9-2.9h11.7c4.1,0,7.3,1.2,9.4,3.3c1.7,1.8,2.7,4.2,2.7,7v0.1c0,5.2-3,8.4-7.5,9.7l6.3,7.9
			c0.6,0.7,0.9,1.3,0.9,2.2c0,1.6-1.4,2.7-2.8,2.7c-1.3,0-2.1-0.6-2.8-1.5l-7.9-10.1h-0.1H214v8.8c0,1.6-1.3,2.8-2.8,2.8
			c-1.6,0-2.9-1.3-2.9-2.8V77.8z"/>
		<path class="st1" d="M249.9,77.6c0-1.6,1.3-2.8,2.9-2.8c1.6,0,2.8,1.3,2.8,2.8v13.8l15.5-15.6c0.7-0.7,1.4-1.1,2.4-1.1
			c1.6,0,2.7,1.3,2.7,2.7c0,0.9-0.4,1.5-1,2.1L265,89.3l11,13.7c0.5,0.6,0.8,1.2,0.8,2.1c0,1.6-1.3,2.8-2.9,2.8
			c-1.1,0-1.8-0.6-2.4-1.3L261,93.1l-5.3,5.1v6.8c0,1.6-1.3,2.8-2.8,2.8c-1.6,0-2.9-1.3-2.9-2.8V77.6z"/>
		<path class="st1" d="M283.9,72.5H282c-0.3,0-0.6-0.3-0.6-0.6c0-0.3,0.3-0.6,0.6-0.6h5c0.3,0,0.6,0.3,0.6,0.6
			c0,0.3-0.3,0.6-0.6,0.6h-1.9v5.7c0,0.4-0.3,0.7-0.7,0.7c-0.4,0-0.7-0.3-0.7-0.7V72.5z"/>
		<path class="st1" d="M288.5,71.9c0-0.4,0.3-0.7,0.7-0.7h0.1c0.3,0,0.5,0.2,0.6,0.4l2.3,3.6l2.3-3.6c0.1-0.2,0.3-0.3,0.6-0.3h0.1
			c0.4,0,0.7,0.3,0.7,0.7v6.3c0,0.4-0.3,0.7-0.7,0.7c-0.4,0-0.7-0.3-0.7-0.7v-4.5l-1.9,2.8c-0.1,0.2-0.3,0.3-0.6,0.3
			c-0.2,0-0.4-0.1-0.6-0.3l-1.8-2.8v4.5c0,0.4-0.3,0.7-0.7,0.7s-0.6-0.3-0.6-0.7V71.9z"/>
	</g>
	<rect x="0" y="64" class="st0" width="276.6" height="1.6"/>
</g>
</svg>
